<?xml version="1.0" encoding="UTF-8" standalone="no"?>
<!-- Created with Inkscape (http://www.inkscape.org/) -->

<svg
   width="150"
   height="100"
   viewBox="0 0 150 100"
   version="1.1"
   id="svg1"
   sodipodi:docname="default.svg"
   inkscape:version="1.3.2 (091e20e, 2023-11-25)"
   xmlns:inkscape="http://www.inkscape.org/namespaces/inkscape"
   xmlns:sodipodi="http://sodipodi.sourceforge.net/DTD/sodipodi-0.dtd"
   xmlns="http://www.w3.org/2000/svg"
   xmlns:svg="http://www.w3.org/2000/svg"
   xmlns:rdf="http://www.w3.org/1999/02/22-rdf-syntax-ns#"
   xmlns:cc="http://creativecommons.org/ns#"
   xmlns:dc="http://purl.org/dc/elements/1.1/">
  <title
     id="title1">isometric floor tile</title>
  <sodipodi:namedview
     id="namedview1"
     pagecolor="#ffffff"
     bordercolor="#000000"
     borderopacity="0.25"
     inkscape:showpageshadow="2"
     inkscape:pageopacity="0.0"
     inkscape:pagecheckerboard="0"
     inkscape:deskcolor="#d1d1d1"
     inkscape:document-units="px"
     inkscape:zoom="5.4017383"
     inkscape:cx="63.22039"
     inkscape:cy="65.441897"
     inkscape:window-width="1568"
     inkscape:window-height="930"
     inkscape:window-x="1440"
     inkscape:window-y="25"
     inkscape:window-maximized="0"
     inkscape:current-layer="layer3" />
  <defs
     id="defs1" />
  <g
     inkscape:label="Layer 1"
     inkscape:groupmode="layer"
     id="layer1"
     style="display:none">
    <path
       id="path375"
       d="M 150.16337,43.55285 75.763093,87.165544 0.89340996,43.562134 75.293686,0.44285368 150.16337,44.050243"
       style="display:inline;fill:#dbb100;fill-opacity:1;fill-rule:nonzero;stroke:none;stroke-width:0.132061"
       inkscape:export-filename="path375.svg"
       inkscape:export-xdpi="95.133247"
       inkscape:export-ydpi="95.133247"
       sodipodi:nodetypes="ccccc" />
    <path
       id="path376"
       d="M 75.761778,87.165544 V 100.42934 L 0.89340996,56.827259 V 43.562134 L 75.761778,87.165544"
       style="display:inline;fill:#f2d800;fill-opacity:1;fill-rule:nonzero;stroke:none;stroke-width:0.132061"
       sodipodi:nodetypes="ccccc" />
    <path
       id="path377"
       d="M 75.760464,87.165544 V 100.42934 L 150.16337,56.816648 V 43.55285 L 75.760464,87.165544"
       style="display:inline;fill:#c49e00;fill-opacity:1;fill-rule:nonzero;stroke:none;stroke-width:0.132061"
       sodipodi:nodetypes="ccccc" />
    <path
       id="path378"
       d="m 75.761778,93.797443 v 6.631897 L 0.89340996,56.827259 V 50.19536 L 75.761778,93.797443"
       style="display:inline;fill:#9e7363;fill-opacity:1;fill-rule:nonzero;stroke:none;stroke-width:0.132061"
       sodipodi:nodetypes="ccccc" />
    <path
       id="path379"
       d="m 75.760464,93.797443 v 6.631897 L 150.16337,56.816648 V 50.18475 L 75.760464,93.797443"
       style="display:inline;fill:#75554a;fill-opacity:1;fill-rule:nonzero;stroke:none;stroke-width:0.132061"
       sodipodi:nodetypes="ccccc" />
    <path
       id="path380"
       d="m 48.562497,36.084005 c 2.28129,0.874085 4.394276,3.004251 6.008929,5.871884 0.134116,-1.721641 -0.02761,-6.078799 -0.48913,-7.502004 1.454241,1.111506 2.361497,5.56151 2.611321,7.618725 1.717213,-3.062611 3.980094,-5.325414 6.396815,-6.2247 -2.348348,2.620926 -4.232548,6.288366 -5.444853,10.465137 l -4.011651,-0.4324 c -1.120264,-3.906189 -2.913739,-7.300395 -5.071431,-9.796642"
       style="display:inline;fill:#f2d800;fill-opacity:1;fill-rule:nonzero;stroke:none;stroke-width:0.132061"
       sodipodi:nodetypes="cccccccc" />
    <path
       id="path381"
       d="m 54.571426,44.47601 c 0.134116,-0.725529 0.406293,-2.280046 1.888145,-3.900882 -0.632449,2.013444 -0.01578,3.083833 0.234046,3.948632 1.717213,-1.287915 3.980094,-2.242908 6.396815,-2.622253 -2.348348,1.103548 -4.232548,2.651433 -5.444853,4.41154 l -4.011651,-0.181714 c -1.120264,-1.646038 -2.913739,-3.077201 -5.071431,-4.130347 2.28129,0.367407 4.394276,1.265366 6.008929,2.475024"
       style="display:inline;fill:#dbb100;fill-opacity:1;fill-rule:nonzero;stroke:none;stroke-width:0.132061"
       sodipodi:nodetypes="cccccccc" />
    <path
       id="path382"
       d="m 106.90828,51.834765 c -2.32599,1.665934 -4.52708,4.14759 -6.43495,7.147861 -2.160316,0.358123 -4.474477,0.285172 -6.530925,-0.258644 -1.086078,-5.851987 -2.858514,-11.01691 -5.126655,-14.716184 2.386479,1.302506 4.582302,4.50306 6.207473,8.809815 0.310309,-2.867633 1.245177,-5.267054 2.732289,-6.79637 -0.506223,1.982938 -0.690304,4.266964 -0.608782,6.671691 1.700118,-3.97914 3.88017,-6.915745 6.18381,-8.098875 -2.23133,3.45124 -4.123422,8.158562 -5.36465,13.600697 2.64025,-3.709884 5.92478,-6.072166 8.94239,-6.359991"
       style="display:inline;fill:#f2d800;fill-opacity:1;fill-rule:nonzero;stroke:none;stroke-width:0.132061"
       sodipodi:nodetypes="cccccccccc" />
    <path
       id="path383"
       d="m 106.90828,51.834765 c -2.32599,1.665934 -4.52708,4.14759 -6.43495,7.147861 -2.160316,0.358123 -4.474477,0.285172 -6.530925,-0.258644 -1.086078,-5.851987 -2.858514,-11.01691 -5.126655,-14.716184 2.386479,1.302506 4.582302,4.50306 6.207473,8.809815 0.310309,-2.867633 1.245177,-5.267054 2.732289,-6.79637 -0.506223,1.982938 -0.690304,4.266964 -0.608782,6.671691 1.700118,-3.97914 3.88017,-6.915745 6.18381,-8.098875 -2.23133,3.45124 -4.123422,8.158562 -5.36465,13.600697 2.64025,-3.709884 5.92478,-6.072166 8.94239,-6.359991"
       style="display:inline;fill:#f2d800;fill-opacity:1;fill-rule:nonzero;stroke:none;stroke-width:0.132061"
       sodipodi:nodetypes="cccccccccc" />
    <path
       id="path384"
       d="m 106.90828,54.283262 c -2.32599,1.111507 -4.52708,2.769481 -6.43495,4.769662 -2.160316,0.242728 -4.474477,0.193652 -6.530925,-0.168449 -1.086078,-3.908842 -2.858514,-7.354777 -5.126655,-9.825822 2.386479,0.867453 4.582302,4.647634 6.207473,7.523226 0.310309,-1.915292 0.290586,-4.266964 -0.01315,-6.577518 1.629117,1.60094 2.055133,4.88771 2.136655,6.496609 1.700115,-2.658065 2.930832,-3.943327 5.644712,-8.446387 0.12097,3.042716 -2.41409,7.218159 -4.524448,9.427907 2.172148,-0.725529 5.623678,-3.006902 8.641288,-3.199228"
       style="display:inline;fill:#dbb100;fill-opacity:1;fill-rule:nonzero;stroke:none;stroke-width:0.132061"
       sodipodi:nodetypes="cccccccccc" />
    <path
       id="path385"
       d="m 64.874702,7.1026071 c -2.277344,0.8767367 -4.392961,3.0069029 -6.006299,5.8718829 -0.134116,-1.718988 0.0263,-6.0761461 0.490444,-7.499351 -1.455555,1.1128321 -2.360181,5.56151 -2.61132,7.617399 -1.717213,-3.061284 -3.981409,-5.3227625 -6.39813,-6.2233741 2.347033,2.6195999 4.232548,6.2883671 5.443538,10.4624841 l 4.015596,-0.428421 C 60.92485,12.994386 62.71964,9.6015067 64.874702,7.1026071"
       style="display:inline;fill:#f2d800;fill-opacity:1;fill-rule:nonzero;stroke:none;stroke-width:0.132061"
       sodipodi:nodetypes="cccccccc" />
    <path
       id="path386"
       d="m 58.868403,15.497265 c -0.134116,-0.726857 -0.406293,-2.281373 -1.88946,-3.90221 0.632449,2.014771 0.01972,3.082507 -0.231416,3.947306 -1.717213,-1.287914 -3.981409,-2.240255 -6.39813,-2.6196 2.347033,1.103548 4.232548,2.651433 5.443538,4.408887 l 4.015596,-0.180387 c 1.116319,-1.647364 2.911109,-3.077202 5.066171,-4.129021 -2.277344,0.368734 -4.392961,1.26404 -6.006299,2.475025"
       style="display:inline;fill:#dbb100;fill-opacity:1;fill-rule:nonzero;stroke:none;stroke-width:0.132061"
       sodipodi:nodetypes="cccccccc" />
    <path
       id="path387"
       d="m 93.621578,27.636292 c -2.327309,1.302506 -4.528392,3.241673 -6.436259,5.585386 -2.156378,0.279866 -4.473169,0.222832 -6.530931,-0.20161 -1.086078,-4.573357 -2.8572,-8.606879 -5.127971,-11.499713 2.387794,1.017333 4.583617,3.518886 6.210104,6.883911 0.310308,-2.242908 1.245176,-4.115756 2.732288,-5.310824 -0.506223,1.550537 -0.691619,3.334519 -0.611412,5.213999 1.702749,-3.109034 3.880165,-5.404998 6.183807,-6.328158 -2.228695,2.695203 -4.12473,6.375907 -5.362017,10.628281 2.640248,-2.899466 5.924778,-4.747113 8.942391,-4.971272"
       style="display:inline;fill:#f2d800;fill-opacity:1;fill-rule:nonzero;stroke:none;stroke-width:0.132061"
       sodipodi:nodetypes="cccccccccc" />
    <path
       id="path388"
       d="m 93.621578,27.636292 c -2.327309,1.302506 -4.528392,3.241673 -6.436259,5.585386 -2.156378,0.279866 -4.473169,0.222832 -6.530931,-0.20161 -1.086078,-4.573357 -2.8572,-8.606879 -5.127971,-11.499713 2.387794,1.017333 4.583617,3.518886 6.210104,6.883911 0.310308,-2.242908 1.245176,-4.115756 2.732288,-5.310824 -0.506223,1.550537 -0.691619,3.334519 -0.611412,5.213999 1.702749,-3.109034 3.880165,-5.404998 6.183807,-6.328158 -2.228695,2.695203 -4.12473,6.375907 -5.362017,10.628281 2.640248,-2.899466 5.924778,-4.747113 8.942391,-4.971272"
       style="display:inline;fill:#f2d800;fill-opacity:1;fill-rule:nonzero;stroke:none;stroke-width:0.132061"
       sodipodi:nodetypes="cccccccccc" />
    <path
       id="path389"
       d="m 93.621578,29.550258 c -2.327309,0.870106 -4.528392,2.164652 -6.436259,3.728454 -2.156378,0.187019 -4.473169,0.148555 -6.530931,-0.135291 -1.086078,-3.053326 -2.8572,-5.745877 -5.127971,-7.677086 2.387794,0.679107 4.583617,3.632954 6.210104,5.879842 0.310308,-1.496156 0.28927,-3.334519 -0.01315,-5.141048 1.627802,1.250776 2.053818,3.8213 2.134025,5.076055 1.702749,-2.074458 2.932147,-3.078527 5.647342,-6.596086 0.120967,2.375546 -2.414091,5.637113 -4.523133,7.365387 2.17084,-0.567691 5.622359,-2.350346 8.639972,-2.500227"
       style="display:inline;fill:#dbb100;fill-opacity:1;fill-rule:nonzero;stroke:none;stroke-width:0.132061"
       sodipodi:nodetypes="cccccccccc" />
    <path
       id="path390"
       d="m 55.827122,66.296284 c 2.325994,1.665934 4.528392,4.144938 6.437575,7.143882 2.157692,0.360775 4.469224,0.285172 6.5283,-0.258644 1.087393,-5.851987 2.85983,-11.015584 5.129286,-14.71751 -2.390423,1.306484 -4.584932,4.505712 -6.210104,8.813794 -0.311623,-2.870287 -1.245176,-5.269707 -2.733602,-6.797696 0.506222,1.984263 0.692933,4.266963 0.611412,6.673015 -1.70012,-3.979138 -3.87885,-6.919722 -6.185121,-8.100201 2.230009,3.449914 4.126044,8.159889 5.364646,13.600699 -2.640248,-3.707232 -5.924779,-6.072167 -8.942392,-6.357339"
       style="display:inline;fill:#f2d800;fill-opacity:1;fill-rule:nonzero;stroke:none;stroke-width:0.132061"
       sodipodi:nodetypes="cccccccccc" />
    <path
       id="path391"
       d="m 55.827122,66.296284 c 2.325994,1.665934 4.528392,4.144938 6.437575,7.143882 2.157692,0.360775 4.469224,0.285172 6.5283,-0.258644 1.087393,-5.851987 2.85983,-11.015584 5.129286,-14.71751 -2.390423,1.306484 -4.584932,4.505712 -6.210104,8.813794 -0.311623,-2.870287 -1.245176,-5.269707 -2.733602,-6.797696 0.506222,1.984263 0.692933,4.266963 0.611412,6.673015 -1.70012,-3.979138 -3.87885,-6.919722 -6.185121,-8.100201 2.230009,3.449914 4.126044,8.159889 5.364646,13.600699 -2.640248,-3.707232 -5.924779,-6.072167 -8.942392,-6.357339"
       style="display:inline;fill:#f2d800;fill-opacity:1;fill-rule:nonzero;stroke:none;stroke-width:0.132061"
       sodipodi:nodetypes="cccccccccc" />
    <path
       id="path392"
       d="m 55.827122,68.740802 c 2.325994,1.114159 4.528392,2.766829 6.437575,4.772315 2.157692,0.241401 4.469224,0.192325 6.5283,-0.171103 1.087393,-3.908842 2.85983,-7.354776 5.129286,-9.825821 -2.390423,0.867451 -4.584932,4.650287 -6.210104,7.523226 -0.311623,-1.911313 -0.28927,-4.266964 0.01447,-6.580171 -1.629117,1.606246 -2.055133,4.893016 -2.136654,6.496609 -1.70012,-2.65276 -2.930833,-3.939348 -5.644712,-8.442407 -0.120971,3.044041 2.412772,7.218158 4.5205,9.427907 -2.170842,-0.72553 -5.621045,-3.005577 -8.638658,-3.200555"
       style="display:inline;fill:#dbb100;fill-opacity:1;fill-rule:nonzero;stroke:none;stroke-width:0.132061"
       sodipodi:nodetypes="cccccccccc" />
    <path
       id="path393"
       d="m 111.49058,36.83739 c 2.27997,0.874083 4.39296,3.006902 6.00894,5.873209 0.13279,-1.720315 -0.0289,-6.077472 -0.49046,-7.500677 1.45294,1.112832 2.35756,5.56151 2.6087,7.616072 1.71852,-3.059959 3.9801,-5.322762 6.39944,-6.224701 -2.34966,2.622253 -4.23123,6.289694 -5.44353,10.466463 l -4.01429,-0.429747 c -1.11763,-3.908841 -2.91505,-7.304373 -5.0688,-9.800619"
       style="display:inline;fill:#f2d800;fill-opacity:1;fill-rule:nonzero;stroke:none;stroke-width:0.132061"
       sodipodi:nodetypes="cccccccc" />
    <path
       id="path394"
       d="m 117.49952,45.230721 c 0.13279,-0.725531 0.40234,-2.280047 1.88682,-3.90221 -0.63113,2.016098 -0.0197,3.083833 0.23142,3.948633 1.71852,-1.287915 3.9801,-2.242908 6.39944,-2.622253 -2.34966,1.107527 -4.23123,2.651434 -5.44353,4.412865 l -4.01429,-0.181713 c -1.11763,-1.647364 -2.91505,-3.077202 -5.0688,-4.131674 2.27997,0.37006 4.39296,1.266694 6.00894,2.476352"
       style="display:inline;fill:#dbb100;fill-opacity:1;fill-rule:nonzero;stroke:none;stroke-width:0.132061"
       sodipodi:nodetypes="cccccccc" />
    <path
       id="path395"
       d="m 8.803633,41.559301 c 2.32468,1.66726 4.528392,4.148917 6.43626,7.149188 2.157692,0.355469 4.471853,0.282519 6.532245,-0.261297 1.083449,-5.853315 2.855885,-11.014258 5.126656,-14.716184 -2.387793,1.303831 -4.586246,4.503059 -6.208789,8.809815 -0.311622,-2.86896 -1.247805,-5.268381 -2.732288,-6.793718 0.503593,1.981611 0.688989,4.264311 0.610098,6.670364 -1.70275,-3.979139 -3.88148,-6.91707 -6.185122,-8.097549 2.230011,3.448587 4.12473,8.157236 5.364646,13.599372 -2.640247,-3.708558 -5.926093,-6.073493 -8.943706,-6.359991"
       style="display:inline;fill:#f2d800;fill-opacity:1;fill-rule:nonzero;stroke:none;stroke-width:0.132061"
       sodipodi:nodetypes="cccccccccc" />
    <path
       id="path396"
       d="m 8.803633,41.559301 c 2.32468,1.66726 4.528392,4.148917 6.43626,7.149188 2.157692,0.355469 4.471853,0.282519 6.532245,-0.261297 1.083449,-5.853315 2.855885,-11.014258 5.126656,-14.716184 -2.387793,1.303831 -4.586246,4.503059 -6.208789,8.809815 -0.311622,-2.86896 -1.247805,-5.268381 -2.732288,-6.793718 0.503593,1.981611 0.688989,4.264311 0.610098,6.670364 -1.70275,-3.979139 -3.88148,-6.91707 -6.185122,-8.097549 2.230011,3.448587 4.12473,8.157236 5.364646,13.599372 -2.640247,-3.708558 -5.926093,-6.073493 -8.943706,-6.359991"
       style="display:inline;fill:#f2d800;fill-opacity:1;fill-rule:nonzero;stroke:none;stroke-width:0.132061"
       sodipodi:nodetypes="cccccccccc" />
    <path
       id="path397"
       d="m 8.803633,44.007798 c 2.32468,1.112833 4.528392,2.768155 6.43626,4.770988 2.157692,0.240076 4.471853,0.188347 6.532245,-0.172429 1.083449,-3.907515 2.855885,-7.354776 5.126656,-9.824495 -2.387793,0.868778 -4.586246,4.648961 -6.208789,7.523227 -0.311622,-1.913967 -0.290585,-4.266965 0.01183,-6.578845 -1.629117,1.603593 -2.055133,4.890362 -2.134024,6.495283 -1.70275,-2.654086 -2.932147,-3.938022 -5.646027,-8.441082 -0.120968,3.040062 2.412775,7.216833 4.523132,9.426581 -2.17084,-0.724203 -5.623674,-3.008229 -8.641287,-3.199228"
       style="display:inline;fill:#dbb100;fill-opacity:1;fill-rule:nonzero;stroke:none;stroke-width:0.132061"
       sodipodi:nodetypes="cccccccccc" />
  </g>
  <g
     inkscape:groupmode="layer"
     id="layer3"
     inkscape:label="Layer 2"
     transform="matrix(1.0012367,0,0,1,-2.69946e-4,0)">
    <path
       id="path571"
       d="M 149.91482,43.46397 75.303909,86.742728 0.21828414,43.474367 74.833149,0.18995152 149.91482,43.46397"
       style="fill:#a39b99;fill-opacity:1;fill-rule:nonzero;stroke:none;stroke-width:0.131744" />
    <path
       id="path572"
       d="M 75.30259,86.742728 V 99.905001 L 0.21828414,56.636646 V 43.474367 L 75.30259,86.742728"
       style="fill:#cec9c8;fill-opacity:1;fill-rule:nonzero;stroke:none;stroke-width:0.131744" />
    <path
       id="path573"
       d="M 75.301272,86.742728 V 99.905001 L 149.91482,56.626248 V 43.46397 L 75.301272,86.742728"
       style="fill:#5b5b5b;fill-opacity:1;fill-rule:nonzero;stroke:none;stroke-width:0.131744" />
    <path
       id="path574"
       d="m 75.30259,93.323861 v 6.58114 L 0.21828414,56.636646 V 50.055507 L 75.30259,93.323861"
       style="fill:#9e7363;fill-opacity:1;fill-rule:nonzero;stroke:none;stroke-width:0.131744" />
    <path
       id="path575"
       d="m 75.301272,93.323861 v 6.58114 L 149.91482,56.626248 V 50.045109 L 75.301272,93.323861"
       style="fill:#75554a;fill-opacity:1;fill-rule:nonzero;stroke:none;stroke-width:0.131744" />
    <path
       id="path576"
       d="m 0.21828414,43.415137 5.52253386,-6.39555 15.663003,-5.906046 3.135766,-4.282874 15.841022,-0.788683 4.548046,8.027936 9.594545,6.87729 3.262357,8.598653 L 33.626449,55.962474 24.216516,47.978236 10.229525,49.16442 0.21828414,43.415137"
       style="fill:#727272;fill-opacity:1;fill-rule:nonzero;stroke:none;stroke-width:0.131744" />
    <path
       id="path577"
       d="M 5.740818,37.019587 0.21828414,43.415137 10.229525,49.16442 16.057988,40.343062 5.740818,37.019587"
       style="fill:#a39b99;fill-opacity:1;fill-rule:nonzero;stroke:none;stroke-width:0.131744" />
    <path
       id="path578"
       d="m 23.981795,48.003507 6.817455,-6.486633 2.41446,2.199548 -1.103716,5.329802 2.451383,-4.102946 2.030731,1.8493 -0.667241,3.243317 4.710242,1.746635 1.669419,-2.916893 3.694876,1.429424 -0.220216,2.440154 -12.152739,3.227259 -9.644654,-7.958967"
       style="fill:#a39b99;fill-opacity:1;fill-rule:nonzero;stroke:none;stroke-width:0.131744" />
    <path
       id="path579"
       d="M 57.789513,49.486765 36.350794,54.032884 V 52.044195 L 34.991258,54.032884 24.46838,47.258523 27.513157,46.547891 23.22093,45.997708 10.937644,47.646679 c 0,0 -6.1528519,-2.437655 -10.67980016,-4.410417 l -0.0395597,0.178875 10.01124086,5.749283 13.342168,-1.186184 10.054756,7.984238 24.159108,-6.416611 0.004,-0.0591"
       style="fill:#5b5b5b;fill-opacity:1;fill-rule:nonzero;stroke:none;stroke-width:0.131744" />
    <path
       id="path580"
       d="m 5.740818,37.019587 15.663003,-4.770274 7.944906,4.134272 -13.290739,3.959477 -5.229793,-2.246801 -5.087377,-1.076674"
       style="fill:#cec9c8;fill-opacity:1;fill-rule:nonzero;stroke:none;stroke-width:0.131744" />
    <path
       id="path581"
       d="m 24.539587,26.830667 15.841022,-0.788683 0.643503,4.343551 -11.060891,1.263842 -5.423634,-4.81871"
       style="fill:#cec9c8;fill-opacity:1;fill-rule:nonzero;stroke:none;stroke-width:0.131744" />
    <path
       id="path582"
       d="m 44.928655,34.06992 -4.712879,6.273142 -9.416526,1.173812 5.792858,5.275704 8.194132,-1.711096 0.796468,-2.852397 6.532625,-0.684439 -7.186678,-7.474726"
       style="fill:#cec9c8;fill-opacity:1;fill-rule:nonzero;stroke:none;stroke-width:0.131744" />
    <path
       id="path583"
       d="m 31.87791,36.381084 -1.914689,-4.731707 -5.423634,-4.81871 -3.135766,4.282874 0.272962,1.135772 7.671944,4.134272 0.861083,-1.962496 1.6681,1.959995"
       style="fill:#a39b99;fill-opacity:1;fill-rule:nonzero;stroke:none;stroke-width:0.131744" />
    <path
       id="path584"
       d="m 41.024112,30.385535 1.041739,2.593364 -2.360395,2.261279 v 2.856083 l 2.529183,-0.43962 2.694016,-3.586721 -4.548046,-8.027936 0.643503,4.343551"
       style="fill:#5b5b5b;fill-opacity:1;fill-rule:nonzero;stroke:none;stroke-width:0.131744" />
    <path
       id="path585"
       d="m 53.592229,50.659524 v -1.554202 l -1.868537,-1.903397 0.237359,-3.261744 1.172285,-1.023763 1.389864,-1.969208 3.262357,8.598653 -4.193328,1.113661"
       style="fill:#5b5b5b;fill-opacity:1;fill-rule:nonzero;stroke:none;stroke-width:0.131744" />
    <path
       id="path586"
       d="m 5.740818,37.019587 10.31717,2.412514 9.024885,-1.77546 -8.463138,3.290569 -3.677733,4.771327 2.38545,-5.287551 -9.586634,-3.411399"
       style="fill:#efefef;fill-opacity:1;fill-rule:nonzero;stroke:none;stroke-width:0.131744" />
    <path
       id="path587"
       d="m 24.890349,26.830667 4.848701,5.765209 1.466345,1.197505 -0.538012,-1.541435 6.117249,-1.381513 -6.821411,0.778944 -5.072872,-4.81871"
       style="fill:#efefef;fill-opacity:1;fill-rule:nonzero;stroke:none;stroke-width:0.131744" />
    <path
       id="path588"
       d="m 34.561377,44.943278 1.455797,2.091486 0.129228,4.560598 1.164374,-3.818114 7.475464,-2.695766 -8.194132,1.711096 -2.030731,-1.8493"
       style="fill:#efefef;fill-opacity:1;fill-rule:nonzero;stroke:none;stroke-width:0.131744" />
    <path
       id="path589"
       d="M 47.320698,68.186545 58.611035,55.962474 83.43079,56.285476 92.786658,74.450342 75.412039,84.32718 47.320698,68.186545"
       style="fill:#727272;fill-opacity:1;fill-rule:nonzero;stroke:none;stroke-width:0.131744" />
    <path
       id="path590"
       d="m 60.374079,56.925032 -5.513303,5.735858 11.27847,5.415092 13.062612,-2.547163 2.724344,-8.603787 H 60.374079"
       style="fill:#cec9c8;fill-opacity:1;fill-rule:nonzero;stroke:none;stroke-width:0.131744" />
    <path
       id="path591"
       d="m 47.320698,68.186545 7.540078,-5.525655 11.27847,5.415092 1.50195,6.37436 6.689545,-7.973444 1.081298,17.850282 -28.091341,-16.140635"
       style="fill:#a39b99;fill-opacity:1;fill-rule:nonzero;stroke:none;stroke-width:0.131744" />
    <path
       id="path592"
       d="m 80.693259,60.817117 4.991114,17.670359 7.102285,-4.037134 -9.355868,-18.164866 -1.504588,0.639556 -1.232943,3.892085"
       style="fill:#5b5b5b;fill-opacity:1;fill-rule:nonzero;stroke:none;stroke-width:0.131744" />
    <path
       id="path593"
       d="M 92.786658,74.450342 78.50297,81.088079 v -2.600603 l -3.152908,4.81871 -12.523282,-8.767393 2.849617,-1.220538 H 60.292322 L 47.320698,68.186545 75.412039,84.32718 92.786658,74.450342"
       style="fill:#5b5b5b;fill-opacity:1;fill-rule:nonzero;stroke:none;stroke-width:0.131744" />
    <path
       id="path594"
       d="m 54.860776,62.66089 10.285521,6.462941 2.494899,5.326511 V 69.30942 l 6.689545,-2.832522 0.425925,7.014045 0.655373,-5.442733 3.6118,-0.658114 1.66942,3.477737 -0.92306,-4.958494 2.156003,-8.984307 -3.545867,8.762129 -2.968296,0.579008 v -1.123926 l -9.272793,2.933739 -11.27847,-5.415092"
       style="fill:#efefef;fill-opacity:1;fill-rule:nonzero;stroke:none;stroke-width:0.131744" />
    <path
       id="path595"
       d="m 112.28168,44.772037 9.09609,-8.041889 19.06118,-1.250417 6.40999,8.342121 -13.81688,3.732822 -20.75038,-2.782637"
       style="fill:#727272;fill-opacity:1;fill-rule:nonzero;stroke:none;stroke-width:0.131744" />
    <path
       id="path596"
       d="m 122.69379,36.853611 -4.42673,3.463258 8.4038,0.53939 10.10882,-1.788754 2.4672,-3.406266 -16.55309,1.192372"
       style="fill:#cec9c8;fill-opacity:1;fill-rule:nonzero;stroke:none;stroke-width:0.131744" />
    <path
       id="path597"
       d="m 112.28168,44.772037 5.98538,-4.455168 8.4038,0.53939 0.8835,2.681287 5.44605,-4.002648 0.0317,8.019776 -20.75038,-2.782637"
       style="fill:#a39b99;fill-opacity:1;fill-rule:nonzero;stroke:none;stroke-width:0.131744" />
    <path
       id="path598"
       d="m 138.12867,37.168188 3.04213,7.735472 5.67814,-1.081808 -6.40999,-8.342121 -1.19207,0.181508 -1.11821,1.506949"
       style="fill:#5b5b5b;fill-opacity:1;fill-rule:nonzero;stroke:none;stroke-width:0.131744" />
    <path
       id="path599"
       d="m 146.84894,43.821852 -11.30616,2.090038 0.12132,-1.203164 -2.63204,2.35131 -9.15148,-2.821203 2.22326,-0.978879 -4.10234,0.843702 -9.71982,0.668381 20.75038,2.782637 13.81688,-3.732822"
       style="fill:#5b5b5b;fill-opacity:1;fill-rule:nonzero;stroke:none;stroke-width:0.131744" />
    <path
       id="path600"
       d="m 118.26706,40.316869 7.60733,1.121426 1.67997,2.099251 0.21363,-2.306031 5.23242,-1.696617 0.0237,3.019558 0.73977,-2.390269 2.79687,-0.321292 1.12482,1.497736 -0.48658,-2.10965 2.04786,-3.569742 -3.10675,3.466945 -2.30237,0.280225 0.0462,-0.469893 -7.21305,1.917743 -8.4038,-0.53939"
       style="fill:#efefef;fill-opacity:1;fill-rule:nonzero;stroke:none;stroke-width:0.131744" />
    <path
       id="path601"
       d="m 62.495797,19.420304 -3.36653,-5.053131 3.713337,-6.9996993 15.127629,-4.347632 12.156694,5.4926189 2.659731,9.6110954 -13.868312,4.576919 -16.422549,-3.280171"
       style="fill:#727272;fill-opacity:1;fill-rule:nonzero;stroke:none;stroke-width:0.131744" />
    <path
       id="path602"
       d="m 70.761137,14.692677 -8.212593,-6.7698871 -2.620171,4.9374341 8.009521,3.434039 9.651247,0.455415 4.942324,-3.889454 -11.770328,1.832453"
       style="fill:#a39b99;fill-opacity:1;fill-rule:nonzero;stroke:none;stroke-width:0.131744" />
    <path
       id="path603"
       d="M 66.80253,8.9695859 72.462204,12.860224 81.578077,8.9695859 87.463241,10.914577 90.126927,8.5124606 78.462092,3.2439947 66.80253,6.2291995 v 2.7403864"
       style="fill:#cec9c8;fill-opacity:1;fill-rule:nonzero;stroke:none;stroke-width:0.131744" />
    <path
       id="path604"
       d="M 92.786658,18.123556 91.462727,13.332751 80.628644,18.809442 H 65.74233 l -6.613063,-4.442269 3.36653,5.053131 16.422549,3.280171 13.868312,-4.576919"
       style="fill:#5b5b5b;fill-opacity:1;fill-rule:nonzero;stroke:none;stroke-width:0.131744" />
    <path
       id="path605"
       d="m 69.624455,13.081219 -5.169133,-4.8263448 6.32955,4.0829398 1.123496,0.52241 9.806849,-3.3286081 4.569145,2.4350211 3.481254,-2.1547969 -3.810917,4.1882379 -4.736616,-2.870562 -9.73696,3.110116 -1.856668,-1.158413"
       style="fill:#a39b99;fill-opacity:1;fill-rule:nonzero;stroke:none;stroke-width:0.131744" />
    <path
       id="path606"
       d="m 70.28642,12.860224 -5.831098,-4.6053498 6.32955,4.0829398 0.861084,1.222644 9.407296,-3.510643 4.672,2.810409 4.040364,-3.0483839 -3.810917,4.1882379 -4.736616,-2.870562 -9.73696,3.110116 -1.194703,-1.379408"
       style="fill:#5b5b5b;fill-opacity:1;fill-rule:nonzero;stroke:none;stroke-width:0.131744" />
    <path
       id="path607"
       d="m 67.937894,16.294263 0.251862,-1.579473 2.806102,-0.35275 0.708119,-1.595399 -4.901447,-3.7970551 5.485611,3.3682281 9.289936,-3.3682281 -9.08027,3.8248281 -1.033826,1.739789 3.522131,-0.49964 -3.755533,0.800003 -2.872034,0.181508 -0.420651,1.278189"
       style="fill:#efefef;fill-opacity:1;fill-rule:nonzero;stroke:none;stroke-width:0.131744" />
    <path
       id="path608"
       d="M 83.844847,12.720836 85.96261,14.239632 89.765616,9.8118401 85.96261,13.905441 83.844847,12.720836"
       style="fill:#efefef;fill-opacity:1;fill-rule:nonzero;stroke:none;stroke-width:0.131744" />
    <path
       id="path609"
       d="M 59.129267,14.367173 63.003481,8.05336 66.80253,6.2291995 62.842604,7.3674737 59.129267,14.367173"
       style="fill:#efefef;fill-opacity:1;fill-rule:nonzero;stroke:none;stroke-width:0.131744" />
    <path
       id="path610"
       d="m 72.037597,8.2548742 4.095747,-2.4735867 4.97661,0.7794701 -4.847382,-0.4513345 -4.224975,2.1454511"
       style="fill:#efefef;fill-opacity:1;fill-rule:nonzero;stroke:none;stroke-width:0.131744" />
    <path
       id="path611"
       d="m 61.621528,48.969619 -1.640408,-5.371394 2.500173,-8.740017 9.867507,-5.067477 6.643392,5.247932 1.136681,11.219264 -9.172574,4.909661 -9.334771,-2.197969"
       style="fill:#727272;fill-opacity:1;fill-rule:nonzero;stroke:none;stroke-width:0.131744" />
    <path
       id="path612"
       d="m 62.266351,35.537382 -1.785461,6.146652 9.791026,2.532686 3.303235,-4.566126 -11.3088,-4.113212"
       style="fill:#a39b99;fill-opacity:1;fill-rule:nonzero;stroke:none;stroke-width:0.131744" />
    <path
       id="path613"
       d="m 64.534441,36.142979 2.920824,3.883925 5.873296,-4.795018 3.618394,2.350783 2.045237,-2.544006 -6.90053,-6.192983 -7.281622,4.17797 -0.275599,3.119329"
       style="fill:#cec9c8;fill-opacity:1;fill-rule:nonzero;stroke:none;stroke-width:0.131744" />
    <path
       id="path614"
       d="m 80.128873,46.257927 -0.669877,-5.648987 -7.398982,5.93079 -4.344974,0.331559 -4.329149,0.862261 -3.404771,-4.135325 1.640408,5.371394 9.334771,2.197969 9.172574,-4.909661"
       style="fill:#5b5b5b;fill-opacity:1;fill-rule:nonzero;stroke:none;stroke-width:0.131744" />
    <path
       id="path615"
       d="m 65.804307,40.545761 -2.517316,-4.913347 3.234665,3.937891 0.611856,0.500298 6.222741,-4.205217 2.716433,2.858716 2.533139,-2.249434 -2.907638,4.559413 -2.807419,-3.357828 -6.09615,4.027788 -0.990311,-1.15828"
       style="fill:#a39b99;fill-opacity:1;fill-rule:nonzero;stroke:none;stroke-width:0.131744" />
    <path
       id="path616"
       d="m 74.424365,39.511206 1.263273,1.8006 2.918187,-4.837138 -2.89577,4.451483 -1.28569,-1.414945"
       style="fill:#efefef;fill-opacity:1;fill-rule:nonzero;stroke:none;stroke-width:0.131744" />
    <path
       id="path617"
       d="m 59.98112,43.598225 2.523909,-7.985818 2.305011,-2.588757 -2.328747,1.834558 -2.500173,8.740017"
       style="fill:#efefef;fill-opacity:1;fill-rule:nonzero;stroke:none;stroke-width:0.131744" />
    <path
       id="path618"
       d="m 118.6587,52.190165 1.38459,-3.327029 -1.75645,-4.930721 -12.06571,-2.415541 -15.215977,6.192984 -0.688339,1.121426 11.896926,7.80273 16.44496,-4.443849"
       style="fill:#727272;fill-opacity:1;fill-rule:nonzero;stroke:none;stroke-width:0.131744" />
    <path
       id="path619"
       d="m 106.41365,49.940732 12.16989,-5.453 0.66196,2.868455 -6.05263,2.871483 -9.64993,0.454493 -4.942325,-3.889585 7.813035,3.148154"
       style="fill:#a39b99;fill-opacity:1;fill-rule:nonzero;stroke:none;stroke-width:0.131744" />
    <path
       id="path620"
       d="m 114.32823,45.534001 -9.61432,2.574805 -6.601198,-2.390269 -5.585829,1.074041 4.704966,-3.699785 8.075451,-1.966575 9.02093,1.667923 v 2.73986"
       style="fill:#cec9c8;fill-opacity:1;fill-rule:nonzero;stroke:none;stroke-width:0.131744" />
    <path
       id="path621"
       d="m 92.172164,52.732583 -1.85535,-3.901299 10.186626,3.912092 h 7.21964 l 7.69041,-1.163413 4.6298,-2.716827 -1.38459,3.327029 -16.44496,4.443849 -10.041576,-3.901431"
       style="fill:#5b5b5b;fill-opacity:1;fill-rule:nonzero;stroke:none;stroke-width:0.131744" />
    <path
       id="path622"
       d="m 105.47213,48.015354 8.8561,-2.481353 -9.44158,2.052525 -6.773938,-1.867989 6.565588,2.324457 0.79383,-0.02764"
       style="fill:#efefef;fill-opacity:1;fill-rule:nonzero;stroke:none;stroke-width:0.131744" />
    <path
       id="path623"
       d="m 93.604225,59.217638 -0.712075,-2.710114 1.363492,-3.98001 7.693048,-1.665422 9.22005,6.016608 0.37844,0.963611 -7.80908,5.404169 -10.133875,-4.028842"
       style="fill:#727272;fill-opacity:1;fill-rule:nonzero;stroke:none;stroke-width:0.131744" />
    <path
       id="path624"
       d="m 101.38166,57.5251 -7.342278,-4.554411 -0.56966,2.302345 3.647404,2.316824 6.031534,0.66996 3.29137,-2.805276 -5.05837,2.070558"
       style="fill:#a39b99;fill-opacity:1;fill-rule:nonzero;stroke:none;stroke-width:0.131744" />
    <path
       id="path625"
       d="m 96.64241,53.797411 5.89307,2.326038 4.2619,-1.479704 3.4562,1.350713 -2.75995,-3.334268 -4.94759,-2.057132 -5.749347,1.02929 -0.154283,2.165063"
       style="fill:#cec9c8;fill-opacity:1;fill-rule:nonzero;stroke:none;stroke-width:0.131744" />
    <path
       id="path626"
       d="m 110.21271,60.796058 1.33447,-2.953747 -6.58009,2.277074 -4.53354,-0.347484 -4.769583,-1.083387 -2.771817,-2.18099 0.712075,2.710114 10.133875,4.028842 6.47461,-2.450422"
       style="fill:#5b5b5b;fill-opacity:1;fill-rule:nonzero;stroke:none;stroke-width:0.131744" />
    <path
       id="path627"
       d="m 102.06736,56.013938 -5.42495,-2.216527 5.81,1.899317 4.34497,-1.052983 -4.2342,1.429292 -0.49582,-0.0591"
       style="fill:#efefef;fill-opacity:1;fill-rule:nonzero;stroke:none;stroke-width:0.131744" />
    <path
       id="path628"
       d="m 48.808143,25.565904 -0.279556,-0.868974 0.536694,-1.27661 3.034229,-0.531624 3.636854,1.928142 0.150327,0.306944 -3.080382,1.73321 -3.998166,-1.291088"
       style="fill:#727272;fill-opacity:1;fill-rule:nonzero;stroke:none;stroke-width:0.131744" />
    <path
       id="path629"
       d="m 51.875338,25.021906 -2.894452,-1.458116 -0.22549,0.73735 1.438654,0.743406 2.378857,0.214414 1.298876,-0.898721 -1.996445,0.661667"
       style="fill:#a39b99;fill-opacity:1;fill-rule:nonzero;stroke:none;stroke-width:0.131744" />
    <path
       id="path630"
       d="m 50.00812,23.828614 2.323472,0.744459 1.681288,-0.473579 1.363491,0.432908 -1.089211,-1.067329 -1.951612,-0.659694 -2.268089,0.330636 -0.05934,0.692599"
       style="fill:#cec9c8;fill-opacity:1;fill-rule:nonzero;stroke:none;stroke-width:0.131744" />
    <path
       id="path631"
       d="m 55.359228,26.071335 0.527463,-0.947553 -2.596435,0.729981 -1.788098,-0.110432 -1.880405,-0.347616 -1.093166,-0.698785 0.279556,0.868974 3.998166,1.291088 2.552919,-0.785657"
       style="fill:#5b5b5b;fill-opacity:1;fill-rule:nonzero;stroke:none;stroke-width:0.131744" />
    <path
       id="path632"
       d="m 52.146981,24.539115 -2.138861,-0.710501 2.290506,0.609282 1.714254,-0.338402 -1.66942,0.459232 -0.196479,-0.01962"
       style="fill:#efefef;fill-opacity:1;fill-rule:nonzero;stroke:none;stroke-width:0.131744" />
    <path
       id="path633"
       d="m 111.90982,34.749093 -0.5301,-0.744985 0.12659,-1.377827 2.73226,-1.420605 4.04827,0.7413 0.23736,0.247319 -2.41314,2.579544 -4.20124,-0.02475"
       style="fill:#727272;fill-opacity:1;fill-rule:nonzero;stroke:none;stroke-width:0.131744" />
    <path
       id="path634"
       d="m 114.67108,33.306508 -3.20433,-0.517277 0.0106,0.770124 1.59689,0.275092 2.33139,-0.512013 0.96526,-1.247915 -1.69976,1.231989"
       style="fill:#a39b99;fill-opacity:1;fill-rule:nonzero;stroke:none;stroke-width:0.131744" />
    <path
       id="path635"
       d="m 112.52563,32.731053 2.44479,0.0094 1.45712,-0.957951 1.43206,0.0027 -1.36217,-0.689967 -2.06106,-0.04067 -2.05975,0.997437 0.14901,0.679174"
       style="fill:#cec9c8;fill-opacity:1;fill-rule:nonzero;stroke:none;stroke-width:0.131744" />
    <path
       id="path636"
       d="m 118.30794,33.256622 0.21626,-1.062327 -2.25359,1.479308 -1.73798,0.433435 -1.89887,0.235472 -1.25404,-0.338402 0.5301,0.744985 4.20124,0.02475 2.19688,-1.517217"
       style="fill:#5b5b5b;fill-opacity:1;fill-rule:nonzero;stroke:none;stroke-width:0.131744" />
    <path
       id="path637"
       d="m 114.78185,32.763959 -2.25622,-0.0329 2.36963,-0.108984 1.53228,-0.839622 -1.45185,0.940972 -0.19384,0.04054"
       style="fill:#efefef;fill-opacity:1;fill-rule:nonzero;stroke:none;stroke-width:0.131744" />
    <path
       id="path638"
       d="m 43.017921,60.077266 -0.263732,-0.747618 0.135823,-1.380986 1.603486,-1.409285 2.207431,0.771309 0.117361,0.24982 -1.447885,2.568224 -2.352484,-0.05146"
       style="fill:#727272;fill-opacity:1;fill-rule:nonzero;stroke:none;stroke-width:0.131744" />
    <path
       id="path639"
       d="m 44.645143,58.646394 -1.784142,-0.535705 -0.03033,0.771178 0.894049,0.284305 1.329206,-0.498718 0.590758,-1.245283 -0.999542,1.224223"
       style="fill:#a39b99;fill-opacity:1;fill-rule:nonzero;stroke:none;stroke-width:0.131744" />
    <path
       id="path640"
       d="m 43.466264,58.058172 1.371403,0.02527 0.850534,-0.95071 0.7846,0.01185 -0.718667,-0.701286 -1.141957,-0.05304 -1.202615,0.98625 0.0567,0.681674"
       style="fill:#cec9c8;fill-opacity:1;fill-rule:nonzero;stroke:none;stroke-width:0.131744" />
    <path
       id="path641"
       d="m 46.65082,58.621781 0.16747,-1.061275 -1.304152,1.462198 -0.985036,0.425273 -1.07998,0.225206 -0.694933,-0.343535 0.263732,0.747618 2.352484,0.05146 1.280415,-1.506949"
       style="fill:#5b5b5b;fill-opacity:1;fill-rule:nonzero;stroke:none;stroke-width:0.131744" />
    <path
       id="path642"
       d="m 44.733494,58.105556 -1.26723,-0.04738 1.3358,-0.09608 0.886137,-0.829354 -0.846578,0.932152 -0.108129,0.04067"
       style="fill:#efefef;fill-opacity:1;fill-rule:nonzero;stroke:none;stroke-width:0.131744" />
    <path
       id="path643"
       d="m 77.781665,32.11519 2.202157,-8.38016 7.973916,-10.178653 1.50195,-4.7594798 9.125103,-3.6341049 2.915549,7.2855847 5.77704,6.376992 1.87776,9.05012 -13.545238,9.417741 -7.793261,0.106878 -4.512442,-2.345518 -5.522534,-2.9394"
       style="fill:#727272;fill-opacity:1;fill-rule:nonzero;stroke:none;stroke-width:0.131744" />
    <path
       id="path644"
       d="m 79.983822,23.73503 -2.202157,8.38016 5.522534,2.9394 2.305011,-11.018275 -5.625388,-0.301285"
       style="display:inline;fill:#a39b99;fill-opacity:1;fill-rule:nonzero;stroke:none;stroke-width:0.131744" />
    <path
       id="path645"
       d="m 87.695325,37.478818 5.874614,-15.502268 1.383272,1.896817 -0.448343,5.914732 1.215801,-4.826344 1.156461,1.683324 -0.288786,3.62884 2.617534,1.307014 0.880862,-3.401133 2.10326,1.196451 -0.0976,2.715247 -6.482522,5.201732 -7.914576,0.185588"
       style="fill:#a39b99;fill-opacity:1;fill-rule:nonzero;stroke:none;stroke-width:0.131744" />
    <path
       id="path646"
       d="m 109.15646,27.812705 -12.201529,6.857284 -0.07516,-2.232455 -0.648779,2.441735 -8.319405,1.68227 1.573158,-1.393885 -2.286551,0.307997 -3.68037,-2.291552 c 0,0 -3.278181,-0.714712 -5.736156,-1.270029 v 0.20112 l 5.522534,2.9394 4.177504,2.484907 8.128199,-0.246267 13.545235,-9.417741 9.9e-4,-0.06278"
       style="fill:#5b5b5b;fill-opacity:1;fill-rule:nonzero;stroke:none;stroke-width:0.131744" />
    <path
       id="path647"
       d="m 79.983822,23.73503 8.041167,-9.090264 4.584969,2.354863 -7.000748,7.036686 -2.891814,-0.806716 -2.733574,0.505431"
       style="fill:#cec9c8;fill-opacity:1;fill-rule:nonzero;stroke:none;stroke-width:0.131744" />
    <path
       id="path648"
       d="m 89.459688,8.7968972 9.125103,-3.6341049 0.5301,4.0870189 -6.3401,2.9749388 -3.315103,-3.4278528"
       style="fill:#cec9c8;fill-opacity:1;fill-rule:nonzero;stroke:none;stroke-width:0.131744" />
    <path
       id="path649"
       d="m 101.50034,12.448377 -2.678191,6.906116 -5.25221,2.622057 3.307191,4.668529 4.59684,-2.798564 0.45889,-3.087475 3.8729,-1.191187 -4.30542,-7.119476"
       style="fill:#cec9c8;fill-opacity:1;fill-rule:nonzero;stroke:none;stroke-width:0.131744" />
    <path
       id="path650"
       d="m 94.023558,16.538949 -1.248767,-4.314199 -3.315103,-3.4278528 -1.50195,4.7594798 0.21626,1.024158 4.43596,2.419094 0.411421,-2.111097 1.002179,1.650417"
       style="fill:#a39b99;fill-opacity:1;fill-rule:nonzero;stroke:none;stroke-width:0.131744" />
    <path
       id="path651"
       d="m 99.114891,9.2498112 0.675152,2.4215968 -1.334481,2.54203 0.04616,2.893069 1.458434,-0.750644 1.540194,-3.907486 -2.915553,-7.2855847 0.5301,4.0870189"
       style="fill:#5b5b5b;fill-opacity:1;fill-rule:nonzero;stroke:none;stroke-width:0.131744" />
    <path
       id="path652"
       d="m 106.61013,29.252395 0.0106,-1.693591 -1.09712,-1.961574 0.1701,-3.494717 0.71471,-1.147487 0.869,-2.129657 1.87777,9.05012 -2.54502,1.376906"
       style="fill:#5b5b5b;fill-opacity:1;fill-rule:nonzero;stroke:none;stroke-width:0.131744" />
    <path
       id="path653"
       d="m 79.983822,23.73503 5.571324,-0.62784 4.752438,-3.969743 -4.366073,5.372842 -1.57052,6.015161 0.862402,-6.200749 -5.249571,-0.589671"
       style="fill:#efefef;fill-opacity:1;fill-rule:nonzero;stroke:none;stroke-width:0.131744" />
    <path
       id="path654"
       d="m 89.654849,8.7192394 3.031591,4.4658306 0.872951,0.903459 -0.359993,-1.412445 3.453561,-2.36921 -3.878168,1.917876 -3.119942,-3.5055106"
       style="fill:#efefef;fill-opacity:1;fill-rule:nonzero;stroke:none;stroke-width:0.131744" />
    <path
       id="path655"
       d="m 95.720669,24.961755 0.845259,2.024227 0.187249,4.982185 0.538012,-4.356978 4.182781,-3.764674 -4.59684,2.798564 -1.156461,-1.683324"
       style="display:inline;fill:#efefef;fill-opacity:1;fill-rule:nonzero;stroke:none;stroke-width:0.131744" />
  </g>
  <metadata
     id="metadata1">
    <rdf:RDF>
      <cc:Work
         rdf:about="">
        <dc:title>isometric floor tile</dc:title>
      </cc:Work>
    </rdf:RDF>
  </metadata>
</svg>
