<?xml version="1.0" encoding="UTF-8" standalone="no"?>
<!-- Created with Inkscape (http://www.inkscape.org/) -->

<svg
   width="150"
   height="100"
   viewBox="0 0 150 100"
   version="1.1"
   id="svg1"
   inkscape:version="1.3.2 (091e20e, 2023-11-25)"
   sodipodi:docname="default.svg"
   xmlns:inkscape="http://www.inkscape.org/namespaces/inkscape"
   xmlns:sodipodi="http://sodipodi.sourceforge.net/DTD/sodipodi-0.dtd"
   xmlns="http://www.w3.org/2000/svg"
   xmlns:svg="http://www.w3.org/2000/svg"
   xmlns:rdf="http://www.w3.org/1999/02/22-rdf-syntax-ns#"
   xmlns:cc="http://creativecommons.org/ns#"
   xmlns:dc="http://purl.org/dc/elements/1.1/">
  <title
     id="title1">isometric floor tile</title>
  <sodipodi:namedview
     id="namedview1"
     pagecolor="#ffffff"
     bordercolor="#000000"
     borderopacity="0.25"
     inkscape:showpageshadow="2"
     inkscape:pageopacity="0.0"
     inkscape:pagecheckerboard="0"
     inkscape:deskcolor="#d1d1d1"
     inkscape:document-units="px"
     inkscape:zoom="1.9077568"
     inkscape:cx="63.163188"
     inkscape:cy="51.893408"
     inkscape:window-width="1312"
     inkscape:window-height="449"
     inkscape:window-x="0"
     inkscape:window-y="25"
     inkscape:window-maximized="0"
     inkscape:current-layer="layer1" />
  <defs
     id="defs1" />
  <g
     inkscape:label="Layer 1"
     inkscape:groupmode="layer"
     id="layer1">
    <path
       id="path375"
       d="M 150.16337,43.55285 75.763093,87.165544 0.89340996,43.562134 75.293686,0.44285368 150.16337,44.050243"
       style="display:inline;fill:#dbb100;fill-opacity:1;fill-rule:nonzero;stroke:none;stroke-width:0.132061"
       inkscape:export-filename="path375.svg"
       inkscape:export-xdpi="95.133247"
       inkscape:export-ydpi="95.133247"
       sodipodi:nodetypes="ccccc" />
    <path
       id="path376"
       d="M 75.761778,87.165544 V 100.42934 L 0.89340996,56.827259 V 43.562134 L 75.761778,87.165544"
       style="display:inline;fill:#f2d800;fill-opacity:1;fill-rule:nonzero;stroke:none;stroke-width:0.132061"
       sodipodi:nodetypes="ccccc" />
    <path
       id="path377"
       d="M 75.760464,87.165544 V 100.42934 L 150.16337,56.816648 V 43.55285 L 75.760464,87.165544"
       style="display:inline;fill:#c49e00;fill-opacity:1;fill-rule:nonzero;stroke:none;stroke-width:0.132061"
       sodipodi:nodetypes="ccccc" />
    <path
       id="path378"
       d="m 75.761778,93.797443 v 6.631897 L 0.89340996,56.827259 V 50.19536 L 75.761778,93.797443"
       style="display:inline;fill:#9e7363;fill-opacity:1;fill-rule:nonzero;stroke:none;stroke-width:0.132061"
       sodipodi:nodetypes="ccccc" />
    <path
       id="path379"
       d="m 75.760464,93.797443 v 6.631897 L 150.16337,56.816648 V 50.18475 L 75.760464,93.797443"
       style="display:inline;fill:#75554a;fill-opacity:1;fill-rule:nonzero;stroke:none;stroke-width:0.132061"
       sodipodi:nodetypes="ccccc" />
    <path
       id="path380"
       d="m 48.562497,36.084005 c 2.28129,0.874085 4.394276,3.004251 6.008929,5.871884 0.134116,-1.721641 -0.02761,-6.078799 -0.48913,-7.502004 1.454241,1.111506 2.361497,5.56151 2.611321,7.618725 1.717213,-3.062611 3.980094,-5.325414 6.396815,-6.2247 -2.348348,2.620926 -4.232548,6.288366 -5.444853,10.465137 l -4.011651,-0.4324 c -1.120264,-3.906189 -2.913739,-7.300395 -5.071431,-9.796642"
       style="display:inline;fill:#f2d800;fill-opacity:1;fill-rule:nonzero;stroke:none;stroke-width:0.132061"
       sodipodi:nodetypes="cccccccc" />
    <path
       id="path381"
       d="m 54.571426,44.47601 c 0.134116,-0.725529 0.406293,-2.280046 1.888145,-3.900882 -0.632449,2.013444 -0.01578,3.083833 0.234046,3.948632 1.717213,-1.287915 3.980094,-2.242908 6.396815,-2.622253 -2.348348,1.103548 -4.232548,2.651433 -5.444853,4.41154 l -4.011651,-0.181714 c -1.120264,-1.646038 -2.913739,-3.077201 -5.071431,-4.130347 2.28129,0.367407 4.394276,1.265366 6.008929,2.475024"
       style="display:inline;fill:#dbb100;fill-opacity:1;fill-rule:nonzero;stroke:none;stroke-width:0.132061"
       sodipodi:nodetypes="cccccccc" />
    <path
       id="path382"
       d="m 106.90828,51.834765 c -2.32599,1.665934 -4.52708,4.14759 -6.43495,7.147861 -2.160316,0.358123 -4.474477,0.285172 -6.530925,-0.258644 -1.086078,-5.851987 -2.858514,-11.01691 -5.126655,-14.716184 2.386479,1.302506 4.582302,4.50306 6.207473,8.809815 0.310309,-2.867633 1.245177,-5.267054 2.732289,-6.79637 -0.506223,1.982938 -0.690304,4.266964 -0.608782,6.671691 1.700118,-3.97914 3.88017,-6.915745 6.18381,-8.098875 -2.23133,3.45124 -4.123422,8.158562 -5.36465,13.600697 2.64025,-3.709884 5.92478,-6.072166 8.94239,-6.359991"
       style="display:inline;fill:#f2d800;fill-opacity:1;fill-rule:nonzero;stroke:none;stroke-width:0.132061"
       sodipodi:nodetypes="cccccccccc" />
    <path
       id="path383"
       d="m 106.90828,51.834765 c -2.32599,1.665934 -4.52708,4.14759 -6.43495,7.147861 -2.160316,0.358123 -4.474477,0.285172 -6.530925,-0.258644 -1.086078,-5.851987 -2.858514,-11.01691 -5.126655,-14.716184 2.386479,1.302506 4.582302,4.50306 6.207473,8.809815 0.310309,-2.867633 1.245177,-5.267054 2.732289,-6.79637 -0.506223,1.982938 -0.690304,4.266964 -0.608782,6.671691 1.700118,-3.97914 3.88017,-6.915745 6.18381,-8.098875 -2.23133,3.45124 -4.123422,8.158562 -5.36465,13.600697 2.64025,-3.709884 5.92478,-6.072166 8.94239,-6.359991"
       style="display:inline;fill:#f2d800;fill-opacity:1;fill-rule:nonzero;stroke:none;stroke-width:0.132061"
       sodipodi:nodetypes="cccccccccc" />
    <path
       id="path384"
       d="m 106.90828,54.283262 c -2.32599,1.111507 -4.52708,2.769481 -6.43495,4.769662 -2.160316,0.242728 -4.474477,0.193652 -6.530925,-0.168449 -1.086078,-3.908842 -2.858514,-7.354777 -5.126655,-9.825822 2.386479,0.867453 4.582302,4.647634 6.207473,7.523226 0.310309,-1.915292 0.290586,-4.266964 -0.01315,-6.577518 1.629117,1.60094 2.055133,4.88771 2.136655,6.496609 1.700115,-2.658065 2.930832,-3.943327 5.644712,-8.446387 0.12097,3.042716 -2.41409,7.218159 -4.524448,9.427907 2.172148,-0.725529 5.623678,-3.006902 8.641288,-3.199228"
       style="display:inline;fill:#dbb100;fill-opacity:1;fill-rule:nonzero;stroke:none;stroke-width:0.132061"
       sodipodi:nodetypes="cccccccccc" />
    <path
       id="path385"
       d="m 64.874702,7.1026071 c -2.277344,0.8767367 -4.392961,3.0069029 -6.006299,5.8718829 -0.134116,-1.718988 0.0263,-6.0761461 0.490444,-7.499351 -1.455555,1.1128321 -2.360181,5.56151 -2.61132,7.617399 -1.717213,-3.061284 -3.981409,-5.3227625 -6.39813,-6.2233741 2.347033,2.6195999 4.232548,6.2883671 5.443538,10.4624841 l 4.015596,-0.428421 C 60.92485,12.994386 62.71964,9.6015067 64.874702,7.1026071"
       style="display:inline;fill:#f2d800;fill-opacity:1;fill-rule:nonzero;stroke:none;stroke-width:0.132061"
       sodipodi:nodetypes="cccccccc" />
    <path
       id="path386"
       d="m 58.868403,15.497265 c -0.134116,-0.726857 -0.406293,-2.281373 -1.88946,-3.90221 0.632449,2.014771 0.01972,3.082507 -0.231416,3.947306 -1.717213,-1.287914 -3.981409,-2.240255 -6.39813,-2.6196 2.347033,1.103548 4.232548,2.651433 5.443538,4.408887 l 4.015596,-0.180387 c 1.116319,-1.647364 2.911109,-3.077202 5.066171,-4.129021 -2.277344,0.368734 -4.392961,1.26404 -6.006299,2.475025"
       style="display:inline;fill:#dbb100;fill-opacity:1;fill-rule:nonzero;stroke:none;stroke-width:0.132061"
       sodipodi:nodetypes="cccccccc" />
    <path
       id="path387"
       d="m 93.621578,27.636292 c -2.327309,1.302506 -4.528392,3.241673 -6.436259,5.585386 -2.156378,0.279866 -4.473169,0.222832 -6.530931,-0.20161 -1.086078,-4.573357 -2.8572,-8.606879 -5.127971,-11.499713 2.387794,1.017333 4.583617,3.518886 6.210104,6.883911 0.310308,-2.242908 1.245176,-4.115756 2.732288,-5.310824 -0.506223,1.550537 -0.691619,3.334519 -0.611412,5.213999 1.702749,-3.109034 3.880165,-5.404998 6.183807,-6.328158 -2.228695,2.695203 -4.12473,6.375907 -5.362017,10.628281 2.640248,-2.899466 5.924778,-4.747113 8.942391,-4.971272"
       style="display:inline;fill:#f2d800;fill-opacity:1;fill-rule:nonzero;stroke:none;stroke-width:0.132061"
       sodipodi:nodetypes="cccccccccc" />
    <path
       id="path388"
       d="m 93.621578,27.636292 c -2.327309,1.302506 -4.528392,3.241673 -6.436259,5.585386 -2.156378,0.279866 -4.473169,0.222832 -6.530931,-0.20161 -1.086078,-4.573357 -2.8572,-8.606879 -5.127971,-11.499713 2.387794,1.017333 4.583617,3.518886 6.210104,6.883911 0.310308,-2.242908 1.245176,-4.115756 2.732288,-5.310824 -0.506223,1.550537 -0.691619,3.334519 -0.611412,5.213999 1.702749,-3.109034 3.880165,-5.404998 6.183807,-6.328158 -2.228695,2.695203 -4.12473,6.375907 -5.362017,10.628281 2.640248,-2.899466 5.924778,-4.747113 8.942391,-4.971272"
       style="display:inline;fill:#f2d800;fill-opacity:1;fill-rule:nonzero;stroke:none;stroke-width:0.132061"
       sodipodi:nodetypes="cccccccccc" />
    <path
       id="path389"
       d="m 93.621578,29.550258 c -2.327309,0.870106 -4.528392,2.164652 -6.436259,3.728454 -2.156378,0.187019 -4.473169,0.148555 -6.530931,-0.135291 -1.086078,-3.053326 -2.8572,-5.745877 -5.127971,-7.677086 2.387794,0.679107 4.583617,3.632954 6.210104,5.879842 0.310308,-1.496156 0.28927,-3.334519 -0.01315,-5.141048 1.627802,1.250776 2.053818,3.8213 2.134025,5.076055 1.702749,-2.074458 2.932147,-3.078527 5.647342,-6.596086 0.120967,2.375546 -2.414091,5.637113 -4.523133,7.365387 2.17084,-0.567691 5.622359,-2.350346 8.639972,-2.500227"
       style="display:inline;fill:#dbb100;fill-opacity:1;fill-rule:nonzero;stroke:none;stroke-width:0.132061"
       sodipodi:nodetypes="cccccccccc" />
    <path
       id="path390"
       d="m 55.827122,66.296284 c 2.325994,1.665934 4.528392,4.144938 6.437575,7.143882 2.157692,0.360775 4.469224,0.285172 6.5283,-0.258644 1.087393,-5.851987 2.85983,-11.015584 5.129286,-14.71751 -2.390423,1.306484 -4.584932,4.505712 -6.210104,8.813794 -0.311623,-2.870287 -1.245176,-5.269707 -2.733602,-6.797696 0.506222,1.984263 0.692933,4.266963 0.611412,6.673015 -1.70012,-3.979138 -3.87885,-6.919722 -6.185121,-8.100201 2.230009,3.449914 4.126044,8.159889 5.364646,13.600699 -2.640248,-3.707232 -5.924779,-6.072167 -8.942392,-6.357339"
       style="display:inline;fill:#f2d800;fill-opacity:1;fill-rule:nonzero;stroke:none;stroke-width:0.132061"
       sodipodi:nodetypes="cccccccccc" />
    <path
       id="path391"
       d="m 55.827122,66.296284 c 2.325994,1.665934 4.528392,4.144938 6.437575,7.143882 2.157692,0.360775 4.469224,0.285172 6.5283,-0.258644 1.087393,-5.851987 2.85983,-11.015584 5.129286,-14.71751 -2.390423,1.306484 -4.584932,4.505712 -6.210104,8.813794 -0.311623,-2.870287 -1.245176,-5.269707 -2.733602,-6.797696 0.506222,1.984263 0.692933,4.266963 0.611412,6.673015 -1.70012,-3.979138 -3.87885,-6.919722 -6.185121,-8.100201 2.230009,3.449914 4.126044,8.159889 5.364646,13.600699 -2.640248,-3.707232 -5.924779,-6.072167 -8.942392,-6.357339"
       style="display:inline;fill:#f2d800;fill-opacity:1;fill-rule:nonzero;stroke:none;stroke-width:0.132061"
       sodipodi:nodetypes="cccccccccc" />
    <path
       id="path392"
       d="m 55.827122,68.740802 c 2.325994,1.114159 4.528392,2.766829 6.437575,4.772315 2.157692,0.241401 4.469224,0.192325 6.5283,-0.171103 1.087393,-3.908842 2.85983,-7.354776 5.129286,-9.825821 -2.390423,0.867451 -4.584932,4.650287 -6.210104,7.523226 -0.311623,-1.911313 -0.28927,-4.266964 0.01447,-6.580171 -1.629117,1.606246 -2.055133,4.893016 -2.136654,6.496609 -1.70012,-2.65276 -2.930833,-3.939348 -5.644712,-8.442407 -0.120971,3.044041 2.412772,7.218158 4.5205,9.427907 -2.170842,-0.72553 -5.621045,-3.005577 -8.638658,-3.200555"
       style="display:inline;fill:#dbb100;fill-opacity:1;fill-rule:nonzero;stroke:none;stroke-width:0.132061"
       sodipodi:nodetypes="cccccccccc" />
    <path
       id="path393"
       d="m 111.49058,36.83739 c 2.27997,0.874083 4.39296,3.006902 6.00894,5.873209 0.13279,-1.720315 -0.0289,-6.077472 -0.49046,-7.500677 1.45294,1.112832 2.35756,5.56151 2.6087,7.616072 1.71852,-3.059959 3.9801,-5.322762 6.39944,-6.224701 -2.34966,2.622253 -4.23123,6.289694 -5.44353,10.466463 l -4.01429,-0.429747 c -1.11763,-3.908841 -2.91505,-7.304373 -5.0688,-9.800619"
       style="display:inline;fill:#f2d800;fill-opacity:1;fill-rule:nonzero;stroke:none;stroke-width:0.132061"
       sodipodi:nodetypes="cccccccc" />
    <path
       id="path394"
       d="m 117.49952,45.230721 c 0.13279,-0.725531 0.40234,-2.280047 1.88682,-3.90221 -0.63113,2.016098 -0.0197,3.083833 0.23142,3.948633 1.71852,-1.287915 3.9801,-2.242908 6.39944,-2.622253 -2.34966,1.107527 -4.23123,2.651434 -5.44353,4.412865 l -4.01429,-0.181713 c -1.11763,-1.647364 -2.91505,-3.077202 -5.0688,-4.131674 2.27997,0.37006 4.39296,1.266694 6.00894,2.476352"
       style="display:inline;fill:#dbb100;fill-opacity:1;fill-rule:nonzero;stroke:none;stroke-width:0.132061"
       sodipodi:nodetypes="cccccccc" />
    <path
       id="path395"
       d="m 8.803633,41.559301 c 2.32468,1.66726 4.528392,4.148917 6.43626,7.149188 2.157692,0.355469 4.471853,0.282519 6.532245,-0.261297 1.083449,-5.853315 2.855885,-11.014258 5.126656,-14.716184 -2.387793,1.303831 -4.586246,4.503059 -6.208789,8.809815 -0.311622,-2.86896 -1.247805,-5.268381 -2.732288,-6.793718 0.503593,1.981611 0.688989,4.264311 0.610098,6.670364 -1.70275,-3.979139 -3.88148,-6.91707 -6.185122,-8.097549 2.230011,3.448587 4.12473,8.157236 5.364646,13.599372 -2.640247,-3.708558 -5.926093,-6.073493 -8.943706,-6.359991"
       style="display:inline;fill:#f2d800;fill-opacity:1;fill-rule:nonzero;stroke:none;stroke-width:0.132061"
       sodipodi:nodetypes="cccccccccc" />
    <path
       id="path396"
       d="m 8.803633,41.559301 c 2.32468,1.66726 4.528392,4.148917 6.43626,7.149188 2.157692,0.355469 4.471853,0.282519 6.532245,-0.261297 1.083449,-5.853315 2.855885,-11.014258 5.126656,-14.716184 -2.387793,1.303831 -4.586246,4.503059 -6.208789,8.809815 -0.311622,-2.86896 -1.247805,-5.268381 -2.732288,-6.793718 0.503593,1.981611 0.688989,4.264311 0.610098,6.670364 -1.70275,-3.979139 -3.88148,-6.91707 -6.185122,-8.097549 2.230011,3.448587 4.12473,8.157236 5.364646,13.599372 -2.640247,-3.708558 -5.926093,-6.073493 -8.943706,-6.359991"
       style="display:inline;fill:#f2d800;fill-opacity:1;fill-rule:nonzero;stroke:none;stroke-width:0.132061"
       sodipodi:nodetypes="cccccccccc" />
    <path
       id="path397"
       d="m 8.803633,44.007798 c 2.32468,1.112833 4.528392,2.768155 6.43626,4.770988 2.157692,0.240076 4.471853,0.188347 6.532245,-0.172429 1.083449,-3.907515 2.855885,-7.354776 5.126656,-9.824495 -2.387793,0.868778 -4.586246,4.648961 -6.208789,7.523227 -0.311622,-1.913967 -0.290585,-4.266965 0.01183,-6.578845 -1.629117,1.603593 -2.055133,4.890362 -2.134024,6.495283 -1.70275,-2.654086 -2.932147,-3.938022 -5.646027,-8.441082 -0.120968,3.040062 2.412775,7.216833 4.523132,9.426581 -2.17084,-0.724203 -5.623674,-3.008229 -8.641287,-3.199228"
       style="display:inline;fill:#dbb100;fill-opacity:1;fill-rule:nonzero;stroke:none;stroke-width:0.132061"
       sodipodi:nodetypes="cccccccccc" />
  </g>
  <metadata
     id="metadata1">
    <rdf:RDF>
      <cc:Work
         rdf:about="">
        <dc:title>isometric floor tile</dc:title>
      </cc:Work>
    </rdf:RDF>
  </metadata>
</svg>
