<svg xmlns="http://www.w3.org/2000/svg"  viewBox="0 0 48 48" width="48px" height="48px"><path fill="#38b47b" d="M23.74,17.8c-0.03,0.03-0.04,0.06-0.05,0.09c-2.64,7.32-8.89,12.47-12.58,19.18	c-0.89,1.6-1.61,3.28-2.09,5.04c-2.21-3.99-5.01-7.63-6.95-11.77c1.42-3.92,3.44-7.57,5.91-10.91c1.95-2.62,3.92-5.16,5.56-8	c1.15-2,2.16-4.06,3.06-6.17C19.07,9.4,21.48,13.56,23.74,17.8z"/><path fill="#38b47b" d="M45.24,27.47c-0.93-1.44-1.78-2.94-2.61-4.44c-1.73-3.16-3.33-6.38-5.24-9.43	c-1.87-2.99-3.55-6.07-5.05-9.26c-0.07-0.15-0.26-0.25-0.43-0.25c-5.12,0.08-10.24,0-15.36-0.26c-0.14-0.01-0.24,0.03-0.32,0.11	c-0.02,0.01-0.04,0.02-0.05,0.04c-0.08,0.04-0.15,0.11-0.19,0.22c-1.62,3.85-3.61,7.56-6.03,10.97c-1.98,2.78-4.16,5.37-5.85,8.35	c-1.22,2.15-2.24,4.4-3.08,6.72c-0.07,0.21-0.01,0.38,0.12,0.48l0.01,0.01c2.11,4.56,5.26,8.49,7.57,12.95	c0.07,0.15,0.19,0.22,0.31,0.24c0.02,0.02,0.04,0.04,0.06,0.05c0.92,0.57,1.96,0.36,2.97,0.24c1.22-0.14,2.45-0.2,3.69-0.19	c2.51,0.03,5.02,0.38,7.53,0.55c5.07,0.33,10.15,0.25,15.21-0.22h0.01c0.2,0.07,0.42,0.02,0.56-0.21c1.25-2.13,2.69-4.1,4.12-6.11	c0.55-0.78,1.05-1.59,1.52-2.41c0.77-1.34,1.65-2.79,2.14-4.26C47.34,29.87,45.98,28.61,45.24,27.47z M31.6,5.09	c1.3,2.76,2.75,5.46,4.34,8.06c1.72,2.82,3.31,5.69,4.87,8.6c0.81,1.52,1.63,3.03,2.51,4.51c0.42,0.71,0.85,1.41,1.31,2.09	c0.28,0.42,0.66,0.85,0.95,1.31c-3.91,0.47-7.88,0.68-11.81,0.4c-0.73-0.05-1.45-0.13-2.17-0.22c-1.62-1.55-2.53-3.6-3.46-5.6	c-1.06-2.29-2.2-4.55-3.39-6.78c-2.28-4.27-4.74-8.43-7.21-12.59C22.23,5.09,26.91,5.16,31.6,5.09z M27.71,25.68	c0.65,1.39,1.37,2.76,2.34,3.95c-0.13-0.01-0.27-0.03-0.4-0.05c-2.28-0.3-4.58-0.42-6.88-0.34c-1.79,0.07-3.59,0.24-5.36,0.54	c1.54-1.95,3.07-3.9,4.39-5.95c1-1.55,1.87-3.17,2.55-4.88C25.52,21.16,26.64,23.4,27.71,25.68z M2.07,30.34	c1.42-3.92,3.44-7.57,5.91-10.91c1.95-2.62,3.92-5.16,5.56-8c1.15-2,2.16-4.06,3.06-6.17c2.47,4.14,4.88,8.3,7.14,12.54	c-0.03,0.03-0.04,0.06-0.05,0.09c-2.64,7.32-8.89,12.47-12.58,19.18c-0.89,1.6-1.61,3.28-2.09,5.04	C6.81,38.12,4.01,34.48,2.07,30.34z M45.25,32.47c-0.36,0.73-0.74,1.46-1.14,2.18c-0.5,0.9-1.04,1.79-1.62,2.63	c-1.39,2.03-2.85,3.97-4.11,6.08c-4.86,0.44-9.73,0.53-14.6,0.24c-2.43-0.15-4.85-0.48-7.29-0.56c-1.23-0.04-2.46-0.01-3.68,0.1	c-0.93,0.08-2.15,0.47-3.04,0.06c1.09-4.69,3.84-8.53,6.74-12.27h0.01c0.04,0,0.06,0,0.1-0.01c4.13-0.77,8.37-0.91,12.55-0.4	c3.11,0.38,6.17,0.71,9.32,0.66c2.5-0.05,4.99-0.25,7.46-0.57C45.98,31.25,45.51,31.92,45.25,32.47z"/><path fill="#4b7bb2" d="M45.95,30.61c0.03,0.64-0.44,1.31-0.7,1.86c-0.36,0.73-0.74,1.46-1.14,2.18	c-0.5,0.9-1.04,1.79-1.62,2.63c-1.39,2.03-2.85,3.97-4.11,6.08c-4.86,0.44-9.73,0.53-14.6,0.24c-2.43-0.15-4.85-0.48-7.29-0.56	c-1.23-0.04-2.46-0.01-3.68,0.1c-0.93,0.08-2.15,0.47-3.04,0.06c1.09-4.69,3.84-8.53,6.74-12.27h0.01c0.04,0,0.06,0,0.1-0.01	c4.13-0.77,8.37-0.91,12.55-0.4c3.11,0.38,6.17,0.71,9.32,0.66C40.99,31.13,43.48,30.93,45.95,30.61z"/><path fill="#febf10" d="M45.58,29.66c-3.91,0.47-7.88,0.68-11.81,0.4c-0.73-0.05-1.45-0.13-2.17-0.22	c-1.62-1.55-2.53-3.6-3.46-5.6c-1.06-2.29-2.2-4.55-3.39-6.78c-2.28-4.27-4.74-8.43-7.21-12.59c4.69,0.22,9.37,0.29,14.06,0.22	c1.3,2.76,2.75,5.46,4.34,8.06c1.72,2.82,3.31,5.69,4.87,8.6c0.81,1.52,1.63,3.03,2.51,4.51c0.42,0.71,0.85,1.41,1.31,2.09	C44.91,28.77,45.29,29.2,45.58,29.66z"/><path fill="#010101" d="M24.65,18.15c-0.1,0.27-0.2,0.53-0.3,0.8c-0.68,1.71-1.55,3.33-2.55,4.88	c-1.32,2.05-2.85,4-4.39,5.95c-0.29,0.38-0.59,0.76-0.89,1.15h-0.01c-2.9,3.74-5.65,7.58-6.74,12.27c0,0.01-0.01,0.03-0.01,0.04	c-0.02,0.08-0.05,0.15-0.1,0.2c-0.19,0.24-0.58,0.19-0.77-0.04c-0.09-0.11-0.14-0.25-0.1-0.43c0.07-0.29,0.14-0.58,0.23-0.86	c0.48-1.76,1.2-3.44,2.09-5.04c3.69-6.71,9.94-11.86,12.58-19.18c0.01-0.03,0.02-0.06,0.05-0.09C24,17.32,24.86,17.58,24.65,18.15z"/><path fill="#010101" d="M30.91,30.57c-0.31-0.3-0.6-0.61-0.86-0.94c-0.97-1.19-1.69-2.56-2.34-3.95	c-1.07-2.28-2.19-4.52-3.36-6.73c-0.2-0.39-0.41-0.77-0.61-1.15c-2.26-4.24-4.67-8.4-7.14-12.54c-0.09-0.17-0.19-0.33-0.29-0.5	c-0.25-0.43,0.2-0.83,0.57-0.74c0.01,0,0.01,0.01,0.02,0.01c0.1,0.03,0.2,0.1,0.27,0.22c0.12,0.21,0.25,0.41,0.37,0.62	c2.47,4.16,4.93,8.32,7.21,12.59c1.19,2.23,2.33,4.49,3.39,6.78c0.93,2,1.84,4.05,3.46,5.6c0.01,0.01,0.01,0.01,0.02,0.02	C32.09,30.31,31.38,31.01,30.91,30.57z"/><path fill="#010101" d="M46.85,31.36c-0.49,1.47-1.37,2.92-2.14,4.26c-0.47,0.82-0.97,1.63-1.52,2.41	c-1.43,2.01-2.87,3.98-4.12,6.11c-0.14,0.23-0.36,0.28-0.56,0.21H38.5c-0.27-0.09-0.48-0.39-0.29-0.71	c0.06-0.09,0.11-0.19,0.17-0.28c1.26-2.11,2.72-4.05,4.11-6.08c0.58-0.84,1.12-1.73,1.62-2.63c0.4-0.72,0.78-1.45,1.14-2.18	c0.26-0.55,0.73-1.22,0.7-1.86c0-0.11-0.02-0.23-0.05-0.33c-0.07-0.21-0.18-0.42-0.32-0.62c-0.29-0.46-0.67-0.89-0.95-1.31	c-0.46-0.68-0.89-1.38-1.31-2.09c-0.88-1.48-1.7-2.99-2.51-4.51c-1.56-2.91-3.15-5.78-4.87-8.6c-1.59-2.6-3.04-5.3-4.34-8.06	c-4.69,0.07-9.37,0-14.06-0.22c-0.25,0-0.5-0.02-0.75-0.03c-0.08,0-0.16-0.01-0.24-0.01c-0.09,0-0.18-0.03-0.24-0.07	C16.04,4.6,16,4.2,16.18,3.98c0.01-0.02,0.03-0.03,0.05-0.04c0.08-0.08,0.18-0.12,0.32-0.11c5.12,0.26,10.24,0.34,15.36,0.26	c0.17,0,0.36,0.1,0.43,0.25c1.5,3.19,3.18,6.27,5.05,9.26c1.91,3.05,3.51,6.27,5.24,9.43c0.83,1.5,1.68,3,2.61,4.44	C45.98,28.61,47.34,29.87,46.85,31.36z"/><path fill="#010101" d="M38.51,44.35H38.5c-5.06,0.47-10.14,0.55-15.21,0.22c-2.51-0.17-5.02-0.52-7.53-0.55	c-1.24-0.01-2.47,0.05-3.69,0.19c-1.01,0.12-2.05,0.33-2.97-0.24c-0.02-0.01-0.04-0.03-0.06-0.05c-0.18-0.14-0.21-0.34-0.15-0.52	c0.08-0.26,0.36-0.47,0.66-0.31c0.02,0,0.03,0.01,0.05,0.02c0.06,0.03,0.11,0.06,0.17,0.09c0.89,0.41,2.11,0.02,3.04-0.06	c1.22-0.11,2.45-0.14,3.68-0.1c2.44,0.08,4.86,0.41,7.29,0.56c4.87,0.29,9.74,0.2,14.6-0.24c0.04,0,0.09-0.01,0.13-0.01	C39.15,43.29,39.14,44.29,38.51,44.35z"/><path fill="#010101" d="M46.22,30.58c-0.09,0.01-0.18,0.02-0.27,0.03c-2.47,0.32-4.96,0.52-7.46,0.57	c-3.15,0.05-6.21-0.28-9.32-0.66c-4.18-0.51-8.42-0.37-12.55,0.4c-0.04,0.01-0.06,0.01-0.1,0.01h-0.01c-0.55,0-0.75-0.86-0.16-0.97	c0.35-0.07,0.7-0.13,1.06-0.18c1.77-0.3,3.57-0.47,5.36-0.54c2.3-0.08,4.6,0.04,6.88,0.34c0.13,0.02,0.27,0.04,0.4,0.05	c0.51,0.07,1.03,0.14,1.55,0.21c0.72,0.09,1.44,0.17,2.17,0.22c3.93,0.28,7.9,0.07,11.81-0.4c0.21-0.03,0.43-0.05,0.64-0.08	C46.86,29.49,46.85,30.5,46.22,30.58z"/><path fill="#010101" d="M16.95,4.46c-0.05,0.13-0.11,0.25-0.16,0.38c-0.06,0.14-0.12,0.28-0.19,0.42	c-0.9,2.11-1.91,4.17-3.06,6.17c-1.64,2.84-3.61,5.38-5.56,8c-2.47,3.34-4.49,6.99-5.91,10.91C2.04,30.4,2.02,30.45,2,30.51	c-0.14,0.39-0.6,0.42-0.84,0.22l-0.01-0.01c-0.13-0.1-0.19-0.27-0.12-0.48c0.84-2.32,1.86-4.57,3.08-6.72	c1.69-2.98,3.87-5.57,5.85-8.35c2.42-3.41,4.41-7.12,6.03-10.97c0.04-0.11,0.11-0.18,0.19-0.22c0.01-0.02,0.03-0.03,0.05-0.04	c0.22-0.12,0.5-0.08,0.65,0.08c0.01,0,0.01,0.01,0.02,0.01C16.99,4.14,17.02,4.28,16.95,4.46z"/><path fill="#010101" d="M9.66,43.44c-0.02,0.31-0.34,0.54-0.62,0.48c-0.12-0.02-0.24-0.09-0.31-0.24	c-2.31-4.46-5.46-8.39-7.57-12.95l-0.01-0.01c-0.27-0.58,0.59-1.08,0.86-0.5c0.02,0.04,0.04,0.08,0.06,0.12	c1.94,4.14,4.74,7.78,6.95,11.77c0.18,0.32,0.36,0.65,0.53,0.98c0.02,0.03,0.03,0.06,0.05,0.09C9.65,43.27,9.66,43.36,9.66,43.44z"/></svg>