<svg class="tree" xmlns="http://www.w3.org/2000/svg" viewBox="0 0 100 50" width="100" height="50">
<g xmlns="http://www.w3.org/2000/svg" id="g9967">
      <path id="path7553" xmlns:sodipodi="http://sodipodi.sourceforge.net/DTD/sodipodi-0.dtd" sodipodi:nodetypes="ccccc" style="fill:#4e9a06" d="m252.23 304.61l-60.02 30 60.57 30.28 60.02-30-60.57-30.28z"/>
      <g id="g9110" transform="matrix(.35948 0 0 .35948 208.08 237.52)">
        <path id="path9112" style="fill:#73d216" d="m203.47 278.12c-2.56-0.27-4.6 1.73-6.03 3.6-2.51 3.33-4.14 7.22-5.44 11.16-0.87-2.84-1.77-6-4.32-7.81-1.54-0.97-3.71-0.37-4.69 1.12-0.95 1.15-1.52 2.55-2.02 3.93 1.03 0.1 2.84 1.78 3.23 0.07 0.4-0.95 0.77-2.51 2.07-2.4 1.55 1.35 2.05 3.47 2.75 5.32 0.69 2.22 1.09 4.53 1.23 6.84 1.01 0.15 3.15 1.04 3.14-0.65 1.17-5.75 3.19-11.45 6.74-16.18 0.82-1.15 2.87-3.02 3.91-1.11 0.51 1.19 0.71 3.52 2.58 2.4 0.79-0.27 1.67-0.21 1.05-1.25-0.58-2.15-1.77-4.61-4.2-5.04z"/>
        <path id="path9114" style="fill:#3d7904" d="m203.18 277.92c-2.34 0-4.22 1.87-5.56 3.63-2.52 3.32-4.14 7.22-5.44 11.15-0.87-2.84-1.77-6-4.31-7.81-1.55-0.97-3.74-0.37-4.72 1.12-0.95 1.15-1.5 2.56-2 3.94 0.31 0.03 0.67 0.2 1.06 0.38 0.35-0.78 0.77-1.53 1.31-2.19 0.98-1.49 3.15-2.09 4.69-1.13 2.55 1.81 3.45 4.98 4.31 7.82 1.3-3.94 2.93-7.83 5.44-11.16 1.43-1.87 3.47-3.87 6.03-3.59 1.98 0.34 3.14 2.04 3.81 3.81 0.26-0.15 0.35-0.37 0.04-0.91-0.59-2.14-1.76-4.6-4.19-5.03-0.16-0.01-0.31-0.03-0.47-0.03zm-12.91 20.13c0.07 0.57 0.12 1.14 0.16 1.71 0.03 0.01 0.09 0.03 0.12 0.04-0.07-0.59-0.16-1.17-0.28-1.75z"/>
      </g>
      <g id="g9116" transform="matrix(.35948 0 0 .35948 151.2 223.9)">
        <path id="path9118" style="fill:#73d216" d="m203.47 278.12c-2.56-0.27-4.6 1.73-6.03 3.6-2.51 3.33-4.14 7.22-5.44 11.16-0.87-2.84-1.77-6-4.32-7.81-1.54-0.97-3.71-0.37-4.69 1.12-0.95 1.15-1.52 2.55-2.02 3.93 1.03 0.1 2.84 1.78 3.23 0.07 0.4-0.95 0.77-2.51 2.07-2.4 1.55 1.35 2.05 3.47 2.75 5.32 0.69 2.22 1.09 4.53 1.23 6.84 1.01 0.15 3.15 1.04 3.14-0.65 1.17-5.75 3.19-11.45 6.74-16.18 0.82-1.15 2.87-3.02 3.91-1.11 0.51 1.19 0.71 3.52 2.58 2.4 0.79-0.27 1.67-0.21 1.05-1.25-0.58-2.15-1.77-4.61-4.2-5.04z"/>
        <path id="path9120" style="fill:#3d7904" d="m203.18 277.92c-2.34 0-4.22 1.87-5.56 3.63-2.52 3.32-4.14 7.22-5.44 11.15-0.87-2.84-1.77-6-4.31-7.81-1.55-0.97-3.74-0.37-4.72 1.12-0.95 1.15-1.5 2.56-2 3.94 0.31 0.03 0.67 0.2 1.06 0.38 0.35-0.78 0.77-1.53 1.31-2.19 0.98-1.49 3.15-2.09 4.69-1.13 2.55 1.81 3.45 4.98 4.31 7.82 1.3-3.94 2.93-7.83 5.44-11.16 1.43-1.87 3.47-3.87 6.03-3.59 1.98 0.34 3.14 2.04 3.81 3.81 0.26-0.15 0.35-0.37 0.04-0.91-0.59-2.14-1.76-4.6-4.19-5.03-0.16-0.01-0.31-0.03-0.47-0.03zm-12.91 20.13c0.07 0.57 0.12 1.14 0.16 1.71 0.03 0.01 0.09 0.03 0.12 0.04-0.07-0.59-0.16-1.17-0.28-1.75z"/>
      </g>
      <g id="g9122" transform="matrix(.35948 0 0 .35948 172.52 220.95)">
        <path id="path9124" style="fill:#73d216" d="m203.47 278.12c-2.56-0.27-4.6 1.73-6.03 3.6-2.51 3.33-4.14 7.22-5.44 11.16-0.87-2.84-1.77-6-4.32-7.81-1.54-0.97-3.71-0.37-4.69 1.12-0.95 1.15-1.52 2.55-2.02 3.93 1.03 0.1 2.84 1.78 3.23 0.07 0.4-0.95 0.77-2.51 2.07-2.4 1.55 1.35 2.05 3.47 2.75 5.32 0.69 2.22 1.09 4.53 1.23 6.84 1.01 0.15 3.15 1.04 3.14-0.65 1.17-5.75 3.19-11.45 6.74-16.18 0.82-1.15 2.87-3.02 3.91-1.11 0.51 1.19 0.71 3.52 2.58 2.4 0.79-0.27 1.67-0.21 1.05-1.25-0.58-2.15-1.77-4.61-4.2-5.04z"/>
        <path id="path9126" style="fill:#3d7904" d="m203.18 277.92c-2.34 0-4.22 1.87-5.56 3.63-2.52 3.32-4.14 7.22-5.44 11.15-0.87-2.84-1.77-6-4.31-7.81-1.55-0.97-3.74-0.37-4.72 1.12-0.95 1.15-1.5 2.56-2 3.94 0.31 0.03 0.67 0.2 1.06 0.38 0.35-0.78 0.77-1.53 1.31-2.19 0.98-1.49 3.15-2.09 4.69-1.13 2.55 1.81 3.45 4.98 4.31 7.82 1.3-3.94 2.93-7.83 5.44-11.16 1.43-1.87 3.47-3.87 6.03-3.59 1.98 0.34 3.14 2.04 3.81 3.81 0.26-0.15 0.35-0.37 0.04-0.91-0.59-2.14-1.76-4.6-4.19-5.03-0.16-0.01-0.31-0.03-0.47-0.03zm-12.91 20.13c0.07 0.57 0.12 1.14 0.16 1.71 0.03 0.01 0.09 0.03 0.12 0.04-0.07-0.59-0.16-1.17-0.28-1.75z"/>
      </g>
      <g id="g9128" transform="matrix(.35948 0 0 .35948 190.8 234.77)">
        <path id="path9130" style="fill:#73d216" d="m203.47 278.12c-2.56-0.27-4.6 1.73-6.03 3.6-2.51 3.33-4.14 7.22-5.44 11.16-0.87-2.84-1.77-6-4.32-7.81-1.54-0.97-3.71-0.37-4.69 1.12-0.95 1.15-1.52 2.55-2.02 3.93 1.03 0.1 2.84 1.78 3.23 0.07 0.4-0.95 0.77-2.51 2.07-2.4 1.55 1.35 2.05 3.47 2.75 5.32 0.69 2.22 1.09 4.53 1.23 6.84 1.01 0.15 3.15 1.04 3.14-0.65 1.17-5.75 3.19-11.45 6.74-16.18 0.82-1.15 2.87-3.02 3.91-1.11 0.51 1.19 0.71 3.52 2.58 2.4 0.79-0.27 1.67-0.21 1.05-1.25-0.58-2.15-1.77-4.61-4.2-5.04z"/>
        <path id="path9132" style="fill:#3d7904" d="m203.18 277.92c-2.34 0-4.22 1.87-5.56 3.63-2.52 3.32-4.14 7.22-5.44 11.15-0.87-2.84-1.77-6-4.31-7.81-1.55-0.97-3.74-0.37-4.72 1.12-0.95 1.15-1.5 2.56-2 3.94 0.31 0.03 0.67 0.2 1.06 0.38 0.35-0.78 0.77-1.53 1.31-2.19 0.98-1.49 3.15-2.09 4.69-1.13 2.55 1.81 3.45 4.98 4.31 7.82 1.3-3.94 2.93-7.83 5.44-11.16 1.43-1.87 3.47-3.87 6.03-3.59 1.98 0.34 3.14 2.04 3.81 3.81 0.26-0.15 0.35-0.37 0.04-0.91-0.59-2.14-1.76-4.6-4.19-5.03-0.16-0.01-0.31-0.03-0.47-0.03zm-12.91 20.13c0.07 0.57 0.12 1.14 0.16 1.71 0.03 0.01 0.09 0.03 0.12 0.04-0.07-0.59-0.16-1.17-0.28-1.75z"/>
      </g>
      <g id="g9134" transform="matrix(.35948 0 0 .35948 174.42 234.48)">
        <path id="path9136" style="fill:#73d216" d="m203.47 278.12c-2.56-0.27-4.6 1.73-6.03 3.6-2.51 3.33-4.14 7.22-5.44 11.16-0.87-2.84-1.77-6-4.32-7.81-1.54-0.97-3.71-0.37-4.69 1.12-0.95 1.15-1.52 2.55-2.02 3.93 1.03 0.1 2.84 1.78 3.23 0.07 0.4-0.95 0.77-2.51 2.07-2.4 1.55 1.35 2.05 3.47 2.75 5.32 0.69 2.22 1.09 4.53 1.23 6.84 1.01 0.15 3.15 1.04 3.14-0.65 1.17-5.75 3.19-11.45 6.74-16.18 0.82-1.15 2.87-3.02 3.91-1.11 0.51 1.19 0.71 3.52 2.58 2.4 0.79-0.27 1.67-0.21 1.05-1.25-0.58-2.15-1.77-4.61-4.2-5.04z"/>
        <path id="path9138" style="fill:#3d7904" d="m203.18 277.92c-2.34 0-4.22 1.87-5.56 3.63-2.52 3.32-4.14 7.22-5.44 11.15-0.87-2.84-1.77-6-4.31-7.81-1.55-0.97-3.74-0.37-4.72 1.12-0.95 1.15-1.5 2.56-2 3.94 0.31 0.03 0.67 0.2 1.06 0.38 0.35-0.78 0.77-1.53 1.31-2.19 0.98-1.49 3.15-2.09 4.69-1.13 2.55 1.81 3.45 4.98 4.31 7.82 1.3-3.94 2.93-7.83 5.44-11.16 1.43-1.87 3.47-3.87 6.03-3.59 1.98 0.34 3.14 2.04 3.81 3.81 0.26-0.15 0.35-0.37 0.04-0.91-0.59-2.14-1.76-4.6-4.19-5.03-0.16-0.01-0.31-0.03-0.47-0.03zm-12.91 20.13c0.07 0.57 0.12 1.14 0.16 1.71 0.03 0.01 0.09 0.03 0.12 0.04-0.07-0.59-0.16-1.17-0.28-1.75z"/>
      </g>
      <g id="g9140" transform="matrix(-.35948 0 0 .35948 293.56 235.71)">
        <path id="path9142" style="fill:#73d216" d="m203.47 278.12c-2.56-0.27-4.6 1.73-6.03 3.6-2.51 3.33-4.14 7.22-5.44 11.16-0.87-2.84-1.77-6-4.32-7.81-1.54-0.97-3.71-0.37-4.69 1.12-0.95 1.15-1.52 2.55-2.02 3.93 1.03 0.1 2.84 1.78 3.23 0.07 0.4-0.95 0.77-2.51 2.07-2.4 1.55 1.35 2.05 3.47 2.75 5.32 0.69 2.22 1.09 4.53 1.23 6.84 1.01 0.15 3.15 1.04 3.14-0.65 1.17-5.75 3.19-11.45 6.74-16.18 0.82-1.15 2.87-3.02 3.91-1.11 0.51 1.19 0.71 3.52 2.58 2.4 0.79-0.27 1.67-0.21 1.05-1.25-0.58-2.15-1.77-4.61-4.2-5.04z"/>
        <path id="path9144" style="fill:#3d7904" d="m203.18 277.92c-2.34 0-4.22 1.87-5.56 3.63-2.52 3.32-4.14 7.22-5.44 11.15-0.87-2.84-1.77-6-4.31-7.81-1.55-0.97-3.74-0.37-4.72 1.12-0.95 1.15-1.5 2.56-2 3.94 0.31 0.03 0.67 0.2 1.06 0.38 0.35-0.78 0.77-1.53 1.31-2.19 0.98-1.49 3.15-2.09 4.69-1.13 2.55 1.81 3.45 4.98 4.31 7.82 1.3-3.94 2.93-7.83 5.44-11.16 1.43-1.87 3.47-3.87 6.03-3.59 1.98 0.34 3.14 2.04 3.81 3.81 0.26-0.15 0.35-0.37 0.04-0.91-0.59-2.14-1.76-4.6-4.19-5.03-0.16-0.01-0.31-0.03-0.47-0.03zm-12.91 20.13c0.07 0.57 0.12 1.14 0.16 1.71 0.03 0.01 0.09 0.03 0.12 0.04-0.07-0.59-0.16-1.17-0.28-1.75z"/>
      </g>
      <g id="g9152" transform="matrix(-.35948 0 0 .35948 323.64 212.02)">
        <path id="path9154" style="fill:#73d216" d="m203.47 278.12c-2.56-0.27-4.6 1.73-6.03 3.6-2.51 3.33-4.14 7.22-5.44 11.16-0.87-2.84-1.77-6-4.32-7.81-1.54-0.97-3.71-0.37-4.69 1.12-0.95 1.15-1.52 2.55-2.02 3.93 1.03 0.1 2.84 1.78 3.23 0.07 0.4-0.95 0.77-2.51 2.07-2.4 1.55 1.35 2.05 3.47 2.75 5.32 0.69 2.22 1.09 4.53 1.23 6.84 1.01 0.15 3.15 1.04 3.14-0.65 1.17-5.75 3.19-11.45 6.74-16.18 0.82-1.15 2.87-3.02 3.91-1.11 0.51 1.19 0.71 3.52 2.58 2.4 0.79-0.27 1.67-0.21 1.05-1.25-0.58-2.15-1.77-4.61-4.2-5.04z"/>
        <path id="path9156" style="fill:#3d7904" d="m203.18 277.92c-2.34 0-4.22 1.87-5.56 3.63-2.52 3.32-4.14 7.22-5.44 11.15-0.87-2.84-1.77-6-4.31-7.81-1.55-0.97-3.74-0.37-4.72 1.12-0.95 1.15-1.5 2.56-2 3.94 0.31 0.03 0.67 0.2 1.06 0.38 0.35-0.78 0.77-1.53 1.31-2.19 0.98-1.49 3.15-2.09 4.69-1.13 2.55 1.81 3.45 4.98 4.31 7.82 1.3-3.94 2.93-7.83 5.44-11.16 1.43-1.87 3.47-3.87 6.03-3.59 1.98 0.34 3.14 2.04 3.81 3.81 0.26-0.15 0.35-0.37 0.04-0.91-0.59-2.14-1.76-4.6-4.19-5.03-0.16-0.01-0.31-0.03-0.47-0.03zm-12.91 20.13c0.07 0.57 0.12 1.14 0.16 1.71 0.03 0.01 0.09 0.03 0.12 0.04-0.07-0.59-0.16-1.17-0.28-1.75z"/>
      </g>
      <g id="g9158" transform="matrix(-.35948 0 0 .35948 318.64 250.27)">
        <path id="path9160" style="fill:#73d216" d="m203.47 278.12c-2.56-0.27-4.6 1.73-6.03 3.6-2.51 3.33-4.14 7.22-5.44 11.16-0.87-2.84-1.77-6-4.32-7.81-1.54-0.97-3.71-0.37-4.69 1.12-0.95 1.15-1.52 2.55-2.02 3.93 1.03 0.1 2.84 1.78 3.23 0.07 0.4-0.95 0.77-2.51 2.07-2.4 1.55 1.35 2.05 3.47 2.75 5.32 0.69 2.22 1.09 4.53 1.23 6.84 1.01 0.15 3.15 1.04 3.14-0.65 1.17-5.75 3.19-11.45 6.74-16.18 0.82-1.15 2.87-3.02 3.91-1.11 0.51 1.19 0.71 3.52 2.58 2.4 0.79-0.27 1.67-0.21 1.05-1.25-0.58-2.15-1.77-4.61-4.2-5.04z"/>
        <path id="path9162" style="fill:#3d7904" d="m203.18 277.92c-2.34 0-4.22 1.87-5.56 3.63-2.52 3.32-4.14 7.22-5.44 11.15-0.87-2.84-1.77-6-4.31-7.81-1.55-0.97-3.74-0.37-4.72 1.12-0.95 1.15-1.5 2.56-2 3.94 0.31 0.03 0.67 0.2 1.06 0.38 0.35-0.78 0.77-1.53 1.31-2.19 0.98-1.49 3.15-2.09 4.69-1.13 2.55 1.81 3.45 4.98 4.31 7.82 1.3-3.94 2.93-7.83 5.44-11.16 1.43-1.87 3.47-3.87 6.03-3.59 1.98 0.34 3.14 2.04 3.81 3.81 0.26-0.15 0.35-0.37 0.04-0.91-0.59-2.14-1.76-4.6-4.19-5.03-0.16-0.01-0.31-0.03-0.47-0.03zm-12.91 20.13c0.07 0.57 0.12 1.14 0.16 1.71 0.03 0.01 0.09 0.03 0.12 0.04-0.07-0.59-0.16-1.17-0.28-1.75z"/>
      </g>
      <g id="g9164" transform="matrix(-.35948 0 0 .35948 346.06 223.96)">
        <path id="path9166" style="fill:#73d216" d="m203.47 278.12c-2.56-0.27-4.6 1.73-6.03 3.6-2.51 3.33-4.14 7.22-5.44 11.16-0.87-2.84-1.77-6-4.32-7.81-1.54-0.97-3.71-0.37-4.69 1.12-0.95 1.15-1.52 2.55-2.02 3.93 1.03 0.1 2.84 1.78 3.23 0.07 0.4-0.95 0.77-2.51 2.07-2.4 1.55 1.35 2.05 3.47 2.75 5.32 0.69 2.22 1.09 4.53 1.23 6.84 1.01 0.15 3.15 1.04 3.14-0.65 1.17-5.75 3.19-11.45 6.74-16.18 0.82-1.15 2.87-3.02 3.91-1.11 0.51 1.19 0.71 3.52 2.58 2.4 0.79-0.27 1.67-0.21 1.05-1.25-0.58-2.15-1.77-4.61-4.2-5.04z"/>
        <path id="path9168" style="fill:#3d7904" d="m203.18 277.92c-2.34 0-4.22 1.87-5.56 3.63-2.52 3.32-4.14 7.22-5.44 11.15-0.87-2.84-1.77-6-4.31-7.81-1.55-0.97-3.74-0.37-4.72 1.12-0.95 1.15-1.5 2.56-2 3.94 0.31 0.03 0.67 0.2 1.06 0.38 0.35-0.78 0.77-1.53 1.31-2.19 0.98-1.49 3.15-2.09 4.69-1.13 2.55 1.81 3.45 4.98 4.31 7.82 1.3-3.94 2.93-7.83 5.44-11.16 1.43-1.87 3.47-3.87 6.03-3.59 1.98 0.34 3.14 2.04 3.81 3.81 0.26-0.15 0.35-0.37 0.04-0.91-0.59-2.14-1.76-4.6-4.19-5.03-0.16-0.01-0.31-0.03-0.47-0.03zm-12.91 20.13c0.07 0.57 0.12 1.14 0.16 1.71 0.03 0.01 0.09 0.03 0.12 0.04-0.07-0.59-0.16-1.17-0.28-1.75z"/>
      </g>
    </g>
</svg>