<?xml version="1.0" encoding="UTF-8"?>
<svg id="uuid-e95e68a4-2afb-40fe-8ca0-60126828d0a7" data-name="Layer 2" xmlns="http://www.w3.org/2000/svg" xmlns:xlink="http://www.w3.org/1999/xlink" viewBox="0 0 43.31 44.36">
  <defs>
    <linearGradient id="uuid-7162df85-30b0-48a5-b61b-4a9191f693f8" x1="115.49" y1="548.32" x2="153.22" y2="876.16" gradientTransform="translate(14.63 -14.19) scale(.06)" gradientUnits="userSpaceOnUse">
      <stop offset="0" stop-color="#9c6e29"/>
      <stop offset=".77" stop-color="#542f15"/>
    </linearGradient>
    <linearGradient id="uuid-9bffc2a2-3442-46c2-b030-6965ce0c13db" x1="39.14" y1="590.12" x2="26.76" y2="729.57" gradientTransform="translate(14.63 -14.19) scale(.06)" gradientUnits="userSpaceOnUse">
      <stop offset="0" stop-color="#3c6b43"/>
      <stop offset="1" stop-color="#0e352a"/>
    </linearGradient>
  </defs>
  <g id="uuid-738055cb-0667-41ff-af4f-590d9721cb8c" data-name="Layer 1">
    <g>
      <path d="M31.54,41.71c-1.01.53-2.05,1-3.12,1.38-.43.15-.88.29-1.32.42-3.84,1.12-6.23,1.09-10.09.12-.89-.22-1.78-.46-2.64-.78-.42-.16-.85-.35-1.26-.54.88.31,1.11-.08,1.77-.06.4.01,2.16.62,2.31,0,4.44.87,8.53.54,12.67-1.32,1.18-.53,2.29-1.2,3.36-1.92,1.41-.94,2.76-1.96,3.78-3.33.09-.23.01-.2-.18-.15.57-.65,1.2-1.55,1.68-2.28.44-.66.9-1.33,1.26-2.04l.03.12c.91-1.14,1.25-2.7,1.77-4.05.08-.21.23-.22.24-.24.03-.07-.23-.58.57-1.29.3.69-.15,1.2-.09,1.65.05.32.23.13.3-.06.39-1.08.7-4.88.66-6.07,0-.12-.27-1.15-.06-1.47.88,9-3.64,17.68-11.65,21.92Z" style="fill: #33190f; stroke-width: 0px;"/>
      <path d="M8.36,38.23c2.54,2.01,5.66,3.4,8.83,4.02-.15.62-1.91.01-2.31,0-.66-.02-.89.37-1.77.06-.12-.05-.24-.12-.36-.18-2.67-1.27-4.95-3.02-6.91-5.23.26-.17.68-.08.66-.36.46.48,1.34,1.26,1.86,1.68Z" style="fill: #4e2a13; stroke-width: 0px;"/>
      <path d="M38.03,7.65c.45.36,1.58,1.95,1.92,2.49,1.43,2.28,2.36,4.85,2.88,7.48-.39-.22.15-.61-.57-.84-.29.79-.01,1.83-.57,1.8-.04-.26-.07-.53-.12-.78-.62-3.11-2.14-6.65-3.96-9.25.07-.11-.16-.92-.18-.96.18-.33.36-.14.6.06Z" style="fill: #74471c; stroke-width: 0px;"/>
      <path d="M42.84,17.62c.15.73.29,1.42.36,2.16-.21.32.06,1.36.06,1.47.04,1.19-.27,4.98-.66,6.07-.07.19-.26.38-.3.06-.06-.45.39-.97.09-1.65-.8.71-.54,1.22-.57,1.29,0,.02-.16.03-.24.24-.52,1.36-.86,2.92-1.77,4.05l-.03-.12c.51-1.01,1.27-3,1.56-4.08.78-2.93.84-5.54.36-8.53.56.02.28-1.01.57-1.8.72.23.18.62.57.84Z" style="fill: #4e2a13; stroke-width: 0px;"/>
      <path d="M27.76.93c.11.2.3.11.42.54-2.78-.97-5.47-1.32-8.41-1.08-5.86.48-11.33,3.74-14.84,8.41-.58-.07.75-.75.3-1.08C10.68,1.14,19.58-1.59,27.76.93Z" style="fill: #b2732a; stroke-width: 0px;"/>
      <path d="M.85,26.64c.45,1.9,1.26,3.72,2.19,5.41l.15-.12c.27.52.69,1.18,1.02,1.68.68,1.04,1.43,2.05,2.28,2.94.02.28-.4.19-.66.36-2.48-2.81-4.47-6.61-5.29-10.27h.3Z" style="fill: #74471c; stroke-width: 0px;"/>
      <path d="M1.75,14.44c-.13.33-.25.68-.36,1.02-.35,1.1-.71,2.65-.84,3.78-.22,1.94-.15,3.37.18,5.29-.44-.33-.06,1.33.12,2.1h-.3c-.94-4.23-.68-8.63.9-12.67.38.11.74-1.59.9-1.29-.14.58-.86,1.71-.6,1.77Z" style="fill: #b2732a; stroke-width: 0px;"/>
      <path d="M35.51,5.13c-.08.43.3.53.3.84-.17-.14-.56-.55-.48-.12-.33-.32-1.11-.95-1.5-1.26-1.84-1.46-3.42-2.35-5.65-3.12-.12-.43-.31-.34-.42-.54,2.75.85,5.54,2.38,7.75,4.2Z" style="fill: #b2732a; stroke-width: 0px;"/>
      <path d="M4.93,8.79c-1.28,1.7-2.43,3.66-3.18,5.65-.26-.06.46-1.19.6-1.77-.16-.3-.52,1.4-.9,1.29.84-2.16,2.31-4.46,3.78-6.25.45.33-.88,1.02-.3,1.08Z" style="fill: #b2732a; stroke-width: 0px;"/>
      <path d="M38.03,7.65c-.24-.2-.42-.39-.6-.06-.08-.15-1.4-1.44-1.62-1.62,0-.31-.38-.41-.3-.84.92.76,1.82,1.56,2.52,2.52Z" style="fill: #8a5c24; stroke-width: 0px;"/>
      <path d="M36.53,9.04c2.22,2.55,3.59,5.76,4.32,9.04.07.09.08-.17.06-.39.55.21.08-.79.66.12.05.25.08.52.12.78.48,2.99.42,5.6-.36,8.53-.21,0-.27.81-.36.93-.07.09-.3.01-.48.24-.14.17-.5,1.36-.66,1.68-.36.73-.73,1.43-1.08,2.16-.03.06-.15,0-.18.06-.11.26-.43,1.05-.06,1.05-.48.73-1.11,1.63-1.68,2.28-.25.29-.63.73-.96.9.17-.19.34-.41.54-.57.01-.42-1.19.88-1.71,1.29-3.61,2.79-6.88,3.91-11.35,4.51-.29.04-.97,0-1.02,0-.07.01.06.27-1.29.3-.9-.06-1.48-.14-2.34-.42.05-.7-.36-1.33-.42-2.04,5.87,1.32,12.08-.66,16.1-5.14,4.24-4.72,5.67-11.33,3.84-17.39-.26-.88-.89-2.65-1.5-3.18-.39-.76-.22-.6-.24-.63-.08-.14-.23-.08-.24-.09-1-1.72-1.81-2.92-3.3-4.26-2.87-2.58-6.6-4.17-10.45-4.38-.34-.72.26-1.5.9-1.86,4.67.36,10.06,2.93,13.15,6.49Z" style="fill: #a3762b; stroke-width: 0px;"/>
      <path d="M7.82,36.19c1.89,1.74,4.11,3.18,6.55,4.02.64.22,1.26.5,1.95.54-.2-.53-.72-1.69-.21-1.98.23.1.82.35,1.02.42-.32.05.42,1.75.48,1.83.26.38.7.39,1.08.51.86.28,1.45.36,2.34.42,2.98.19,6.08-.47,8.83-1.62.24.21.05.37,0,.6-4.14,1.86-8.23,2.19-12.67,1.32-3.17-.62-6.29-2.01-8.83-4.02.11-.23-.77-1.13-1.2-1.62l.3-.72c.11.1.25.2.36.3Z" style="fill: #8a5c24; stroke-width: 0px;"/>
      <path d="M41.33,27.12c-.29,1.09-1.05,3.08-1.56,4.08-.36.71-.82,1.38-1.26,2.04-.37,0-.05-.8.06-1.05.03-.06.15,0,.18-.06.35-.73.72-1.44,1.08-2.16.16-.32.52-1.51.66-1.68.19-.23.41-.15.48-.24.09-.13.15-.93.36-.93Z" style="fill: #a3762b; stroke-width: 0px;"/>
      <path d="M33.23,39.01c-1.08.72-2.18,1.39-3.36,1.92.05-.23.24-.39,0-.6,1.05-.44,2.34-1.13,3.3-1.74l.06.42Z" style="fill: #74471c; stroke-width: 0px;"/>
      <path d="M33.23,39.01l-.06-.42c.91-.58,1.98-1.35,2.7-2.16.33-.17.71-.61.96-.9.19-.05.27-.08.18.15-1.02,1.37-2.38,2.39-3.78,3.33Z" style="fill: #603a16; stroke-width: 0px;"/>
      <path d="M4.57,33.36c.23.37.47.67.72,1.02.59.8,1.21,1.48,1.86,2.22.43.49,1.31,1.4,1.2,1.62-.53-.42-1.4-1.2-1.86-1.68-.86-.9-1.61-1.91-2.28-2.94l.36-.24Z" style="fill: #b2732a; stroke-width: 0px;"/>
      <path d="M37.61,8.55c1.83,2.6,3.34,6.14,3.96,9.25-.58-.91-.11.09-.66-.12-.28-3.2-1.9-6.49-3.9-8.95-.54-.67-1.05-1.28-1.68-1.86l.12-.03c-.58-.36-.17-.32.18-.63.72.73,1.39,1.5,1.98,2.34Z" style="fill: #a3762b; stroke-width: 0px;"/>
      <path d="M35.81,5.97c.22.19,1.54,1.47,1.62,1.62.02.04.25.86.18.96-.59-.84-1.27-1.61-1.98-2.34-.1-.11-.19-.26-.3-.36-.08-.43.31-.02.48.12Z" style="fill: #8a5c24; stroke-width: 0px;"/>
      <path d="M19.77.39c.32.28.71.01.24.54C12.34,1.47,5.77,6.55,2.65,13.48c-.56.34-.57,2.23-1.26,1.98.11-.34.23-.69.36-1.02.75-1.99,1.91-3.95,3.18-5.65C8.44,4.13,13.91.87,19.77.39Z" style="fill: #f5e6b5; stroke-width: 0px;"/>
      <path d="M28.18,1.47c2.23.78,3.81,1.67,5.65,3.12,0,.15.14.19-.09.18-1.3-.95-2.69-1.73-4.17-2.34-3.27-1.33-6.02-1.75-9.55-1.5.47-.53.08-.26-.24-.54,2.94-.24,5.63.11,8.41,1.08Z" style="fill: #edcf88; stroke-width: 0px;"/>
      <path d="M3.19,29.88s.01-.06.3.48c.12.22.24.44.36.66-.5-.26-.12-.77-.72-.15.47.84.92,1.68,1.44,2.49l-.36.24c-.33-.5-.75-1.16-1.02-1.68-.57-1.09-.99-2.2-1.38-3.36.6.23-.11-1.11-.36-2.25-.19-.85-.32-1.74-.42-2.61.57-.35.45.84.54,1.29.35,1.69.85,3.35,1.62,4.9Z" style="fill: #d2a030; stroke-width: 0px;"/>
      <path d="M.73,24.53c.24,1.43.62,2.66,1.08,4.02.39,1.16.81,2.28,1.38,3.36l-.15.12c-.93-1.69-1.75-3.51-2.19-5.41-.18-.78-.56-2.43-.12-2.1Z" style="fill: #a3762b; stroke-width: 0px;"/>
      <path d="M1.15,18.47c-.37,2.28-.39,2.93-.12,5.23.1.87.23,1.76.42,2.61.25,1.14.96,2.48.36,2.25-.46-1.36-.84-2.6-1.08-4.02-.33-1.91-.4-3.35-.18-5.29.45.11.2-.51.6-.78Z" style="fill: #edcf88; stroke-width: 0px;"/>
      <path d="M2.65,13.48c-.8,1.78-1.19,3.05-1.5,4.99-.4.27-.15.89-.6.78.13-1.14.49-2.68.84-3.78.69.25.7-1.64,1.26-1.98Z" style="fill: #edcf88; stroke-width: 0px;"/>
      <path d="M33.83,4.59c.39.31,1.17.95,1.5,1.26.11.1.2.25.3.36-.35.31-.76.27-.18.63l-.12.03c-1.02-.94-2.47-2-3.66-2.7.13-.39-2.86-1.41-2.55-1.56.21.01.36.03.45-.18,1.48.61,2.87,1.4,4.17,2.34.23.01.1-.03.09-.18Z" style="fill: #d2a030; stroke-width: 0px;"/>
      <path d="M36.71,13.78c.42.81,1.06,2.49,1.26,3.36,1.54,6.73-.9,14.99-6.7,19.04-4.51,3.15-9.67,3.7-14.9,2.16-.95-.28-1.92-.9-2.07-.6-.13-.08-.29-.16-.42-.24-.43-.28-.92-.65-1.32-.96-1.22-.95-3.08-2.78-3.96-4.02-1.3-1.82-2.62-4.89-2.94-7.09-.12-.81-.1-1.47-.06-2.28.02-.42.08-.84.12-1.26l.24-.12c-.09,1.18.02,2.21.3,3.36.43,1.76,1.5,4.05,2.46,5.59,1.33,2.11,3.6,4.63,5.89,5.56v-.15c1.3.75,4.19,1.69,5.68,1.86,2.73.31,5.77-.44,8.23-1.62,2.59-1.24,5.09-3.87,6.46-6.37.35-.63.58-1.25.84-1.92,1.21-3.11,1.54-5.36,1.2-8.71-.12-1.24-.45-3.08-.96-4.2.04-.41.73.49.84.27.07-.14-.64-1.76-.72-2.01-.05-.14-.12-.3.06-.36,0,.01.16-.05.24.09.02.03-.15-.13.24.63Z" style="fill: url(#uuid-7162df85-30b0-48a5-b61b-4a9191f693f8); stroke-width: 0px;"/>
      <path d="M31.66,4.17c1.2.7,2.64,1.76,3.66,2.7.63.59,1.14,1.2,1.68,1.86-.16-.15-.09.22-.48.3-3.1-3.56-8.48-6.13-13.15-6.49-2.02-.15-3.39,0-5.35.42-1.87.41-3.6,1.06-5.29,1.98-3.09,1.68-5.76,4.24-7.63,7.21-3.36,5.33-3.49,12.27-1.08,18.02-.25-.11.14.21-.54.18-.29-.54-.29-.46-.3-.48C-4.64,12.04,14.61-5.85,31.66,4.17Z" style="fill: #33190f; stroke-width: 0px;"/>
      <path d="M22.47,4.41c3.85.21,7.59,1.8,10.45,4.38.19.3-.92.96-.99.96-.24,0-1.82-1.65-4.02-2.64-3.1-1.4-6.33-1.69-9.64-.9-1.64.39-3.19,1.04-4.63,1.92-1.67,1.03-3.28,2.52-4.45,4.08-.99,1.33-1.85,3-2.4,4.57-.61.06-.95-.64-1.5-.06.25-.85.58-1.66.96-2.46,1.25-2.65,3.31-5.16,5.71-6.85,1.69-1.19,3.76-2.11,5.77-2.58,1.66-.39,3.04-.51,4.75-.42Z" style="fill: #e3c242; stroke-width: 0px;"/>
      <path d="M18.27,39.49c-.37-.08-.78-.18-1.14-.3-.2-.07-.79-.32-1.02-.42-.54-.24-1.29-.7-1.8-1.02.15-.3,1.12.32,2.07.6,5.23,1.54,10.39.99,14.9-2.16,5.8-4.05,8.24-12.31,6.7-19.04l.24-.18c1.82,6.06.4,12.67-3.84,17.39-4.02,4.47-10.22,6.45-16.1,5.14Z" style="fill: #33190f; stroke-width: 0px;"/>
      <path d="M32.92,8.79c1.49,1.35,2.3,2.55,3.3,4.26-.18.06-.11.22-.06.36-.26.2-.43.63-.78.6-.13-.18-.51-.73-.54-.3-.56-.92-1.29-1.77-2.04-2.52-3.12-3.13-7.63-5.06-12.07-4.63-.2-.29-1.64-.02-2.34.12l-.12-.48c3.31-.79,6.54-.49,9.64.9,2.2.99,3.78,2.64,4.02,2.64.07,0,1.18-.67.99-.96Z" style="fill: #d2a030; stroke-width: 0px;"/>
      <path d="M23.37,2.55c-.64.36-1.24,1.14-.9,1.86-1.7-.09-3.09.03-4.75.42-.09-.3.27-.5.3-.69.02-.12-.27-.24,0-1.17,1.96-.43,3.33-.57,5.35-.42Z" style="fill: #8a5c24; stroke-width: 0px;"/>
      <path d="M35.87,36.43c-.72.81-1.79,1.58-2.7,2.16-.96.61-2.25,1.3-3.3,1.74-2.75,1.15-5.85,1.82-8.83,1.62,1.35-.03,1.22-.29,1.29-.3.05,0,.74.04,1.02,0,4.47-.6,7.75-1.71,11.35-4.51.53-.41,1.72-1.71,1.71-1.29-.2.16-.37.38-.54.57Z" style="fill: #a3762b; stroke-width: 0px;"/>
      <path d="M37.01,8.73c2.01,2.46,3.63,5.75,3.9,8.95.02.22,0,.48-.06.39-.74-3.28-2.1-6.49-4.32-9.04.39-.08.32-.45.48-.3Z" style="fill: #4e2a13; stroke-width: 0px;"/>
      <path d="M18.27,39.49c.06.71.47,1.34.42,2.04-.38-.12-.82-.13-1.08-.51-.06-.08-.8-1.78-.48-1.83.36.12.77.22,1.14.3Z" style="fill: #8a5c24; stroke-width: 0px;"/>
      <path d="M38.21,16.96l-.24.18c-.2-.87-.84-2.55-1.26-3.36.61.53,1.24,2.3,1.5,3.18Z" style="fill: #74471c; stroke-width: 0px;"/>
      <path d="M6.25,14.26c-.38.8-.71,1.61-.96,2.46-.42,1.42-.68,2.96-.72,4.45-.04,1.6.15,3.2.54,4.75.62,2.47,1.84,4.88,3.36,6.91,1.18,1.57,2.36,2.51,3.87,3.72.02.01.21.11.21,0,.4.31.9.68,1.32.96-.26.07.09.21.12.33.03.12-.19.99.36,2.37-2.44-.85-4.65-2.28-6.55-4.02l.18-.21c-1.64-1.69-3.05-3.62-3.96-5.8-2.41-5.75-2.28-12.69,1.08-18.02.7.37,0,.52.27.72.38-.52,0,.68.03.87.02.2.39.39.18,1.08.28.23.44-.65.66-.57Z" style="fill: #74471c; stroke-width: 0px;"/>
      <path d="M14.3,37.75c.51.32,1.27.78,1.8,1.02-.51.29.01,1.46.21,1.98-.69-.04-1.31-.32-1.95-.54-.55-1.38-.33-2.25-.36-2.37-.03-.12-.38-.26-.12-.33.13.08.29.16.42.24Z" style="fill: #74471c; stroke-width: 0px;"/>
      <path d="M4.03,30.18c.91,2.17,2.33,4.11,3.96,5.8l-.18.21c-.11-.1-.25-.2-.36-.3-.65-.63-1.25-1.32-1.8-2.04-.68-.89-1.25-1.85-1.8-2.82-.12-.22-.24-.44-.36-.66.68.03.29-.29.54-.18Z" style="fill: #4e2a13; stroke-width: 0px;"/>
      <path d="M5.65,33.84c.55.72,1.15,1.41,1.8,2.04l-.3.72c-.65-.74-1.27-1.42-1.86-2.22-.03-.14.06-.19.06-.27,0-.06-.34.03.3-.27Z" style="fill: #8a5c24; stroke-width: 0px;"/>
      <path d="M3.85,31.02c.55.98,1.12,1.93,1.8,2.82-.64.3-.3.21-.3.27,0,.08-.09.13-.06.27-.26-.35-.49-.66-.72-1.02-.52-.81-.97-1.65-1.44-2.49.6-.62.22-.11.72.15Z" style="fill: #a3762b; stroke-width: 0px;"/>
      <path d="M29.56,2.43c-.09.21-.24.19-.45.18-.31.15,2.68,1.17,2.55,1.56C14.61-5.85-4.64,12.04,3.19,29.88c-.77-1.54-1.27-3.21-1.62-4.9-.09-.45.03-1.64-.54-1.29-.27-2.3-.25-2.95.12-5.23.32-1.93.7-3.2,1.5-4.99C5.77,6.55,12.34,1.47,20.01.93c3.53-.25,6.28.17,9.55,1.5Z" style="fill: #e3c242; stroke-width: 0px;"/>
      <path d="M6.8,16.78c-.62,1.77-.89,3.25-1.08,5.11-.04.42-.1.84-.12,1.26-.32-.47-.31-1.75-1.02-1.98.04-1.48.3-3.02.72-4.45.55-.58.89.12,1.5.06Z" style="fill: #d2a030; stroke-width: 0px;"/>
      <path d="M8.42,29.1s0,.03.06.12c0,.21.14.42.24.6.09.17.22.45.24.48,0,.33.09.47-.24.42-.97-1.54-2.03-3.83-2.46-5.59.33-.25-.06-.99-.06-1.11,0-.07.22-.08.18-.18-.06-.13-.41.04.18-.39.14,1.39,1.16,4.46,1.86,5.65Z" style="fill: #74471c; stroke-width: 0px;"/>
      <path d="M9.62,12.34c-.82,1.08-1.42,2.29-1.92,3.54-.3.75-.46,1.11-.66,1.92l-.39-.06c-.18.13-.66,3.57-.69,4.02l-.24.12c.19-1.86.46-3.34,1.08-5.11.55-1.57,1.41-3.23,2.4-4.57l.42.12Z" style="fill: #8a5c24; stroke-width: 0px;"/>
      <path d="M9.92,31.56c.22.41.55.68.84,1.02.38.44.79.84,1.2,1.26.26.26.57.7.9.84.02.02.04.04.06.06.06.06.11.12.18.18.24.21.69.56.96.72.02.23.35.37.54.48v.15c-2.29-.92-4.56-3.45-5.89-5.56.33.05.23-.09.24-.42.27.44.64.86.96,1.26Z" style="fill: #603a16; stroke-width: 0px;"/>
      <path d="M5.65,25.43c.32,2.2,1.65,5.27,2.94,7.09l-.12.3c-1.52-2.02-2.75-4.44-3.36-6.91.15.02.21-.48.54-.48Z" style="fill: #a3762b; stroke-width: 0px;"/>
      <path d="M7.04,17.81c-.47,1.86-.68,3.73-.48,5.65-.59.43-.24.26-.18.39.04.1-.18.11-.18.18,0,.12.39.86.06,1.11-.28-1.15-.39-2.18-.3-3.36.03-.46.51-3.89.69-4.02l.39.06Z" style="fill: #8a5c24; stroke-width: 0px;"/>
      <path d="M5.59,23.15c-.04.82-.06,1.47.06,2.28-.33,0-.39.5-.54.48-.39-1.55-.58-3.15-.54-4.75.71.23.7,1.51,1.02,1.98Z" style="fill: #d2a030; stroke-width: 0px;"/>
      <path d="M36.05,15.16c-.05-.11-.61-1.07-.66-1.14.35.03.52-.4.78-.6.09.25.79,1.87.72,2.01-.11.22-.8-.68-.84-.27Z" style="fill: #bb8f2d; stroke-width: 0px;"/>
      <path d="M12.56,36.55c0,.11-.19.01-.21,0-1.51-1.21-2.69-2.15-3.87-3.72l.12-.3c.89,1.25,2.74,3.08,3.96,4.02Z" style="fill: #8a5c24; stroke-width: 0px;"/>
      <path d="M11.96,7.41c-2.4,1.69-4.46,4.2-5.71,6.85-.22-.08-.38.8-.66.57.21-.7-.16-.88-.18-1.08-.02-.2.35-1.39-.03-.87-.28-.2.43-.35-.27-.72,1.87-2.97,4.54-5.53,7.63-7.21-.34,1.42-1.41,1.39-1.26,2.37l.48.09Z" style="fill: #74471c; stroke-width: 0px;"/>
      <path d="M18.03,2.97c-.27.93.02,1.05,0,1.17-.03.19-.39.39-.3.69-2.01.47-4.07,1.39-5.77,2.58l-.48-.09c-.15-.99.92-.95,1.26-2.37,1.69-.92,3.41-1.57,5.29-1.98Z" style="fill: #8a5c24; stroke-width: 0px;"/>
      <path d="M13.88,8.49c-1.51.91-3.21,2.44-4.26,3.84l-.42-.12c1.17-1.57,2.78-3.06,4.45-4.08l.24.36Z" style="fill: #b2732a; stroke-width: 0px;"/>
      <path d="M18.27,6.21l.12.48c-1.58.31-3.13.97-4.51,1.8l-.24-.36c1.44-.88,2.98-1.53,4.63-1.92Z" style="fill: #bb8f2d; stroke-width: 0px;"/>
      <g>
        <path d="M34.97,30c-1.37,2.5-3.87,5.13-6.46,6.37-2.46,1.18-5.5,1.94-8.23,1.62-1.48-.17-4.37-1.11-5.68-1.86-.19-.11-.52-.25-.54-.48.21.13.44.25.66.36,0,0,.06,0,.18.06.44.21,1.21.51,1.68.66.06.02.11.04.18.06.24.07.46.22.72.24,0,.07.03.05.06.06.6.16,1.19.36,1.8.48.06.01.12,0,.18,0,.37.06.7.15,1.08.18.04,0,.08,0,.12,0,3.57.29,6.59-.66,9.49-2.7.07-.05.06-.06.06-.06.12-.08.19-.16.3-.24,0,0,.02.02.12-.06.38-.3.67-.57,1.02-.9.58-.55,1.05-1.07,1.56-1.68.16-.18.33-.35.48-.54.41-.52.76-1.07,1.2-1.56Z" style="fill: #74471c; stroke-width: 0px;"/>
        <path d="M35.39,14.02c.05.07.61,1.04.66,1.14.51,1.13.84,2.97.96,4.2-.17.68-.26-.66-.36-1.08-.36-1.58-.95-3.17-1.8-4.57.03-.43.41.13.54.3Z" style="fill: #d2a030; stroke-width: 0px;"/>
        <path d="M8,16.06c-.9,2.17-1.19,4.35-1.02,6.7.15,2.12.66,2.49,1.08,3.93.13.44.19.68.24,1.14.05.42-.06.85.12,1.26-.71-1.19-1.72-4.26-1.86-5.65-.2-1.91.01-3.79.48-5.65.21-.81.36-1.17.66-1.92l.3.18Z" style="fill: #d2a030; stroke-width: 0px;"/>
        <g>
          <path d="M36.65,18.29c.1.42.19,1.77.36,1.08.34,3.35.01,5.6-1.2,8.71-.78-.82-.5-2.96-1.41-1.26-.19.11.24-1.03-.12-1.32-1.33,2.55-1.01,1.89-.27-.33.13-.58-.1-.54-.12-.57-.09-.19-.74-1.21-.9-.99l.39,1.17c-1.82-1.36-.52.2-.21.9.04.08.17.23.18.27.21,1.52-.96-1.14-1.23-1.35l-.39.33,1.08,2.16c-.41-.1-.71-.37-1.02-.63-.26-.22-.48-.81-.81-.66-.79,1.05-1.46,2.2-2.25,3.24-1.72,2.26-1.17,1.28-1.47,1.14-.65-.31-1.91,1.2-2.01,1.26-.05.03-.3.08-.42.12,0-.05-.16-.12-.18-.12v-1.8l.09,1.68c.16-.18,1.05-1,1.05-1.11,0-.17-1.03-1.67-.96-3.3l-.12-.06-.06,2.07c0-.35-.11-2.38-.06-2.49.08-.19,1.86-.24,3.75-1.77.96-.78,2.18-2.41,2.67-3.54,1.74-.25,1.62-.81,2.43-1.38.15-.11.47-.18.66-.3.17-.11.4-.42.6-.54.13-.08.48-.09.78-.24.21-.11.03-.55,1.17-.36Z" style="fill: #e3c242; stroke-width: 0px;"/>
          <path d="M32.8,11.2c-.05.34,1.26,1.18.21.96.09.74-.12.37-.3.54-.18.17,0,.4-.63.39.08.45.11,3.15.06,3.3-.02.05-.08.03-.12.03.1-1.58.07-3.2-.21-4.75l-.15.06c-2.14.88-4.34,1.94-5.89,3.72-.22-.78-.46-1.53-.78-2.28-.46-1.07-1.07-2.06-1.74-3-.28-.4-.59-.76-.9-1.14-.49-.59-.97-1.18-1.56-1.68-.06-.05-.05-.28-.27-.24-2.02,3.63-2.97,7.19-2.25,11.35-.21-.09-.28-1.16-.3-1.65-1.41.69-1.09-.04-1.2-.24-.09-.16-.41-.22-.42-.3-.01-.1.58-.17-.18-1.11.11-.31.21-1.13.09-1.14-.28.19-1.05.92-1.29.84.5-.65,1.77-.87,1.29-1.92-.3.41-.76.67-1.11.96-.18-.19,1-.88,1.14-1.29.37-1.07-.85-2.2-1.53-2.07-.67.13-2.23,1.74-.93,3.57.29.41.76.68.9,1.11l-1.26-1.2c-.3.06.06.8.06.93,0,.04-.12.02-.12.06,0,.69.22,1.23-.27,1.71-.87-.1-2.51.1-2.88.06-.31-.03-.87-.36-1.14-.42-.53-.12-.81.38-.99-.48,2.21-5.09,7.05-8.77,12.61-9.31,4.45-.43,8.96,1.5,12.07,4.63Z" style="fill: #edcf88; stroke-width: 0px;"/>
          <path d="M34.85,13.72c.85,1.39,1.44,2.98,1.8,4.57-1.14-.19-.96.25-1.17.36-.3.15-.65.16-.78.24-.2.12-.43.43-.6.54-.19.12-.51.2-.66.3-.82.57-.7,1.13-2.43,1.38.62-1.41.92-3.15,1.02-4.69.04,0,.1.02.12-.03.05-.16.02-2.85-.06-3.3.63,0,.45-.22.63-.39.18-.17.39.2.3-.54,1.05.22-.26-.62-.21-.96.75.76,1.48,1.61,2.04,2.52Z" style="fill: #edcf88; stroke-width: 0px;"/>
          <path d="M20.73,6.57c-5.56.54-10.4,4.22-12.61,9.31,0,.01-.12.17-.12.18l-.3-.18c.5-1.25,1.1-2.46,1.92-3.54,1.06-1.4,2.76-2.93,4.26-3.84,1.37-.83,2.92-1.49,4.51-1.8.7-.14,2.14-.41,2.34-.12Z" style="fill: #e3c242; stroke-width: 0px;"/>
          <path d="M18.21,30.48c2.11.39,2.33-.05,2.61-.06.31,0,.19.11.21.12-1.09.78-2.19.11-2.31.12-.04,0-.5.48-.72.48-.29,0-1.64-.79-1.74-.78-.07,0-.96.59-1.11.6-.11,0-.2.01-.24-.12-.29-.65-.75-1.15-1.2-1.68.02-.14-.23-.29-.24-.39-.06-.56.68-2.14-.39-.57-.5-.5-.77-1.29-.84-1.32-.25-.13-.43.1-.96-.42-3.03,4.14-2.62,3.13.09-.33.04-.16.06-.35.12-.51.31-.17.27-.46.45-.66.02-.03,0,.29.42-.36.34.68.57,1.47.93,2.13.85,1.55,3.05,3.89,4.93,3.75Z" style="fill: #d2a030; stroke-width: 0px;"/>
          <path d="M24.64,29.64c0-.24,0-.48,0-.72l.06-2.07.12.06c-.07,1.63.97,3.13.96,3.3,0,.12-.9.93-1.05,1.11l-.09-1.68Z" style="fill: #d2a030; stroke-width: 0px;"/>
          <path d="M14.72,16.3c.08.08.17.2.24.3-.38,0-1.36-1.38-1.47-1.32-.06,1.44.55,1.72,1.44,2.64.55-.72,1.36-1.35,1.38-2.34-.37.36-.71.78-1.17.96-.38-.13.79-.73,1.02-1.38.76.94.17,1.01.18,1.11.01.08.33.14.42.3.12.2-.2.93,1.2.24.02.49.09,1.57.3,1.65.08.49.39,1.84.54,2.25.06.17.53.97.66,1.23,0,.01.02.11.12.3-.3.02.61,1.21.96,1.65-.88.21-.12.9.42,2.58.32,1,.83,2.69.9,3.63-.12-.74-.98-3.69-1.26-4.42-.47-1.19-1.19-2.46-2.19-3.27-.66-.53-2.45-1.39-3.27-1.62.04-.4-.06-1.47,0-1.65.08-.25,1.31-.39,1.29-2.55-1.51,1.34-.8,2.53-2.76.6l-.15.03c-.1,1,1.22,1.81,1.26,1.92.04.11.02,1.34-.06,1.59-.4-.1-3.43-.71-3.54-.57-.03.17.06.22.06.27.05.54.47,1.94.66,2.52,1.03,3.21,2.64,6.83,6.31,7.51-1.87.14-4.08-2.2-4.93-3.75-.36-.66-.59-1.46-.93-2.13-.42.65-.4.33-.42.36-.18.2-.14.49-.45.66.2-.48.05-.46.06-.48.18-.48.73-.68.6-.81-.76.31-.64-.16-.78-.66-.01-.05-.12-.02-.12-.03-.04-.18.38-.84-.42-.54-.16.06-.43.29-.51.3-.42.07-2.03-.69-.57.84-.1.22-.35.47-.42.69-.26.82.42.64.66.99-.8.02-1.97-1.87-1.14-.03.7,1.55,1.2,1.32-.78.06.57,1.43,1.87,2.16.93,3.03-.05-.12-.14-.2-.21-.3.16-.11.08.02.21.12.04,0,.28-.56.27-.63,0-.1-1.11-1.86-1.2-1.47-.42-1.45-.93-1.82-1.08-3.93-.16-2.35.12-4.53,1.02-6.7,0-.01.11-.17.12-.18.18.86.46.37.99.48.27.06.83.39,1.14.42.37.04,2.01-.16,2.88-.06.49-.48.27-1.02.27-1.71,0-.04.12-.02.12-.06,0-.14-.36-.87-.06-.93-.06,1.17.56,1.58,1.26,2.28Z" style="fill: #edcf88; stroke-width: 0px;"/>
          <path d="M19.59,22.25c1.07,1.96,2.44,3.02,2.52,3.21.12.29.05.93.06,1.29.06,1.62-.15,3.24,0,4.87-.01,0-.06.15-.24.06.14-.48.02-1.07-.06-1.56-.07-.94-.58-2.64-.9-3.63-.54-1.68-1.3-2.38-.42-2.58-.35-.44-1.26-1.63-.96-1.65Z" style="fill: #d6b043; stroke-width: 0px;"/>
        </g>
        <g>
          <path d="M11.54,25.13c-.4.06-1.31.78-1.56.78-.25-.35-.92-.17-.66-.99.07-.22.32-.47.42-.69.1.04.1.12.24.12.32,0,.99-.5,1.26-.72,0,0,.11-.02.12.03.14.5.02.97.78.66.12.13-.42.33-.6.81Z" style="fill: #d6b043; stroke-width: 0px;"/>
          <path d="M9.98,24.35c-.14,0-.14-.08-.24-.12-1.46-1.53.15-.77.57-.84.08-.01.35-.24.51-.3.57-.09-.34.75-.84,1.26Z" style="fill: #64984a; stroke-width: 0px;"/>
          <path d="M11.24,23.63c-.27.22-.94.73-1.26.72.51-.51,1.41-1.35.84-1.26.8-.3.38.36.42.54Z" style="fill: #468341; stroke-width: 0px;"/>
        </g>
        <g>
          <g>
            <path d="M31.78,26.45l-.12.18c-.24-.22-.43-.45-.57-.42-.66.9-1.31,1.81-1.89,2.76-.18.02-.23.23-.48.06.8-1.05,1.46-2.19,2.25-3.24.33-.15.55.44.81.66Z" style="fill: #608039; stroke-width: 0px;"/>
            <path d="M33.89,24.59c-.55.83-.2,1.5-.72,1.08-.31-.7-1.61-2.26.21-.9l-.39-1.17c.16-.22.81.8.9.99Z" style="fill: #608039; stroke-width: 0px;"/>
            <path d="M25.24,31.44c.22-.01.06.11.06.24-1.07.4-1.52.49-2.58.72l-.12-.12c.38-.12.76-.36,1.14-.48.3-.1.8-.14,1.08-.24.12-.04.37-.09.42-.12Z" style="fill: #608039; stroke-width: 0px;"/>
            <path d="M31.72,33.78c-.35.33-.64.6-1.02.9l-.6-.69c.2-.16.44-.06.66-.09.32-.04.64-.08.96-.12Z" style="fill: #608039; stroke-width: 0px;"/>
            <path d="M23.67,31.56c.12-.02.39-.05.42-.06v.12c-.13.04-.52.12-.36.18-.38.13-.76.36-1.14.48-.21.07-.58.18-.33,0,.57-.23,1.73-.57.33-.54l-.06-.18c.24-.03.4.1.54.06.03,0,.12-.11.12-.12.43.3.45.06.48.06Z" style="fill: #74953d; stroke-width: 0px;"/>
            <path d="M21.33,31.92c-.22.06-.89.09-.72-.24.63-.4,1.47.02.72.24Z" style="fill: #608039; stroke-width: 0px;"/>
            <g>
              <path d="M33.17,25.67c.52.41.17-.25.72-1.08.02.03.25-.01.12.57-.74,2.22-1.06,2.88.27.33.36.29-.07,1.43.12,1.32.91-1.7.63.44,1.41,1.26-.26.67-.49,1.29-.84,1.92-.44.49-.79,1.04-1.2,1.56-2.54,1.84-2.18.97-2.67.9-.56-.08-.66.93-2.04-.48l-.09.09c1.32,1.42,1.68.53,1.95.51.49-.03.36.92,2.37-.48-.52.61-.98,1.13-1.56,1.68-.32.04-.64.08-.96.12.09-.22-.48.04-.87-.06-.04,0-.41-.33-.54-.36-.22-.05-4.89.07-4.08.84.3.31,4.21.63,4.96.72-2.9,2.04-5.92,2.99-9.49,2.7l.99-1.08-1.11,1.08c-.38-.03-.71-.12-1.08-.18l1.29-1.26-1.47,1.26c-.61-.12-1.2-.32-1.8-.48,1.62-.98,3.17-1.93,4.99-2.49-1.88.36-3.45,1.44-5.05,2.43-.26-.02-.48-.17-.72-.24,1.81-2.21,3.56-2.51,5.98-3.6,2.57,1.22.35-.09.18-.12-.2-.03-3.43,1.3-3.78,1.5-.74.42-1.92,1.53-2.55,2.16-.47-.15-1.24-.45-1.68-.66.28-.14,2.62-.51,2.25-.66-.69.31-2.18.4-2.4.48-.05.02-.03.08-.03.12-.22-.11-.45-.24-.66-.36-.27-.16-.72-.51-.96-.72,1.36-.17,2.73-.58,3.9-1.29-1.75-2.31-6.87-2.3-7.42-2.61-.06-.04-.6-1.05-.75-1.2,1.52.33,3.7,1.06,5.2,1.26.99.13,2.51.09,2.64.12.23.05,1.64,1.31,1.71,1.11-1.91-1.7-1.88-1.08-3.24-1.23v-.12c.16-.01,1.04-.6,1.11-.6.1,0,1.46.79,1.74.78.22,0,.68-.48.72-.48.12-.01,1.23.66,2.31-.12.09.05.23.21.3.3-.24.26-.25.57-.72.84-.17.33.5.3.72.24-.85.6-.68-.98-2.46.63l.09.09c1.48-1.36,1.45-.38,2.04-.42.08,0,.77-.46,1.59-.48,1.4-.03.24.31-.33.54-.25.18.12.07.33,0l.12.12c-2.28.5.73.02,1.41-.18,1.09-.32,2.1-.96,2.22-.96.1,0,1.48,1,1.26.6-.22-.05-1.13-.71-1.2-.72-.15-.01-.83.43-1.11.54,0-.13.16-.25-.06-.24.11-.06,1.36-1.57,2.01-1.26.3.14-.24,1.12,1.47-1.14.25.17.3-.04.48-.06-.25.41-.52.8-.72,1.23.67-.04,1.9-.82.51-.21l-.21-.15c.3-.43,2.2-3.5,2.49-3.45l2.58,2.7c.07-.04-.44-.82-.42-.54-.6-.5-1.26-1.47-1.77-1.92l.12-.18c.31.26.61.53,1.02.63l-1.08-2.16.39-.33c.27.21,1.44,2.88,1.23,1.35,0-.04-.14-.19-.18-.27Z" style="fill: #608039; stroke-width: 0px;"/>
              <g>
                <path d="M8.84,29.82c.15.15.69,1.17.75,1.2.55.32,5.67.3,7.42,2.61-1.18.71-2.54,1.12-3.9,1.29-.07-.06-.12-.12-.18-.18,1.34.05,2.73-.5,3.9-1.11-2.06-2.08-4.37-1.87-7.06-2.49-.07.03.12.37.15.42-.32-.4-.7-.83-.96-1.26-.02-.04-.15-.31-.24-.48.15-.1.11,0,.12,0Z" style="fill: #a1a938; stroke-width: 0px;"/>
                <path d="M30.76,33.9c-.22.03-.46-.07-.66.09l.6.69c-.1.08-.11.06-.12.06-.21-.26-.99-1.08-1.23-1.14-.24-.06-3.65.21-3.84.3-1.32.59,4.49.96,4.78,1.08,0,0,0,.01-.06.06-.74-.09-4.65-.41-4.96-.72-.81-.77,3.86-.89,4.08-.84.13.03.51.35.54.36.39.1.96-.16.87.06Z" style="fill: #a1a938; stroke-width: 0px;"/>
                <path d="M15.14,31.08c1.36.15,1.33-.47,3.24,1.23-.07.2-1.48-1.06-1.71-1.11-.13-.03-1.65.01-2.64-.12-1.49-.2-3.68-.94-5.2-1.26,0,0,.03-.1-.12,0-.1-.18-.23-.39-.24-.6.09.14.21.4.33.48.44.28,5.46,1.28,6.34,1.38Z" style="fill: #a1a938; stroke-width: 0px;"/>
                <path d="M31.66,26.64c.51.45,1.17,1.42,1.77,1.92-.02-.28.49.5.42.54l-2.58-2.7c-.3-.05-2.2,3.02-2.49,3.45l.21.15c1.39-.61.16.17-.51.21.2-.43.47-.83.72-1.23.58-.95,1.23-1.87,1.89-2.76.14-.03.33.2.57.42Z" style="fill: #a1a938; stroke-width: 0px;"/>
                <path d="M16.77,36.79c-.07-.02-.12-.04-.18-.06.64-.64,1.81-1.74,2.55-2.16.36-.2,3.58-1.53,3.78-1.5.16.03,2.39,1.34-.18.12-2.41,1.09-4.16,1.39-5.98,3.6Z" style="fill: #a1a938; stroke-width: 0px;"/>
                <path d="M21.93,31.68c.18.09.23-.06.24-.06.2,0,.26-.05.36-.06l.06.18c-.82.02-1.51.48-1.59.48-.59.04-.56-.94-2.04.42l-.09-.09c1.78-1.61,1.61-.03,2.46-.63.75-.22-.09-.64-.72-.24.47-.27.48-.59.72-.84.16.19.44.76.6.84Z" style="fill: #a1a938; stroke-width: 0px;"/>
                <path d="M33.77,31.56c-.15.19-.33.36-.48.54-2.01,1.4-1.88.45-2.37.48-.27.02-.63.91-1.95-.51l.09-.09c1.38,1.41,1.48.4,2.04.48.49.07.14.94,2.67-.9Z" style="fill: #a1a938; stroke-width: 0px;"/>
                <path d="M22.71,32.4c1.07-.23,1.52-.32,2.58-.72.28-.11.97-.55,1.11-.54.07,0,.98.68,1.2.72.22.4-1.16-.6-1.26-.6-.12,0-1.13.64-2.22.96-.68.2-3.69.68-1.41.18Z" style="fill: #a1a938; stroke-width: 0px;"/>
                <path d="M17.55,37.09s-.07,0-.06-.06c1.59-1,3.17-2.07,5.05-2.43-1.82.56-3.37,1.51-4.99,2.49Z" style="fill: #a1a938; stroke-width: 0px;"/>
                <path d="M16.86,32.28l2.79,1.23c-.99-.18-1.96-.68-2.79-1.23Z" style="fill: #a1a938; stroke-width: 0px;"/>
                <path d="M14.9,36.07c-.12-.06-.17-.06-.18-.06,0-.04-.02-.1.03-.12.22-.08,1.72-.17,2.4-.48.37.15-1.97.52-2.25.66Z" style="fill: #a1a938; stroke-width: 0px;"/>
                <path d="M19.53,37.57c-.06,0-.12.01-.18,0l1.47-1.26-1.29,1.26Z" style="fill: #a1a938; stroke-width: 0px;"/>
                <path d="M20.73,37.75s-.08,0-.12,0l1.11-1.08-.99,1.08Z" style="fill: #8ca23e; stroke-width: 0px;"/>
                <path d="M28.27,35.04c.29.02-.16.31-.3.72-.11-.27.1-.54.3-.72Z" style="fill: #9c9635; stroke-width: 0px;"/>
              </g>
            </g>
            <path d="M24.82,31.56c-.28.1-.78.14-1.08.24-.16-.06.23-.14.36-.18.17-.05.51-.18.54-.18.02,0,.18.07.18.12Z" style="fill: #8ca23e; stroke-width: 0px;"/>
            <path d="M30.58,34.74c-.11.08-.18.16-.3.24-.28-.12-6.09-.49-4.78-1.08.19-.09,3.61-.36,3.84-.3.24.06,1.02.88,1.23,1.14Z" style="fill: #608039; stroke-width: 0px;"/>
            <path d="M12.92,34.74s-.04-.04-.06-.06c-.06-.06-.67-.69-.63-.72,3.69-.37,2.68-.41-.27-.12l-.66-.81c1.43.14-.04-.3-.54-.45-.29-.34-.62-.61-.84-1.02-.03-.05-.22-.39-.15-.42,2.69.62,4.99.41,7.06,2.49-1.17.61-2.57,1.16-3.9,1.11Z" style="fill: #608039; stroke-width: 0px;"/>
            <path d="M12.86,34.68c-.33-.15-.64-.58-.9-.84,2.95-.29,3.96-.25.27.12-.04.03.57.66.63.72Z" style="fill: #a1a938; stroke-width: 0px;"/>
            <path d="M11.96,33.84c-.41-.42-.82-.82-1.2-1.26.5.15,1.97.59.54.45l.66.81Z" style="fill: #a1a938; stroke-width: 0px;"/>
            <path d="M8.78,28.68c-.17-.23-.33-.59-.48-.84-.05-.46-.11-.7-.24-1.14.09-.39,1.19,1.37,1.2,1.47,0,.07-.23.63-.27.63-.13-.1-.05-.23-.21-.12Z" style="fill: #d2a030; stroke-width: 0px;"/>
            <g>
              <path d="M9.98,25.91c.25,0,1.16-.72,1.56-.78,0,.02.14,0-.06.48-.06.16-.08.35-.12.51-2.71,3.46-3.12,4.47-.09.33.53.52.71.29.96.42.07.04.35.82.84,1.32,1.07-1.57.34,0,.39.57.01.1.26.25.24.39-.1-.12-.3-.12-1.02-1.14-.01-.03-.01-.21-.21-.36-.09.12.17.3.21.36.04.09.05.31.06.33.09.16,1.87,2.73,2.16,2.49.04.13.13.13.24.12v.12c-.87-.1-5.9-1.11-6.34-1.38-.12-.08-.24-.34-.33-.48-.06-.09-.06-.11-.06-.12-.18-.41-.07-.84-.12-1.26.15.25.31.61.48.84.07.1.16.18.21.3.94-.88-.36-1.61-.93-3.03,1.98,1.26,1.48,1.49.78-.06-.82-1.84.34.05,1.14.03Z" style="fill: #608039; stroke-width: 0px;"/>
              <path d="M13.7,29.16c.45.53.91,1.03,1.2,1.68-.3.23-2.07-2.33-2.16-2.49,0-.02-.02-.24-.06-.33.72,1.02.92,1.02,1.02,1.14Z" style="fill: #608039; stroke-width: 0px;"/>
              <path d="M10.85,29.16c1,.18.24,1.01-.09.15l.09-.15Z" style="fill: #c2a92f; stroke-width: 0px;"/>
              <path d="M12.68,28.02c-.04-.06-.3-.24-.21-.36.2.15.2.33.21.36Z" style="fill: #608039; stroke-width: 0px;"/>
            </g>
          </g>
          <g>
            <path d="M15.14,13.9c-.33.27-.11.3-.18.96.24.08,1.01-.65,1.29-.84.12.01.02.83-.09,1.14-.23.65-1.4,1.25-1.02,1.38,0,0,.05.06-.18.06-.07-.1-.16-.22-.24-.3.26-.27.11-.75,0-1.08-.14-.43-.61-.7-.9-1.11-1.29-1.84.26-3.45.93-3.57.68-.13,1.9,1,1.53,2.07-.14.41-1.32,1.1-1.14,1.29Z" style="fill: #608039; stroke-width: 0px;"/>
            <path d="M14.72,15.22c.11.33.26.81,0,1.08-.7-.71-1.32-1.12-1.26-2.28l1.26,1.2Z" style="fill: #608039; stroke-width: 0px;"/>
            <path d="M14.96,14.86c.07-.66-.15-.69.18-.96.35-.29.81-.55,1.11-.96.48,1.05-.79,1.28-1.29,1.92Z" style="fill: #608039; stroke-width: 0px;"/>
            <path d="M15.14,20.81c-.11-.03-.25-.02-.42-.06.08-.26.1-1.49.06-1.59-.04-.11-1.36-.92-1.26-1.92l.15-.03c1.96,1.93,1.25.74,2.76-.6.02,2.16-1.21,2.3-1.29,2.55-.06.19.04,1.25,0,1.65Z" style="fill: #608039; stroke-width: 0px;"/>
            <path d="M14.96,16.6c.23,0,.17-.06.18-.06.46-.18.8-.6,1.17-.96-.02.99-.83,1.62-1.38,2.34-.9-.93-1.5-1.21-1.44-2.64.11-.06,1.09,1.32,1.47,1.32Z" style="fill: #608039; stroke-width: 0px;"/>
          </g>
          <g>
            <g>
              <path d="M14.72,20.75c.17.04.31.03.42.06.82.24,2.62,1.09,3.27,1.62,1.01.82,1.72,2.08,2.19,3.27.28.73,1.14,3.67,1.26,4.42.08.49.2,1.08.06,1.56-.16-.08-.44-.65-.6-.84-.07-.09-.21-.25-.3-.3-.02-.01.1-.13-.21-.12-.28,0-.5.45-2.61.06-3.66-.68-5.28-4.3-6.31-7.51.27.13.39,1.02.69,1.56.36-.26,1.73-.13,1.8-.18.14-.24-.15-.28-.27-.42-.4-.46-.87-.87-1.26-1.32-.41-.48-.82-1.03-1.2-1.53-.08-.1-.15,0-.42-.63,0-.05-.09-.1-.06-.27.11-.14,3.15.47,3.54.57Z" style="fill: url(#uuid-9bffc2a2-3442-46c2-b030-6965ce0c13db); stroke-width: 0px;"/>
              <path d="M12.86,22.61c-.38.09.04.66-.54.75-.21.47,1.68.83,1.8.57.12.14.41.18.27.42-.08.05-1.44-.08-1.8.18-.3-.54-.42-1.43-.69-1.56-.19-.58-.61-1.98-.66-2.52.27.63.34.53.42.63.38.51.79,1.06,1.2,1.53Z" style="fill: #386340; stroke-width: 0px;"/>
              <path d="M14.12,23.93c-.12.26-2.02-.1-1.8-.57.58-.09.16-.66.54-.75.39.45.87.86,1.26,1.32Z" style="fill: #254d36; stroke-width: 0px;"/>
            </g>
            <path d="M22.89,25.67s.12-.02.12.03c.11,1.96-.12,3.95.06,5.92-.14.04-.3-.09-.54-.06-.1.01-.16.06-.36.06-.15-1.62.06-3.24,0-4.87.41-.51-.38-1.15.72-1.08Z" style="fill: #386340; stroke-width: 0px;"/>
            <path d="M23.73,25.19c.03,2.12-.14,4.25-.06,6.37-.03,0-.05.24-.48-.06.11-.29-.22-5.31-.06-5.92.05-.2.39-.4.6-.39Z" style="fill: #d2a030; stroke-width: 0px;"/>
            <g>
              <path d="M32.02,16.42c-.1,1.53-.4,3.27-1.02,4.69-.5,1.13-1.71,2.77-2.67,3.54-1.9,1.54-3.67,1.58-3.75,1.77-.05.11.06,2.14.06,2.49,0,.24,0,.48,0,.72v1.8s-.37.13-.54.18v-.12c.1-.04.37-.03.42-.15.09-.23-.02-4.68-.06-4.93-.05-.3-.24.14-.06-.09,2.46-.53,4.78-2.01,5.92-4.32-1.18,1-3.1,1.47-3.27,1.56-.04-.26.11-.34.12-.36,1.63-.51,3.39-.95,3.96-2.73l-.12-.03c.21-.14.4-.77.48-1.05.39-1.33.51-3.88.48-5.29,0-.42-.11-1.93-.24-2.25-.02-.05-.05-.07-.06-.12l.15-.06c.28,1.54.31,3.17.21,4.75Z" style="fill: #386340; stroke-width: 0px;"/>
              <path d="M31,20.45c-.11.08-2.36.79-2.58.54.66-1.2,2.71-4.88,3-5.92.3-1.05.31-2.14.3-3.21.13.33.23,1.83.24,2.25.03,1.41-.09,3.96-.48,5.29-.08.28-.27.91-.48,1.05Z" style="fill: #254d36; stroke-width: 0px;"/>
              <path d="M24.4,26.33c.14-.19,1.09-.98,1.62-1.53.32-.33.67-1.05,1.02-1.23.17-.09,2.09-.56,3.27-1.56-1.13,2.32-3.45,3.8-5.92,4.32Z" style="fill: #254d36; stroke-width: 0px;"/>
              <path d="M31,20.45l.12.03c-.57,1.78-2.34,2.22-3.96,2.73.41-.74.85-1.48,1.26-2.22.23.25,2.47-.46,2.58-.54Z" style="fill: #254d36; stroke-width: 0px;"/>
              <g>
                <path d="M31.66,11.74s.04.07.06.12c.01,1.08,0,2.17-.3,3.21-.3,1.04-2.34,4.71-3,5.92-.41.75-.85,1.48-1.26,2.22,0,.02-.16.1-.12.36-.35.18-.7.9-1.02,1.23-.53.55-1.48,1.34-1.62,1.53-.18.23,0-.21.06.09.04.24.15,4.7.06,4.93-.05.13-.32.12-.42.15-.03,0-.3.04-.42.06-.08-2.12.09-4.25.06-6.37,0-.06-.06-.06-.06-.12-.02-1.67-.09-3.35-.12-5.02-.16.26-.35.53-.48.81-.1.03-.13-.07-.18-.06,1.04-1.78,1.51-3.76,2.88-5.35,1.55-1.78,3.74-2.84,5.89-3.72Z" style="fill: #386340; stroke-width: 0px;"/>
                <g>
                  <path d="M27.43,15.94c.35.75,1.58,3.55.93,3.27-.75-2,0,.06.03.93-.52-1.34-1.26-2.64-1.29-4.11l.33-.09Z" style="fill: #386340; stroke-width: 0px;"/>
                  <path d="M25.63,18.71c.51,1.13,1.06,2.28,1.23,3.51-.33.3-1.01-2.54-1.02-1.86.26.72.77,2.68.24,2.52-.25-1.38-.52-2.76-.45-4.17Z" style="fill: #386340; stroke-width: 0px;"/>
                  <path d="M24.64,24.47c.14-.23.88-1.07.9-1.23.01-.1-.29-1.61-.3-2.07-.02-.94.48,1.32.6,2.25-.59.75-2.34,3.65-1.86,2.22.02-.06.54-.96.66-1.17Z" style="fill: #386340; stroke-width: 0px;"/>
                  <path d="M26.5,19.67l.36-.42c.44,1.09,1.23,2.36.45,2.76-.12-.03-.74-2.06-.81-2.34Z" style="fill: #386340; stroke-width: 0px;"/>
                  <path d="M24.64,24.47l-.06-.33.66-2.97c0,.46.31,1.97.3,2.07-.02.16-.76,1-.9,1.23Z" style="fill: #386340; stroke-width: 0px;"/>
                  <path d="M28.15,14.74c.2.37,1.08,4.01.72,4.08-.23.05-.94-3.73-.72-4.08Z" style="fill: #386340; stroke-width: 0px;"/>
                  <path d="M29.05,14.56c.31,1.1.41,2.23.3,3.36l-.21-.09-.09-3.27Z" style="fill: #386340; stroke-width: 0px;"/>
                  <path d="M26.86,19.25l-.36.42c-.07-.29-.36-1.53-.3-1.71.15-.44.63,1.22.66,1.29Z" style="fill: #386340; stroke-width: 0px;"/>
                </g>
              </g>
            </g>
            <g>
              <path d="M25,13.18c.32.75.56,1.5.78,2.28-1.38,1.58-1.85,3.57-2.88,5.35-.04,0-.07.31-.18-.15-.07-.28-.07-1.07-.12-1.47l2.58-4.35h-.24c-.25.23-1.79,3-2.16,3.54,0,.01-.19.17-.24.15-.01-.11-.11-.44-.12-.54-.04-.47-.19-1.64-.06-1.98.07-.19.51-.41.54-.66.67-.61,1.29-1.72,1.83-2.46l.27.3Z" style="fill: #386340; stroke-width: 0px;"/>
              <path d="M25,13.18l-.27-.3c-.55.75-1.16,1.86-1.83,2.46-.03.03-.07-.09-.66.51-.02-.71-.45-2.45-.3-2.97.04-.14,1.22-2.19,1.32-2.7.67.95,1.28,1.93,1.74,3Z" style="fill: #386340; stroke-width: 0px;"/>
              <path d="M23.25,10.18c-.11.52-1.28,2.56-1.32,2.7-.04,0-.1.02-.12-.03-.05-.14-.21-1.44-.3-1.89l.84-1.92c.31.38.62.74.9,1.14Z" style="fill: #487343; stroke-width: 0px;"/>
              <path d="M22.35,9.04l-.84,1.92c-.24-1.16-.71-2.46-.72-3.6.59.5,1.07,1.09,1.56,1.68Z" style="fill: #487343; stroke-width: 0px;"/>
              <path d="M22.89,25.67c-1.1-.07-.31.57-.72,1.08-.01-.36.06-1-.06-1.29-.08-.19-1.45-1.26-2.52-3.21-.1-.19-.11-.29-.12-.3l.09-.24c.25.55,3.1,1.39,3.21,1.53.09.11.1,2.09.12,2.43Z" style="fill: #386340; stroke-width: 0px;"/>
              <path d="M23.67,25.07l-.45.24c-.09-.67-.47-3.86-.39-4.17.01-.05.19-.17.24-.27.13-.28.32-.55.48-.81.03,1.67.1,3.35.12,5.02Z" style="fill: #386340; stroke-width: 0px;"/>
              <path d="M22.29,17.93c.06.46.03,1.19.06,1.53.02.19.24.91.24,1.35-.63-.09-2.6-1.25-2.85-1.32-.1-.03-.1.06-.09.12-.02-.02-.36-.12-.48-.33-.04-.07-.35-1.54-.36-1.62-.13-1.12.04-2.23.12-3.33.37.39,3.09,1.79,3.18,1.95.04.07.15,1.44.18,1.65Z" style="fill: #487343; stroke-width: 0px;"/>
              <path d="M22.35,16c-.13.35.02,1.51.06,1.98l-.12-.06c-.03-.21-.14-1.58-.18-1.65-.09-.16-2.81-1.56-3.18-1.95.03-.4-.08-1.8.21-1.8.41.44,2.62,1.84,2.73,2.01.23.34-.07,1.49.48,1.47Z" style="fill: #487343; stroke-width: 0px;"/>
              <path d="M22.59,19.19c-.03-.22-.04-.44-.06-.66.05.02.23-.14.24-.15.37-.54,1.91-3.31,2.16-3.54h.24l-2.58,4.35Z" style="fill: #386340; stroke-width: 0px;"/>
              <g>
                <path d="M20.79,7.35c.01,1.14.48,2.45.72,3.6.09.45.25,1.75.3,1.89.02.05.08.03.12.03-.15.52.28,2.26.3,2.97.59-.61.63-.48.66-.51-.03.25-.47.47-.54.66-.55.01-.25-1.13-.48-1.47-.12-.17-2.33-1.58-2.73-2.01-.3,0-.18,1.41-.21,1.8-.08,1.1-.25,2.22-.12,3.33,0,.08.32,1.55.36,1.62.12.21.46.31.48.33.86.66,1.97,1.09,2.91,1.62.06-.04.03-.34.03-.42,0-.44-.22-1.17-.24-1.35-.03-.34,0-1.07-.06-1.53l.12.06c0,.1.11.43.12.54.02.22.03.44.06.66.05.4.05,1.19.12,1.47.11.46.14.16.18.15.05-.01.08.09.18.06-.05.1-.23.22-.24.27-.08.31.3,3.51.39,4.17l.45-.24c0,.06.06.06.06.12-.21,0-.55.19-.6.39-.16.61.17,5.63.06,5.92,0,0-.09.11-.12.12-.18-1.97.05-3.95-.06-5.92,0-.05-.12-.02-.12-.03-.02-.34-.03-2.32-.12-2.43-.11-.14-2.96-.98-3.21-1.53l-.09.24c-.13-.26-.6-1.06-.66-1.23-.15-.41-.46-1.76-.54-2.25-.72-4.17.24-7.72,2.25-11.35.22-.04.21.19.27.24Z" style="fill: #487343; stroke-width: 0px;"/>
                <path d="M20.58,21.05c1.07.57,2.73.38,1.98,1.62-.08-.13-2.42-1.54-1.98-1.62Z" style="fill: #386340; stroke-width: 0px;"/>
                <path d="M22.59,20.81c0,.08.03.38-.03.42-.94-.53-2.05-.97-2.91-1.62-.01-.06,0-.15.09-.12.26.07,2.23,1.23,2.85,1.32Z" style="fill: #386340; stroke-width: 0px;"/>
              </g>
            </g>
          </g>
        </g>
      </g>
    </g>
  </g>
</svg>