<?xml version="1.0" encoding="UTF-8"?>
<svg id="uuid-6660e2cd-7744-4646-a379-f49d9fd93600" data-name="Layer 2" xmlns="http://www.w3.org/2000/svg" viewBox="0 0 150.03 99.87">
  <g id="uuid-17cee94a-81b6-4e5a-ac89-4c4ceded5979" data-name="Layer 1">
    <g id="uuid-56e25bcd-392b-4997-b468-0516be368595" data-name="forest-1">
      <path id="uuid-e774d850-df80-440e-ac3f-6a3941c0e8f0" data-name="path67" d="M75.26,93.24v6.63L.1,56.3v-6.17l75.17,43.1" style="fill: #422025; stroke-width: 0px;"/>
      <path id="uuid-71b68058-e72b-4cd3-b290-95356e5f0926" data-name="path68" d="M75.26,93.24v6.63l74.77-43.57v-6.63l-74.77,43.57" style="fill: #754134; stroke-width: 0px;"/>
      <path id="uuid-32282142-1ff9-48d9-b248-8c91a4eb01ce" data-name="path67" d="M75.26,86.41v6.63L.1,49.47v-6.17l75.17,43.1" style="fill: #422025; stroke-width: 0px;"/>
      <path id="uuid-ab5f1d48-4108-43c2-ad6e-c8b2bfd9f7d7" data-name="path68" d="M75.26,86.41v6.63l74.77-43.57v-6.63l-74.77,43.57" style="fill: #754134; stroke-width: 0px;"/>
      <path id="uuid-33b06aed-fc28-4e97-8bf8-38809073890f" data-name="path46" d="M.1,43.16l75.04,43.11c.14.08.3.08.44,0l74.23-42.72c.29-.17.29-.59,0-.76L75.74.06c-.14-.08-.3-.08-.44,0L.1,43.16" style="fill: #95b33d; stroke-width: 0px;"/>
      <g>
        <path d="M82.1,72.24c1.33.57-.29,1.13,1.62,1.5-.54.64-2.39.58-2.76-.12-.6-2.38,1.08,1.05,1.14-1.38Z" style="fill: #575926; stroke-width: 0px;"/>
        <g>
          <path d="M75.08,75c.13-.26.11-.34.12-.36,1.04-1.73,2.4-.22,2.22-1.56,2.82.5-.78,4.61-2.34,1.92Z" style="fill: #546f32; stroke-width: 0px;"/>
          <g>
            <path d="M75.2,74.64s.01.1-.12.36c-.17.33-.1.64-.24.96-.23-.56-.79-.71-1.2-1.08-.67-.6-.13-.39.54,0,.87-.06-1.86-2.46-.24-1.92,2.24,2.95-.21-.53.84-.84.75-.22.24,2.1.42,2.52Z" style="fill: #575926; stroke-width: 0px;"/>
            <path d="M73.64,74.88c.41.37.97.52,1.2,1.08-.36.8-.67.02-1.38-.24-.57-.21-1.73-.19-1.8-1.08l1.98.24Z" style="fill: #5c4f20; stroke-width: 0px;"/>
          </g>
        </g>
        <g>
          <path d="M97.23,59.27c.24,2.21.74,1.37.9,1.62.06.09-.78.41-.3,1.98-.79.44-3.72-3.15-1.56-2.28,1.96,2.72-.42-.68.96-1.32Z" style="fill: #575926; stroke-width: 0px;"/>
          <path d="M94.83,61.31c.85.19,3.08,2.17.84.96-2.73.54-.69.46-.84-.96Z" style="fill: #575926; stroke-width: 0px;"/>
        </g>
      </g>
      <g>
        <path d="M94.02,42.84c1.33.57-.29,1.13,1.62,1.5-.54.64-2.39.58-2.76-.12-.6-2.38,1.08,1.05,1.14-1.38Z" style="fill: #575926; stroke-width: 0px;"/>
        <g>
          <path d="M87,45.6c.13-.26.11-.34.12-.36,1.04-1.73,2.4-.22,2.22-1.56,2.82.5-.78,4.61-2.34,1.92Z" style="fill: #546f32; stroke-width: 0px;"/>
          <g>
            <path d="M87.12,45.24s.01.1-.12.36c-.17.33-.1.64-.24.96-.23-.56-.79-.71-1.2-1.08-.67-.6-.13-.39.54,0,.87-.06-1.86-2.46-.24-1.92,2.24,2.95-.21-.53.84-.84.75-.22.24,2.1.42,2.52Z" style="fill: #575926; stroke-width: 0px;"/>
            <path d="M85.56,45.48c.41.37.97.52,1.2,1.08-.36.8-.67.02-1.38-.24-.57-.21-1.73-.19-1.8-1.08l1.98.24Z" style="fill: #5c4f20; stroke-width: 0px;"/>
          </g>
        </g>
        <g>
          <path d="M109.15,29.87c.24,2.21.74,1.37.9,1.62.06.09-.78.41-.3,1.98-.79.44-3.72-3.15-1.56-2.28,1.96,2.72-.42-.68.96-1.32Z" style="fill: #575926; stroke-width: 0px;"/>
          <path d="M106.75,31.91c.85.19,3.08,2.17.84.96-2.73.54-.69.46-.84-.96Z" style="fill: #575926; stroke-width: 0px;"/>
        </g>
      </g>
      <g>
        <path d="M49.93,57.23c1.33.57-.29,1.13,1.62,1.5-.54.64-2.39.58-2.76-.12-.6-2.38,1.08,1.05,1.14-1.38Z" style="fill: #575926; stroke-width: 0px;"/>
        <g>
          <path d="M42.91,59.99c.13-.26.11-.34.12-.36,1.04-1.73,2.4-.22,2.22-1.56,2.82.5-.78,4.61-2.34,1.92Z" style="fill: #546f32; stroke-width: 0px;"/>
          <g>
            <path d="M43.03,59.63s.01.1-.12.36c-.17.33-.1.64-.24.96-.23-.56-.79-.71-1.2-1.08-.67-.6-.13-.39.54,0,.87-.06-1.86-2.46-.24-1.92,2.24,2.95-.21-.53.84-.84.75-.22.24,2.1.42,2.52Z" style="fill: #575926; stroke-width: 0px;"/>
            <path d="M41.47,59.87c.41.37.97.52,1.2,1.08-.36.8-.67.02-1.38-.24-.57-.21-1.73-.19-1.8-1.08l1.98.24Z" style="fill: #5c4f20; stroke-width: 0px;"/>
          </g>
        </g>
        <g>
          <path d="M65.06,44.27c.24,2.21.74,1.37.9,1.62.06.09-.78.41-.3,1.98-.79.44-3.72-3.15-1.56-2.28,1.96,2.72-.42-.68.96-1.32Z" style="fill: #575926; stroke-width: 0px;"/>
          <path d="M62.66,46.31c.85.19,3.08,2.17.84.96-2.73.54-.69.46-.84-.96Z" style="fill: #575926; stroke-width: 0px;"/>
        </g>
      </g>
      <g>
        <path d="M58.05,22.2c1.33.57-.29,1.13,1.62,1.5-.54.64-2.39.58-2.76-.12-.6-2.38,1.08,1.05,1.14-1.38Z" style="fill: #575926; stroke-width: 0px;"/>
        <g>
          <path d="M51.03,24.96c.13-.26.11-.34.12-.36,1.04-1.73,2.4-.22,2.22-1.56,2.82.5-.78,4.61-2.34,1.92Z" style="fill: #546f32; stroke-width: 0px;"/>
          <g>
            <path d="M51.15,24.6s.01.1-.12.36c-.17.33-.1.64-.24.96-.23-.56-.79-.71-1.2-1.08-.67-.6-.13-.39.54,0,.87-.06-1.86-2.46-.24-1.92,2.24,2.95-.21-.53.84-.84.75-.22.24,2.1.42,2.52Z" style="fill: #575926; stroke-width: 0px;"/>
            <path d="M49.59,24.84c.41.37.97.52,1.2,1.08-.36.8-.67.02-1.38-.24-.57-.21-1.73-.19-1.8-1.08l1.98.24Z" style="fill: #5c4f20; stroke-width: 0px;"/>
          </g>
        </g>
        <g>
          <path d="M73.18,9.23c.24,2.21.74,1.37.9,1.62.06.09-.78.41-.3,1.98-.79.44-3.72-3.15-1.56-2.28,1.96,2.72-.42-.68.96-1.32Z" style="fill: #575926; stroke-width: 0px;"/>
          <path d="M70.78,11.28c.85.19,3.08,2.17.84.96-2.73.54-.69.46-.84-.96Z" style="fill: #575926; stroke-width: 0px;"/>
        </g>
      </g>
      <g>
        <g>
          <path d="M69.84,52.46c1.14.28,1.54.11,2.57.14.51.01,1.25-.1,1.63,0,0,.36.02.89.14,1.22-2.49,1.79-4.87.7-5.76-2.03.48.39.83.53,1.42.68Z" style="fill: #304a21; stroke-width: 0px;"/>
          <path d="M72.41,52.59c-1.03-.03-1.44.14-2.57-.14,1.46-1.56,1.59-.56,1.69-.54.7.1.72-.9.88.68Z" style="fill: #376832; stroke-width: 0px;"/>
        </g>
        <g>
          <path d="M68.68,46.63c.72-.16,1.49,4.04,1.63,4.74-.71-.45-2.6-4.53-1.63-4.74Z" style="fill: #ddd839; stroke-width: 0px;"/>
          <path d="M70.45,46.49c1.32.21.55,2.64.41,3.79-.41.31-1.19-3.49-.41-3.79Z" style="fill: #ddd839; stroke-width: 0px;"/>
          <path d="M74.24,48.39c.54-.02.68-.1.61.47-3.69,3.17-4.36,2.5-.61-.47Z" style="fill: #ddd839; stroke-width: 0px;"/>
          <path d="M67.73,49.61c3.29,1.79,1.08,3.36-.34.34l.34-.34Z" style="fill: #ddd839; stroke-width: 0px;"/>
          <path d="M73.02,47.03l.47.61c-3,5.03-1.32-.53-.47-.61Z" style="fill: #ddd839; stroke-width: 0px;"/>
        </g>
      </g>
      <g>
        <g>
          <path d="M35.98,46.37c1.14.28,1.54.11,2.57.14.51.01,1.25-.1,1.63,0,0,.36.02.89.14,1.22-2.49,1.79-4.87.7-5.76-2.03.48.39.83.53,1.42.68Z" style="fill: #304a21; stroke-width: 0px;"/>
          <path d="M38.55,46.51c-1.03-.03-1.44.14-2.57-.14,1.46-1.56,1.59-.56,1.69-.54.7.1.72-.9.88.68Z" style="fill: #376832; stroke-width: 0px;"/>
        </g>
        <g>
          <path d="M34.83,40.54c.72-.16,1.49,4.04,1.63,4.74-.71-.45-2.6-4.53-1.63-4.74Z" style="fill: #ddd839; stroke-width: 0px;"/>
          <path d="M36.59,40.41c1.32.21.55,2.64.41,3.79-.41.31-1.19-3.49-.41-3.79Z" style="fill: #ddd839; stroke-width: 0px;"/>
          <path d="M40.38,42.3c.54-.02.68-.1.61.47-3.69,3.17-4.36,2.5-.61-.47Z" style="fill: #ddd839; stroke-width: 0px;"/>
          <path d="M33.88,43.52c3.29,1.79,1.08,3.36-.34.34l.34-.34Z" style="fill: #ddd839; stroke-width: 0px;"/>
          <path d="M39.16,40.95l.47.61c-3,5.03-1.32-.53-.47-.61Z" style="fill: #ddd839; stroke-width: 0px;"/>
        </g>
      </g>
      <g>
        <g>
          <path d="M56.37,52.7c1.14.28,1.54.11,2.57.14.51.01,1.25-.1,1.63,0,0,.36.02.89.14,1.22-2.49,1.79-4.87.7-5.76-2.03.48.39.83.53,1.42.68Z" style="fill: #304a21; stroke-width: 0px;"/>
          <path d="M58.95,52.84c-1.03-.03-1.44.14-2.57-.14,1.46-1.56,1.59-.56,1.69-.54.7.1.72-.9.88.68Z" style="fill: #376832; stroke-width: 0px;"/>
        </g>
        <g>
          <path d="M55.22,46.88c.72-.16,1.49,4.04,1.63,4.74-.71-.45-2.6-4.53-1.63-4.74Z" style="fill: #ddd839; stroke-width: 0px;"/>
          <path d="M56.98,46.74c1.32.21.55,2.64.41,3.79-.41.31-1.19-3.49-.41-3.79Z" style="fill: #ddd839; stroke-width: 0px;"/>
          <path d="M60.78,48.64c.54-.02.68-.1.61.47-3.69,3.17-4.36,2.5-.61-.47Z" style="fill: #ddd839; stroke-width: 0px;"/>
          <path d="M54.27,49.86c3.29,1.79,1.08,3.36-.34.34l.34-.34Z" style="fill: #ddd839; stroke-width: 0px;"/>
          <path d="M59.56,47.28l.47.61c-3,5.03-1.32-.53-.47-.61Z" style="fill: #ddd839; stroke-width: 0px;"/>
        </g>
      </g>
      <g>
        <g>
          <path d="M126.96,49.01c1.14.28,1.54.11,2.57.14.51.01,1.25-.1,1.63,0,0,.36.02.89.14,1.22-2.49,1.79-4.87.7-5.76-2.03.48.39.83.53,1.42.68Z" style="fill: #304a21; stroke-width: 0px;"/>
          <path d="M129.54,49.15c-1.03-.03-1.44.14-2.57-.14,1.46-1.56,1.59-.56,1.69-.54.7.1.72-.9.88.68Z" style="fill: #376832; stroke-width: 0px;"/>
        </g>
        <g>
          <path d="M125.81,43.18c.72-.16,1.49,4.04,1.63,4.74-.71-.45-2.6-4.53-1.63-4.74Z" style="fill: #ddd839; stroke-width: 0px;"/>
          <path d="M127.57,43.05c1.32.21.55,2.64.41,3.79-.41.31-1.19-3.49-.41-3.79Z" style="fill: #ddd839; stroke-width: 0px;"/>
          <path d="M131.37,44.95c.54-.02.68-.1.61.47-3.69,3.17-4.36,2.5-.61-.47Z" style="fill: #ddd839; stroke-width: 0px;"/>
          <path d="M124.86,46.16c3.29,1.79,1.08,3.36-.34.34l.34-.34Z" style="fill: #ddd839; stroke-width: 0px;"/>
          <path d="M130.15,43.59l.47.61c-3,5.03-1.32-.53-.47-.61Z" style="fill: #ddd839; stroke-width: 0px;"/>
        </g>
      </g>
      <g>
        <g>
          <path d="M58.96,68.47c1.56-.4,1.77-1.01,2.9-1.75.56-.37,1.2-1.13,1.73-1.25.43.62,1.13,1.51,1.66,1.99-.43,4.99-4.31,4.94-8.64.95.99.3,1.54.27,2.35.06Z" style="fill: #304a21; stroke-width: 0px;"/>
          <path d="M61.86,66.72c-1.13.74-1.35,1.36-2.9,1.75-.38-3.79.99-2.18,1.13-2.23.87-.37-.36-2.1,1.78.48Z" style="fill: #376832; stroke-width: 0px;"/>
        </g>
        <g>
          <path d="M63.95,65.06c-.28.66-2.11,1.18-2.78,1.24l.06-.19c.27-.09,1.26-1.06,1.42-1.33.36-.62.41-1.13.31-1.82.61.5,1.37,1.2.99,2.1Z" style="fill: #d87c41; stroke-width: 0px;"/>
          <path d="M58.08,64.32s-.06.35-.06.37c0,.16-.18.26.12.62-1.47.81-.75.58.9.87.62-.07,1.62.12,2.19-.06l-.06.19c-.77.07-1.64,0-2.41-.06-.58-.05-1.04-.14-1.61-.25-.77-.15-1.36-.26-2.1-.56-.01,0-.14-.07-.25-.12-.15-.07-.29-.17-.43-.25.21.06.65-.06.68-.06.06,0,.68.36,1.11-.19.55.16.82-.35.87-.37.49-.28.54.22,1.05-.12Z" style="fill: #f6ae50; stroke-width: 0px;"/>
          <path d="M57.4,63.15c-1.17.75-.34.81-.37,1.3-.04.03-.32.53-.87.37-.13-.47.27-.88-.22-1.17-.23-.14-.52.06-.46-.25.69-.36.36-.55.37-.59.03-.09.33-.19.19-.53.25.04,1.29-.27,1.36.87Z" style="fill: #fdc47a; stroke-width: 0px;"/>
          <path d="M55.48,63.39c-.06.31.23.11.46.25.49.3.09.7.22,1.17-.43.54-1.05.19-1.11.19.01-.81-.51-.43-.43-1.05.02-.13.44-.49.56-.56.05-.03.26.03.31,0Z" style="fill: #fbdbaa; stroke-width: 0px;"/>
          <path d="M53.38,63.58c-.13,1.14.88.24,1.05.25.09,0,.03.17.19.12-.07.62.44.24.43,1.05-.03,0-.47.12-.68.06-.65-.36-1.37-.61-1.3-1.55l.31.06Z" style="fill: #fbdbaa; stroke-width: 0px;"/>
          <path d="M58.08,64.32c-.51.34-.56-.16-1.05.12.03-.48-.79-.55.37-1.3,1.52.32.78.73.68,1.17Z" style="fill: #f5e2a4; stroke-width: 0px;"/>
          <path d="M56.04,62.28c.15.34-.15.44-.19.53-.02.04.32.23-.37.59-.05.03-.26-.03-.31,0-.27-.4-.75-.41-.56-1.02.72-.66,1.33-.11,1.42-.09Z" style="fill: #fbdbaa; stroke-width: 0px;"/>
          <path d="M58.14,65.31c-.31-.36-.13-.46-.12-.62,1.66-1.23,2.02,1.7.12.62Z" style="fill: #f4d48c; stroke-width: 0px;"/>
          <path d="M54.43,63.83c-.17-.01-1.18.89-1.05-.25.11-.95,1.3-.7,1.05.25Z" style="fill: #fbdbaa; stroke-width: 0px;"/>
          <g>
            <path d="M62.97,62.96c.1.69.05,1.21-.31,1.82-.16.27-1.15,1.24-1.42,1.33-.57.18-1.57,0-2.19.06-1.64-.29-2.37-.06-.9-.87,1.9,1.08,1.53-1.84-.12-.62,0-.02.06-.35.06-.37.1-.44.84-.86-.68-1.17-.07-1.14-1.11-.82-1.36-.87-.09-.02-.7-.57-1.42.09-.2.61.28.62.56,1.02-.12.07-.53.43-.56.56-.16.04-.09-.12-.19-.12.24-.95-.94-1.2-1.05-.25l-.31-.06c.02-.32.49-1.15.74-1.36.03-.03.62-.31.74-.37.23-.11.87-.37,1.11-.43.64,0,1.15.39,1.21.37.07-.02.05-.54,1.27-.56,1.76.15,3.45.67,4.82,1.79Z" style="fill: #f79a45; stroke-width: 0px;"/>
            <g>
              <path d="M58.02,61.17s.08,0,.12,0c-1.22.02-1.2.53-1.27.56-.06.02-.57-.36-1.21-.37.92-.25,1.42-.25,2.35-.19Z" style="fill: #f5e2a4; stroke-width: 0px;"/>
              <path d="M60.65,63.58c.38-.06,1.08.14,1.02.59-.61,1.27-2.29-.38-1.02-.59Z" style="fill: #f4d48c; stroke-width: 0px;"/>
              <path d="M59.16,62.78c2.16-.05.05,2.01-.28.28l.28-.28Z" style="fill: #f5e2a4; stroke-width: 0px;"/>
              <path d="M61.82,62.59c1.8.42.5,1.56-.34.34l.34-.34Z" style="fill: #f5e2a4; stroke-width: 0px;"/>
              <path d="M57.86,61.66c1.22-.29.72,1.66-.34.46-.07-.17.19-.43.34-.46Z" style="fill: #f5e2a4; stroke-width: 0px;"/>
              <path d="M59.22,61.6c1.65-.07,1.07,1.17-.09.22l.09-.22Z" style="fill: #f5e2a4; stroke-width: 0px;"/>
            </g>
          </g>
          <g>
            <path d="M58.76,66.24c-.06,1.45.96,3.28-.25,3.03l-.06-.06c-.21-1.4-.28-1.33-.25.06-.19-.01-.21-.06-.25-.06-.08-.45.14-1.48-.06-1.73-.22-.27-.71-.45-.99-.68,0-.02,0-.04,0-.06.1-.24.22-.48.25-.74.56.11,1.03.2,1.61.25Z" style="fill: #897375; stroke-width: 0px;"/>
            <path d="M57.9,67.48c.03.28.03.48-.28.31-.91-1.17-.5-.67-.59,1.24-.37-.12-.54-.22-.87-.43-.19-.32-.04-.41.12-.74,0-.02.12-.09.25-.37.11-.23.27-.44.37-.68.28.23.77.41.99.68Z" style="fill: #d0b3aa; stroke-width: 0px;"/>
            <path d="M57.9,67.48c.21.25-.02,1.28.06,1.73-.4-.05-.51-.05-.93-.19.08-1.9-.32-2.41.59-1.24.31.17.3-.02.28-.31Z" style="fill: #d0b3aa; stroke-width: 0px;"/>
            <path d="M58.45,69.21c.01.08-.12.07-.25.06-.03-1.39.04-1.46.25-.06Z" style="fill: #d0b3aa; stroke-width: 0px;"/>
          </g>
        </g>
      </g>
      <g>
        <g>
          <path d="M115.29,37.01c1.56-.4,1.77-1.01,2.9-1.75.56-.37,1.2-1.13,1.73-1.25.43.62,1.13,1.51,1.66,1.99-.43,4.99-4.31,4.94-8.64.95.99.3,1.54.27,2.35.06Z" style="fill: #304a21; stroke-width: 0px;"/>
          <path d="M118.2,35.26c-1.13.74-1.35,1.36-2.9,1.75-.38-3.79.99-2.18,1.13-2.23.87-.37-.36-2.1,1.78.48Z" style="fill: #376832; stroke-width: 0px;"/>
        </g>
        <g>
          <path d="M120.29,33.61c-.28.66-2.11,1.18-2.78,1.24l.06-.19c.27-.09,1.26-1.06,1.42-1.33.36-.62.41-1.13.31-1.82.61.5,1.37,1.2.99,2.1Z" style="fill: #d87c41; stroke-width: 0px;"/>
          <path d="M114.42,32.86s-.06.35-.06.37c0,.16-.18.26.12.62-1.47.81-.75.58.9.87.62-.07,1.62.12,2.19-.06l-.06.19c-.77.07-1.64,0-2.41-.06-.58-.05-1.04-.14-1.61-.25-.77-.15-1.36-.26-2.1-.56-.01,0-.14-.07-.25-.12-.15-.07-.29-.17-.43-.25.21.06.65-.06.68-.06.06,0,.68.36,1.11-.19.55.16.82-.35.87-.37.49-.28.54.22,1.05-.12Z" style="fill: #f6ae50; stroke-width: 0px;"/>
          <path d="M113.74,31.69c-1.17.75-.34.81-.37,1.3-.04.03-.32.53-.87.37-.13-.47.27-.88-.22-1.17-.23-.14-.52.06-.46-.25.69-.36.36-.55.37-.59.03-.09.33-.19.19-.53.25.04,1.29-.27,1.36.87Z" style="fill: #fdc47a; stroke-width: 0px;"/>
          <path d="M111.82,31.94c-.06.31.23.11.46.25.49.3.09.7.22,1.17-.43.54-1.05.19-1.11.19.01-.81-.51-.43-.43-1.05.02-.13.44-.49.56-.56.05-.03.26.03.31,0Z" style="fill: #fbdbaa; stroke-width: 0px;"/>
          <path d="M109.72,32.12c-.13,1.14.88.24,1.05.25.09,0,.03.17.19.12-.07.62.44.24.43,1.05-.03,0-.47.12-.68.06-.65-.36-1.37-.61-1.3-1.55l.31.06Z" style="fill: #fbdbaa; stroke-width: 0px;"/>
          <path d="M114.42,32.86c-.51.34-.56-.16-1.05.12.03-.48-.79-.55.37-1.3,1.52.32.78.73.68,1.17Z" style="fill: #f5e2a4; stroke-width: 0px;"/>
          <path d="M112.38,30.82c.15.34-.15.44-.19.53-.02.04.32.23-.37.59-.05.03-.26-.03-.31,0-.27-.4-.75-.41-.56-1.02.72-.66,1.33-.11,1.42-.09Z" style="fill: #fbdbaa; stroke-width: 0px;"/>
          <path d="M114.48,33.85c-.31-.36-.13-.46-.12-.62,1.66-1.23,2.02,1.7.12.62Z" style="fill: #f4d48c; stroke-width: 0px;"/>
          <path d="M110.77,32.37c-.17-.01-1.18.89-1.05-.25.11-.95,1.3-.7,1.05.25Z" style="fill: #fbdbaa; stroke-width: 0px;"/>
          <g>
            <path d="M119.3,31.5c.1.69.05,1.21-.31,1.82-.16.27-1.15,1.24-1.42,1.33-.57.18-1.57,0-2.19.06-1.64-.29-2.37-.06-.9-.87,1.9,1.08,1.53-1.84-.12-.62,0-.02.06-.35.06-.37.1-.44.84-.86-.68-1.17-.07-1.14-1.11-.82-1.36-.87-.09-.02-.7-.57-1.42.09-.2.61.28.62.56,1.02-.12.07-.53.43-.56.56-.16.04-.09-.12-.19-.12.24-.95-.94-1.2-1.05-.25l-.31-.06c.02-.32.49-1.15.74-1.36.03-.03.62-.31.74-.37.23-.11.87-.37,1.11-.43.64,0,1.15.39,1.21.37.07-.02.05-.54,1.27-.56,1.76.15,3.45.67,4.82,1.79Z" style="fill: #f79a45; stroke-width: 0px;"/>
            <g>
              <path d="M114.36,29.71s.08,0,.12,0c-1.22.02-1.2.53-1.27.56-.06.02-.57-.36-1.21-.37.92-.25,1.42-.25,2.35-.19Z" style="fill: #f5e2a4; stroke-width: 0px;"/>
              <path d="M116.98,32.12c.38-.06,1.08.14,1.02.59-.61,1.27-2.29-.38-1.02-.59Z" style="fill: #f4d48c; stroke-width: 0px;"/>
              <path d="M115.5,31.32c2.16-.05.05,2.01-.28.28l.28-.28Z" style="fill: #f5e2a4; stroke-width: 0px;"/>
              <path d="M118.16,31.13c1.8.42.5,1.56-.34.34l.34-.34Z" style="fill: #f5e2a4; stroke-width: 0px;"/>
              <path d="M114.2,30.21c1.22-.29.72,1.66-.34.46-.07-.17.19-.43.34-.46Z" style="fill: #f5e2a4; stroke-width: 0px;"/>
              <path d="M115.56,30.14c1.65-.07,1.07,1.17-.09.22l.09-.22Z" style="fill: #f5e2a4; stroke-width: 0px;"/>
            </g>
          </g>
          <g>
            <path d="M115.1,34.78c-.06,1.45.96,3.28-.25,3.03l-.06-.06c-.21-1.4-.28-1.33-.25.06-.19-.01-.21-.06-.25-.06-.08-.45.14-1.48-.06-1.73-.22-.27-.71-.45-.99-.68,0-.02,0-.04,0-.06.1-.24.22-.48.25-.74.56.11,1.03.2,1.61.25Z" style="fill: #897375; stroke-width: 0px;"/>
            <path d="M114.23,36.02c.03.28.03.48-.28.31-.91-1.17-.5-.67-.59,1.24-.37-.12-.54-.22-.87-.43-.19-.32-.04-.41.12-.74,0-.02.12-.09.25-.37.11-.23.27-.44.37-.68.28.23.77.41.99.68Z" style="fill: #d0b3aa; stroke-width: 0px;"/>
            <path d="M114.23,36.02c.21.25-.02,1.28.06,1.73-.4-.05-.51-.05-.93-.19.08-1.9-.32-2.41.59-1.24.31.17.3-.02.28-.31Z" style="fill: #d0b3aa; stroke-width: 0px;"/>
            <path d="M114.79,37.75c.01.08-.12.07-.25.06-.03-1.39.04-1.46.25-.06Z" style="fill: #d0b3aa; stroke-width: 0px;"/>
          </g>
        </g>
      </g>
      <g>
        <path d="M19.74,38.33c.87.47,1.3,1.48,1.23,2.38.25-1.44,1.84-2.06,3-1.19.07.04.29.18.29.22.22.29.29.87.22,1.19-.07.36-.58.76-.58.79s.47.29.29.94c-.29,1.05-1.66,1.15-1.77,1.19h-.4c-.22.07-.97.79-1.66.76-.14-.72-.32-.22-.97-.07-.36.07-.29.07-.65,0-.83-.14-1.41-.83-1.62-.83-.11,0-1.34.25-2.02-.69-.43-.58-.36-1.01-.14-1.66,0,0,.14-.25.14-.29.94-.83,2.06-.18,2.09-.32-.54-.65-.36-1.34,0-2.02.79-.72,1.55-1.01,2.53-.51l.04.11Z" style="fill: #f6e1c4; stroke-width: 0px;"/>
        <path d="M20.43,41.43c-.54,1.41-.69.97-1.41,0,.18-.11.43-.11.47-.14.07-.07.69-1.73.94.14h0Z" style="fill: #f3b528; stroke-width: 0px;"/>
        <path d="M20.47,41.43c.83.18-.07.54-.32,1.55l-1.3-1.37" style="fill: #68913e; stroke-width: 0px;"/>
        <path d="M20.39,44.65c.07.4-.04,1.41,0,1.98h-.9l-.07-2.02c.65-.14.87-.65.97.07v-.04Z" style="fill: #612a1a; stroke-width: 0px;"/>
      </g>
      <g>
        <path d="M46.88,44.67c.87.47,1.3,1.48,1.23,2.38.25-1.44,1.84-2.06,3-1.19.07.04.29.18.29.22.22.29.29.87.22,1.19-.07.36-.58.76-.58.79s.47.29.29.94c-.29,1.05-1.66,1.15-1.77,1.19h-.4c-.22.07-.97.79-1.66.76-.14-.72-.32-.22-.97-.07-.36.07-.29.07-.65,0-.83-.14-1.41-.83-1.62-.83-.11,0-1.34.25-2.02-.69-.43-.58-.36-1.01-.14-1.66,0,0,.14-.25.14-.29.94-.83,2.06-.18,2.09-.32-.54-.65-.36-1.34,0-2.02.79-.72,1.55-1.01,2.53-.51l.04.11Z" style="fill: #f6e1c4; stroke-width: 0px;"/>
        <path d="M47.56,47.78c-.54,1.41-.69.97-1.41,0,.18-.11.43-.11.47-.14.07-.07.69-1.73.94.14h0Z" style="fill: #f3b528; stroke-width: 0px;"/>
        <path d="M47.6,47.78c.83.18-.07.54-.32,1.55l-1.3-1.37" style="fill: #68913e; stroke-width: 0px;"/>
        <path d="M47.53,50.99c.07.4-.04,1.41,0,1.98h-.9l-.07-2.02c.65-.14.87-.65.97.07v-.04Z" style="fill: #612a1a; stroke-width: 0px;"/>
      </g>
      <g>
        <path d="M119.45,49.6c.87.47,1.3,1.48,1.23,2.38.25-1.44,1.84-2.06,3-1.19.07.04.29.18.29.22.22.29.29.87.22,1.19-.07.36-.58.76-.58.79s.47.29.29.94c-.29,1.05-1.66,1.15-1.77,1.19h-.4c-.22.07-.97.79-1.66.76-.14-.72-.32-.22-.97-.07-.36.07-.29.07-.65,0-.83-.14-1.41-.83-1.62-.83-.11,0-1.34.25-2.02-.69-.43-.58-.36-1.01-.14-1.66,0,0,.14-.25.14-.29.94-.83,2.06-.18,2.09-.32-.54-.65-.36-1.34,0-2.02.79-.72,1.55-1.01,2.53-.51l.04.11Z" style="fill: #f6e1c4; stroke-width: 0px;"/>
        <path d="M120.14,52.7c-.54,1.41-.69.97-1.41,0,.18-.11.43-.11.47-.14.07-.07.69-1.73.94.14h0Z" style="fill: #f3b528; stroke-width: 0px;"/>
        <path d="M120.18,52.7c.83.18-.07.54-.32,1.55l-1.3-1.37" style="fill: #68913e; stroke-width: 0px;"/>
        <path d="M120.1,55.92c.07.4-.04,1.41,0,1.98h-.9l-.07-2.02c.65-.14.87-.65.97.07v-.04Z" style="fill: #612a1a; stroke-width: 0px;"/>
      </g>
      <g>
        <path d="M111.5,40.3c.87.47,1.3,1.48,1.23,2.38.25-1.44,1.84-2.06,3-1.19.07.04.29.18.29.22.22.29.29.87.22,1.19-.07.36-.58.76-.58.79s.47.29.29.94c-.29,1.05-1.66,1.15-1.77,1.19h-.4c-.22.07-.97.79-1.66.76-.14-.72-.32-.22-.97-.07-.36.07-.29.07-.65,0-.83-.14-1.41-.83-1.62-.83-.11,0-1.34.25-2.02-.69-.43-.58-.36-1.01-.14-1.66,0,0,.14-.25.14-.29.94-.83,2.06-.18,2.09-.32-.54-.65-.36-1.34,0-2.02.79-.72,1.55-1.01,2.53-.51l.04.11Z" style="fill: #f6e1c4; stroke-width: 0px;"/>
        <path d="M112.18,43.4c-.54,1.41-.69.97-1.41,0,.18-.11.43-.11.47-.14.07-.07.69-1.73.94.14h0Z" style="fill: #f3b528; stroke-width: 0px;"/>
        <path d="M112.22,43.4c.83.18-.07.54-.32,1.55l-1.3-1.37" style="fill: #68913e; stroke-width: 0px;"/>
        <path d="M112.15,46.61c.07.4-.04,1.41,0,1.98h-.9l-.07-2.02c.65-.14.87-.65.97.07v-.04Z" style="fill: #612a1a; stroke-width: 0px;"/>
      </g>
      <g>
        <path id="uuid-2399cb42-403e-4d46-98de-a792523f018d" data-name="path67" d="M75.25,86.62v6.57L0,49.97v-6.57l75.25,43.22" style="fill: #304a21; stroke-width: 0px;"/>
        <path id="uuid-c54d82dd-2b4b-4af3-b839-fd38d0a22155" data-name="path68" d="M75.25,86.62v6.57l74.78-43.23v-6.57l-74.78,43.23" style="fill: #4f823c; stroke-width: 0px;"/>
      </g>
    </g>
  </g>
</svg>