<?xml version="1.0" encoding="UTF-8"?>
<svg id="uuid-b3a8e680-f3fb-4e73-8ddd-6284ed3b646e" data-name="Layer 2" xmlns="http://www.w3.org/2000/svg" viewBox="0 0 50.42 83.82">
  <g id="uuid-c83a6b9a-7cec-4a7d-8520-7e92b0284c1f" data-name="Trees">
    <g>
      <g>
        <g>
          <path d="M19.45,78.62c.73.36,4.82,2.53,5.19,2.51.28.29.17.69.18,1.07.01.48-.05.96,0,1.43-.15.07-.3.11-.45.18q-11.73-5.87-23.46-11.73c.03-.14-.14-2.19-.09-2.78,6.2,3.12,12.4,6.24,18.63,9.31Z" style="fill: #4d251a; stroke-width: 0px;"/>
          <path d="M24.82,83.64c-.05-.48.01-.95,0-1.43,8.08-3.96,16.24-7.78,24.49-11.37.37-.82.38-1.31-.67-.99.33-.15.68-.26.99-.45.09.36-.07,1.89,0,2.55-8.15,4.04-16.51,7.86-24.81,11.69Z" style="fill: #79442c; stroke-width: 0px;"/>
          <path d="M24.82,82.21c-.01-.38.1-.79-.18-1.07,7.96-3.85,15.99-7.53,24-11.28,1.05-.33,1.04.17.67.99-8.25,3.59-16.41,7.41-24.49,11.37Z" style="fill: #915538; stroke-width: 0px;"/>
        </g>
        <g>
          <path d="M21.42,62.59c-.06,1.52-.27,3-.63,4.48-.52-.19-2.85-1.53-3.09-1.52-.15,0-2.2.93-2.78,1.07-1.58.41-6.95,1.08-7.52,1.34-.16.07-.12.15-.04.27-.65-.41-.94-.28-1.07.45-1.87.23-4.46-.1-5.01,0,2.65-1.69,5.61-2.87,8.24-4.57.75-.07,1.48-.7,1.57-.72.54-.12,2.76.19,5.37-1.61.36.08-.56,2.32.81,2.78,1.19.39,2.96-.64,3.09-.85.6-.97-.4-1.59,1.07-1.12Z" style="fill: #9abf3c; stroke-width: 0px;"/>
          <path d="M15.15,75.22c1.67.93,3.06,2.24,4.88,2.87.39.3-.63.22-.58.54-6.23-3.07-12.43-6.19-18.63-9.31.02-.31-.21-.31.18-.54-.07.53.87.28,1.12.36.41.12,1.05.6,1.34.72,2.65,1.04,9.35,4.07,11.69,5.37Z" style="fill: #51853d; stroke-width: 0px;"/>
          <path d="M28.58,69.31c-.27-.4-.43-1.31-.54-1.88,2.6,1.67,3.16.22,3.81.27.36.03,5.7,2.82,6.49,3.27-4.45.08-5.73.52-9.76-1.66Z" style="fill: #679740; stroke-width: 0px;"/>
          <path d="M32.43,72.62c-.89.19-2.87-.07-3.85.18-.62-1.14-.17-.73-.18-.9,1.6-1,2.41-.02,4.03.72Z" style="fill: #679740; stroke-width: 0px;"/>
          <g>
            <path d="M40.13,64.03c.27.09.25.17.27.18.77.29,6.1,3.2,7.21,3.85.39.23,1.95,1.08,2.01,1.34-.31.19-.66.3-.99.45-8.01,3.75-16.04,7.43-24,11.28-.38.03-4.46-2.15-5.19-2.51-.05-.32.98-.24.58-.54-1.82-.62-3.21-1.94-4.88-2.87l-.04-.18c1.26.02,4.12,1.51,5.01,1.43.17-.02,1.4-.54,1.79-.63.96-.21,5.18-1.22,5.46-1.25.08,0,.26.32,1.57.09.11-.02.29.03.36,0,.77-.3,0-.55-.72-1.88.99-.24,2.96,0,3.85-.18.54-.12.5-.58.67-1.07-.95-.43-3.99-1.69-4.52-2.15v-.09c4.03,2.17,5.31,1.73,9.76,1.66-.79-.45-6.13-3.24-6.49-3.27-.64-.05-1.2,1.4-3.81-.27-.25-1.38-.3-2.72-.36-4.12.05-.02.13.02.18,0,2.39,2.68,5.12,2.34,3.76-1.88.03,0,.06,0,.09,0,.18.02,2.06,1.24,3.27,1.61,1.51.46,3.88.56,5.15.99Z" style="fill: #9abf3c; stroke-width: 0px;"/>
            <g>
              <path d="M23.34,77.28l1.25,1.07c-3.01.51-3.55.73-1.25-1.07Z" style="fill: #2b793c; stroke-width: 0px;"/>
              <path d="M36.15,72.8c.34-.01,2.1.62-.45.63-.46-.28.36-.62.45-.63Z" style="fill: #085841; stroke-width: 0px;"/>
              <path d="M33.01,74.33c1.18-.03-.13,1.1-.85.4.24-.11.79-.4.85-.4Z" style="fill: #085841; stroke-width: 0px;"/>
              <path d="M41.97,70.03c.14-.01.73.11.67.31-.57.7-1.84-.2-.67-.31Z" style="fill: #166756; stroke-width: 0px;"/>
              <path d="M26.48,77.19c1.04.41-.71.83-.67.4l.67-.4Z" style="fill: #054246; stroke-width: 0px;"/>
              <path d="M36.51,66.27c.71-.15,1.7.43-.27.27-.17-.14.23-.26.27-.27Z" style="fill: #51853d; stroke-width: 0px;"/>
              <path d="M29.61,76.3c.69.45-.14.67-.49.22l.49-.22Z" style="fill: #09343b; stroke-width: 0px;"/>
            </g>
          </g>
          <path d="M17.03,73.52c.77-.25,2.98-1.57,3.94-2.06l1.16,1.21c-1.27.49-6.33,1.93-5.1.85Z" style="fill: #51853d; stroke-width: 0px;"/>
          <g>
            <path d="M20.79,67.07c-.97,4.03-1.62,3.46-4.84,5.78.55,1.18.69.8,1.07.67-1.23,1.08,3.83-.36,5.1-.85l-1.16-1.21c2.44,1.73,1.28,1.05.67,3.04,1.46.96,1.04.28,2.24-.45.9-.55,1.9-.94,2.78-1.52-.07,3.81.6.2,2.28,2.15-1.31.23-1.49-.1-1.57-.09-.28.03-4.5,1.04-5.46,1.25-.39.09-1.62.61-1.79.63-.9.08-3.76-1.42-5.01-1.43l.04.18c-2.33-1.3-9.04-4.33-11.69-5.37-.3-.12-.93-.59-1.34-.72-.25-.08-1.19.17-1.12-.36.12-.07.15-.07.27-.09.55-.1,3.14.23,5.01,0,1.2-.15,1.55-.15,1.07-.45-.08-.12-.11-.2.04-.27.58-.26,5.95-.93,7.52-1.34.57-.15,2.63-1.07,2.78-1.07.24,0,2.57,1.33,3.09,1.52Z" style="fill: #679740; stroke-width: 0px;"/>
            <path d="M16.89,68.59l.67.58c-1.09.42-1.74.32-.67-.58Z" style="fill: #032e24; stroke-width: 0px;"/>
          </g>
          <path d="M7.36,68.24c.48.3.12.3-1.07.45.13-.73.42-.85,1.07-.45Z" style="fill: #032e24; stroke-width: 0px;"/>
        </g>
      </g>
      <g>
        <path d="M49.45,59.73c.01-.14-.33-.09-.72-.09l.27-.13c-2.58-1.03-8.46-2.66-10.48-4.16-.88-.66-2.13-2.4-2.69-3.4.95-.32,3.25-1.24,4.03-1.7,1.41,2.08,4.11,3.44,6.22,4.75,1.03-1.29.24-1.11.18-1.16-.51-.49-.93-1.12-1.43-1.61-.43-.43-3.8-3.53-4.03-3.67-.05-.03-.24.03-.31,0-.02,0,.05-.25-.22-.27-.38-.03-2.67,1.4-4.21.18-2.48,2.62-7.83,5.48-11.33,6.45.02-.83-.27-5.42-.09-5.78.05-.1.51-.16.63-.22,1.05-.55,2.15-1,3.18-1.61,1.18-.71,2.62-1.99,2.78-2.06.43-.21,6.5-1.72,8.1-2.91-.13-.11-.34-.74-.4-.76-.32-.13-3.82,1.18-6.18-1.88-.02,4.83-4.01,5.69-7.88,6.9l-.04-6.72c.11,0,.19.02.18-.09,2.27-.8,4.71-3.34,5.33-3.76.7-.48,3.46-1.68,4.52-2.64l-1.75-1.93c-2.08,2.75-4.95,5.07-8.28,6.04.08-.92-.1-5.46,0-5.73.11-.27,3.03-1.18,5.24-2.46,1.34-.78,2.58-1.78,3.81-2.73l-.94-1.21c-2.28,1.98-5.17,3.13-8.06,3.94.02-.98-.17-6.79-.04-7.12.12-.31,5.1-2.79,5.55-3.67-.25-.17-.97-1.28-1.12-1.3-.23-.03-3.67,1.56-4.34,1.52.09-6.18.03-12.36.27-18.54l.13-.18c1.22,3.56,2.65,7.15,4.7,10.34,1.1,1.7.96,1.93,2.51,1.88.37.51-2.43,1.92,2.33,1.43.23.53-.75,2.52-.99,2.69-.5.35-1.68-.47-.81.9-.03.3-2.52-.54-2.6-.36,1.55,1.6,4.93,4.37,7.16,3.58.31,1.11-.06,2.2-.72,3.13-.48.68-.87.66-.9.72-.06.15,1.6.87-2.15,1.07,1.95,1.14,4.69,3.63,6.98,2.96-.1,3.02-.94,2.36-.99,2.51,0,.03.31.29.27.45-.13.45-1.43.1-.63,1.43l-2.69.36c.97.58,4.54,3.01,5.15,3.18,1.12.3,1.62-.18,1.75.04.55,2.22-.21,1.7-.27,1.97,0,.03.28.59.27.63-.05.2-.96.4-.99.45-.05.13,1.19.98-1.25,1.07.87,1.69.46.98-1.88.9,1.88,1.17,4.05,2.66,6.36,1.88.2,2-1.62,3.7-3.31,4.48,1.63.51,4.07,1.62,5.64,1.25.52,1.98-1.63,2.6-3.04,3.31l3.13,1.97c-1.29,1.57.71,1.15.99,1.88.02.04-.18.47,0,.9.72,1.74,1.94,1.94.09,2.73Z" style="fill: #4a9a45; stroke-width: 0px;"/>
        <path d="M24.73,48.8s.51.03.54.09c-.11.06-.58.12-.63.22-.18.36.11,4.95.09,5.78,0,.09-.13-.12-.18,1.7-.05-2.49-.17-1.48-2.91-2.78-2.28-1.08-5.92-2.71-5.82-5.55-3.73,1.78-7.32-.27-7.79-.27-1.22.01,1.92,1.77,2.78,2.15,1.78.79,4.07,1.13,5.28,1.7.74.35,4.38,3,5.73,3.85.83.52,1.78,1.09,2.64,1.43.01,0,.17.14.18.18-.33.18-.1.19-.18.36,0,0-.16-.03-.18.04-.14.6.1,4.54,0,5.82-.21.3-2.35-.79-2.78-.94-.03-.02-.16-.26-.58-.45-.19-.08-2.66-.63-3.76-1.07-1.97-.81-3.59-1.94-4.21-4.03-.98,1.01-4.1,1.92-4.3,2.06-.24.17.03.24-.04.36-1.55.55-3,.86-4.66.81-1.21-.04-3.1-.31-3.94-1.21-.16-.58,1.19-1.98,1.25-2.15.31-.77-.64-.51,1.34-1.79,0-.23-.47-.67-.45-.81.04-.18,2.01-1.18,2.87-2.15-1.31-.64-3.42-1.19-2.96-3.04,1.58.41,3.62-.83,5.24-1.3-1.73-1.13-1.93-1.25-2.82-3-.09-.17-.35-.25-.36-.27-.02-.1.44-.12.09-1.07.05-.24.59.12.85.13,1.57.07,2.85-.78,4.16-1.52,1.42.69,9.2,1.75,9.81,2.24.13.1.27,1.2,1.97,2.6.4.33,3.24,2.02,3.49,2.06.19.03.08-.17.22-.18Z" style="fill: #064327; stroke-width: 0px;"/>
        <path d="M24.91,18.72c-.02,1.2.15,2.65-.22,3.04-.67-.03-4.06-2.18-4.3-2.15-.27.04-1.86,2.77-3.76,3.94-.45.28-2.54,1.18-3,1.07,0-.1.22-.31.18-.4-.05-.13-.97-.19-1.07-.45-.11-.28.1-.68.09-.72-.09-.36-.7.36-.36-2.06,2.66.6,5.72-2.52,7.3-4.25-3.88,1.19-2.27.21-2.64-.31-.16-.22-1.02.73-1.61-2.6.07-.13,1.78.57,2.78-.36-1.05-1.95-.04-.79.67-.94.42-.09,3.25-5.28,3.63-6.04.99-2.04,1.77-4.2,2.6-6.31-.24,6.18-.18,12.36-.27,18.54Z" style="fill: #064327; stroke-width: 0px;"/>
        <path d="M25,39.76c-.32-.36-.14-1.17-.18-1.93,0-.02-.18-.23-.18-.31-.06-1.94.13-3.95.09-5.91,0-.39.06-2.28-.04-2.42-.07-.1-1.96-.59-2.24-.72-.3-.13-.68-.52-.72-.54,0,0-.08.13-.18.09-1.97-.93-3.31-1.92-4.43-2.51-.44-.23-.19-.36-.72-.09-.72-.31-2.8.31-2.78-.81.46.1,2.55-.8,3-1.07,1.91-1.17,3.49-3.9,3.76-3.94.24-.03,3.63,2.12,4.3,2.15.38-.4.21-1.85.22-3.04.67.03,4.11-1.55,4.34-1.52.15.02.87,1.13,1.12,1.3-.46.88-5.43,3.36-5.55,3.67-.13.33.06,6.14.04,7.12,2.89-.81,5.78-1.96,8.06-3.94l.94,1.21c-1.22.95-2.46,1.95-3.81,2.73-2.21,1.29-5.13,2.19-5.24,2.46-.1.27.08,4.81,0,5.73,3.33-.98,6.21-3.3,8.28-6.04l1.75,1.93c-1.07.97-3.82,2.16-4.52,2.64-.61.42-3.06,2.96-5.33,3.76Z" style="fill: #0d6033; stroke-width: 0px;"/>
        <path d="M16.49,33.31c1.72,1.53,4.83,4.49,6.63,5.64-1.15.11-4.13.79-4.93,1.43.04-.48-1.1.43-1.66.63-1.93.67-4.03.54-6.04.45,0,0,.03-.18-.04-.18-.8-.04-3.29.85-2.01-.85-1.91-.12-1.23-.89-1.25-.99-.05-.19-.54-.29-.63-.45-.25-.44.01-.85,0-.9,0-.03-.43-.34-.45-.45-.05-.38.59-.34.27-1.16.05-.25.67.26,1.84-.04,1.33-.34,4.77-3.05,5.06-3.13.64-.18,1.49.35,2.06-.09.47.08.87.05,1.16.09Z" style="fill: #0d6033; stroke-width: 0px;"/>
        <path d="M17.12,25.52c-.06.35-.55.77-.4,1.07.2.43,6.98,4.69,8.01,5.01.04,1.96-.15,3.97-.09,5.91-1.12-.55-2.76-1.05-3.81-1.61-.79-.43-3.62-2.63-3.85-2.69-.29-.07-.46.09-.49.09-.3-.04-.69-.01-1.16-.09-.14-.02-1.08-.31-1.12-.36-.9.09-3.61.16-3.36-.72-1.45-.71-.85-1.18-.9-1.3-.13-.33-.62.41-.54-1.79.08-.19.99.05,1.48-.04,1.6-.31,5.06-3.35,5.51-3.58.53-.27.28-.14.72.09Z" style="fill: #064327; stroke-width: 0px;"/>
        <path d="M18.19,40.39c-.4.32-.13,1.79.09,2.37,1.09,2.9,6.01,3.57,6.31,3.81.29.23.06,1.82.13,2.24-.14.01-.03.21-.22.18-.25-.04-3.09-1.73-3.49-2.06-1.7-1.4-1.84-2.49-1.97-2.6-.6-.49-8.39-1.55-9.81-2.24.38-.22.83-.54,1.25-.63,2.01.09,4.12.22,6.04-.45.55-.19,1.7-1.1,1.66-.63Z" style="fill: #064327; stroke-width: 0px;"/>
        <path d="M15.33,33.22c-.57.44-1.42-.09-2.06.09.69-.51-3.5-.02-2.42-1.16-.25.88,2.46.8,3.36.72.04.05.98.34,1.12.36Z" style="fill: #064327; stroke-width: 0px;"/>
        <path d="M38.52,55.34c2.02,1.51,7.9,3.14,10.48,4.16l-.27.13c-3.43-.01-7.24-.44-10.07-2.51.03.29-.51,1.66-.49,1.75.03.16,2.35,1.72,2.6,1.66.39,1.18,2.48,3.06-.36,3.67-.02,0,0-.09-.27-.18-1.25-1.83-3.02-2.03-2.28-4.66-2.15,1.74-6.09,1.53-6.22,1.84l.09.22s-.06,0-.09,0c-.48.03-3.05,1.63-3.76,1.88-.04.02-.13-.02-.18,0-.46.15-1.11.12-1.52.45-.57-.05-1.13.13-1.7.09v-6.18c.08-.17-.15-.18.18-.36.14-.08,2.1-.48,3.18-.9.41-.16,3.36-1.47,3.49-1.61.09-.1.33-1.26.94-1.79-.47,2.13-.66,4.3-.13,6.45q3.2-2.06,6.4-4.12Z" style="fill: #2b793c; stroke-width: 0px;"/>
        <path d="M21.51,62.59s-.06,0-.09,0c-1.47-.47-.47.15-1.07,1.12-.13.21-1.9,1.24-3.09.85-1.37-.45-.45-2.7-.81-2.78-2.61,1.8-4.83,1.49-5.37,1.61-.09.02-.82.64-1.57.72-2.89.28-2.09-2.71-.9-4.66.07-.12-.19-.19.04-.36.19-.14,3.32-1.05,4.3-2.06.62,2.09,2.24,3.22,4.21,4.03,1.1.45,3.57.99,3.76,1.07.42.19.55.43.58.45Z" style="fill: #064327; stroke-width: 0px;"/>
        <path d="M23.12,38.95c.22.14,1.56.89,1.7.9l.04,6.72c3.87-1.21,7.86-2.06,7.88-6.9,2.36,3.06,5.86,1.75,6.18,1.88.06.03.27.65.4.76-1.6,1.19-7.67,2.7-8.1,2.91-.16.07-1.59,1.35-2.78,2.06-1.03.62-2.13,1.06-3.18,1.61-.03-.06-.51-.09-.54-.09-.07-.42.16-2.01-.13-2.24-.3-.24-5.22-.91-6.31-3.81-.22-.58-.49-2.05-.09-2.37.8-.65,3.78-1.32,4.93-1.43Z" style="fill: #0d6033; stroke-width: 0px;"/>
        <path d="M40.49,48.54c-.04.34.22,1,.09,1.3-.02.04-.6.33-.72.4-.78.46-3.08,1.38-4.03,1.7-1.04.35-2.14.53-3.18.9-.18.06-.26-.1-.27-.09-.17.08-.12.26-.13.27-.61.53-.85,1.69-.94,1.79-.13.14-3.08,1.46-3.49,1.61-1.08.41-3.03.82-3.18.9,0-.04-.17-.17-.18-.18.13-.17.08-.34.09-.54.05-1.82.18-1.61.18-1.7,3.5-.97,8.85-3.83,11.33-6.45,1.54,1.22,3.83-.21,4.21-.18.28.02.21.26.22.27Z" style="fill: #0d6033; stroke-width: 0px;"/>
        <path d="M38.52,55.34q-3.2,2.06-6.4,4.12c-.52-2.15-.34-4.32.13-6.45.01,0-.03-.19.13-.27.01,0,.09.15.27.09,1.03-.37,2.14-.54,3.18-.9.56,1.01,1.8,2.75,2.69,3.4Z" style="fill: #3d8941; stroke-width: 0px;"/>
        <g>
          <path d="M48.73,59.64c.38,0,.73-.05.72.09-.93.4-1.96.54-2.96.63-2.03.18-4,.01-5.87-.9.02.17.12,1.02.13,1.07-.25.06-2.57-1.5-2.6-1.66-.02-.09.52-1.46.49-1.75,2.84,2.07,6.65,2.5,10.07,2.51Z" style="fill: #064327; stroke-width: 0px;"/>
          <path d="M39.86,50.24c.12-.07.7-.37.72-.4.13-.3-.13-.96-.09-1.3.07.03.26-.03.31,0,.23.14,3.6,3.24,4.03,3.67.5.5.92,1.12,1.43,1.61.06.06.85-.13-.18,1.16-2.11-1.3-4.81-2.67-6.22-4.75Z" style="fill: #4a9a45; stroke-width: 0px;"/>
        </g>
        <path d="M24.64,37.52c0,.08.18.3.18.31.04.75-.14,1.56.18,1.93,0,.11-.07.09-.18.09-.14,0-1.48-.75-1.7-.9-1.79-1.15-4.91-4.11-6.63-5.64.03,0,.2-.16.49-.09.23.05,3.06,2.26,3.85,2.69,1.04.56,2.69,1.06,3.81,1.61Z" style="fill: #064327; stroke-width: 0px;"/>
        <path d="M24.55,56.6c0,.19.04.36-.09.54-.86-.34-1.82-.92-2.64-1.43-1.35-.85-4.99-3.5-5.73-3.85-1.21-.57-3.51-.91-5.28-1.7-.85-.38-4-2.14-2.78-2.15.47,0,4.06,2.05,7.79.27-.1,2.84,3.54,4.48,5.82,5.55,2.74,1.29,2.86.28,2.91,2.78Z" style="fill: #064327; stroke-width: 0px;"/>
        <path d="M24.46,57.67v6.18c-.48-.03-1.58-.41-2.01-.63-.77-.38-.89-.6-.94-.63.42.15,2.56,1.24,2.78.94.1-1.28-.14-5.22,0-5.82.02-.08.17-.03.18-.04Z" style="fill: #064327; stroke-width: 0px;"/>
        <path d="M24.73,31.61c-1.04-.32-7.81-4.59-8.01-5.01-.14-.3.34-.73.4-1.07,1.12.59,2.47,1.58,4.43,2.51.1.05.17-.09.18-.09.04.02.42.41.72.54.28.12,2.17.62,2.24.72.1.14.04,2.03.04,2.42Z" style="fill: #064327; stroke-width: 0px;"/>
        <path d="M40.13,64.03c-1.27-.43-3.64-.52-5.15-.99-1.21-.37-3.09-1.59-3.27-1.61l-.09-.22c.13-.3,4.07-.09,6.22-1.84-.74,2.63,1.04,2.83,2.28,4.66Z" style="fill: #064327; stroke-width: 0px;"/>
        <path d="M31.62,61.43c1.36,4.22-1.37,4.57-3.76,1.88.71-.25,3.29-1.85,3.76-1.88Z" style="fill: #064327; stroke-width: 0px;"/>
        <g>
          <path d="M24.46,63.85c.57.04,1.13-.14,1.7-.09.15,1.39.26,7.83.45,8.37.06.18,2.49,2.08,2.69,2.55-.07.03-.24-.02-.36,0-1.69-1.95-2.35,1.66-2.28-2.15-.88.58-1.88.98-2.78,1.52-1.2.73-.78,1.41-2.24.45.61-2,1.77-1.32-.67-3.04-.96.49-3.17,1.81-3.94,2.06-.39.13-.53.5-1.07-.67,3.22-2.32,3.87-1.75,4.84-5.78.35-1.47.57-2.96.63-4.48.03,0,.06,0,.09,0,.05.03.17.25.94.63.43.21,1.54.59,2.01.63Z" style="fill: #5c2a16; stroke-width: 0px;"/>
          <path d="M27.68,63.31c.05,1.4.11,2.74.36,4.12.1.57.27,1.48.54,1.88v.09s-.12.05-.27-.13c-.23-.29-.31-1.71-.18,1.07.14.06.24.11.36.22-.39.17-.09,1.02-.09,1.16,0,.06,0,.12,0,.18,0,.17-.44-.25.18.9.72,1.33,1.49,1.59.72,1.88-.19-.47-2.63-2.38-2.69-2.55-.19-.55-.29-6.98-.45-8.37.41-.33,1.06-.3,1.52-.45Z" style="fill: #915538; stroke-width: 0px;"/>
          <path d="M28.58,69.4c.53.46,3.57,1.71,4.52,2.15-.17.49-.13.96-.67,1.07-1.62-.73-2.43-1.72-4.03-.72,0-.06,0-.12,0-.18,2.06-.78.86-.43.09-1.16-.11-.11-.22-.16-.36-.22-.13-2.78-.05-1.37.18-1.07.15.19.26.12.27.13Z" style="fill: #79442c; stroke-width: 0px;"/>
          <path d="M28.4,71.73c0-.15-.3-.99.09-1.16.77.73,1.97.38-.09,1.16Z" style="fill: #5c2a16; stroke-width: 0px;"/>
        </g>
      </g>
    </g>
  </g>
</svg>