<?xml version="1.0" encoding="iso-8859-1"?>
<!-- Uploaded to: SVG Repo, www.svgrepo.com, Generator: SVG Repo Mixer Tools -->
<svg fill="#000000" height="800px" width="800px" version="1.1" id="Layer_1" xmlns="http://www.w3.org/2000/svg" xmlns:xlink="http://www.w3.org/1999/xlink" 
	 viewBox="0 0 512 512" xml:space="preserve">
<g>
	<g>
		<path d="M501.93,228.367c9.129-8.892,12.355-21.94,8.424-34.063c-3.942-12.123-14.215-20.79-26.834-22.628L347.09,151.851
			c-1.134-0.165-2.114-0.881-2.62-1.904L287.113,33.723c-6.331-12.822-19.148-20.79-33.452-20.79
			c-14.304,0-27.121,7.966-33.452,20.794l-57.357,116.213c-0.506,1.029-1.486,1.745-2.632,1.91L31.972,170.493
			c-14.15,2.053-25.689,11.782-30.116,25.387s-0.804,28.26,9.436,38.247l92.803,90.458c0.825,0.798,1.2,1.95,1.002,3.083
			L83.196,455.408c-2.422,14.094,3.26,28.078,14.832,36.485c11.442,8.312,26.467,9.577,39.299,2.841l114.714-60.308
			c1.035-0.529,2.235-0.518,3.237,0l114.714,60.308c12.707,6.673,27.738,5.567,39.299-2.841
			c11.573-8.407,17.255-22.391,14.832-36.481l-21.901-127.747c-0.198-1.134,0.176-2.284,0.991-3.077L501.93,228.367z
			 M199.397,378.187c-1.421,8.237-8.566,14.056-16.648,14.056c-0.947,0-1.916-0.082-2.885-0.248
			c-9.205-1.58-15.383-10.323-13.808-19.534c5.255-30.622,16.734-65.644-14.732-96.315c-6.695-6.524-6.827-17.227-0.308-23.916
			c6.507-6.7,17.244-6.833,23.916-0.308C219.598,295.467,205.023,345.402,199.397,378.187z"/>
	</g>
</g>
</svg>