<?xml version="1.0" encoding="UTF-8"?>
<svg id="uuid-8f072ad7-2477-4680-b827-8be6e9dad814" data-name="Layer 2" xmlns="http://www.w3.org/2000/svg" viewBox="0 0 87.87 85.23">
  <g id="uuid-a732f1e7-1917-4e43-9c38-3d94a1cbda9e" data-name="Trees">
    <g>
      <path d="M22.24,53.91c-.08-.89,2.26-1.58,2.86-2.31,2-.11-1,1.29-2.86,2.31Z" style="fill: #e77265; stroke-width: 0px;"/>
      <g>
        <path d="M80.51,22.33c-.16,1.93-.94,1.58-1.36.68-.23-.5.23-1.38.14-1.91,1.17.01-.07.93,1.23,1.23Z" style="fill: #eb8090; stroke-width: 0px;"/>
        <path d="M80.51,22.33c-1.3-.3-.05-1.21-1.23-1.23-.23,0-.67.28-.95.41.21-2.06,2.36-1.37,2.18.82Z" style="fill: #fbdbd7; stroke-width: 0px;"/>
        <path d="M79.29,21.1c.09.53-.37,1.4-.14,1.91-.97.12-.9-.25-.95-.27v-1.09c.17.01.13-.13.14-.14.28-.13.72-.41.95-.41Z" style="fill: #db5a7a; stroke-width: 0px;"/>
      </g>
      <path d="M74.93,52.96c-.65-.24-.82-.37-1.5,0,.22-.69,1.12-.52,1.5,0Z" style="fill: #785d55; stroke-width: 0px;"/>
      <g>
        <path d="M27.14,57.45c-.53.69-.93,2.31-2.38,1.77-2.22-1.85.17-2.42.34-2.65,0,0-.2-.15-.14-.2,1.25-.45,2.23-.36,2.18,1.09Z" style="fill: #ed7078; stroke-width: 0px;"/>
        <path d="M26.12,56.64l.07.61c-1.47,1.83-2.74.28-.07-.61Z" style="fill: #f9b6b6; stroke-width: 0px;"/>
      </g>
      <g>
        <path d="M57.91,10.76c-1.16,1,.13,1.77,1.23,1.77.74.47-.52.47-1.09,1.29-.83,1.19-.8,2.73.54,3.47.18.1.13.13.14.14-1.01,1.61,2.28,3.05,3.4,3.13,1.62.12,3.01-.46,4.49-.95.29.45.32.2.41.27.23.2,1.44.37.41.88.21.46.71-.08.75-.07.52.15.06,1.76.75,1.91-.28.84-.86,1-.14,1.09-3.09,2.49-.14,2.2-.82,3.74-.12.27-2.17,1.54-2.72,1.97-.82.64-1.2,1.46-1.63,1.63-1.46.58-.93-.78-1.09-1.16-.06-.13-.4-.04-.41-.07-.49-1.83,1.31-.94.41-5.38-.91-1.31-1.4.2-1.63.48l-.27-.14c.49-2.29-.07-4.1-2.72-3-.09-.31-.91-1.48-1.23-1.91-.21-.28-.16-.55-.54-.82-.39-.27-1.91-.02-2.59.14.96-2.14-.66-3.23-2.31-4.49,1.74-3.45,5.07-2.86,5.38-3,.12-.05.71-.74,1.16-1.09.17-.01.13.13.14.14Z" style="fill: #db5a7a; stroke-width: 0px;"/>
        <path d="M80.38,34.58c.1.12.7.67.68.75-.07.39-2.91,1.1,0,1.09-.17.81.24.9-.41,1.7-.73.1-1.35-.27-2.04-.07.36.04,2.49.92,2.59,1.02,1.12,1.15-.02,2.1-1.36,2.04-.19-1.07-.27.16-.41.41-.9-.46-1.16-.89-2.18-.82-.36.03-.49.13-.68.14-.38.02-.34.37-1.23,0-.14-.06-.52-.5-1.43-.95-.41-.2-2.49-.19-2.11-1.57,1.58-1.71,3.8.42,4.02.48.81.19,1.21-.63,2.04.54.58,0-.53-.96-.61-1.09-2.85-4.39,1.77-3.93,1.63-4.97-.06-.47-2.78.6-3,1.43-.09-.05-.39-.25-.41-.27-1.56-2.01-3.17-.81-4.36-.82-.08,0-1.33-.22-1.63-.27-.76-.13-.83-.31-1.63-.41-.09-.01.19-.56-1.63.27-.5-.41-.98-.83-1.5-1.23.12-.44-.1-.56.82-1.63.04-.05,1-.24.54-.95.3,0,.35-.26,1.23,0,1.62.48,3.24,1.91.34,2.04-.06.83,2.68-.32,4.9,0,.3-.21-.52-2.09-.48-2.38.1-.59,1.4-.16-.68-1.97.11,0,.14-.1.27-.14.47-.13,2.47-2.09,3.4-2.45,1.62,1.98-1.17,4.4-1.09,6.47.17.42,2.32-.52,4.42.61,2.03,1.09,1.5,2.76,1.57,2.93.06.14.38.03.41.07Z" style="fill: #eb8090; stroke-width: 0px;"/>
        <path d="M21.7,40.3c.08.8.22,1.57.14,2.38.86.99,2.82,4.39,3.13,4.77,1.93,2.34.41-.6,2.11-2.25.55-.02.29.81.2,2.18-.02.29-1.08,1.02.95,3,1.3,1.26,2.56,1.93,4.36,1.63,0,.45-.41.28-.14.82.23.45,1.5,1.15,2.04,1.36.32.13,5.36,1.51,5.65,1.5.03,0,.22-.19.2-.27.13.16.29.38.41.54.55.78.97,1.66,1.5,2.45l-1.23.54c-1.9-2.33-5.25-2.57-8.1-3.54-.55-.19-2.44-1.23-2.59-1.23-.78.04-2.72,2.63-3.2,3.27.05-1.45-.93-1.54-2.18-1.09,1.02-.82,1.23-.32,2.11-.68.18-.08,2.34-1.86,2.18-2.04-2.78-1.53-3.74-1.04-7.01.82-.01-.18.02-.37,0-.54,1.86-1.02,4.86-2.42,2.86-2.31q-2.93-.48-5.85-.95s.28-.72.61-.82c.84-.25,3.64.35,4.7.54.67.13,2,.82,1.91.07l-2.86-1.57c.98-1.23-.27-2.73-.95-3.68-.64-.89-1.13-1.61-2.18-2.04.41-.9.43-1.29.41-2.18-.01-.47-.12-.73-.14-1.5l.95.82Z" style="fill: #2e1312; stroke-width: 0px;"/>
        <path d="M51.92,7.08c.49.14,1.28.93,1.57,1.09.21.11.43-.2.54-.14.63.32.53,1.86,2.65.14.23-.19.45-.45.68-.68,1.31-.56.68,1.28.82,2.59-.32.13-.33.48-.41.54-.45.35-1.04,1.04-1.16,1.09-.31.13-3.63-.46-5.38,3-.24-.03-.26.1-.41.14-1.57.33-.66.78-.54,1.09-.64-.05-.52-.9-.82-.27-.15-.24-.89-.52-.95-.61-.05-.07-.06-1.02-.82-1.57.9-.57.55-2.23,1.36-2.72.41-.25,1.68.03,2.31-.88.91-1.32-.35-2.73.54-2.79Z" style="fill: #eb8090; stroke-width: 0px;"/>
        <path d="M72.89,23.96c-.02.36-1.11,2.26-1.23,3-.13.04-.16.13-.27.14-2.58-2.25-.65-.24-1.77,1.02-.76.85-1.96.14-2.31,1.29-.87-.26-.93,0-1.23,0-.16,0-.39,0-.54,0-.01,0,.06-.24-.27,0,.55-.43,2.6-1.7,2.72-1.97.68-1.55-2.27-1.26.82-3.74.79.22,1.58.78,1.97,1.5.56-.91.11-1.07.07-1.5.52.4.95-.65,1.09-1.09l.14,1.97.82-.61Z" style="fill: #eb8090; stroke-width: 0px;"/>
        <path d="M22.65,45.2c.68.95,1.93,2.44.95,3.68-.1.13-.77.27-.95.61,1.08.6,2.12.26,1.91.88-1.05-.2-3.86-.79-4.7-.54-.33.1-.58.78-.61.82-.57.54-1.68,1.81-2.31,1.91-.14-.53,1.06-1.01,1.77-1.91,1.22-1.54.87-2.13,1.09-2.52.34-.6.71-.1.88-.2.93-.54.64-1.66.2-2.45-.3-.55-1.41-1.64-2.11-1.09-.3-.99,2.42.05,3.88.82Z" style="fill: #db5a7a; stroke-width: 0px;"/>
        <path d="M19.79,42.89c.21.06.47.19.68.27,1.05.44,1.54,1.15,2.18,2.04-1.46-.77-4.18-1.81-3.88-.82.7-.55,1.81.54,2.11,1.09-.8-.31-.83.27-.88.27-.24.01-1.71-1.55-4.56-.95-2.29.48-2.28,2.58-3,2.04-.07-.62.05-.89.41-1.36.11-.15,1.2-.33.95-1.63,1.58-.55,2.2.83,2.38.68.04-.84.28-3.02,1.5-2.72,1.44,1.91,1.29.84,2.11,1.09Z" style="fill: #f9b6b6; stroke-width: 0px;"/>
        <path d="M30.68,18.52l.54.61c-2.72.37.79,2.68,1.77,2.04.16,1.2-.75.4-1.23,1.09-.02.51,2.03.17.27,1.57-.05.04-1.09.62-1.23.68-.05.03-.21-.03-.27,0-.37-.73-1.71-1.32-2.45-1.36.05-.31-.12-.26-.14-.27-.02-1.43.83-.15,1.09-.75.33-1.87-1.21-1.52-.68-2.38.02,0,.38-.12.41-.14.51-.25.37-.55.61-.68.92-.48,1.23-.38,1.29-.41Z" style="fill: #d32455; stroke-width: 0px;"/>
        <path d="M56.01,5.45c.03.07.69.47.82,1.36.06.45,0,.93-.14,1.36-2.13,1.72-2.03.19-2.65-.14-.12-.06-.34.25-.54.14-.29-.15-1.08-.95-1.57-1.09-1.13-.33-2,1.73-3,2.04.02-.12-.15-.15-.14-.27.38-.13.43-.58.68-.82.68-.65,1.44-.69,1.63-1.77.62-.2,2.62-.79,3.06-.82,1.03-.07,1.89.65,1.84,0Z" style="fill: #f9b6b6; stroke-width: 0px;"/>
        <path d="M82.56,47.11c-.31.07-2.73,1.91-5.72,2.52,1.62.54,4.89.93,4.02,1.84-1.33-.04-4.38-1.18-5.04-1.23-1.56-.11-3.12.88-4.7.68,2.18-.61,3.55-.24,2.86-1.77.73-.1,1.45-.13,2.18-.27,1.11-.22,2.48-.35,3.27-1.23.07.02,1.36.02,1.43,0,.55-.13,1.19-.9,1.7-1.09.04-.01.09.01.14,0l-.14.54Z" style="fill: #541317; stroke-width: 0px;"/>
        <path d="M10.4,50.24c.11.32-.35.23.54,1.09-.79-.55-1.17,1.67-.61,1.91.86-.23.7-.41.75-.41.27,0,.31.17.54.14,2.9,2.31-2.31,4.52-2.31.95,0-.06.35-.51.41-1.16,0-.07-.26-.66-.14-1.5.01-.09.26.03.54-1.57-.11.73.26.51.27.54Z" style="fill: #f9b6b6; stroke-width: 0px;"/>
        <path d="M7.54,45.88c-1.31.97-.75.98-1.5,2.18-2.13-.3-2.33-1.46-3.4-.27-.08-.33-.92.34-1.5.14l.27-2.31c.84.23,1.3,1.46,1.43,1.5.48.12,1.82-.28,2.38.2-1.13-1.72,1.24-2.92,2.31-1.43Z" style="fill: #fbcbc6; stroke-width: 0px;"/>
        <path d="M19.52,37.58c.21.28,1.11,1.56,1.09.82,0,1.03.13,1.02.14,1.09.02.77.13,1.03.14,1.5-2.03.49-1.93-1.09-1.36.68-1.47-1.25-2.77-1.39-1.63-2.59.13-.13.41-.09.82-.54.43-.48.23-1.09.82-.95Z" style="fill: #f9b6b6; stroke-width: 0px;"/>
        <path d="M75.07,55.55c-.83-1.27-.04-1.65,0-1.91,1.44-.57,3.31-.73,3.13,1.29-1.28,1.5-2.42.73-3.13.61Z" style="fill: #f9b6b6; stroke-width: 0px;"/>
        <path d="M28.37,19.74c-.53.86,1.01.51.68,2.38-.26.6-1.11-.69-1.09.75-1.21-.88-2.32-2.6-1.16-3.95.46-.14,1.48.81,1.57.82Z" style="fill: #f9b6b6; stroke-width: 0px;"/>
        <path d="M11.76,41.53l-.41.14c-.34-.42-1.52-.66-1.77-.95-.21-.24-.21-.83-.41-1.23,3.25-3.72,2.51,1.76,2.59,2.04Z" style="fill: #fbcbc6; stroke-width: 0px;"/>
        <path d="M17.48,33.9c.57.93-1.19.31-.14,1.63-.11.24-.4.81-.41.95-3.56.46-2.52-3.53-.48-2.86.12.04.45.52.54.54.23.05.29-.27.48-.27Z" style="fill: #fbcbc6; stroke-width: 0px;"/>
        <path d="M70.85,23.69c.05.43.49.59-.07,1.5-.4-.72-1.19-1.28-1.97-1.5-.72-.09-.15-.24.14-1.09.36-1.09.52-2.26.95-2.45.65,1.08.82,2.29.95,3.54Z" style="fill: #d32455; stroke-width: 0px;"/>
        <path d="M66.49,18.79c.05.11.1.76.14.82-1.49.5-2.87,1.08-4.49.95.42-.47,1.4-.8,1.63-1.36,1.08.03,1.13-.04,1.36-.95.11-.43-.34-.96.75-.95.16.53.39,1,.61,1.5Z" style="fill: #721016; stroke-width: 0px;"/>
        <path d="M83.64,39.48c-1.09.85-.94-1.19-1.91-.82.6-.66.31-.71.41-1.23.03-.15.14-.65.14-.68,1.89-.55,2.5,1.38,1.36,2.72Z" style="fill: #f9b6b6; stroke-width: 0px;"/>
        <path d="M31.23,17.84c-.21.74-.27.56-.54.68-.06.03-.37-.08-1.29.41-.25.13-.1.43-.61.68-.6-1-.6-2.19.34-3,.97-.29,1.48.95,2.11,1.23Z" style="fill: #fbcbc6; stroke-width: 0px;"/>
        <path d="M69.89,20.15c-.43.19-.59,1.36-.95,2.45-.69-.14-.23-1.76-.75-1.91-.04-.01-.54.52-.75.07,1.03-.52-.18-.69-.41-.88,1.21-1.39,2-1.15,2.86.27Z" style="fill: #f9b6b6; stroke-width: 0px;"/>
        <path d="M82.28,36.76s-.11.53-.14.68c-.54.09-.95.61-1.5.68.65-.81.24-.89.41-1.7-2.91,0-.07-.69,0-1.09.02-.08-.58-.63-.68-.75,1.82-.01,1.94.57,1.91,2.18Z" style="fill: #f6a0a7; stroke-width: 0px;"/>
        <path d="M31.09,7.35c.03.14.02.75,0,.95-.09.77-.5,1.05-.54,1.23-1.56-.09-1.32-1.26-1.36-1.36.19-.58.63-.56.68-1.23.68-.52,1.03-.38,1.23.41Z" style="fill: #d32455; stroke-width: 0px;"/>
        <path d="M75.07,53.37c0,.09.01.19,0,.27-.04.25-.83.63,0,1.91-.92-.15-.63-.74-2.45-.14-.26-.2-.77-.34-1.09-.54-.39-.26-.82-.55-1.09-.95.08-.01-.02-.6,1.36.14.07.04.54.93,1.29.82.53-.08.93-1.48,1.97-1.5Z" style="fill: #541317; stroke-width: 0px;"/>
        <path d="M1.14,47.92c.58.21,1.42-.47,1.5-.14l-.27.2c.9.72.06.75.82.88v.54c-.37-.23-1.01.39-1.29.27-.34-.15-.69-1.31-1.16-.95-.2-.37-.42-.58-.54-.95.69-1.36.39-.06.95.14Z" style="fill: #f9b6b6; stroke-width: 0px;"/>
        <path d="M19.79,32.54c-1.02.21-1.05.91-.82,1.77-.38-.27-.55-.55-1.09-.54-.59-.43-.17-1.63.34-2.18.97-.47,1.49.88,1.57.95Z" style="fill: #fbdbd7; stroke-width: 0px;"/>
        <path d="M20.2,24.1c.17.16.39.39.41.41.41,2.29-.24,1.8-.27,1.91-.82-.94-1.11,0-1.5-.88l.68-1.23.68-.2Z" style="fill: #d32455; stroke-width: 0px;"/>
        <path d="M74.93,52.96c.19,0,.14.2.14.41-1.04.02-1.45,1.42-1.97,1.5-.76.12-1.22-.78-1.29-.82v-.14c.99-.56,1.4.14,1.57-.14.16-.26,0-.58.07-.82.68-.37.85-.24,1.5,0Z" style="fill: #fbb57d; stroke-width: 0px;"/>
        <path d="M6.04,48.06c.32.84-1.43-.91-2.18.82-.71-.28-.65,0-.68,0-.76-.14.08-.17-.82-.88l.27-.2c1.07-1.19,1.27-.03,3.4.27Z" style="fill: #d32455; stroke-width: 0px;"/>
        <path d="M71.8,53.91v.14c-1.39-.73-1.29-.15-1.36-.14-.04,0-.09-.01-.14,0,0-.68-.84-.22-.68-.82.18-.15.91-.77.95-.82,1.28,0,1.41.48,1.23,1.63Z" style="fill: #721016; stroke-width: 0px;"/>
        <path d="M20.88,40.98c.02.88,0,1.28-.41,2.18-.21-.09-.47-.21-.68-.27-.16-.5-.24-1.12-.27-1.23-.57-1.77-.66-.19,1.36-.68Z" style="fill: #d03e7f; stroke-width: 0px;"/>
        <path d="M17.75,35.81c-.22.82.27,2.22.95,2.72-.41.46-.69.41-.82.54-.33-.86-.99-1.62-.95-2.59,0-.14.3-.71.41-.95.02.02.21.1.41.27Z" style="fill: #e67093; stroke-width: 0px;"/>
        <path d="M1.41,45.61l-.27,2.31c-.56-.2-.26-1.49-.95-.14-.37-1.12-.29-2.59,1.23-2.18Z" style="fill: #fbdbd7; stroke-width: 0px;"/>
        <path d="M3.18,49.42v1.02c-1.53.79-1.96-.77-2.45-1.7.47-.36.81.81,1.16.95.28.12.92-.5,1.29-.27Z" style="fill: #fbcbc6; stroke-width: 0px;"/>
        <path d="M50.97,5.85c0,.53.14.39.14.41-.2,1.08-.96,1.12-1.63,1.77.07-.34-.14-.44-.14-.54,0-.08.39-1.09.41-1.63.31.24.91.3,1.23,0Z" style="fill: #fbcbc6; stroke-width: 0px;"/>
        <path d="M14.07,51.87c-.77.53-1.54.86-2.45,1.09-.24.03-.28-.15-.54-.14l.27-1.09c1.22.47,2.39-.15,2.52-.14.11.01.19.27.2.27Z" style="fill: #a41e22; stroke-width: 0px;"/>
        <g>
          <path d="M42.26,2.31c-1.03-.74-1.33.6-1.7.68-.17.04-.51-.29-.61-.27.12-.42-.38-1.9,1.02-2.72,1.37.2,1.38,1.24,1.29,2.31Z" style="fill: #fbdbd7; stroke-width: 0px;"/>
          <g>
            <path d="M38.03,4.22c0,.23.02.46,0,.68-.01.11-.49-.1-.27,2.04-.8-.57-1.64-.81-2.59-.82l-.14-1.5c.38.58,1.11,1,1.77.75.13-.17-1.22-1.28-.95-2.93.05-.31.45-.74.61-1.09,1.38-.3,1.59,1.72,1.57,2.86Z" style="fill: #cc1f3f; stroke-width: 0px;"/>
            <path d="M42.26,2.31c0,.07.25.35.14.61-.24.52-1.31.27-1.7.61-.17.15-.31.96-.48,1.16-.53.62-.92.7-.95.75l-1.09-.54c.88-.19,1.54-1.39,1.77-2.18.11-.02.44.31.61.27.37-.08.67-1.42,1.7-.68Z" style="fill: #cc1f3f; stroke-width: 0px;"/>
            <path d="M35.86,2.45c-.27,1.65,1.08,2.76.95,2.93-.66.25-1.39-.17-1.77-.75-.86-1.33-.35-3.04.82-2.18Z" style="fill: #f8eae4; stroke-width: 0px;"/>
            <path d="M38.03,4.9h.14l1.09.54c-.19.25-.38,2-.27,2.45l-.14.14c-.04-.07-1.03-1.04-1.09-1.09-.22-2.15.26-1.93.27-2.04Z" style="fill: #a41e22; stroke-width: 0px;"/>
            <path d="M39.94,2.72c-.23.79-.89,1.99-1.77,2.18h-.14c.02-.22,0-.45,0-.68.61-.9.82-1.3,1.91-1.5Z" style="fill: #d32455; stroke-width: 0px;"/>
          </g>
        </g>
        <path d="M29.87,6.94c-.06.67-.49.65-.68,1.23-1.21-3.27.8-2.64.68-1.23Z" style="fill: #fff; stroke-width: 0px;"/>
        <g>
          <path d="M75.75,19.2c-.42.32-.39.75-.82,1.09-1.01-.55-1.64-2.49.07-2.18,1,.18.72,1.02.75,1.09Z" style="fill: #fbcbc6; stroke-width: 0px;"/>
          <g>
            <path d="M76.02,20.01c-.05,1.41-.64,2.57-1.77,3.47,1.95.3,1.98-2.7,2.72-1.97.04.16-.1.44.27.54-1.16,1.34-3.46,3.02-3.95,2.38.53-1.02.26-1.01.14-1.57-.25-1.51.14-1.81.14-1.91.42-.4.92-.33,1.36-.68.43-.34.4-.77.82-1.09.07.18.31-.42.27.82Z" style="fill: #d32455; stroke-width: 0px;"/>
            <path d="M73.43,22.87c.12.56.4.55-.14,1.57.49.64,2.79-1.04,3.95-2.38.05-.05.35-1.14.95-.41v1.09c-.23-.09-.29-.35-.61-.27-.16.04-.73,1.17-2.52,2.04-.94.36-2.93,2.32-3.4,2.45.11-.73,1.21-2.63,1.23-3,.03-.57-.56-1.27-.68-1.91-.04-.2,0-.57,0-.82.69.03,1.1,1.04,1.23,1.63Z" style="fill: #721016; stroke-width: 0px;"/>
            <path d="M76.97,21.51c-.74-.73-.78,2.28-2.72,1.97,1.13-.9,1.72-2.06,1.77-3.47.7.43.75.75.95,1.5Z" style="fill: #eb8090; stroke-width: 0px;"/>
            <path d="M73.57,20.97c0,.1-.38.4-.14,1.91-.13-.59-.53-1.6-1.23-1.63.04-1.82,1.27-2.07,1.36-.27Z" style="fill: #ed7078; stroke-width: 0px;"/>
            <path d="M72.21,22.06c.12.64.71,1.34.68,1.91l-.82.61-.14-1.97c.08-.24-.17-.61.27-.54Z" style="fill: #db5a7a; stroke-width: 0px;"/>
          </g>
        </g>
        <path d="M32.18,7.62c-.05.07.05.39,0,.48-.13.22-.42.34-.54.61l-.54-.41c.02-.21.03-.81,0-.95.52-.21.66-.03,1.09.27Z" style="fill: #f8eae4; stroke-width: 0px;"/>
        <g>
          <path d="M59.27,2.59c-.21-.16-1.62.94-1.77,1.09-2.62-2.92,1.15-2.33,1.77-1.09Z" style="fill: #fbcbc6; stroke-width: 0px;"/>
          <g>
            <path d="M62,5.17c-.75.91-1.95.65-2.72-.14.04-.1.27-.77.27-.82.82.02,2.21-.04,2.45.95Z" style="fill: #fbdbd7; stroke-width: 0px;"/>
            <path d="M62,5.17l.14.48c-1.12,1.73-2.12.77-3.27-.07.14-.23.4-.51.41-.54.78.79,1.98,1.04,2.72.14Z" style="fill: #eb8090; stroke-width: 0px;"/>
          </g>
          <g>
            <path d="M59.27,2.59c.36.71-.19.45-.14.75.02.1.45-.14.41.88,0,.04-.23.72-.27.82-.01.03-.27.32-.41.54-.41.68-.78.85-1.23,1.36l-.82-.14c-.12-.89-.78-1.29-.82-1.36-.16-.36-1.06-2.06-.2-2.04,1.88,2.06,1.18.81,1.7.27.15-.15,1.56-1.25,1.77-1.09Z" style="fill: #d32455; stroke-width: 0px;"/>
            <path d="M57.64,6.94c-.31.36-.25.52-.27.54-.24.23-.45.49-.68.68.13-.44.2-.91.14-1.36l.82.14Z" style="fill: #721016; stroke-width: 0px;"/>
          </g>
        </g>
        <path d="M42.26,58.41c.66.99,3.66,5.47,3.81,6.13-2.23-1.37-1.81-.89-1.77.14-.35-.78-.67-1.56-1.09-2.31-.31-.55-1.9-3.07-2.18-3.4l1.23-.54Z" style="fill: #541317; stroke-width: 0px;"/>
        <path d="M70.3,53.91s.09,0,.14,0c.27.4.7.7,1.09.95-.27.81.2.8.14,1.09l-3-.88c.44-.63.94-.97,1.63-1.16Z" style="fill: #f8eae4; stroke-width: 0px;"/>
        <path d="M32.86,41.93c.66.43,1.62.86,2.45,1.36.02.13-.03.3,0,.41-1.55-.27-1.58.4-1.23,1.63-.14-.03-.46-.09-.54-.14-.04-.02.06-.61-.54-.07.18,1.51-.07-.02-2.59.61-1.16.29-2.13,1.02-3.13,1.63.09-1.36.35-2.2-.2-2.18-1.7,1.64-.18,4.58-2.11,2.25-.31-.37-2.27-3.77-3.13-4.77.09-.81-.06-1.58-.14-2.38-.12-1.21-.69-3.16.48-3.81,1.61,2.19.32-.46,2.65-1.09,1.35-.36,2.42.07,1.7.41-1.71-.13-2.82,1.54-1.63,2.45.76.58,1.48-.22,1.57.2.09.47-.62,4.99,1.97,1.7.65,1.45,3.03,2.53,4.42,1.77Z" style="fill: #db5a7a; stroke-width: 0px;"/>
        <path d="M53.28,46.97c.65,2.07-.16,3.64,1.5,1.91.01.03.51.08.54.34.05.33-.84.77-.41.88-1.89,2.31-2.56,5.6-3.68,8.31-.91.61.81-2.49.82-2.65,0-.22-.54-2.96-1.5-1.16.97-2.27,1.9-2.99,1.5-5.92-.19-1.37-.97-1.99-1.63-3.06-.4-.66-.69-.14-.41-1.23.01-.04-.01-.1,0-.14.24,0,.8-.51.95-.68.82,1.08,1.91,2.12,2.31,3.4Z" style="fill: #1d151a; stroke-width: 0px;"/>
        <path d="M40.76,34.31c.32,1.36,2.02,2.28,2.04,3.95,0,.12-.46,1.88-.54,2.25-.04.16-.53.83-.54.88-.05-.2-.55-.2-.68-.27-.94-.55-1.48-1.42-2.04-2.31-.37-1.61.26-5.02,1.77-5.85.05.41-.07,1.04,0,1.36Z" style="fill: #db5a7a; stroke-width: 0px;"/>
        <path d="M35.31,35.4c1.49,2.8,2.41,1.15,2.79,1.36.1.05.35,1.18.88,2.04.56.9,1.1,1.77,2.04,2.31-.8.8-.43.75-.41.95-.47.06-.39-.13-.41-.14-.98-.85-2.64-3.07-1.5-.54.08.18.17.37.27.54l-.41.27c-.38-.52-1.83-3.49-2.45-1.7-.45,1.29.75,2.46-1.09,1.57-1.69-.82-1.36-1.38-.54-2.59,1.32-1,2.66.82,3,.41.48-1.31.01-1.29,0-1.36-.25-1.62-.29-1.92-.68,0-.26.02-.4.19-.68.14-.02-.02-.35.02-.54-.34-.02-.04.2-.42,0-.82-.26-.51-.74-1.09-.82-1.29-.13-.34.04-.47,0-.82.03,0,.52,0,.54,0Z" style="fill: #541317; stroke-width: 0px;"/>
        <path d="M46.07,64.53c.27,1.14-.07,1.55,0,2.52,0,.08.27.32.27.34.13,2.22-.05,4.56,0,6.81,0,.24,0,.45,0,.68l-1.5.88v-3.61c.27-2.49-.44-5.03-.54-7.49-.04-1.03-.46-1.5,1.77-.14Z" style="fill: #7e3435; stroke-width: 0px;"/>
        <path d="M44.16,58.41c.31-2.49-.07-5.29,1.09-7.62.01-.02.26.07.41-.2.11-.2,1.75-3.36,2.18-2.59-2.02,4.28-2.33,8.53-2.18,13.21-.67-.83-.96-1.9-1.5-2.79Z" style="fill: #541317; stroke-width: 0px;"/>
        <path d="M42.94,48.06c-.35-.03-.49.92-.54,1.29-.4,2.56.03,5.4.95,7.83-.86-1.07-.72-1.2-2.52-1.5l-.07.27c-.12-.16-.28-.38-.41-.54-.3-.39-1.15-1.63-1.63-1.91.65-.62.56-2.11,1.77-1.36.56.75.4.74.54-2.18,1.83,1.33.66-1.55,1.7-2.18l.2.27Z" style="fill: #1d151a; stroke-width: 0px;"/>
        <path d="M38.58,42.21c1.01,1.37,2.48,3.04,1.97,4.08-1.97-1.45-3.34-3.14-5.65-4.08l.14-.14c1.84.9.64-.28,1.09-1.57.62-1.78,2.07,1.18,2.45,1.7Z" style="fill: #f9b6b6; stroke-width: 0px;"/>
        <path d="M44.43,38.67c-.13.43-.89.73-.95,1.57-.03.44.38,1.52.41,1.84-1.02.74-1.3,1.57-1.7,2.72-.36-1.25-.79-2.08-.48-3.4.01-.05.51-.73.54-.88.08-.37.55-2.13.54-2.25l1.63.41Z" style="fill: #f9b6b6; stroke-width: 0px;"/>
        <path d="M76.16,48.88c-.73.15-1.45.18-2.18.27-.28.04-3.24.51-3.27.34,1.91-.47,2.9-1.76,3.06-1.84.1-.05.38.05.48,0,.49-.23,1.47-.34,1.57-.41.11-.08.21-1.7,1.84-.2.17,1.68-1.68,1.12-1.5,1.84Z" style="fill: #f6a0a7; stroke-width: 0px;"/>
        <path d="M47.56,73.79l-1.23.41c-.05-2.24.13-4.58,0-6.81l1.09.07c-.06,2.11.1,4.22.14,6.33Z" style="fill: #541317; stroke-width: 0px;"/>
        <path d="M46.34,80.19c-.12-1.74.03-3.56,0-5.31,0-.23,0-.44,0-.68l1.23-.41c.05,2.81.8,3.91-1.23,6.4Z" style="fill: #541317; stroke-width: 0px;"/>
        <path d="M78.61,46.97c.3.3.31.56.82.68-.79.87-2.16,1.01-3.27,1.23-.18-.72,1.67-.16,1.5-1.84-1.62-1.49-1.72.12-1.84.2-.09.07-1.08.18-1.57.41-.05-.22.04-.36.14-.54.24-.43.67-.65.95-1.09,2.23-.64,1.99-.33,3.27.95Z" style="fill: #eb8090; stroke-width: 0px;"/>
        <path d="M46.75,45.47c-.6.96.15,2.43-.88,3.27l-1.43-2.45c.34-.4.85-.45-1.09-1.5.09-.45.32-.83.41-1.23.6,1.43,1.33,2.44,3,1.91Z" style="fill: #eb8090; stroke-width: 0px;"/>
        <path d="M67.31,43.7c-.17,1.36-.46,2.73-.68,4.08-.11-.06-1.62-1.47-1.77-1.63-.03-.04-.06-.6-.68-.68-.09-.21-.37-.09-.27-.48,1.64-.88,1.56.45,2.25.34,1.23-.89-.17-2.71,1.16-1.63Z" style="fill: #9b2431; stroke-width: 0px;"/>
        <g>
          <path d="M39.67,46.7c-.23.33.49,1.06.54,1.43.16,1.07-.47,2.11-.14,3.2-1.52-2.89-1.36-5.39-4.49-7.22-.11-.22-.16-.01-.27-.41-.03-.11.02-.28,0-.41,1.64.99,2.9,2.2,4.36,3.4Z" style="fill: #f6a0a7; stroke-width: 0px;"/>
          <path d="M41.03,49.97c-.15,2.91.02,2.93-.54,2.18-.42-.56-.39-.78-.41-.82-.33-1.09.29-2.13.14-3.2-.05-.37-.77-1.1-.54-1.43.37.31,1.42.69,1.5.88.11.28-.1,1.76-.14,2.38Z" style="fill: #fbcbc6; stroke-width: 0px;"/>
        </g>
        <path d="M76.16,42.89c.15.24.33.85.27,1.09-.03.11-.96,1.83-1.09,2.04-.28.44-.72.66-.95,1.09l-.41-.68c.49-.54.9-1.54,1.23-2.18.45-.88.49-1.51.54-1.57.25-.24.39.2.41.2Z" style="fill: #541317; stroke-width: 0px;"/>
        <path d="M68.4,48.2c-2.94,2.95-3.47,3.44-1.77-.41.26.14,1.42.39,1.77.41Z" style="fill: #e2e4dc; stroke-width: 0px;"/>
        <path d="M62.54,47.11s.09,0,.14,0c.38.07,1.67.96,2.65.95.27.26-.31.87-.34.95-1.23-.19-1.91-1.18-3-1.63v-.14s-.11-.17.54-.14Z" style="fill: #d0cecb; stroke-width: 0px;"/>
        <path d="M44.43,46.29c-.19.23-.53.38-.68.68l-.68-.68c0-.65.16-.92.27-1.5,1.94,1.05,1.43,1.1,1.09,1.5Z" style="fill: #ef9ab1; stroke-width: 0px;"/>
        <g>
          <path d="M41.71,41.39c-.31,1.32.11,2.16.48,3.4.41-1.15.68-1.98,1.7-2.72,0,.02.11-.1.14.27.03.46-.18.8-.27,1.23-.09.4-.32.78-.41,1.23-.11.57-.28.85-.27,1.5,0,.67-.12,1.17.48,1.63.46-.04.18-.91.2-.95.15-.3.49-.45.68-.68l1.43,2.45c1.03-.84.28-2.3.88-3.27.2-.32.97-.44,1.63-1.77.07-.02.23.03.27,0,.43.67.05,1.06.95.82.14-.04.25-.02.41-.14-.28,1.08,0,.57.41,1.23l-1.16-.54c-.72,5.04-2.69,10.37-1.43,15.59.81-2.06,1.86-4.02,2.72-6.06.96-1.81,1.51.94,1.5,1.16,0,.16-1.73,3.26-.82,2.65,2.55-2.33,12.05-6.61,12.59-7.08.48-.42.93-1.68,1.16-2.31.03-.08.62-.69.34-.95-.99,0-2.28-.89-2.65-.95.62-.61,1.97.11,2.18-.95.15.16,1.66,1.58,1.77,1.63-1.7,3.85-1.17,3.36,1.77.41.88.05,2.8-.23,3.68-.54.72-.26,1.4-.66,1.91-1.23l.41.68c-.1.18-.18.32-.14.54-.1.05-.38-.05-.48,0-.16.08-1.15,1.37-3.06,1.84.03.17,2.99-.3,3.27-.34.69,1.53-.68,1.16-2.86,1.77-.22.06-.05.21-.27.27-4.21,1.13-7.34,1.1-11.3,4.29,3.49,1.23,7.34-.05,10.08-2.38-.16.59.68.13.68.82-.69.19-1.2.53-1.63,1.16l3,.88c-1.54,1.11-3.15-.33-3.61-.27-.1.01-1.21.93-1.63,1.09-4.78,1.8-7.98,0-9.39.27-.37.07-5.71,4.45-5.92,4.77-.59.85-1.51,6.42-1.63,7.76-.07.82.01,1.86,0,2.72-.04,2.26-.7,3.03.54,3.4-.81-.08-.86,1.13-.68,1.7.1.3,3.27,1.98,3.47,1.97.26,0,2.99-2.29,3.2-2.86.38.08.53-.21,1.5.54,1.3,1.01.62,1.82-.27,2.86-.28.33-2.21,1.89-2.65,2.18-3.56,2.27-4.89,1.59-6.19,1.91-.61.15-2,1.21-2.25,1.23-.45.04-8.52-1.42-8.78-1.84-.09-.14.18-.25.14-.34,1.17-1.18,1.91-1.73,3.4-2.45.53-.26,3.21-1.34,3.61-1.23.79.55,1.75,5.23,2.45,5.17,1.18-.77-.37-.78-.61-4.36,2.02-2.49,1.27-3.59,1.23-6.4-.03-2.11-.19-4.22-.14-6.33l-1.09-.07s-.27-.26-.27-.34c-.07-.97.27-1.38,0-2.52-.16-.66-3.15-5.14-3.81-6.13-.53-.79-.95-1.67-1.5-2.45l.07-.27c1.79.3,1.66.42,2.52,1.5.35.43.54.76.82,1.23.54.89.83,1.97,1.5,2.79-.15-4.68.15-8.93,2.18-13.21-.43-.77-2.07,2.38-2.18,2.59-.14.27-.4.18-.41.2l-2.31-2.72-.2-.27c-1.04.62.13,3.5-1.7,2.18.03-.62.24-2.11.14-2.38-.07-.19-1.13-.58-1.5-.88-1.45-1.21-2.72-2.41-4.36-3.4-.83-.5-1.79-.93-2.45-1.36.28-.15-.84-.91,2.04.27,2.31.95,3.68,2.64,5.65,4.08.51-1.05-.97-2.71-1.97-4.08l.41-.27c.51.86,1.43,1.48,1.97,2.31.04-1.84-.33-2.07-.34-2.18-.02-.2-.39-.15.41-.95.13.08.63.07.68.27Z" style="fill: #2e1312; stroke-width: 0px;"/>
          <path d="M40.21,41.93s-.06.2.41.14c0,.11.38.34.34,2.18-.55-.84-1.46-1.45-1.97-2.31-.1-.17-.19-.36-.27-.54.51.15.99.37,1.5.54Z" style="fill: #ef9ab1; stroke-width: 0px;"/>
          <path d="M69.42,48.47c1.68-.31,1.53,1.39-1.7,1.57.39-.31,1.35-1.5,1.7-1.57Z" style="fill: #e2e4dc; stroke-width: 0px;"/>
          <path d="M43.75,46.97s.25.91-.2.95c-.59-.46-.47-.97-.48-1.63l.68.68Z" style="fill: #d03e7f; stroke-width: 0px;"/>
        </g>
        <path d="M47.56,28.18c-1.36-1.04-2.58.06-2.31.61,2.03.41.88.37.68,1.02-.3-.61-1.16-.5-1.7-.82-.96.13-.47.74-.48.82-.03.92.28,2.11.54,3l-.54.27c-.77-1.4-1.03-.08-1.29,0-.85.25-.54-.78-1.7-.14-1.51.83-2.14,4.24-1.77,5.85-.54-.86-.79-1.99-.88-2.04-.38-.22-1.3,1.44-2.79-1.36.93-.25,1.95-1.2,1.09-2.11,1.24-.4,1.23-1.11,1.5-1.29.22-.15.93-.22,1.23-.27.21.14.1.32.34.27,1.12-1.46-.02-3.03-.2-3.68-.49-1.74,1.17-2.82,1.36-2.52-1.54,3.05,4.17,1.63,3.54-1.91-.14-.78-1.41-1.23-.34-2.25.42-.1,1.27,1.25,2.52-.27,1.17,2.11,1.03,4.5,1.23,6.81Z" style="fill: #db5a7a; stroke-width: 0px;"/>
        <path d="M50.83,14.84c.84,1.63,1.71,2.83,1.77,4.77-.01,0,.03.02-.27.14-1.47.59-1.83-.41-2.11,2.86.23-.74.93-1.2,1.29-1.63.29.14.57-.02.82-.14-.86,1.93-2.63,3.92-2.72,4.15-.24.56-.12,1.36-.14,1.43-.26,1.47-1.01,5.94-.14,5.58,1.14-.21,1.7-.63,1.23.27-.16.31-.76.78-.95,1.16-1.12,2.14-.31,3.23-2.04,1.43.41-1.76.36-3.54.27-5.31-.02-.48-.24-.94-.27-1.36-.19-2.31-.06-4.69-1.23-6.81.02-.02-.05-.5.2-.54.09-.02.72.96,1.63.68.41-.13.54-.99.95-1.36.05-.05.5.21,1.16-.68.94-1.27.49-2.29,0-3.54-.12-.31-1.02-.75.54-1.09Z" style="fill: #541317; stroke-width: 0px;"/>
        <path d="M30.82,24.51l2.31,2.72c-.51.42-1.6,2.46-1.77,3.13-.14-.17-.59-.23-.82-.27-.24-.05-.37-.14-.54-.14.44-1.48.67-1.47.68-1.57.04-.41-.55-.9-.54-.95.02-.22,2.42-1.09-2.18-2.18,2.25-.11,2.35-.65,2.59-.75.06-.03.22.03.27,0Z" style="fill: #eb8090; stroke-width: 0px;"/>
        <g>
          <path d="M31.64,8.71c-.06.13-.8,2.52-.82,2.65-.04.31.49,1.59-.14,1.57-.11-.3-.52-.89-.54-1.29-.05-.74.25-1.42.41-2.11.04-.18.46-.45.54-1.23l.54.41Z" style="fill: #f9b6b6; stroke-width: 0px;"/>
          <path d="M39.94,9.39c1.7,1.86.67,3.31,1.77,2.72-.01.07-.02.24,0,.27-.97-.06-.4,1.02-.41,1.09-.13.9-.58,1.72-.27,1.77-.31.37-.97.47-1.09,1.02-.16.71.36,1.31.27,1.91-.01.1-.56.53-.68,1.84-.31.05-.26-.13-.27-.14.41-1.4.47-2.48-.54-3.61-1.14-1.28-2.17-.97-3.54-1.16-2.44-.33-.58-.89,1.16,0,2.34-2.76,4.3-3.68.88-4.7.71-.77,1.88-.3,1.97-.34.18-.07-.06-.28.75-.68Z" style="fill: #eb8090; stroke-width: 0px;"/>
          <path d="M39.26,19.88c-.89-.7-.96-.41-1.5-.27-.11.03-.28-.02-.41,0,.2-1.31-1.21-3.56-2.18-4.49,1.37.19,2.4-.12,3.54,1.16,1.01,1.13.95,2.21.54,3.61Z" style="fill: #eb8090; stroke-width: 0px;"/>
        </g>
        <path d="M36.95,23.55c.22.19.58.77.82,1.09-.91-.07-1.39.94-1.36,1.77-.14,0-1.68.12-1.77.14-.81-1.71.23-2.84.14-3.81.97.21,1.07-.17,2.18.82Z" style="fill: #f9b6b6; stroke-width: 0px;"/>
        <path d="M33.41,25.73c.26.3.67.53.82.95-.1.03-1.04.51-1.09.54l-2.31-2.72c.13-.06,1.17-.64,1.23-.68.44.64.86,1.31,1.36,1.91Z" style="fill: #541317; stroke-width: 0px;"/>
        <path d="M41.71,12.12c-1.1.59-.07-.86-1.77-2.72.8-.39,1.57-.38,2.04.48.72,1.3-.25,2.13-.27,2.25Z" style="fill: #d32455; stroke-width: 0px;"/>
        <path d="M31.36,30.36c-.78,3.11.68,3.87-1.77,3,.09-.45.34-.45.41-.68.56-1.89-.28-1.23-.27-1.57,0-.23.68.06.82-1.02.22.05.68.11.82.27Z" style="fill: #721016; stroke-width: 0px;"/>
        <path d="M37.76,24.64c.24.33.46.72.82.95-.04.05-.22,1.1-.61,1.23-.44.14-1.22-.41-1.57-.41-.03-.83.45-1.84,1.36-1.77Z" style="fill: #eb8090; stroke-width: 0px;"/>
        <path d="M49.06,10.76c-.81.49-.46,2.15-1.36,2.72-1.12-.81-1.89-.21-1.97-.27-.16-.11-.01-.52-.07-.68l.41-.41c1.98,1.19,1.9-.53,2.31-1.91,0-.02.27-.25.27-.27,0,.4-.1.83.41.82Z" style="fill: #db5a7a; stroke-width: 0px;"/>
        <path d="M34.77,22.74c.09.97-.94,2.1-.14,3.81-.07.01-.23.08-.41.14-.15-.43-.56-.65-.82-.95.33-1.28.03-2.59,1.29-3.4.13.03.05.4.07.41Z" style="fill: #d32455; stroke-width: 0px;"/>
        <path d="M50.29,15.93c.49,1.25.94,2.27,0,3.54-.78-1.14.29-2-.82-3.81.3-.63.18.23.82.27Z" style="fill: #db5a7a; stroke-width: 0px;"/>
        <g>
          <path d="M48.25,9.8s-.02.2.14.41c-.41,1.38-.33,3.1-2.31,1.91-1.03-.62-.11-1.6-.61-1.63-1.55.81-1.08,1.65-2.11,2.31-.01-.1-.28-.84-.27-.88.03-.12,1.15-1.93,1.43-2.11,1.29-.86,2.43-.16,3.74,0Z" style="fill: #f9b6b6; stroke-width: 0px;"/>
          <path d="M46.07,12.12l-.41.41c-1.2-3.49-1.13,1.03-2.11,1.09-.65.1-.18-.55-.2-.82,1.03-.67.56-1.5,2.11-2.31.5.03-.41,1.02.61,1.63Z" style="fill: #db5a7a; stroke-width: 0px;"/>
        </g>
        <g>
          <g>
            <path d="M37.76,19.61c-.82,1.06.3,2.97,1.5,3.27-.1.64-.15,2.22.14,2.04-.19.24-.61.45-.82.68-.36-.23-.57-.62-.82-.95-.23-.32-.6-.9-.82-1.09-.79-2.57.34-3.49.41-3.95.13-.02.29.03.41,0Z" style="fill: #d32455; stroke-width: 0px;"/>
            <path d="M39.26,19.88s-.04.19.27.14c0,.09.35-.06.14,1.63,0,.06-.23.06-.41,1.23-1.2-.3-2.31-2.21-1.5-3.27.54-.14.61-.43,1.5.27Z" style="fill: #d32455; stroke-width: 0px;"/>
          </g>
          <path d="M40.62,23.01c-.12-.31-.95-.03-1.36-.14.18-1.17.4-1.16.41-1.23.58.16,1.3-1.05,2.11-1.5,1.82,1.82-.32,2.03-1.16,2.86Z" style="fill: #db5a7a; stroke-width: 0px;"/>
          <path d="M40.62,23.01c-.57.57-.75,1.28-1.23,1.91-.29.18-.23-1.4-.14-2.04.42.1,1.24-.17,1.36.14Z" style="fill: #5c1c12; stroke-width: 0px;"/>
        </g>
        <path d="M41.71,12.39s.32.07.54.41c.29,1.13.06.84-.95.68.01-.07-.56-1.15.41-1.09Z" style="fill: #db5a7a; stroke-width: 0px;"/>
        <path d="M56.14,19.06c.39.27.34.53.54.82-2.14-.14-2.03,2-2.52,2.18-.98.35-3.49-.73-1.57,3.06-1.51-.77-2.14.29-3.13,1.29.01-.07-.1-.87.14-1.43.1-.23,1.86-2.22,2.72-4.15,1.26-.58,2.44-1.39,3.81-1.77Z" style="fill: #db5a7a; stroke-width: 0px;"/>
        <path d="M65.54,29.41v.95c-.92,1.07-.7,1.2-.82,1.63-.05.19-.07,1.36-.14,1.43-.09.1-.88.09-1.36.34-.84.44-1.69,1.07-1.91,2.04-.22-.22-.62-.61-.95-.54.32-1.02.38-2.72-.41-3.54-.08-.45.34-.19.54-.27.29,2.8,2.75,1.5,3.13-.41.43-.17.82-.99,1.63-1.63.33-.24.26,0,.27,0Z" style="fill: #541317; stroke-width: 0px;"/>
        <path d="M51.24,14.7c1.65,1.26,3.27,2.35,2.31,4.49-.17.04-.58.28-.95.41-.06-1.93-.93-3.14-1.77-4.77.15-.03.16-.17.41-.14Z" style="fill: #d32455; stroke-width: 0px;"/>
        <path d="M63.63,31.04c-.39,1.9-2.84,3.21-3.13.41.51-.21,1.6-1.03,1.63-1.63,0,.02.35-.06.41.07.16.38-.37,1.74,1.09,1.16Z" style="fill: #bb1e53; stroke-width: 0px;"/>
        <path d="M56.14,19.06c-1.37.38-2.56,1.19-3.81,1.77-.24.11-.52.28-.82.14.28-.33.6-.84.82-1.23.3-.12.26-.13.27-.14.37-.12.79-.37.95-.41.68-.15,2.2-.41,2.59-.14Z" style="fill: #541317; stroke-width: 0px;"/>
        <path d="M59.14,12.53c-1.09,0-2.39-.77-1.23-1.77.64.34,1.77,1.18,1.23,1.77Z" style="fill: #eb8090; stroke-width: 0px;"/>
        <path d="M75.88,34.72c-.23.9.36,3.98,1.36,3.54.09.13,1.19,1.09.61,1.09-.83-1.17-1.23-.35-2.04-.54-.22-.05-2.44-2.19-4.02-.48-.38,1.38,1.7,1.36,2.11,1.57.91.45,1.29.89,1.43.95.19.41-.12,1.38-.41,1.7-.31.35-.3.01-.41.07-.35-1.09-1.77-.03-1.91.27-.07-.45-.84.06-1.5-.2,1.12-.42,1,.12,1.36-.75.32-2.76-2.58.54-2.86.68-.52.26-.51.13-.82-.27-1.36-1.8.22-4.61,1.23-6.26.04.02.7-.1.82,0,.95,1.59,1.59.47,1.36-.95,1.07-.53,2.12-.5,3.27-.68.02.02.31.23.41.27Z" style="fill: #eb8090; stroke-width: 0px;"/>
        <path d="M71.39,27.09c2.08,1.81.78,1.38.68,1.97-.05.29.78,2.17.48,2.38-2.22-.32-4.96.83-4.9,0,2.9-.14,1.28-1.57-.34-2.04.35-1.15,1.55-.44,2.31-1.29,1.12-1.26-.81-3.27,1.77-1.02Z" style="fill: #db5a7a; stroke-width: 0px;"/>
        <path d="M79.83,41.12c.19.33,0,.9-.14,1.23,0,0-.03-.05-.14.14-.04.07,0,.44-.41.68-1.1.64-1.95-.04-3-.27-.02,0-.16-.45-.41-.2-.06.06-.09.69-.54,1.57l-.82-1.5c.19-.1.13-.13.14-.14.11-.05.1.28.41-.07.29-.32.6-1.29.41-1.7.89.37.85.02,1.23,0,.66.93.89,2.31,2.18,1.5.43-.27.46-.43.68-.82.14-.25.22-1.48.41-.41Z" style="fill: #d32455; stroke-width: 0px;"/>
        <path d="M71.12,33.63c.33.55.98.79,1.09,1.5.23,1.42-.41,2.55-1.36.95-.08-.13-.19-1.15-1.36-2.72.31.05,1.55.27,1.63.27Z" style="fill: #541317; stroke-width: 0px;"/>
        <path d="M75.48,34.45c-1.15.18-2.2.15-3.27.68-.11-.71-.76-.95-1.09-1.5,1.18.01,2.79-1.19,4.36.82Z" style="fill: #db5a7a; stroke-width: 0px;"/>
        <path d="M77.25,38.26c-1,.44-1.59-2.64-1.36-3.54.21-.83,2.93-1.9,3-1.43.14,1.04-4.48.58-1.63,4.97Z" style="fill: #db5a7a; stroke-width: 0px;"/>
        <path d="M69.48,33.36c1.17,1.57,1.28,2.59,1.36,2.72-.12-.1-.78.02-.82,0-.05-.03-.69-.8-.82-.95-.07-.08-.85-1.28-1.23-1.77-.01-.02.02-.2-.14-.41.81.1.88.28,1.63.41Z" style="fill: #d03e7f; stroke-width: 0px;"/>
        <path d="M82.15,37.44c-.1.51.2.56-.41,1.23-.13.14-.46.23-.54.41-.1-.1-2.23-.98-2.59-1.02.69-.2,1.32.17,2.04.07.55-.07.96-.6,1.5-.68Z" style="fill: #a41e22; stroke-width: 0px;"/>
        <path d="M79.42,41.53c-.22.39-.25.55-.68.82-.47-.56-1.45-.91-1.5-1.63,1.01-.08,1.28.35,2.18.82Z" style="fill: #db5a7a; stroke-width: 0px;"/>
        <path d="M77.25,40.71c.05.72,1.03,1.07,1.5,1.63-1.28.81-1.52-.57-2.18-1.5.19,0,.32-.11.68-.14Z" style="fill: #db5a7a; stroke-width: 0px;"/>
        <path d="M67.85,32.95c.16.21.12.39.14.41-.16.24-.36.46-.54.68,0,.01-.26.12-.27.14-.15-.49-.6-.66-.95-.95,1.83-.84,1.54-.28,1.63-.27Z" style="fill: #351a10; stroke-width: 0px;"/>
        <path d="M66.08,29.41c.45.72-.5.9-.54.95v-.95c.16,0,.38,0,.54,0Z" style="fill: #db5a7a; stroke-width: 0px;"/>
        <path d="M40.08,51.33s-.01.25.41.82c-1.21-.75-1.12.74-1.77,1.36-.89-.51-1.81-.11-2.72.14,0-.45.07-.8-.14-1.23,2.67.29,2.62.15.61-1.5l-1.16,1.09c-.96-.35-1.4-.09-2.18.27-.24.11-.72.08-.68.54-.28-.54.13-.37.14-.82.99-.16,2.74-.88,3.4-1.7.07-.37-3.86-5.05-2.45-5.11.09.04.4.11.54.14.52,1.81,3.08,5.38,3.61,5.04-.15-2.41-1.01-4.19-2.11-6.26,3.14,1.83,2.98,4.32,4.49,7.22Z" style="fill: #2e1312; stroke-width: 0px;"/>
        <path d="M24.69,34.99l.14.41c-2.33.63-1.05,3.28-2.65,1.09-1.16.65-.59,2.6-.48,3.81l-.95-.82c0-.07-.13-.06-.14-1.09,0-.76.08-1.43.14-2.18.03-.43.13-.47.14-.54.22-.35,1.15-1.54,1.36-1.63,1.8-.8,1.15,1.27,2.45.95Z" style="fill: #fbcbc6; stroke-width: 0px;"/>
        <g>
          <path d="M33.54,45.2c-1.4.06,2.53,4.73,2.45,5.11-.66.82-2.41,1.54-3.4,1.7-1.8.3-3.06-.37-4.36-1.63.32-1.71,1.73-3.24,2.18-4.63,2.52-.63,2.77.9,2.59-.61.6-.54.51.05.54.07Z" style="fill: #eb8090; stroke-width: 0px;"/>
          <path d="M30.41,45.75c-.45,1.39-1.86,2.92-2.18,4.63-2.03-1.98-.97-2.7-.95-3,1-.61,1.97-1.34,3.13-1.63Z" style="fill: #f9b6b6; stroke-width: 0px;"/>
        </g>
        <path d="M38.72,53.51c.49.28,1.33,1.51,1.63,1.91.01.08-.18.27-.2.27-.29,0-5.33-1.37-5.65-1.5.15-.16.46-.2.68-.27.27-.09.54-.2.82-.27.91-.25,1.83-.64,2.72-.14Z" style="fill: #fff; stroke-width: 0px;"/>
        <path d="M24.56,50.38c.21-.63-.83-.28-1.91-.88.19-.35.85-.48.95-.61l2.86,1.57c.1.75-1.23.06-1.91-.07Z" style="fill: #f6a0a7; stroke-width: 0px;"/>
        <path d="M30,29.95c.18,0,.3.09.54.14-.13,1.08-.81.79-.82,1.02-.01.33.83-.32.27,1.57-1.3-2.17-1.96-.85-3-1.09.59-.75,2.02-1.6,3-1.63Z" style="fill: #db5a7a; stroke-width: 0px;"/>
        <path d="M22.24,32.4v1.63c-.21.09-1.14,1.28-1.36,1.63,0-.03-.05,0,0-.54.07-.75.28-1.37-.2-.54-.3-.57.21-.94.48-1.36.16-.25,1.03-1.57,1.09-.82Z" style="fill: #f6a0a7; stroke-width: 0px;"/>
        <g>
          <path d="M20.2,24.1l-.68.2-.68,1.23c.39.89.68-.06,1.5.88-.47,1.3-.52,1.16-.54,1.23-.29-.64-1.41-.02-2.38-.54-.94-.87,1.29-2.44,1.91-3.68,1.27.03.83.63.88.68Z" style="fill: #fbcbc6; stroke-width: 0px;"/>
          <g>
            <path d="M28.1,23.15c.75.04,2.09.63,2.45,1.36-.24.1-.34.63-2.59.75,4.6,1.09,2.19,1.96,2.18,2.18,0,.05.59.54.54.95-.01.09-.24.09-.68,1.57-.97.03-2.41.89-3,1.63-.37.47-.31,1.11-.61,1.23-.57.22-1.98-.52-1.43.68-1.4-.32-1.41-.32-2.72-1.09-.06-.75-.93.56-1.09.82l-.27-.54c.88-1.07-2.3-1.31-1.09-5.04.02-.06.07.07.54-1.23.04-.1.69.38.27-1.91.83.74.39.01,1.02-.27,2.24-1,2.18,1.6,3.34.75-.24-5.09,2.13-1.5,2.38-1.43.46.12.7-.41.75-.41Z" style="fill: #f9b6b6; stroke-width: 0px;"/>
            <path d="M23.87,26.69c-.5,1.3,1.05,2.32,1.63,3.27.2.32.97,1.64.61,1.91-1.17-.27-1.93-.11-2.93-.68.75-2.32-.12-1.21-.54-1.84-.27-.4.11-.99-.41-1.29.17-.4.69-1.01,1.02-1.23.58-.38.54-.1.61-.14Z" style="fill: #f6a0a7; stroke-width: 0px;"/>
            <path d="M25.51,29.95c-.58-.95-2.13-1.97-1.63-3.27.75-.35,1.23-.39,1.84-.82.23,3.24,3.89,2.58,3,3.13-3.94.22-2.87-2.77-4.08-2.31l-.34.48c1.29.26.7,1.57,2.45,2.59l-1.23.2Z" style="fill: #eb8090; stroke-width: 0px;"/>
            <path d="M23.19,31.18c-1.19-.69-1.49-1.85-.95-3.13.52.3.13.89.41,1.29.43.63,1.3-.49.54,1.84Z" style="fill: #f9b6b6; stroke-width: 0px;"/>
          </g>
        </g>
        <g>
          <path d="M19.11,45.88c-.59-.06.17,1.25-.27,2.52-.12.34-.74.79-.95,1.02-1.48-.48-2.68-1.52-3.95-.14-.01-.02-.33.03-.41-.2-.47-1.35.88-1.95.95-2.04.1-.13.21-.85.34-.88.61-.17,1.98.33,1.16-.54.19-.41,2.93.07,3.13.27Z" style="fill: #eb8090; stroke-width: 0px;"/>
          <path d="M20.88,45.47c.43.79.73,1.91-.2,2.45-.18.1-.55-.4-.88.2-.22.39.13.98-1.09,2.52l-.27-.27c1-1.23,1.45-3.72.68-4.49-.21-.21-2.94-.68-3.13-.27-.19-.2-.83-.15-.54-.82,2.85-.6,4.32.96,4.56.95.05,0,.09-.58.88-.27Z" style="fill: #f9b6b6; stroke-width: 0px;"/>
          <path d="M17.88,49.42s-.09.46-.41.68c-1.34.95-2.08.2-3.27.54.43-1.42-.14-1.14-.27-1.36,1.26-1.39,2.47-.35,3.95.14Z" style="fill: #f9b6b6; stroke-width: 0px;"/>
          <path d="M17.88,50.78c-1.41,1.14-2.97,1.5-4.22.07-.04-.35.33-.14.54-.2,1.19-.35,1.93.41,3.27-.54l.41.68Z" style="fill: #eb8090; stroke-width: 0px;"/>
          <path d="M19.11,45.88c.77.77.32,3.26-.68,4.49-.05.07-.41.3-.54.41l-.41-.68c.31-.22.38-.65.41-.68.21-.23.83-.68.95-1.02.44-1.27-.32-2.58.27-2.52Z" style="fill: #ed7078; stroke-width: 0px;"/>
        </g>
        <g>
          <path d="M13.8,43.84c.25,1.31-.84,1.49-.95,1.63-.77-.3-.44-.48-.54-.82,1.51.81.1-1.82-.41-3,.32.33,1.71,1.15,1.91,2.18Z" style="fill: #f6a0a7; stroke-width: 0px;"/>
          <path d="M9.17,39.48c.2.39.2.99.41,1.23l-.41.27c-.21-.43-.42-.49-.54-.68-.03-.04-.53-.38-.54-.41-.69-1.25.24-2.06,1.09-.41Z" style="fill: #d32455; stroke-width: 0px;"/>
          <path d="M11.89,41.66c.5,1.18,1.92,3.8.41,3-.16-.55-.72-2.71-.95-3l.41-.14c.05.18.13.13.14.14Z" style="fill: #eb8090; stroke-width: 0px;"/>
          <path d="M11.35,41.66c.23.29.79,2.45.95,3,.1.34-.23.52.54.82-.36.47-.48.74-.41,1.36-2.33-.23-.82-1.08-1.63-2.52-.22-.39-1.23-.84-1.63-1.29.75.12.31-1.41,0-2.04l.41-.27c.25.29,1.43.53,1.77.95Z" style="fill: #d32455; stroke-width: 0px;"/>
          <path d="M9.17,40.98c.31.63.75,2.17,0,2.04-.82-.92-1.04-1.55-.54-2.72.12.19.33.25.54.68Z" style="fill: #db5a7a; stroke-width: 0px;"/>
        </g>
        <g>
          <path d="M8.63,40.3c-.49,1.17-.28,1.81.54,2.72.41.46,1.41.9,1.63,1.29.81,1.44-.69,2.29,1.63,2.52.72.54.71-1.56,3-2.04-.28.67.36.62.54.82.83.87-.55.38-1.16.54-.13.04-.24.75-.34.88-.07.1-1.42.69-.95,2.04.08.24.4.18.41.2.14.22.71-.06.27,1.36-.22.06-.59-.14-.54.2,1.25,1.44,2.81,1.07,4.22-.07.13-.1.49-.34.54-.41l.27.27c-.71.9-1.91,1.38-1.77,1.91-1.22.19-2.36-.57-2.86-.68-.02,0-.1-.26-.2-.27-.13-.01-1.3.61-2.52.14-.57-.22-.33-.34-.41-.41-.89-.86-.43-.76-.54-1.09.53-1.44,1.12-1.26-.14-1.7,4.13-.41-.09-2.84-.82-.14,1.43,1.28.7,1.2.68,1.29-.28,1.6-.53,1.48-.54,1.57-.12.84.14,1.42.14,1.5-.06.64-.41,1.1-.41,1.16-3.34.2-.36-2.05-.41-2.25-.02-.08-.86-.28-1.23-1.09-.36-.79-.16-1.27-.27-1.84.56-.16,1.06.27,1.63-.48.27-1.45-1.92-1.55-2.04-1.23.67.93.03.69,0,.95-.04.29.28.11.41.75-.56.16-2.23,3.34-3.54.14.75-1.72,2.5.03,2.18-.82.75-1.2.18-1.21,1.5-2.18.56-.41.51.53.95-1.97-1.24-.03-2.27-1.58-1.5-2.59.36-.47.5.45,1.09-1.43.02.03.52.37.54.41Z" style="fill: #f9b6b6; stroke-width: 0px;"/>
          <path d="M10.4,50.24s-.38.18-.27-.54c.02-.09.75-.02-.68-1.29.72-2.7,4.95-.28.82.14,1.25.44.67.26.14,1.7Z" style="fill: #eb8090; stroke-width: 0px;"/>
          <path d="M7.4,48.74c-.12-.63-.45-.46-.41-.75.03-.26.67-.02,0-.95.13-.32,2.31-.22,2.04,1.23-.58.74-1.07.31-1.63.48Z" style="fill: #db5a7a; stroke-width: 0px;"/>
          <path d="M12.51,48.74c.88,1.04-.46,1.15.07,1.84-.64.43-1.92.17-1.29-.34,1.63-.32-.88-1.05,1.23-1.5Z" style="fill: #eb8090; stroke-width: 0px;"/>
        </g>
        <path d="M10.94,51.33c.07.07-.17.19.41.41l-.27,1.09s.12.18-.75.41c-.56-.24-.18-2.45.61-1.91Z" style="fill: #d32455; stroke-width: 0px;"/>
        <path d="M51.92,7.08c-.9.06.37,1.47-.54,2.79-.63.92-1.9.64-2.31.88-.51.02-.42-.42-.41-.82.08-.27.23-.52.27-.82.99-.31,1.86-2.37,3-2.04Z" style="fill: #f9b6b6; stroke-width: 0px;"/>
        <g>
          <path d="M49.2,3.27c.07.4-.14.69.27,1.09-.59.63-.49.82-.54,1.23-.08.55.06,1.31,0,1.91-.04.39-.27.58-.27.61-.07.69.14.71.14.75-.02.12.15.15.14.27-.04.29-.19.54-.27.82,0,.02-.27.25-.27.27-.16-.21-.12-.38-.14-.41-.71-1.4-1.86-.39-2.04-2.31-.2-2.14.86,1.69.95-1.43l-1.09-.88c.09-.11.59-1.86,1.91-1.5.03,0,.09.58.34.41.06-.04.15-1.23.88-.82Z" style="fill: #d32455; stroke-width: 0px;"/>
          <path d="M46.07,5.17l1.09.88c-.1,3.12-1.15-.71-.95,1.43-.06.02-.27.25-.27.27-1.18-3.22-.25-2.12.14-2.59Z" style="fill: #fdd7c4; stroke-width: 0px;"/>
          <path d="M50.7,4.77c.56.31.27.88.27,1.09-.32.3-.91.24-1.23,0-.02-.02.07-.43-.41-.41.44-.23.82-1.05,1.36-.68Z" style="fill: #db5a7a; stroke-width: 0px;"/>
          <path d="M50.7,4.77c-.55-.37-.92.45-1.36.68-.02.01-.2-.02-.41.14.06-.4-.05-.59.54-1.23.69-.29,1.55-.22,1.23.41Z" style="fill: #fff; stroke-width: 0px;"/>
          <path d="M49.2,3.27c-.74-.41-.82.78-.88.82-.26.18-.31-.4-.34-.41.17-1.17.95-2.05,1.23-.41Z" style="fill: #fff; stroke-width: 0px;"/>
          <path d="M49.33,7.49c0,.1.21.21.14.54-.25.24-.3.68-.68.82,0-.04-.21-.06-.14-.75,0-.03.23-.22.27-.61h.41Z" style="fill: #f8eae4; stroke-width: 0px;"/>
          <path d="M49.33,5.45c.48-.02.39.39.41.41-.02.54-.41,1.55-.41,1.63h-.41c.06-.59-.08-1.36,0-1.91.21-.16.39-.12.41-.14Z" style="fill: #721016; stroke-width: 0px;"/>
        </g>
        <g>
          <path d="M85.01,42.61c.57-.43,1.86-.29,1.5.54l-.68,1.09c-.08-.05-.18.14-.2.14-.22-.08-.19-.71-.82-.54-.22.06-.18.4-.2.41-1.16.7-1.1.37-1.16.41-.27.22.08.59.07.61-.14.25-.75.8-.82.88-.21-.16-.39-.12-.41-.14-.1-.08-1.36-2.01-1.23-2.18,1.92,1.07,1.95-.39,2.18-1.36.09-.38.26-1.03.27-1.09.99.25.92,3.4,1.5,1.23Z" style="fill: #d32455; stroke-width: 0px;"/>
          <path d="M87.18,46.02c-1.9-.6-2.72-.15-.54-1.43-.31-.07-.54-.19-.82-.34l.68-1.09c1.11.12,1.43,1.97,1.36,2.25-.04.17-.59.45-.68.61Z" style="fill: #f9b6b6; stroke-width: 0px;"/>
          <path d="M85.82,44.25c.28.15.51.27.82.34-2.17,1.28-1.36.83.54,1.43-.1.18.15.33.14.34-.84,1.22-1.1.59-1.36.75-.17-.49-.15-.51-.54-.82-.15-.12-.33-.3-.54-.27.41-.53.07-1.14-.27-1.77.02-.01-.02-.35.2-.41.63-.16.6.46.82.54.02,0,.12-.18.2-.14Z" style="fill: #d32455; stroke-width: 0px;"/>
          <path d="M85.01,42.61c-.57,2.18-.51-.97-1.5-1.23,0-.05-.17-.06,0-.82.95-1.72,1.83.77,1.5,2.04Z" style="fill: #fbdbd7; stroke-width: 0px;"/>
          <path d="M82.28,46.02s.2-.02.41.14c-.01.02.02.2-.14.41-.52.19-1.15.96-1.7,1.09-.07.02-1.36.02-1.43,0-.51-.12-.52-.38-.82-.68.54,0-.21-1.35,1.63-2.04.19.3-.06.65.82.88-2.06,1.96.48,1.92,1.23.2Z" style="fill: #eb8090; stroke-width: 0px;"/>
          <path d="M84.6,44.25c.35.63.68,1.24.27,1.77-.54.7-1.06.2-2.18.54-.04.01-.1-.01-.14,0,.16-.2.12-.39.14-.41.06-.09.67-.63.82-.88.02-.03-.34-.4-.07-.61.05-.04,0,.3,1.16-.41Z" style="fill: #d32455; stroke-width: 0px;"/>
          <g>
            <path d="M85.96,47.11c-.42.25-2.79,2.37-3.4,0,.69-.16,3.22.38,2.86-.82.39.31.38.33.54.82Z" style="fill: #f9b6b6; stroke-width: 0px;"/>
            <path d="M85.41,46.29c.36,1.2-2.17.65-2.86.82l.14-.54c1.11-.34,1.64.16,2.18-.54.22-.02.39.15.54.27Z" style="fill: #f9b6b6; stroke-width: 0px;"/>
          </g>
          <path d="M83.24,42.48c-.23.97-.26,2.44-2.18,1.36-.44-.25-1.01-1.02-1.5-1.36.1-.18.13-.13.14-.14,1.27.59,2.24.4,3.54.14Z" style="fill: #fbcbc6; stroke-width: 0px;"/>
          <path d="M81.06,43.84c-.14.16,1.12,2.1,1.23,2.18-.74,1.71-3.28,1.75-1.23-.2-.87-.23-.63-.58-.82-.88-.03-.05-.33-1.03-.54-1.16-.17-.1-.17.14-.41.2l-.14-.82c.42-.24.37-.61.41-.68.49.34,1.06,1.12,1.5,1.36Z" style="fill: #f6a0a7; stroke-width: 0px;"/>
        </g>
        <path d="M19.25,37.03c.3.34.25.52.27.54-.58-.14-.39.47-.82.95-.68-.5-1.17-1.9-.95-2.72.08.06.25-.16,1.5,1.23Z" style="fill: #ef9ab1; stroke-width: 0px;"/>
        <g>
          <path d="M17.88,33.76c.54,0,.71.27,1.09.54.24.17,1.03,1.12,1.57,1.5.2-.15-.14-.78.34-.68-.05.55,0,.52,0,.54,0,.07-.11.12-.14.54l-1.5.82c-1.24-1.38-1.42-1.16-1.5-1.23-.2-.17-.39-.25-.41-.27-1.05-1.32.71-.7.14-1.63.11,0,.12-.13.41-.14Z" style="fill: #d32455; stroke-width: 0px;"/>
          <path d="M19.79,32.54c.52.53.68.81,1.09.14l.27.54c-.27.42-.78.79-.48,1.36.48-.82.27-.2.2.54-.48-.1-.14.53-.34.68-.54-.37-1.32-1.33-1.57-1.5-.23-.86-.2-1.56.82-1.77Z" style="fill: #d32455; stroke-width: 0px;"/>
          <path d="M20.74,36.22c-.05.75-.14,1.42-.14,2.18.02.74-.88-.53-1.09-.82-.02-.02.03-.21-.27-.54l1.5-.82Z" style="fill: #721016; stroke-width: 0px;"/>
        </g>
        <g>
          <path d="M46.34,74.88c.03,1.75-.12,3.57,0,5.31.25,3.58,1.79,3.59.61,4.36-.7.05-1.66-4.62-2.45-5.17-.4-.12-3.08.97-3.61,1.23.49-3.89-1.56-2.15-5.99-1.63.31-.78.4-1.74,1.23-2.18,1.93-.64,3.86-1.43,5.79-2.04.24-.08.93.08,1.09,0,.23-.11-.22-.4,0-.54,1.25-.81,1.58.29,1.84-2.04v3.61l1.5-.88Z" style="fill: #712e3a; stroke-width: 0px;"/>
          <path d="M40.89,80.6c-1.49.72-2.23,1.27-3.4,2.45-.13-.27-.16-.62-.27-.82l1.02-.95-3.88-1.23c.06-.24.41-.74.54-1.09,4.43-.52,6.48-2.25,5.99,1.63Z" style="fill: #7e3435; stroke-width: 0px;"/>
          <path d="M56.01,76.52c-.21.57-2.94,2.85-3.2,2.86-.2,0-3.38-1.67-3.47-1.97-.18-.57-.13-1.78.68-1.7,1.13.35,4.2.42,5.99.82Z" style="fill: #541317; stroke-width: 0px;"/>
          <path d="M37.22,82.23c-.79-1.39-3.19-.75-2.86-2.18l3.88,1.23-1.02.95Z" style="fill: #541317; stroke-width: 0px;"/>
        </g>
        <path d="M35.31,43.7c.12.4.16.19.27.41,1.1,2.07,1.96,3.85,2.11,6.26-.53.34-3.09-3.23-3.61-5.04-.35-1.23-.33-1.9,1.23-1.63Z" style="fill: #d03e7f; stroke-width: 0px;"/>
        <path d="M60.36,35.4s-.01-.09,0-.14c.34-.07.73.32.95.54.03.03-.07.34.54.68-.06.65-.39,1.18-.82,1.63-.25.27-.52.05-1.77,1.77-.05.07-.51.44-.82,1.09-.52,1.1-.4,1.39-.54,1.91-.02.07.02.2,0,.27-.02.08-.01.28-.14.68-.44,1.43-.9,2.78-1.5,4.15.09.16,1.95-.79,2.18-.88.21-.02.12.26.14.27-.43,1.04-1.95.62-3.68,2.72-.43-.11.46-.55.41-.88-.04-.26-.53-.31-.54-.34-.06-.16-.08-.63-.14-.82,1.05-1.75,2.21-3.34,2.31-5.45.13-2.48-1.05-5.9-2.38-5.58-1.6,1.58-1.15.93-1.29.68-.22-.38-.35-.9-.82-1.09-.01-.17.12-.12.14-.14,1.36.72,2.23-.37,2.59-1.63.24.37.88.74,1.23,1.63.12.32.34,2.33.88,3.13.44-.74.07-1.68.2-2.45.1-.58.41-1.12.54-2.04.01-.09.26-.52.27-1.36,0-.33.05-.88,0-1.09h.14c.4,1.74.21,3.48.14,5.24.46-.58,1.56-1.94,1.77-2.52Z" style="fill: #2e1312; stroke-width: 0px;"/>
        <g>
          <path d="M29.18,35.13c-.26.1.22.29-.27.27-1.36-.84-.06.33.61,1.63.75-2.07,1.16.48,2.38.48-.12,2.77-3.9,3-1.91,0-.81-.84-.26.03-.54.68-.07.17-1.66,1.95,1.02,2.25,3.13.35,2.41-2.31,3.27-2.31.66.08.37.4.48.82.06.21.34.27.27.54-.82,1.2-1.14,1.76.54,2.59l-.14.14c-2.89-1.18-1.76-.42-2.04-.27-1.4.76-3.78-.32-4.42-1.77-2.6,3.28-1.88-1.23-1.97-1.7-.08-.43-.81.38-1.57-.2-1.19-.91-.08-2.58,1.63-2.45.72-.34-.35-.77-1.7-.41l-.14-.41c.82-.2.93-.61.68-1.36.02,0,.06-.18.48-.14.09,0,.29.44.54.41.11-.01.18-.5.95-.41.06,0,.1.37.27.41.11.03,1.13-.56,1.57,1.23Z" style="fill: #f9b6b6; stroke-width: 0px;"/>
          <path d="M30,32.68c-.07.23-.31.23-.41.68-.2.94,2.15.82,2.86,2.04.84,1.44-.76,2.45.27,1.97-.25,1.55,3.03-1.1,1.5,1.57-.11-.42.18-.74-.48-.82-.86,0-.14,2.67-3.27,2.31-2.69-.3-1.1-2.07-1.02-2.25.28-.66-.26-1.52.54-.68-2,3,1.79,2.77,1.91,0-1.22,0-1.63-2.55-2.38-.48-.67-1.31-1.97-2.48-.61-1.63.05.03.5.57.75.68.21.1.46-.23.68-.14.59.25.77,1,1.5.82.29-.18-.96-2.32-2.65-1.63-.43-1.78-1.45-1.2-1.57-1.23-.17-.04-.21-.4-.27-.41-.77-.09-.85.4-.95.41-.26.03-.45-.4-.54-.41-.41-.04-.45.14-.48.14-.28-.03-.3-.11-.41-.14-.55-1.2.86-.46,1.43-.68.3-.12.25-.76.61-1.23,1.04.24,1.69-1.08,3,1.09Z" style="fill: #eb8090; stroke-width: 0px;"/>
          <path d="M34.77,36.22c.07.2.56.79.82,1.29.2.4-.02.78,0,.82.19.36.52.32.54.34.36.41.95.84,1.36,1.23-.33.42-1.67-1.41-3-.41.07-.27-.22-.33-.27-.54,1.53-2.67-1.74-.01-1.5-1.57-1.03.48.56-.53-.27-1.97l2.31.82Z" style="fill: #f6a0a7; stroke-width: 0px;"/>
          <path d="M28.91,35.4c.49.01.02-.17.27-.27,1.69-.69,2.95,1.45,2.65,1.63-.73.18-.9-.57-1.5-.82-.22-.09-.47.24-.68.14-.24-.11-.69-.65-.75-.68Z" style="fill: #f9b6b6; stroke-width: 0px;"/>
        </g>
        <path d="M43.21,35.94c1.48.08,1.51-1.69,2.04-.48-.66,1.22-.62,2.41-.82,3.06-.01.04.01.09,0,.14l-1.63-.41c-.03-1.67-1.73-2.59-2.04-3.95.8.2,1.49,1.58,2.45,1.63Z" style="fill: #2e1312; stroke-width: 0px;"/>
        <g>
          <path d="M48.38,43.7c-.66,1.33-1.43,1.45-1.63,1.77-1.67.53-2.4-.47-3-1.91.09-.42.3-.77.27-1.23l1.7,1.36c1.54-1.84,2.8-1.86,1.43-.48-.22.86.65.68,1.23.48Z" style="fill: #f6a0a7; stroke-width: 0px;"/>
          <path d="M49.61,44.52c-.9.24-.52-.15-.95-.82.13-.07,1.44-2.67,1.91-.88l-.95,1.7Z" style="fill: #f9b6b6; stroke-width: 0px;"/>
          <path d="M45.39,32.4c.1.13,1.95,2.22,2.18,2.45,1.73,1.8.92.71,2.04-1.43.2-.38.79-.85.95-1.16.55.83-1.33,1.82-.95,3.61.29,1.38,1.87.88,2.18.88.16,0,.25-.31.68-.14.46.19.6.71.82,1.09-.26.15-.26.43-.27.68-.04.58.01,1.02-.14,1.63-.3,1.2-1.08,2.61-1.91,3.54-.15.17-.71.68-.95.68.13-.37.79-.85.82-1.43.03-.64-.43-.77-.41-.82.06-.12,1.54.42.82-1.91-.68-2.21-5.65-3.95-5.04-.54.26,1.43,1.95,1.03-.34,2.93-1.83.49-.9-3.34-1.43-3.95.2-.66.16-1.84.82-3.06-.54-1.21-.56.56-2.04.48.72-.37.69-.88,1.09-1.5.03-.05.76.2.54-.88-.05-.23-.48-.54-.54-.75-.26-.89-.58-2.07-.54-3,.96.61,1.24,2.05,1.63,2.59Z" style="fill: #f9b6b6; stroke-width: 0px;"/>
          <g>
            <path d="M50.02,44.25s.01.09,0,.14c-.16.12-.27.1-.41.14l.95-1.7c-.46-1.78-1.78.81-1.91.88-.05.03-.2-.02-.27,0-.58.21-1.44.39-1.23-.48,1.37-1.38.11-1.36-1.43.48l-1.7-1.36c-.02-.37-.13-.26-.14-.27-.03-.31-.44-1.4-.41-1.84.07-.83.82-1.13.95-1.57.01-.04-.01-.09,0-.14.53.6-.4,4.44,1.43,3.95,2.29-1.9.6-1.49.34-2.93-.61-3.41,4.36-1.67,5.04.54.72,2.33-.76,1.79-.82,1.91-.02.05.44.17.41.82-.03.58-.68,1.06-.82,1.43Z" style="fill: #eb8090; stroke-width: 0px;"/>
            <path d="M47.91,39.07c.83-.23,3.84,2.13,1.91,2.72-.9-.44-2.12-.33-2.25-1.16-.01-.07.34.18-.14-1.23l.48-.34Z" style="fill: #f6a0a7; stroke-width: 0px;"/>
          </g>
        </g>
        <path d="M70.03,36.08c-1,1.65-2.59,4.46-1.23,6.26l-1.36.14c-.1-1.56-1.29-6.28-1.23-6.81.05-.38.13-.26.14-.27l1.43,4.08c.05-.89.44-1.64.75-2.45.24-.63.5-1.26.68-1.91.13.15.76.92.82.95Z" style="fill: #2e1312; stroke-width: 0px;"/>
        <path d="M72.48,41.93c-1.87-.28-1.75,1.18-2.59,1.5-.12-.23-.29-.55-.27-.82.28-.14,3.18-3.44,2.86-.68Z" style="fill: #541317; stroke-width: 0px;"/>
        <g>
          <path d="M68.8,42.34c.31.41.29.53.82.27-.02.27.15.59.27.82.58,1.11.78.51.54,2.31-.01.09-.36.25-.27.95.17,1.34,1.96.19,1.91.95-.88.31-2.8.6-3.68.54-.35-.02-1.51-.27-1.77-.41.22-1.36.51-2.72.68-4.08,0-.06.16.29.14-1.09,0-.05,0-.09,0-.14l1.36-.14Z" style="fill: #db5a7a; stroke-width: 0px;"/>
          <path d="M72.48,41.93c-.36.86-.24.33-1.36.75.66.27,1.43-.24,1.5.2-.09.18-.14.86.2.82.71-1.24,1.45-.89,1.57-.95l.82,1.5c-.33.64-.74,1.64-1.23,2.18-.51.56-1.19.97-1.91,1.23.06-.77-1.74.38-1.91-.95,1.52-.44,3.07-1.37.27-.95.23-1.81.04-1.21-.54-2.31.84-.31.72-1.78,2.59-1.5Z" style="fill: #db5a7a; stroke-width: 0px;"/>
          <path d="M70.17,46.7c-.09-.7.26-.86.27-.95,2.8-.42,1.24.51-.27.95Z" style="fill: #bb1e53; stroke-width: 0px;"/>
        </g>
        <path d="M74.52,42.61s.05.04-.14.14c-.11.06-.86-.28-1.57.95-.35.05-.29-.64-.2-.82.14-.3,1.56-1.36,1.91-.27Z" style="fill: #721016; stroke-width: 0px;"/>
        <path d="M36.81,38.53c.1,0,.13.23.68,0,.01.07.48.05,0,1.36-.41-.39-1.01-.82-1.36-1.23.28.05.42-.12.68-.14Z" style="fill: #a81e57; stroke-width: 0px;"/>
        <path d="M40.21,41.93c-.5-.18-.99-.4-1.5-.54-1.14-2.52.52-.31,1.5.54Z" style="fill: #bb1e53; stroke-width: 0px;"/>
        <path d="M37.49,38.53c-.55.23-.59,0-.68,0,.39-1.92.43-1.62.68,0Z" style="fill: #fbd3dc; stroke-width: 0px;"/>
        <g>
          <path d="M59.27,46.7c.94.2-.59.26,1.09,1.23-.42.13-.63-.03-.68.07-.07,1.15,1.82.77,2.45.2-.15,1.61-1.66,1.84-2.31.88-.3-.44-.07-1.03-1.02-1.84,0,0-.13.18-.2.14-.02,0,.07-.29-.14-.27.16-.06.28-.22.82-.41Z" style="fill: #721016; stroke-width: 0px;"/>
          <path d="M62,47.24v.14c.17.25.16.53.14.82-.63.57-2.52.94-2.45-.2.05-.1.26.06.68-.07.19-.06.6.06.75,0,.13-.05.3-.44.88-.68Z" style="fill: #cc1f3f; stroke-width: 0px;"/>
          <path d="M61.18,46.29c.2.49.77.46,1.23.54,0,.01.19-.04.14.27-.65-.04-.52.13-.54.14-.59.24-.75.63-.88.68-.15.06-.56-.06-.75,0-1.68-.96-.15-1.03-1.09-1.23.32-.11,1.52-.36,1.91-.41Z" style="fill: #d78c89; stroke-width: 0px;"/>
        </g>
        <path d="M79.15,43.16l.14.82c-.35.1-.93.9-2.86,0,.06-.24-.13-.85-.27-1.09,1.05.23,1.9.91,3,.27Z" style="fill: #9b2431; stroke-width: 0px;"/>
        <path d="M47.56,28.18c.04.42.25.88.27,1.36-2.17.46-.82.97-1.09,1.57-.06.14-.39.04-.41.07-.4-.65-.64-.6-.41-1.36.2-.65,1.35-.61-.68-1.02-.27-.56.95-1.66,2.31-.61Z" style="fill: #f9b6b6; stroke-width: 0px;"/>
        <path d="M45.93,29.82c-.24.76,0,.71.41,1.36-.16.28-.18.75-.95,1.23-.39-.54-.67-1.97-1.63-2.59,0-.07-.49-.68.48-.82.54.31,1.4.21,1.7.82Z" style="fill: #541317; stroke-width: 0px;"/>
        <g>
          <path d="M38.85,28.73c-.07.37.34.6-.07.82-.08.04-1.47.04-1.57.68l.68,1.77c-.27.18-.26.89-1.5,1.29.86.91-.16,1.86-1.09,2.11-.03,0-.52,0-.54,0-.1-.02-.69-.45-1.09-.68-1-1.22,3.36-2.57.07-1.63-.44-.1.31-1.56,1.09-.82.8-.05-.48-1.52-1.02-1.09.93-.88,1.57.07,1.77-.61.03-.11-.72-.85,1.16-1.7.36-.16,1.3-.08,1.29-.54.31.11.56.17.82.41Z" style="fill: #eb8090; stroke-width: 0px;"/>
          <path d="M38.03,28.32c0,.46-.93.38-1.29.54-1.88.85-1.13,1.59-1.16,1.7-.2.68-.84-.27-1.77.61-.77.73-.91,1.63-1.23,2.59-1.43-2.92.83-4.18.82-4.42,0-.09-1.05-.51.34-1.29,1.83-1.03,2.57.26,2.72.27.09.01,0-.56,1.57,0Z" style="fill: #eb8090; stroke-width: 0px;"/>
          <path d="M39.12,31.72c-.12-.08-1.08-1.07-1.91-1.5.1-.64,1.49-.64,1.57-.68.41-.22,0-.45.07-.82,0-.03.29-.41.41-.41.18.65,1.33,2.22.2,3.68-.24.05-.13-.14-.34-.27Z" style="fill: #f6a0a7; stroke-width: 0px;"/>
          <path d="M33.68,34.72c-.76-.44-.55.16-1.09-.95.31-.95.46-1.86,1.23-2.59.54-.43,1.82,1.04,1.02,1.09-.78-.74-1.53.72-1.09.82,3.29-.94-1.07.41-.07,1.63Z" style="fill: #f6a0a7; stroke-width: 0px;"/>
          <path d="M39.12,31.72c-.3.06-1.01.12-1.23.27l-.68-1.77c.82.43,1.78,1.42,1.91,1.5Z" style="fill: #d32455; stroke-width: 0px;"/>
        </g>
        <g>
          <path d="M43.75,33.08c.04.07-.06.9.54,1.36-.4.62-.37,1.13-1.09,1.5-.96-.05-1.65-1.43-2.45-1.63-.07-.32.05-.95,0-1.36,1.16-.64.85.39,1.7.14.27-.08.53-1.4,1.29,0Z" style="fill: #d32455; stroke-width: 0px;"/>
          <path d="M44.3,32.81c.06.2.5.51.54.75.22,1.09-.51.83-.54.88-.61-.46-.51-1.29-.54-1.36l.54-.27Z" style="fill: #a41e22; stroke-width: 0px;"/>
        </g>
        <path d="M47.84,29.54c.08,1.77.14,3.55-.27,5.31-.23-.23-2.08-2.32-2.18-2.45.78-.48.79-.94.95-1.23.02-.03.35.07.41-.07.27-.6-1.08-1.11,1.09-1.57Z" style="fill: #d32455; stroke-width: 0px;"/>
        <path d="M51.51,20.97c-.37.43-1.06.9-1.29,1.63.28-3.27.64-2.27,2.11-2.86-.21.39-.54.9-.82,1.23Z" style="fill: #eb8090; stroke-width: 0px;"/>
        <g>
          <path d="M34.49,6.13c.94,1.73,1.33.66,1.43.68.13.02,0,.36.14.41,1.68.6,3.8,2.41,2.79.82l.14-.14c.36,1.59.31-1.16,1.84-1.5,3.09-.69,3.41,2.47,5.17,1.77.22-.17-.08-.27-.07-.41,0-.02.21-.25.27-.27.18,1.93,1.33.91,2.04,2.31-1.32-.16-2.45-.86-3.74,0-.28.18-1.4,1.99-1.43,2.11,0,.05.26.79.27.88.03.27-.45.92.2.82.98-.06.91-4.58,2.11-1.09.06.16-.09.58.07.68.09.06.86-.53,1.97.27.76.55.76,1.5.82,1.57.07.09.8.37.95.61,1.11,1.81.04,2.68.82,3.81-.66.89-1.1.63-1.16.68-.41.37-.55,1.24-.95,1.36-.92.28-1.54-.7-1.63-.68-.25.05-.19.52-.2.54-1.25,1.52-2.1.17-2.52.27-1.07,1.02.2,1.46.34,2.25.63,3.54-5.08,4.95-3.54,1.91-.19-.3-1.85.78-1.36,2.52-.11,0-.4.38-.41.41-.26-.24-.5-.3-.82-.41-1.57-.56-1.48.01-1.57,0-.15-.02-.89-1.3-2.72-.27-1.39.78-.35,1.21-.34,1.29.02.25-2.24,1.5-.82,4.42.54,1.11.33.52,1.09.95.4.23.99.66,1.09.68.04.35-.13.47,0,.82l-2.31-.82c-.71-1.22-3.06-1.1-2.86-2.04,2.45.87.99.12,1.77-3,.17-.67,1.26-2.71,1.77-3.13.05-.04.99-.52,1.09-.54.18-.05.34-.12.41-.14.09-.02,1.63-.14,1.77-.14.34,0,1.13.54,1.57.41.4-.12.57-1.17.61-1.23.2-.23.63-.44.82-.68.47-.63.66-1.34,1.23-1.91.84-.83,2.98-1.04,1.16-2.86-.81.45-1.53,1.66-2.11,1.5.21-1.69-.14-1.55-.14-1.63.13-1.3.67-1.74.68-1.84.09-.6-.43-1.19-.27-1.91.12-.55.78-.65,1.09-1.02.17-.2-.02-.29.75-1.09.63-.66,1.36-.01.48-1.36-.22-.34-.53-.38-.54-.41-.02-.04-.01-.2,0-.27.02-.12.99-.95.27-2.25-.47-.85-1.24-.87-2.04-.48-.81.4-.56.61-.75.68-.1.04-1.26-.43-1.97.34,3.42,1.01,1.46,1.94-.88,4.7-1.74-.89-3.6-.33-1.16,0,.97.93,2.37,3.18,2.18,4.49-.07.46-1.2,1.38-.41,3.95-1.11-.99-1.21-.61-2.18-.82-.02,0,.06-.37-.07-.41-1.27.81-.96,2.12-1.29,3.4-.5-.6-.92-1.26-1.36-1.91,1.75-1.4-.29-1.06-.27-1.57.47-.69,1.39.11,1.23-1.09-.98.64-4.49-1.68-1.77-2.04l-.54-.61c.27-.13.34.05.54-.68.06.03,1.33.27,1.36.2-.6-1.02-.12-2.46-.27-2.86-.07-.18-.8.12-1.63-2.25.62.02.1-1.26.14-1.57.02-.14.76-2.53.82-2.65.12-.27.42-.39.54-.61.05-.08-.05-.41,0-.48.33-.48,1.67-1.39,2.31-1.5Z" style="fill: #f9b6b6; stroke-width: 0px;"/>
          <g>
            <path d="M41.03,15.25c-.31-.05.14-.87.27-1.77,1.02.16,1.24.45.95-.68.88,1.35.15.7-.48,1.36-.77.8-.58.89-.75,1.09Z" style="fill: #a41e22; stroke-width: 0px;"/>
            <g>
              <path d="M35.18,6.13c.95,0,1.78.25,2.59.82.06.04,1.05,1.02,1.09,1.09,1,1.6-1.11-.22-2.79-.82-.14-.05,0-.39-.14-.41-.1-.02-.49,1.05-1.43-.68.19-.03.47,0,.68,0Z" style="fill: #f9b6b6; stroke-width: 0px;"/>
              <path d="M35.45,12.93c-.72-.47-.51-.48-1.36-.82-1.1-.43-2.27-.25.41-.61.11-.14-1.41-.73-.88-1.43,1.37.41.63-.07,1.09-.14.26-.04.96.93,1.5.68.81.71-.26.06-1.02.88l2.31,1.09c-1.12.67-.4.61-.75,1.29-.28.07-.36-.35-1.29-.95Z" style="fill: #f6a0a7; stroke-width: 0px;"/>
              <path d="M35.45,12.93c-.49.29-1.17-.28-1.36-.82.85.33.64.35,1.36.82Z" style="fill: #f6a0a7; stroke-width: 0px;"/>
            </g>
            <g>
              <path d="M42.66,17.7c.87.66,1.4,1,.14,1.63-.94-1.44-.17-1.54-.14-1.63Z" style="fill: #f9b6b6; stroke-width: 0px;"/>
              <g>
                <path d="M42.8,19.47v-.14c1.27-.63.74-.97-.14-1.63.24-.67,1.05-2.57,1.91-1.7-1.61.61-1.53,1.83-.88,1.57.53-1.59.9-.9,1.36-1.23.25-.17.67-.76.82-.82.31-.12,2.37.27.82-.41-1.92-.84-3.64.61-4.7,1.91.19-.54.24-.56.54-1.02-2.32,1.23-.41-1.81.2-1.84.2,0,.64.54.68.54.57.1.82-.32.95-.27.12.04-.12.97,1.02-.2.07-.08-.17-1.09,1.57-.61,1.21.33,1.97,3.78,1.7,4.83-.14.53-2.25,1.88-2.79,1.97-2.25.39-2.75-.73-3.06-.95Z" style="fill: #eb8090; stroke-width: 0px;"/>
                <path d="M42.66,17.7c-.03.09-.8.19.14,1.63v.14c-.07-.05-.19.14-.2.14-.97-.84-1.01-1.43-.61-2.59,1.05-1.3,2.77-2.74,4.7-1.91,1.56.68-.51.29-.82.41-.15.06-.57.64-.82.82-.47.33-.84-.37-1.36,1.23-.64.27-.72-.96.88-1.57-.85-.86-1.67,1.03-1.91,1.7Z" style="fill: #f9b6b6; stroke-width: 0px;"/>
                <path d="M47.84,16.34c-1.97,1.6.12,1.34-1.5,2.59-1.04.81-1.65.21-1.63-1.02,1.43-.83.52-.91.88-1.02.44-.14.38.39,2.18-1.09.72.4.11.33.07.54Z" style="fill: #f9b6b6; stroke-width: 0px;"/>
                <path d="M46.34,18.92c1.61-1.25-.47-.98,1.5-2.59-.17.96-.56,2.74-1.5,2.59Z" style="fill: #d32455; stroke-width: 0px;"/>
              </g>
            </g>
          </g>
        </g>
        <path d="M58.87,31.31c.32,1.39.08,3.4,1.5,4.08-.21.58-1.31,1.94-1.77,2.52.07-1.76.26-3.5-.14-5.24-.12-.53-.34-.88-.54-1.36.3.04.7-.05.95,0Z" style="fill: #d03e7f; stroke-width: 0px;"/>
        <path d="M59.95,31.72c.79.82.73,2.52.41,3.54-.01.04.01.1,0,.14-1.42-.68-1.18-2.69-1.5-4.08.47.1.7,0,1.09.41Z" style="fill: #eb8090; stroke-width: 0px;"/>
        <g>
          <path d="M62.13,12.12c.08.04,1.16.72,1.36,1.09.67,1.23-.34.15-2.79.54.25-2.44-.78,1.08-.88,1.29-.02.04-.55.27-.68.54-.21.45.02,1.15-.54,1.7-1.35-.75-1.37-2.28-.54-3.47.57-.82,1.83-.83,1.09-1.29.55-.59-.59-1.43-1.23-1.77,0,0,.03-.15-.14-.14.08-.07.09-.41.41-.54,2.34-.96,2.48,1.82,2.65,1.91.15.07.72-.13,1.29.14Z" style="fill: #f9b6b6; stroke-width: 0px;"/>
          <path d="M66.49,18.79c-.23-.5-.46-.97-.61-1.5-1.09,0-.64.52-.75.95-.36-.04-1.03.31-1.23.27-.02,0-.06-.33-.41-.27-.96-1.11,1.48-.25,2.18-2.04.51.6.47.22.54.27.22.15.42.1.61.68,1.14-1.82,1.89-2.01.75-1.91.15-.23.12-.91.14-.95.06-.17.54-.9.54-.95,1.57.83.91,2.96,0,4.02-.89,1.03-1.98.89-1.77,1.43Z" style="fill: #f9b6b6; stroke-width: 0px;"/>
          <path d="M66.22,12.39c.02.05-.21.07,0,.82-.75.91-1.48-.99-2.18-.54-.28.18-.19.63-.54.54-.2-.37-1.28-1.05-1.36-1.09,1.45-2.02,3.23-2.45,4.08.27Z" style="fill: #f9b6b6; stroke-width: 0px;"/>
          <path d="M68.26,13.34c0,.05-.48.78-.54.95-1.14.98-1.17.11-1.5-1.09-.21-.75.02-.77,0-.82.85-.32,2.15-.1,2.04.95Z" style="fill: #d32455; stroke-width: 0px;"/>
          <path d="M63.49,18.24c.35-.05.38.27.41.27-.23.29-.09.58-.14.68-.23.56-1.22.9-1.63,1.36-1.13-.09-4.41-1.52-3.4-3.13.06.03,1.16.21,1.29.27.18.09,1.79,2.37,3.47.54Z" style="fill: #f9b6b6; stroke-width: 0px;"/>
          <path d="M66.22,13.21c.33,1.2.35,2.07,1.5,1.09-.02.05.02.73-.14.95-.89.08-1.04.45-1.36,1.23-.08-.05-.04.33-.54-.27.4-1.02-.38-1.63-.48-1.63-.46-.01-.33,1.46-1.16-1.91.7-.45,1.43,1.45,2.18.54Z" style="fill: #f9b6b6; stroke-width: 0px;"/>
          <path d="M66.22,16.47c.32-.77.47-1.14,1.36-1.23,1.14-.11.39.09-.75,1.91-.2-.58-.39-.53-.61-.68Z" style="fill: #db5a7a; stroke-width: 0px;"/>
          <path d="M65.13,18.24c-.23.91-.28.98-1.36.95.04-.1-.09-.39.14-.68.2.04.87-.31,1.23-.27Z" style="fill: #eb8090; stroke-width: 0px;"/>
          <g>
            <path d="M65.67,16.2c-.7,1.8-3.14.94-2.18,2.04-1.68,1.82-3.29-.45-3.47-.54-.13-.07-1.24-.24-1.29-.27,0,0,.05-.04-.14-.14.56-.55.34-1.25.54-1.7.13-.28.66-.51.68-.54.1-.21,1.13-3.74.88-1.29,2.45-.4,3.46.68,2.79-.54.36.08.26-.36.54-.54.82,3.37.7,1.89,1.16,1.91.09,0,.87.61.48,1.63Z" style="fill: #eb8090; stroke-width: 0px;"/>
            <path d="M62.95,15.25c.09.06-.17.23,1.5,1.43l-.2.2c-3.48-.71-3.29.96-4.83.48.15-1.64,1.76-1.18,1.91-1.36.09-.11-1.86-.97,1.63-.75Z" style="fill: #f6a0a7; stroke-width: 0px;"/>
            <path d="M62.95,15.25c-1.19-.89-1.45-.06-2.59-.61,1.42-.99,2.34-.94,3.68.14.12,1.31-.36.52-1.09.48Z" style="fill: #f6a0a7; stroke-width: 0px;"/>
          </g>
        </g>
        <g>
          <path d="M66.22,33.22c.35.29.8.46.95.95-.05.06-.79,1.16-.82,1.23,0,.01-.09-.1-.14.27-3.08,1.36-2.57-1.76-4.22.82l1.23-2.72c.48-.26,1.28-.24,1.36-.34.06-.07.08-1.24.14-1.43.51.39,1,.81,1.5,1.23Z" style="fill: #d03e7f; stroke-width: 0px;"/>
          <path d="M62,36.49h-.14c-.61-.34-.51-.65-.54-.68.22-.97,1.07-1.6,1.91-2.04l-1.23,2.72Z" style="fill: #ef9ab1; stroke-width: 0px;"/>
        </g>
        <g>
          <path d="M33.13,52.28c.51,1.55,1.7.91,2.04,1.63-.22.07-.53.11-.68.27-.54-.21-1.81-.91-2.04-1.36-.04-.47.44-.43.68-.54Z" style="fill: #f9b6b6; stroke-width: 0px;"/>
          <path d="M35.31,52.01c.11.04.5.31.54.41.21.43.13.78.14,1.23-.28.08-.54.18-.82.27-.34-.72-1.54-.08-2.04-1.63.78-.37,1.22-.62,2.18-.27Z" style="fill: #e67093; stroke-width: 0px;"/>
        </g>
        <path d="M35.86,52.42c-.05-.1-.43-.37-.54-.41l1.16-1.09c2.01,1.64,2.05,1.78-.61,1.5Z" style="fill: #fbcbc6; stroke-width: 0px;"/>
        <path d="M56.96,42.61c-.77-.14-1.22-.3-1.91-.68.43-.76-.54-1.08-1.23-2.25-.35-.59-.27-1.46-.82-1.29.02-.25.01-.53.27-.68.14.25-.3.9,1.29-.68,1.33-.32,2.51,3.1,2.38,5.58Z" style="fill: #eb8090; stroke-width: 0px;"/>
        <path d="M54.92,34.04s.1.23.14.27c-.79-.59,0,.5-2.45,2.18-.02.01-.15-.03-.14.14-.44-.18-.52.14-.68.14-1.03-.88.41-1.46.41-1.57,0-.11-1.32-.21.95-1.23-1.99-.42-.8-3.08,1.77.07Z" style="fill: #db5a7a; stroke-width: 0px;"/>
        <path d="M58.05,35.13c-.13.93-.45,1.46-.54,2.04l-1.09-.68c-.35-.89-.98-1.26-1.23-1.63-.21-.33-.12-.52-.14-.54-.03-.04-.1-.23-.14-.27,1.08.29,1.96,1.21,3.13,1.09Z" style="fill: #d32455; stroke-width: 0px;"/>
        <path d="M55.05,34.31s-.08.21.14.54c-.36,1.27-1.22,2.35-2.59,1.63,2.44-1.68,1.66-2.76,2.45-2.18Z" style="fill: #db5a7a; stroke-width: 0px;"/>
        <g>
          <path d="M58.46,44.93c1.13.37,2.46-.92,2.65-.95,1.55-.26,1.2,2.03,3.27,2.04.24-.13-.12-.34-.2-.54.62.09.65.65.68.68-.21,1.06-1.56.35-2.18.95-.04,0-.09,0-.14,0,.05-.32-.13-.26-.14-.27-.85-1.14-1.14-.56-1.23-.54-.39.05-1.59.3-1.91.41-.53.19-.66.34-.82.41-.23.09-2.08,1.05-2.18.88.6-1.37,1.05-2.72,1.5-4.15.4.27.11.9.68,1.09Z" style="fill: #db5a7a; stroke-width: 0px;"/>
          <path d="M67.44,42.61c.03,1.38-.13,1.03-.14,1.09-1.32-1.08.08.74-1.16,1.63-.69.11-.6-1.22-2.25-.34-.1.39.19.27.27.48.09.21.44.42.2.54-2.07,0-1.72-2.3-3.27-2.04-.19.03-1.52,1.32-2.65.95.8-.33,1.05-.84,1.97-1.09.41-1.74-1.48-.78-2.52-.68.02-.07-.02-.2,0-.27,1.78-.62,3.09-1.78.54-1.91.31-.65.77-1.02.82-1.09,2.65.49,2.1,3.15,2.65,3.13.56-1.16.74-2.26,1.84-3.27,2.13-.67,1.11.02,1.57.27.02,0,.26-.28.27-.27.97.69,1.35,1.84,1.84,2.86Z" style="fill: #eb8090; stroke-width: 0px;"/>
          <path d="M58.46,44.93c-.57-.19-.28-.82-.68-1.09.12-.4.11-.6.14-.68,1.03-.1,2.93-1.06,2.52.68-.92.25-1.18.76-1.97,1.09Z" style="fill: #eb8090; stroke-width: 0px;"/>
          <path d="M62.41,46.84c-.45-.08-1.03-.06-1.23-.54.08-.01.38-.6,1.23.54Z" style="fill: #541317; stroke-width: 0px;"/>
          <path d="M61.04,38.12c1.46-.04,1.72,1.82,1.84,1.91.19.13.55-.17.88-.27-1.1,1.01-1.28,2.1-1.84,3.27-.56.01,0-2.64-2.65-3.13,1.25-1.72,1.52-1.5,1.77-1.77Z" style="fill: #eb8090; stroke-width: 0px;"/>
          <path d="M57.91,42.89c.15-.52.03-.81.54-1.91,2.55.12,1.24,1.28-.54,1.91Z" style="fill: #eb8090; stroke-width: 0px;"/>
        </g>
        <path d="M57.5,37.17c-.13.77.24,1.71-.2,2.45-.54-.81-.76-2.82-.88-3.13l1.09.68Z" style="fill: #f9b6b6; stroke-width: 0px;"/>
        <path d="M55.05,41.93c-.88-.49-1.45-1.25-2.18-1.91.15-.61.1-1.05.14-1.63.54-.16.47.7.82,1.29.68,1.16,1.65,1.49,1.23,2.25Z" style="fill: #eb8090; stroke-width: 0px;"/>
        <g>
          <path d="M53.96,29c.83.81-.01,1.47.82,2.65.46.66,1.48.86,2.11,1.29.5.34.42,1.26,1.43.82-.01.84-.26,1.27-.27,1.36-1.17.13-2.05-.8-3.13-1.09-2.57-3.15-3.76-.48-1.77-.07-2.28,1.02-.95,1.12-.95,1.23,0,.1-1.44.69-.41,1.57-.31,0-1.89.49-2.18-.88-.38-1.79,1.5-2.77.95-3.61.47-.9-.08-.49-1.23-.27.04-1.65.48-4.14,2.65-3.95.11,0,1.9.88,1.97.95Z" style="fill: #eb8090; stroke-width: 0px;"/>
          <g>
            <path d="M56.69,19.88c.32.43,1.13,1.6,1.23,1.91.06.2-.04.66,0,.95-1.29.15-.29.99-.41,1.77-.35-.17-.71-.09-1.02-.27-.06-.03-.11-.4-.54-.82-.06-.06-.69.5-.82-1.09-1.26.45-1.73,1.04-.75,2.04.23.24.51.1.34.27-1.67.3-.76,1.54-1.77.82-1.69,1.9,1.76,1.04,1.02,3.54-.08-.08-1.86-.94-1.97-.95-2.17-.19-2.62,2.3-2.65,3.95-.87.36-.13-4.12.14-5.58.99-1,1.62-2.06,3.13-1.29-1.93-3.79.59-2.72,1.57-3.06.49-.17.37-2.32,2.52-2.18Z" style="fill: #f6a0a7; stroke-width: 0px;"/>
            <path d="M62.13,29.82c-.03.6-1.12,1.42-1.63,1.63-.2.08-.63-.18-.54.27-.39-.41-.62-.31-1.09-.41-.25-.05-.66.04-.95,0-.45-.06-.9-.34-1.36-.41-2.15-1.91-2.59-2.26.95-1.91.25.03,3.12,1.74,2.31-2.59.38-.48.71-1.04,1.09-1.5.23-.28.72-1.79,1.63-.48.9,4.44-.9,3.55-.41,5.38Z" style="fill: #eb8090; stroke-width: 0px;"/>
            <path d="M60.64,24.78c-1.15,1.01-.03-1.28-2.72-2.04-.04-.29.06-.75,0-.95,2.65-1.11,3.22.71,2.72,3Z" style="fill: #eb8090; stroke-width: 0px;"/>
            <path d="M57.5,24.51c.05.03.22-.03.27,0-.62.31.39.32.14.75-.09.14-.11-.2-.54.07-1.1.68-.45.78-.54,2.11,1.06.03.77.32.82.34-.16.05-.3.21-.75.14-.2-.08-.74-1.28-.75-1.36-.06-.37.19-.67.14-1.23-.12-1.27-.76-1.23-1.91-.95-.98-1.01-.51-1.59.75-2.04.13,1.59.75,1.03.82,1.09.44.42.49.78.54.82.31.18.67.1,1.02.27Z" style="fill: #db5a7a; stroke-width: 0px;"/>
            <path d="M57.5,29c1.43-.91,1.5-1.56,2.31-2.59.8,4.33-2.06,2.61-2.31,2.59Z" style="fill: #db5a7a; stroke-width: 0px;"/>
            <path d="M57.64,27.77c1.34-.46.29-.77.27-.88-.04-.22.31-.36.41-.61.44-1.07.05-.39-.68-.82-.01,0,.04-.19-.27-.14.44-.27.46.08.54-.07.26-.43-.75-.44-.14-.75,2.84,1.37,1.84,1.15.34,3.54-.63.1-.45-.26-.48-.27Z" style="fill: #d32455; stroke-width: 0px;"/>
            <g>
              <path d="M57.91,22.74c2.7.76,1.57,3.05,2.72,2.04l.27.14c-.38.46-.71,1.02-1.09,1.5-.81,1.03-.88,1.68-2.31,2.59-3.54-.36-3.1,0-.95,1.91.74.66,1.51.57,1.77,1.77.05.21,0,.76,0,1.09-1.01.45-.93-.48-1.43-.82-.63-.44-1.65-.64-2.11-1.29-.83-1.18.02-1.84-.82-2.65.74-2.5-2.71-1.64-1.02-3.54,1.01.72.1-.51,1.77-.82.17-.18-.11-.04-.34-.27,1.15-.27,1.78-.32,1.91.95-.81-.07-1.45-.4-2.04.34-.17,1.35.79.06,1.91.88.01.08.55,1.29.75,1.36.45.07.59-.08.75-.14.03.01-.16.38.48.27,1.5-2.39,2.5-2.17-.34-3.54-.06-.03-.22.03-.27,0,.12-.78-.88-1.62.41-1.77Z" style="fill: #eb8090; stroke-width: 0px;"/>
              <path d="M56.28,25.32c.05.55-.19.85-.14,1.23-1.11-.82-2.07.46-1.91-.88.59-.75,1.23-.42,2.04-.34Z" style="fill: #db5a7a; stroke-width: 0px;"/>
              <path d="M54.58,26.82l.75.48c-.43,3.31-1.8-.19-.75-.48Z" style="fill: #eb8090; stroke-width: 0px;"/>
              <path d="M57.91,31.31c.21.48.42.83.54,1.36h-.14c-.26-1.2-1.03-1.11-1.77-1.77.46.07.91.35,1.36.41Z" style="fill: #bb1e53; stroke-width: 0px;"/>
            </g>
            <g>
              <path d="M57.37,25.32c.32-.05.26.13.27.14-1.69.72.47.02.68.82-.1.25-.45.39-.41.61.02.12,1.07.43-.27.88-.05-.02.25-.31-.82-.34.1-1.33-.56-1.43.54-2.11Z" style="fill: #dfcf36; stroke-width: 0px;"/>
              <path d="M57.64,25.46c.73.43,1.12-.26.68.82-.21-.8-2.37-.1-.68-.82Z" style="fill: #fdd7c4; stroke-width: 0px;"/>
              <path d="M57.44,26.55c.1,0,.1.41,0,.41s-.1-.41,0-.41Z" style="fill: #743918; stroke-width: 0px;"/>
            </g>
          </g>
        </g>
      </g>
    </g>
  </g>
</svg>