<?xml version="1.0" encoding="UTF-8"?>
<svg id="uuid-04488fe5-4a10-4316-901b-4a4c102f483d" data-name="Layer 2" xmlns="http://www.w3.org/2000/svg" xmlns:xlink="http://www.w3.org/1999/xlink" viewBox="0 0 65.78 92.68">
  <defs>
    <linearGradient id="uuid-465f3db4-9642-43cb-87b7-40fec110dfc8" x1="946.56" y1="613.04" x2="1024.11" y2="618.24" gradientTransform="translate(-53.17 15.24) scale(.09)" gradientUnits="userSpaceOnUse">
      <stop offset="0" stop-color="#782f20"/>
      <stop offset="1" stop-color="#421912"/>
    </linearGradient>
  </defs>
  <g id="uuid-2e49ab2a-2ea7-4c1c-9d5c-f5ead9cacee5" data-name="Trees">
    <g>
      <path d="M36.3,92.68c-3.36-1.14-3.68-1.14-5.38-2.7-.79-.73-1.66-1.93-1.89-3.86-.28-2.42,7.52-.85,8.71-3.58.43-.99.55-5.12.24-6.12-.39-1.27-2.58-2.16-3.72-2.58-.95-.35-1.16-.32-1.32-.36-.02,0-.1-.18-.36-.24,1.75-3.89,10.56-3.16,14.05-2.64,5.41.81,10.43,3.16,15.25,5.64.27.08.34.13.48.24.84.84-.26,1.86-1.62,2.88-2.04,1.53-18.05,9.48-21.91,12.13-.86.37-1.66.82-2.52,1.2Z" style="fill: #4f823c; stroke-width: 0px;"/>
      <path d="M30.47,56.08c-.1.9.05,1.81.22,2.69-1.19-.38-2.39-1.33-2.8-1.46,1.03-.51,1.48-.71,2.13-1.68l.45.45Z" style="fill: #eaeae0; stroke-width: 0px;"/>
      <g>
        <path d="M45.38,57.09c.05.65-.16,1.25-.34,1.79-.66,2.06-1.7,2.44.34,1.91.01.04.41.73.45.79-3.07.4-2.23.95-3.48,2.75-.79,1.13-1.63,2.21-2.47,3.31-1.19,1.56-4.72,4.35-3.48,6.51-.53-.08.77,1.73,1.35,2.69-.12.35-.31,1.53.22,1.35-1.05.89-1,1.41-.22,2.47l-.34.34s-.63-.54-.67-.56c-.85-1.69-1.39-3.7-1.68-.34-1.16.2-1.69,1.56-1.68,2.58-.39-.75-1.42-.58-2.13-.34.08-.63-.03-1.01-.22-1.57-.38-1.13-.98-1.21-1.01-1.29-.08-.23.04-2.45,0-3.14,0-.09-.22,0-.22-.17-.02-.36.03-1.2,0-2.02-.13-3.78.96-3.17-1.23-6.84-.91-1.52-2.04-2.99-3.14-4.37l.17-.22c1.66,1.25,3.23,2.61,4.93,3.81.42-.04.25-1.29.28-1.57.18-1.6.19-2.6.22-4.15.01-.58,0-1.16,0-1.74.09-.14.51.01.79.06,2.82.43,1.15,6.17,4.88-.22.17-.06.99.9,1.18,1.01-.47.73-1.87,1.97-2.02,2.75-.13.67-.27,4.53.84,4.65,1.05.54,4.1-2.57,4.65-3.31.75-1.01,1.2-2.45,1.79-3.53.42-.77,1.95-2.97,2.13-3.48.09-.01.11.03.11.11Z" style="fill: url(#uuid-465f3db4-9642-43cb-87b7-40fec110dfc8); stroke-width: 0px;"/>
        <path d="M23.62,58.88c2.13,2.31,4.37,4.56,7.18,6.06-.03.28.14,1.53-.28,1.57-1.7-1.2-3.28-2.56-4.93-3.81l-.17.22c-.82-1.03-1.78-1.96-2.58-3.03-.1-.13-.24-.27-.22-.45.06-.02.96-.53,1.01-.56Z" style="fill: #411b18; stroke-width: 0px;"/>
        <path d="M27.89,57.31c.42.13,1.61,1.07,2.8,1.46.4.13.81.02,1.12.34-.28-.04-.7-.19-.79-.06,0,.58.01,1.16,0,1.74-2.22-1.02-4.13-2.57-6.06-4.04.18-1.4-.94-5.53.45-.06.87.75,1.51.32,2.47.62Z" style="fill: #411b18; stroke-width: 0px;"/>
        <path d="M29.79,76.15c0,.17.22.08.22.17.04.69-.08,2.91,0,3.14.03.08.63.16,1.01,1.29-.84-1.43-3.06-1.54-3.81,0l-.22-.34c.34-.21,1.04-.58,1.01-1.01.41.37,1.17-1.14,1.01-1.46.74-.58,1.01-1.11,0-1.46-.37-.13-.63-.14-1.01-.11.13-.17.58-.24.56-.56.21.11.93.28,1.23.34Z" style="fill: #461e11; stroke-width: 0px;"/>
        <path d="M36.75,80.42c-.47-.25-1.16-.43-1.68-.34.29-3.36.84-1.35,1.68.34Z" style="fill: #3b8e43; stroke-width: 0px;"/>
        <path d="M45.38,60.79c-2.04.53-1,.15-.34-1.91.39.54.15,1.31.34,1.91Z" style="fill: #eaeae0; stroke-width: 0px;"/>
      </g>
      <g>
        <path d="M32.6,0c.12.37.37.67.56,1.01l-.11.34c-.34-.35-.05.53-.22,1.29-.85,3.72-1.15.16-2.3.95-.8.56.74,4.99.5,6.11-2.06-.18-1.17.7-1.35,3.93-.06,1.07-.34,2.93-.34,3.08-.24-.21-.53-.37-.79-.56-.19-.15-1.62-1.46-1.79-1.29-.54,1.07-1.49,8.26-2.19,8.47-1.94-.37-3.82-2.57-2.75-4.54.15-.28,1.18-1.06,1.46-1.46,1.77-2.53,2.88-5.4,4.15-8.19-.02-1.54-2.84,2.66-3.81,4.71-.89,1.87-.49,4.17-3.03,2.92-.75,3.88.41,5.08.45,5.38.02.16.02,3.18-.39,3.08-1.37-3.67-4.47-2.86-5.1-1.07-.58,1.65.45,7.8.34,10.04-1.72-1.56-2.82-1.38-2.97-1.46-.11-.06-1.5-1.7-1.63-1.91-2.36-3.72-.75-5.1-.67-5.44.23-1.03.27-2.13.56-3.14.35-1.24,1.05-2.46,1.12-2.69.12-.37-.59-.15.34-1.29,2.08-1.49,3.49-.34,3.59-.5-.83-3.04,1.74-8.28,5.22-5.78.25,0-.12-1.26.5-2.86.65-1.67,2.74-3.76,4.49-2.07.4.51.11-.08.11-.11.04-3.61,2.46-2.55,2.64-2.69.22-.18-.3-2.31,3.42-4.26Z" style="fill: #8cc03f; stroke-width: 0px;"/>
        <path d="M26.43,7.07l.11-.11s.29.62-.11.11Z" style="fill: #bcda7f; stroke-width: 0px;"/>
        <path d="M22.62,59.44c-.02.18.13.32.22.45-.25,5.91-8.8,6.45-10.21,2.36-.62-1.81-.02-3.86.5-5.61,2.13,2.77,6.2,4.11,9.48,2.8Z" style="fill: #2c6733; stroke-width: 0px;"/>
        <path d="M35.51,5.83c-.42.28.26,3.04.39,3.14.03.03.29-.45.62.34v.45c-1.16-1.65-.04,1.97-.34,4.65.21,1.16,1.19,1.95,1.57,3.03.72,2.04.63,7.49.79,7.85.14.31,1.27-.14,1.12,3.93,0,.21-.36,1.38-.34,1.46.07.21,2.28.4,2.47,3.2,0,.13-.2.65-.11,1.4,1,.29,1.76,1.17,2.69,1.4-.21,2.2-.4,4.52-2.02,6.22,2.91.82,3.24,4.42,2.47,6.9-.4,1.27-1.87,2.98-3.08,3.59-3.41-6.25-10.18-1.25-11.61-10.21,3.42-2.17,6.17-7.29,4.71-11.27-.69-1.87-2.52-1.86-2.69-5.22-.09-1.77.23-2.25.34-2.92.07-.43-.08-1.17,0-1.51.08-.37,1.11-1.41,1.35-2.69.27-1.44,0-5.82-.22-6.06-.13-.14-1.14.39-2.13-2.86.6-2.36,2.37-5.33,1.57-9.31l.11-.34c.98,1.77,1.56,4.12,1.68,4.32.22.38.37.23.67.5Z" style="fill: #659940; stroke-width: 0px;"/>
        <path d="M38.65,8.64c.64,1.54,1.38,2.31.79,5.1,4.27-1.27,3.4,3.4,3.76,3.53,2.33-1.17,2,.95,2.36,1.12.1.05.9-.68,2.02,0,1.43.86.6,2.76.73,2.86.3.22,3.34-1.58,2.92,5.5-.03.48-.45,1.17-.45,1.23,0,.14.54.81.45,2.8-.12,2.79-2.01,5.99-4.26,7.63,4.88,2.67,2.48,9.84-2.13,11.38.77-2.48.44-6.08-2.47-6.9,1.62-1.71,1.81-4.02,2.02-6.22.22-2.27.79-5.29-1.74-6.51-1.44,0-.85,1.75-.84,3.7-.19-2.8-2.4-2.99-2.47-3.2-.03-.08.33-1.25.34-1.46.14-4.07-.99-3.61-1.12-3.93-.16-.36-.06-5.81-.79-7.85-.38-1.07-1.36-1.86-1.57-3.03.3-2.68-.83-6.3.34-4.65.13,0,1.16-1.19,2.13-1.12Z" style="fill: #2b7c3d; stroke-width: 0px;"/>
        <g>
          <path d="M64,36.11c.21.85.87,1.65,1.01,2.52.31,1.97-.04,2.7-.56,4.37-.02.06.3.02.22.22-.59,1.67-3.63,4.9-5.1,6-5.72,4.28-8.82,2.23-9.31,2.36-.1.03-.54.92-1.46,1.46-.98.57-2.79.81-2.92.9-.26.19-.46,2.57-.62,3.03-.18.51-1.71,2.7-2.13,3.48-1.75.63-3.66.36-5.27-.56-.19-.11-1.01-1.07-1.18-1.01-3.73,6.4-2.06.66-4.88.22-.31-.31-.72-.21-1.12-.34-.17-.88-.33-1.79-.22-2.69,0-.01.21.04.22-.06.1-.61.44-1.6,0-1.74.84-3.15-.26-7.64-1.12-10.77.25-.13.34-.2.56-.34,1.43,8.95,8.2,3.96,11.61,10.21,1.22-.61,2.69-2.32,3.08-3.59,4.62-1.55,7.01-8.72,2.13-11.38,2.26-1.64,4.14-4.84,4.26-7.63.09-1.99-.45-2.66-.45-2.8,0-.07.42-.75.45-1.23.42-7.08-2.61-5.27-2.92-5.5-.13-.1.7-2-.73-2.86-1.12-.68-1.92.05-2.02,0-.36-.18-.03-2.29-2.36-1.12-.36-.14.52-4.8-3.76-3.53.6-2.8-.15-3.56-.79-5.1-.48-1.17-1.26-2.25-1.46-3.53-.26-.42-1.24.51-1.23.84-.03-.03-.22.09-.45-.11-.3-.27-.45-.13-.67-.5-.12-.2-.7-2.54-1.68-4.32-.19-.34-.44-.64-.56-1.01,4.77,1.95,3.95,3.86,4.21,4.04.18.12,2.32-.66,2.8,2.47,3.07-1.64,5.01,2.83,4.04,5.27,4.35-1.13,4.05,2.81,4.21,3.08.11.2,2.64-.93,2.97,2.64,1.75-.35,2.01,1.18,2.13,1.23.4.17,1.89-.55,3.31,1.29,1.69,2.18,1.1,4.95,1.23,5.27.03.07.96.4,1.12,1.12.13.59-.13,1.28-.11,1.35.3,1.13,1.67,2.67.56,7.18,1.96-.77,3.62-.51,4.93,1.18Z" style="fill: #2c6733; stroke-width: 0px;"/>
          <path d="M38.65,8.64c-.97-.06-2,1.12-2.13,1.12v-.45c0-.62-.2-2.99-.56-3.36,0-.33.97-1.26,1.23-.84.2,1.29.98,2.37,1.46,3.53Z" style="fill: #12542a; stroke-width: 0px;"/>
        </g>
        <path d="M35.96,5.94c.36.38.56,2.74.56,3.36-.32-.79-.58-.31-.62-.34-.13-.1-.82-2.86-.39-3.14.23.2.42.08.45.11Z" style="fill: #2b7c3d; stroke-width: 0px;"/>
        <path d="M30.47,56.08l-.45-.45c.27-.39.55-.89.67-1.35.44.14.1,1.13,0,1.74-.02.09-.22.04-.22.06Z" style="fill: #181b12; stroke-width: 0px;"/>
        <g>
          <path d="M32.15,26.69c.17,3.36,2.01,3.35,2.69,5.22,1.46,3.99-1.29,9.1-4.71,11.27-.22.14-.31.21-.56.34-.54.27-1.18.62-1.79.67.1-.97.75-2.01,1.01-2.86,2.1-7.02-1.02-12.54,3.36-14.64Z" style="fill: #86ad3f; stroke-width: 0px;"/>
          <path d="M32.48,23.78c-.11.67-.43,1.15-.34,2.92-4.39,2.09-1.26,7.62-3.36,14.64-.25.85-.91,1.89-1.01,2.86-1.77.14-3.02-1.15-4.04-2.47.1-.79.51-5.37,1.4-5.27,3.37,2.74,2.36-6.51,2.86-8.41,2.05-1.38-1.3-2.4,4.49-4.26Z" style="fill: #8cc03f; stroke-width: 0px;"/>
          <path d="M23.74,41.72c-1.2-1.56-2.01-3.4-2.13-5.38-.42-6.88,4.82-7.25,6.39-8.3-.5,1.9.51,11.15-2.86,8.41-.9-.1-1.31,4.48-1.4,5.27Z" style="fill: #8cc03f; stroke-width: 0px;"/>
        </g>
        <g>
          <g>
            <path d="M11.29,30.84c.15,2.24,1.88,5.14-.39,6.84-.25.19-1,.26-1.07.39-.51,1,1.83,5.96-3.03,3.53,1.01-2.08-2.81-9.25.28-10.88,1.06-.56,1.2.36,1.29-1.01.25-3.88,1.73-4.08,1.79-4.32.1-.38-.77-4.79,2.47-7.12-.93,1.14-.22.92-.34,1.29-.08.23-.77,1.45-1.12,2.69-.29,1.01-.33,2.11-.56,3.14-.08.34-1.69,1.72.67,5.44Z" style="fill: #8cc03f; stroke-width: 0px;"/>
            <path d="M8.37,29.72c-.09,1.36-.23.45-1.29,1.01-3.09,1.63.73,8.8-.28,10.88-.46.94-3.63,1.16-4.6.9-.54-1.56-.5-1.68-.56-3.25-.12-3.3.98-3.28,1.12-3.87.07-.28-.74-2.01.67-4.26,1.06-1.69,3.21-2.57,4.88-1.18l.06-.22Z" style="fill: #8cc03f; stroke-width: 0px;"/>
          </g>
          <g>
            <path d="M32.48,23.78c-5.78,1.86-2.44,2.89-4.49,4.26-1.57,1.05-6.82,1.42-6.39,8.3-3.21.89-4.23,1.96-3.03,5.33-2.08.14-2.53,1.07-2.69,1.18-3.08,2.02-5.58,4.74-9.42,5.27-1.78-1.52-3.48-3.38-4.26-5.61.96.26,4.14.04,4.6-.9,4.86,2.43,2.52-2.53,3.03-3.53.07-.14.82-.21,1.07-.39,2.28-1.7.54-4.6.39-6.84.13.21,1.51,1.85,1.63,1.91.15.08,1.25-.1,2.97,1.46.16.15,1.33,2.36,3.36,2.52-1.24-3.33,1.19-4.16,2.58-6.51.8-1.36.62-1.82.67-1.91.12-.21.43.11.5.06.14-.1.47-.91.62-1.07,2.47-2.58,2.5-.71,4.37-6.51.1-.3.75-1.28.79-1.46.28-1.51-.82-3.24-.22-3.2.25.2.54.35.79.56,0,.09.16,1.13.28,1.12,1.21-2.22,1.24-4.77,1.85-7.18.99,3.25,2,2.72,2.13,2.86.22.24.49,4.61.22,6.06-.24,1.28-1.26,2.33-1.35,2.69-.08.34.07,1.08,0,1.51Z" style="fill: #86ad3f; stroke-width: 0px;"/>
            <path d="M15.89,42.84c-.25,2.63-2.38,3.45-3.2,7.63-2.93.19-4.15-.59-6.22-2.36,3.85-.53,6.34-3.25,9.42-5.27Z" style="fill: #659940; stroke-width: 0px;"/>
          </g>
        </g>
        <g>
          <path d="M21.61,36.34c.12,1.99.93,3.82,2.13,5.38,1.01,1.32,2.27,2.61,4.04,2.47.61-.05,1.25-.4,1.79-.67.86,3.13,1.96,7.62,1.12,10.77-.12.46-.41.95-.67,1.35-.66.97-1.1,1.17-2.13,1.68-.96-.3-1.6.13-2.47-.62-1.38-5.47-.27-1.35-.45.06-.07.52-.92,1.8-1.35,2.13-.05.04-.95.54-1.01.56-3.28,1.31-7.35-.03-9.48-2.8-.52,1.74-1.13,3.8-.5,5.61-4.67.41-8.42-5.03-5.16-8.92-.1-.36-1.81.38-4.37-1.51-2.91-3.2-1.43-4.93-1.46-5.22-.05-.41-3.56-3.23-.17-7.46l.17.11c.06,1.58.02,1.7.56,3.25.78,2.23,2.48,4.09,4.26,5.61,2.07,1.77,3.3,2.54,6.22,2.36.81-4.17,2.94-5,3.2-7.63.16-.11.61-1.04,2.69-1.18-1.2-3.37-.18-4.44,3.03-5.33Z" style="fill: #659940; stroke-width: 0px;"/>
          <path d="M10,51.59c3.49,1.78.05,1.1-1.74,1.4l1.74-1.4Z" style="fill: #2c6733; stroke-width: 0px;"/>
        </g>
        <g>
          <g>
            <path d="M65.01,48.68c-.51.01-.74,1.22-.79,1.29-.75,1.09-4.16,3.21-5.44,3.87-1.55.8-3.42.94-2.64,1.57-.54-.27-.81-.44-1.79.45-.19-.58.9-.59,1.12-.95-.62-1.05-4.5-1.64-5.33-1.4-.29.08-2.37,2.86-4.77,3.59,0-.09-.02-.12-.11-.11.16-.45.36-2.84.62-3.03.12-.09,1.94-.33,2.92-.9.92-.54,1.36-1.43,1.46-1.46.48-.12,3.59,1.93,9.31-2.36,1.47-1.1,4.51-4.33,5.1-6,.07-.2-.24-.17-.22-.22.52-1.67.88-2.41.56-4.37-.14-.87-.8-1.68-1.01-2.52,2.2,2.82.85,6.04.9,6.45.05.44,1.22,1.51.79,4.26-.09.6-.52,1.28-.67,1.85Z" style="fill: #12542a; stroke-width: 0px;"/>
            <path d="M65.01,48.68c-.04.15-.18.19-.22.34-.11.33-.33.48-.34.5-.03.13.29.88-.34,2.58-.95,2.58-3.86,4.76-6.67,4.09-.7-.17-1.22-.75-1.29-.79-.78-.63,1.08-.77,2.64-1.57,1.28-.65,4.69-2.78,5.44-3.87.05-.07.28-1.28.79-1.29Z" style="fill: #2c6733; stroke-width: 0px;"/>
          </g>
          <path d="M54.36,55.85c.11.34,1.79,2.27-.22,5.22-2.22,3.24-6.73,2.72-8.3.5-.04-.06-.43-.74-.45-.79-.19-.59.05-1.37-.34-1.91.18-.55.39-1.15.34-1.79,2.4-.73,4.48-3.5,4.77-3.59.83-.24,4.7.35,5.33,1.4-.22.36-1.31.38-1.12.95Z" style="fill: #2c6733; stroke-width: 0px;"/>
        </g>
        <path d="M28.56,16.15c-.59-.04.51,1.68.22,3.2-.03.17-.69,1.16-.79,1.46-1.87,5.8-1.9,3.93-4.37,6.51-.15.15-.48.97-.62,1.07-.07.05-.39-.26-.5-.06-.05.09.13.55-.67,1.91-1.39,2.35-3.82,3.17-2.58,6.51-2.04-.17-3.2-2.38-3.36-2.52.11-2.24-.92-8.39-.34-10.04.63-1.8,3.73-2.6,5.1,1.07.41.1.41-2.92.39-3.08-.04-.3-1.2-1.51-.45-5.38,2.54,1.26,2.14-1.05,3.03-2.92.98-2.05,3.79-6.25,3.81-4.71-1.27,2.79-2.38,5.66-4.15,8.19-.28.39-1.31,1.18-1.46,1.46-1.07,1.97.81,4.17,2.75,4.54.7-.21,1.64-7.4,2.19-8.47.18-.17,1.6,1.14,1.79,1.29Z" style="fill: #8cc03f; stroke-width: 0px;"/>
        <path d="M33.05,1.35c.8,3.98-.97,6.95-1.57,9.31-.61,2.41-.64,4.95-1.85,7.18-.12,0-.28-1.03-.28-1.12,0-.16.28-2.01.34-3.08.17-3.23-.71-4.1,1.35-3.93.23-1.12-1.31-5.55-.5-6.11,1.15-.8,1.45,2.77,2.3-.95.17-.76-.12-1.64.22-1.29Z" style="fill: #8cc03f; stroke-width: 0px;"/>
        <path d="M44.37,36.68c-.93-.23-1.69-1.11-2.69-1.4-.08-.75.11-1.28.11-1.4,0-1.95-.6-3.71.84-3.7,2.53,1.21,1.95,4.24,1.74,6.51Z" style="fill: #659940; stroke-width: 0px;"/>
      </g>
      <g>
        <path d="M41.57,78.85c1.21,2.98-2.24,3.95-3.81,1.79-.78-1.06-.83-1.57.22-2.47.33-.28.84-.55.9-.56.99-.14,2.29.24,2.69,1.23Z" style="fill: #941b1e; stroke-width: 0px;"/>
        <path d="M38.82,78.17c1.67.32-.36,1.92-.28.17l.28-.17Z" style="fill: #f05257; stroke-width: 0px;"/>
      </g>
      <g>
        <path d="M36.75,80.42s.65.52.67.56c1.24,1.87-.71,4.07-2.75,3.25-.92-.37-1.03-1.07-1.29-1.57,0-1.02.52-2.38,1.68-2.58.52-.09,1.21.09,1.68.34Z" style="fill: #ad2124; stroke-width: 0px;"/>
        <path d="M37.25,82.66c.41.26-.49,1.53-1.91,1.46-2.82-1.12,1.21.19,1.91-1.46Z" style="fill: #941b1e; stroke-width: 0px;"/>
        <path d="M34.9,81.43l.62.17c0,1.07-1.55.87-.62-.17Z" style="fill: #e0c992; stroke-width: 0px;"/>
      </g>
      <g>
        <path d="M31.03,80.75c.19.56.31.94.22,1.57-.18,1.36-2,2.17-3.36,1.23-.45-.31-.82-.94-.9-1.46-.07-.51,0-.88.22-1.35.75-1.54,2.97-1.43,3.81,0Z" style="fill: #941b1e; stroke-width: 0px;"/>
        <path d="M28.11,81.87c.15,0,.3-.01.45,0,.62.04.38-.25,1.01.39-.62.79-1.07.08-1.07.84l-.95-.95c.06-.67.06-.25.56-.28Z" style="fill: #c62c2b; stroke-width: 0px;"/>
        <path d="M28.56,81.87c-.15-.01-.3,0-.45,0-1.33-1.68,1.88-1.5.45,0Z" style="fill: #eae0e0; stroke-width: 0px;"/>
      </g>
      <g>
        <path d="M29.57,74.14h.22c.03.82-.02,1.66,0,2.02-.3-.06-1.02-.22-1.23-.34,0-.13-.28-.38-.45-.34-.24-.18-.59-.72-.9-.9.03-.05-.1-.07.22-.34l2.13-.11Z" style="fill: #c62c2b; stroke-width: 0px;"/>
        <path d="M25.98,80.86c.32-.1.73-.27,1.01-.45l.22.34c-.23.46-.3.84-.22,1.35-1.52-.06-2.35-.11-3.7-.9-.06-.2-.27-.35-.22-1.01.89,1.2,1.66,1.07,2.92.67Z" style="fill: #3a5125; stroke-width: 0px;"/>
        <path d="M26.99,75.14s.19.04,0,.39c-.1.19-.85,1.05-1.12,1.18-.8-.25-1.58-.31-2.36.11-.5-.88,2.12-1.57,3.48-1.68Z" style="fill: #3b8e43; stroke-width: 0px;"/>
        <path d="M28.11,75.48c.17.13.11.16.45.34.02.32-.43.39-.56.56-1.62.59-.02,1.46-1.57.67-.03-.01-.12-.2-.56-.34.27-.12,1.02-.99,1.12-1.18.19-.35,0-.38,0-.39.26-.48.21-.53.22-.56.31.17.66.72.9.9Z" style="fill: #12542a; stroke-width: 0px;"/>
        <path d="M42.92,78.73c.89.01,5.24,0,5.66.11,1.74.44-4.08,1.86-4.88,2.36-.16-.34-.7.36-1.07.56-.68.38-5.45,2.53-5.55,2.86l.34.28c-3.49-.51-10.1,1.47-9.53-1.35,1.36.93,3.19.12,3.36-1.23.71-.24,1.75-.41,2.13.34.26.5.37,1.2,1.29,1.57,2.04.82,3.99-1.39,2.75-3.25l.34-.34c1.58,2.16,5.02,1.19,3.81-1.79.28.06.37-.11.45-.11.31,0,.6,0,.9,0Z" style="fill: #3a5125; stroke-width: 0px;"/>
        <path d="M36.41,74.14c.05.09,1.37,1.27,1.51,1.35.01,0,.09-.14.17-.11.09.04-.3.78,1.57-.11.56-.06,1.05.19,1.57.34.43.69,1.28,1.61,1.57,2.36.06.15.11.59.11.79-.3,0-.59,0-.9,0-.4-1.62-1.22-3.15-3.14-2.8-.47.08-.96.44-1.12.9-.58-.97-1.88-2.78-1.35-2.69Z" style="fill: #941b1e; stroke-width: 0px;"/>
        <path d="M38.88,75.93v1.68c-.05,0-.57.28-.9.56-.54.19-.35-1-.22-1.35.16-.46.65-.81,1.12-.9Z" style="fill: #3b8e43; stroke-width: 0px;"/>
        <path d="M43.7,81.2c-.84.52-.31,2.13-.56,3.14-.01,0,.04.22-.06.22-1.89.11-3.78.08-5.66.34l-.34-.28c.1-.33,4.87-2.48,5.55-2.86.36-.2.9-.9,1.07-.56Z" style="fill: #3a5125; stroke-width: 0px;"/>
        <path d="M40.34,74.92c1.18.17,4.28.88,4.71.9-.45.46-.87,1.03-1.35,1.46-.72-.92-1.37-1.37-2.47-1.68-.52-.14-1.01-.39-1.57-.34.11-.05.64-.31.67-.34Z" style="fill: #567c38; stroke-width: 0px;"/>
        <path d="M43.7,77.28c-.28.25-.63.42-.9.67-.29-.75-1.14-1.66-1.57-2.36,1.1.31,1.74.76,2.47,1.68Z" style="fill: #2c6733; stroke-width: 0px;"/>
        <path d="M40.34,74.92s-.57.29-.67.34c-1.87.89-1.48.15-1.57.11.04-2.02,3.02-2.26,3.14-1.85-.46.45-.38.94-.9,1.4Z" style="fill: #2c6733; stroke-width: 0px;"/>
        <path d="M28,76.38c-1.44,1.82-.11,1.45,0,3.03.03.43-.67.8-1.01,1.01-.28.17-.69.35-1.01.45.02-.08.07-.16.11-.22,1.37-.58,1.45-2.69.34-3.59,1.55.78-.05-.09,1.57-.67Z" style="fill: #3c2110; stroke-width: 0px;"/>
        <g>
          <path d="M25.87,76.72c.44.14.53.32.56.34,1.12.9,1.03,3.01-.34,3.59.78-1.23,1.48-1.92.28-3.36-.38,2.28-.26,2.53-2.64,3.2.54.58,1.68.46,2.36.17-.04.06-.09.15-.11.22-1.26.4-2.02.52-2.92-.67-.92-1.23-.63-2.77.45-3.36.77-.42,1.55-.36,2.36-.11Z" style="fill: #c62c2b; stroke-width: 0px;"/>
          <path d="M26.09,80.64c-.68.29-1.82.41-2.36-.17,2.38-.66,2.25-.91,2.64-3.2,1.2,1.44.5,2.13-.28,3.36Z" style="fill: #941b1e; stroke-width: 0px;"/>
          <path d="M23.9,77.39l.73.39c.08,1.73-2.19.9-.73-.39Z" style="fill: #e9dfd4; stroke-width: 0px;"/>
        </g>
        <path d="M28.56,75.82c-.33-.18-.27-.2-.45-.34.17-.05.44.21.45.34Z" style="fill: #461e11; stroke-width: 0px;"/>
        <path d="M42.02,78.73c-.08,0-.17.17-.45.11-.4-.99-1.7-1.37-2.69-1.23v-1.68c1.92-.35,2.74,1.19,3.14,2.8Z" style="fill: #2c6733; stroke-width: 0px;"/>
        <path d="M29.01,76.49c-.75.12.02.57,0,.62-.03.07-.77,0-.62,1.29.17-.2.42-.29.62-.45.16.32-.6,1.83-1.01,1.46-.11-1.58-1.44-1.21,0-3.03.38-.03.64-.02,1.01.11Z" style="fill: #941b1e; stroke-width: 0px;"/>
        <path d="M29.01,76.49c1.01.35.74.88,0,1.46-.2.16-.45.25-.62.45-.15-1.29.59-1.22.62-1.29.02-.04-.75-.5,0-.62Z" style="fill: #e73d3f; stroke-width: 0px;"/>
      </g>
    </g>
  </g>
</svg>