<?xml version="1.0" encoding="UTF-8"?>
<svg id="uuid-3b4fa7b3-11eb-4ba2-8b30-b627ead6e8f2" data-name="Layer 2" xmlns="http://www.w3.org/2000/svg" viewBox="0 0 67.01 95.36">
  <g id="uuid-54741878-5a5e-4fda-b563-9fbacb0ee955" data-name="Trees">
    <g>
      <path d="M38.8,95.36c-3.36-1.14-3.68-1.14-5.38-2.7-.79-.73-1.66-1.93-1.89-3.86-.28-2.42,7.52-.85,8.71-3.58.43-.99.55-5.12.24-6.12-.39-1.27-2.58-2.16-3.72-2.58-.95-.35-1.16-.32-1.32-.36-.02,0-.1-.18-.36-.24,1.75-3.89,10.56-3.16,14.05-2.64,5.41.81,10.43,3.16,15.25,5.64.27.08.34.13.48.24.84.84-.26,1.86-1.62,2.88-2.04,1.53-18.05,9.48-21.91,12.13-.86.37-1.66.82-2.52,1.2Z" style="fill: #4f823c; stroke-width: 0px;"/>
      <g>
        <path d="M33.44,13.09c-.08.11-.23.21-.36.36.08,2.76-.11,5.52-.12,8.28,0,1.75.15,11.59,0,12.19-.02.07-.32.05-.36.3,1.43,3.72-.61,2.12-.72,2.34-.02.62.02,1.24,0,1.86-.1,2.58.18,1.48-.96.96-.64-.29-1.3-.48-2.04-.84-.05-.02-.23.01-.36,0,0,.02-.22.05-.24.24.95.68.57.67.96,1.56.39.9.65,1.83.96,2.76.7,2.12,1.45,4.23,1.5,6.48-.35-.74-3.73-4.16-3.78-4.44-.5.01-.89.26-1.32.48,2.79,3.25,5.76,5.59,5.22,10.33l-3.06-2.64c-.21.1-1.16.16-1.92.48,1.18.86,4.78,5.35,5.04,6.3.24.87-.16,2.43-.18,3.42l-2.1-2.04c-.03.19-.68,1.71-.84,2.04.76,1.01,1.43,2.09,2.16,3.12.19.27.04.45.24.72.01.01.1.05.24.24l.36.06c.47-2.52.01-3.89.96-2.88,1.3,1.38,1.94,3.82,2.16,5.64.03.24-.24.51-.24.54.36,2.61,1.15,7.78,3.24,9.6l.48-1.08c-.52-.42-1.83-2.79-2.04-3.48-.55-1.75-.48-3.62-.6-5.4-.05-.77-.43-2.89-.36-3.6.1-1.02,3.18-4.07,3.96-5.04-.35-.82-1.39-1.58-1.44-1.68l-2.46,2.52c-.78-4.55.28-3.84,2.22-6.48.8-1.08.68-1.14.72-1.2-.49-.23-.91.19-1.38.36.16-1.32,2.69-5.08,2.7-5.4.02-.39-1.13-1.37-1.56-1.68-.08.43-2.86,4.61-3.24,5.7-.61.61.35-3.1.72-4.32.61-2.04,2.37-6.32,3.72-7.86.19-.22.61-.5.84-.72,1.09-1.03,2.35-1.75,2.52-1.92,1.14-1.13.5-1.19-.12-2.28-.68,1.01-1.55,1.9-2.4,2.76-.76.76-1.03.79-1.08.84-3.51,3.77-3.03,4.72-5.04,9.3-.83-7.15,2.92-9.01,4.44-12.55.88-2.04,1-2.79-.36-2.64,0,.1-.09.12-.12.24-.22.87-3.24,4.91-3.9,6.36-.32-1.89.17-3.42.18-3.6.09-2.47-.24-2.15-.24-2.58,0-.05.35-.74.36-.78.12-.56.45-1.1.12-1.68-.08.13-1.02.92-1.08.54.1-2.54-.08-5.08-.12-7.62-.02-1.27-.14-9.2,0-9.67.02-.08.92-.96,1.08-1.14-.12.05-1.05.48-1.08.42-.04-1.24-.13-1.66.84-2.52-.31-.57-.59.23-.72.42Z" style="fill: #361815; stroke-width: 0px;"/>
        <path d="M4.02,54.15c-.74,2.77,1.8,1.58,1.98,1.68.13.07-.17.39.06.9.14.31,1.14,2.06,1.26,2.1.6.21,1.14-.24,1.2-.24.19.01-.14,3.52,2.16.72.09.05-.1.84.96,1.68,2.29-.18.96-2.86,1.86-1.32,2.15.68,3.19-.45,3.36-.48,1.82-.37,4.76-.2,6.84-3.12-.05-.2-.07-.52-.12-.72-.08-.29-.39-.79-.48-1.08-1.07.24-3.41.84-4.32.72-.75.54-4.27,1.38-4.5,1.56-.12.1-.25.73-.42.9-1.85,1.83-5.64-.51-5.88-2.82-1.14.11-2.04.49-2.7.36-.69-.14-.78-.86-1.26-.84Z" style="fill: #4f823c; stroke-width: 0px;"/>
        <path d="M1.86,52.35c-1.17.53.09,1.94.9,2.04.6.08.97-.23,1.26-.24.48-.02.57.7,1.26.84.67.13,1.56-.25,2.7-.36,2.15-.2,4.3-.36,6.24-1.44-2.36-1.03-5.53-4.06-7.74-1.56-.68-.56-1.78,1.14-2.4,1.44-1.57.76-1.77-.59-1.86-.66-.15-.11-.33-.04-.36-.06Z" style="fill: #6d9f41; stroke-width: 0px;"/>
        <path d="M16.87,59.19c.28.18.29.84,0,1.08.2.25.33.56.48.84.23-.16.83.43,1.5.48,1.08.07,2.7-.54,3.24-1.56-.29.67.06,1.51-.3,1.92h.12c3.97,2.34,2.27-3.94,1.8-5.88-2.08,2.92-5.02,2.75-6.84,3.12Z" style="fill: #4f823c; stroke-width: 0px;"/>
        <path d="M17.35,61.11c1.21,2.21,4.01,1.35,4.44.84.36-.41.01-1.25.3-1.92-.54,1.02-2.16,1.63-3.24,1.56-.67-.05-1.27-.64-1.5-.48Z" style="fill: #2b431e; stroke-width: 0px;"/>
        <path d="M13.51,59.67c.95,1.64,2.97.92,3.36.6.29-.24.28-.9,0-1.08-.17.04-1.21,1.16-3.36.48Z" style="fill: #2b431e; stroke-width: 0px;"/>
        <path d="M42.68,63.15c.43.37,4.18,1.38,4.56-.96-1.84,1.82-6.21-.44-4.56.96Z" style="fill: #242c16; stroke-width: 0px;"/>
        <path d="M47.37,61.47c.78.64,3.57.62,3.72-.84-1.38.27-1.25.94-3.9-.12-.39.33-.12.72.18.96Z" style="fill: #2b431e; stroke-width: 0px;"/>
        <path d="M44.36,9.12c-.14.15-.69.54-.72.66-.12.54.81.82-.9,1.86-1.43.87-5.64,1.23-2.22-.78.57-.84-1.76,1-2.76,1.62l.12.24c.84-.44.9-.86,1.2-.18-.14,3.03-2.23,5.63-5.22,6.18-.47.44,1.32,1.95,1.44,1.92.37-.26,2-2.48,2.16-2.52.24-.06,2.05.91,2.46,1.08.58-.89,1.29-2.92,2.04-3.96,0-.44.36-1.81.42-2.52.29.48,1.14,1.45,1.26,1.68.48.36.35-1.36,1.08-2.46.13-.2.95-.84,1.2-1.02.99-1.86.51-4.02-1.56-1.8Z" style="fill: #4f823c; stroke-width: 0px;"/>
        <path d="M57.69,23.17c-.05-.05-.11-.91-1.2-.48-1.32,1.44-2.88.76-3.96-.6l-4.32,3.06c.1.56-1.24,3.73-.54,4.02,1.66-.5,1.44-1.51,1.74-1.86.42-.49,2.87-3.06,3.3-2.82.2,1.44,1.56.24,2.04.36.11.03.93,1.43,1.14.3-1.55-1.42.51-.03,1.8-1.98Z" style="fill: #325528; stroke-width: 0px;"/>
        <path d="M57.57,26.89c.38-.1.02.71.24,1.14.07.14,2.08,2.06,2.34,2.1.86.15,1.65-.55,2.46-.84.61-1.04,1.58-2.82.54-3.72-1.41.26-2.6,1.65-2.76,1.68-.1.02-.84-1.07-1.56.48-.25-1.41-.47-1.07-1.26-.84Z" style="fill: #325528; stroke-width: 0px;"/>
        <g>
          <path d="M45.92,10.93c-.25.18-1.07.83-1.2,1.02-.73,1.11-.6,2.82-1.08,2.46.21.39.51.85.48,1.32l.6.48c.03-.54.86-1.22.96-1.86.76-.75.96,1.33,1.74,1.98.42.35,3.85,1.53,4.2,2.04.31.45.13.63.18,1.08.08.72-.38,1.26.72,2.64,1.08,1.36,2.65,2.04,3.96.6.79-.87,1.33-2.43.42-3.36-.05-.05-.44.08-.54-.06-.08-.12.09-1.01-.24-1.44-.36-.46-.68-.19-.84-.48-.05-.09.09-.51-.24-.96-.17-.23-.65-.33-.72-.42-1.39,2.39-1.28-.54-2.22,1.08-.14,0-.31-1.48-.3-1.56-3.21,1.17-.41-.66-2.7-2.16-1.72-.07-1.41,1.5-1.98.78.75-1.03,1.28-2.93.3-3.9-.6-.1-1.02.37-1.5.72Z" style="fill: #4f823c; stroke-width: 0px;"/>
          <path d="M51.81,15.49c-.01.08.16,1.55.3,1.56.94-1.62.83,1.31,2.22-1.08-.08-.12.17-1.74-1.98-1.32-.1.06-.53.79-.54.84Z" style="fill: #6d9f41; stroke-width: 0px;"/>
        </g>
        <path d="M8.23,20.29c1.34.92,1.08-.16,1.56-.66.88-.92,2.09-1.44,2.94-2.22.34-.32.05-.35.06-.36-.61.37-.63-1.1-2.1-.12-1.3.87.1,1.67-1.86,1.86.19,1.32-.44,1.15-.6,1.5Z" style="fill: #95b33d; stroke-width: 0px;"/>
        <path d="M5.58,27.37c1.63,2.96,1.02.25,1.5.12,1.73,1.72,1.31-.03.54-1.08-.25-.33-.12-.49-.96-.72-.81.18-1.21.89-1.08,1.68Z" style="fill: #95b33d; stroke-width: 0px;"/>
        <path d="M18.19,12.85c.37.31.31-.79.54-.96.52-.38,1.27.62,1.5-1.08-.77-.85-.08,1.27-1.5-.48-.75.69-.46,1.62-.54,2.52Z" style="fill: #95b33d; stroke-width: 0px;"/>
        <path d="M14.23,53.19c-1.94,1.08-4.09,1.24-6.24,1.44.24,2.31,4.04,4.65,5.88,2.82.17-.17.3-.8.42-.9.24-.18,3.76-1.02,4.5-1.56-.24-.03-4-1.55-4.56-1.8Z" style="fill: #4f823c; stroke-width: 0px;"/>
        <path d="M9.31,50.07c.07-.57-.09-1.82,0-2.1.07-.2.35-.16.36-.18.89-1.11,2.25-1.84,3.72-1.56,1.3.25.73,1.39,1.8.24.37-.39.72-1.06.96-1.32-.53-.13-2.06-2.39-2.22-2.4-.66-.06-.86,4.35-7.08,1.2.15,3.05,2.53,2.61.9,6.06l1.56.06Z" style="fill: #4f823c; stroke-width: 0px;"/>
        <path d="M23.35,38.54c1.22-1.07,2.19-1.49,1.8.6.49-.04.2-1.19.48-1.56-.08-.21-.17-.38-.24-.6-.05-.14-.36-.47-.36-.54,0-.05.25-.11.24-.42,0-.06.24-.51.12-1.14-.03-.14-.4-.6-.48-.78-.2-.48.24-.56-.36-.66.24.12.57-.29.6-.3.06-.29-.75-.35-1.2-.6-.38-.21-.84-.67-1.2-.96.96,2.16,1.24,4.65.6,6.96Z" style="fill: #325528; stroke-width: 0px;"/>
        <path d="M17.83,45.86v.12c.18.45.15,1.05.24,1.44.04.2.11.96.3.96.91-1.08-.43,2.43,1.74,1.32-.57-.05.85-.96,1.68-1.56-1.23-.39-1.41-2.49-1.62-2.52-.13-.02-.77,1.17-2.34.24Z" style="fill: #325528; stroke-width: 0px;"/>
        <path d="M24.55,40.7c-.05.13-.8.64-.72,2.58.1.26,1.95-.1,1.92.54,2.26-.94,1.24-4.14-1.2-3.12Z" style="fill: #4f823c; stroke-width: 0px;"/>
        <path d="M18.55,27.97c.16,1.01.34,1.38,0,2.52.21.09,1.23.6,1.32.6.04,0,.09,0,.12,0,.07-.02,1.03-.79,1.08-.84.66-.62.75-.53.48-1.56-.01-.05-.39-.7-.48-.84-1.08.68-1.4.58-2.52.12Z" style="fill: #386631; stroke-width: 0px;"/>
        <path d="M14.59,35.9c.17.21.89,1.5.96,1.56.44.35.76.25,1.32.24l.36-3c-.1.02-.16-.18-.3-.12-.13.06-.75,1.87-2.34,1.32Z" style="fill: #4f823c; stroke-width: 0px;"/>
        <g>
          <path d="M15.79,46.46c.55,1.12.47,2.49,0,3.6.03.04.05.53.3.48,1.06-.82,1.43-1.96,1.98-3.12-.09-.39-.06-.99-.24-1.44-.49.58-1.34.5-2.04.48Z" style="fill: #95b33d; stroke-width: 0px;"/>
          <path d="M13.39,46.22c-.12.61,1.83,3.16,2.4,3.84.47-1.11.55-2.49,0-3.6-.1,0-.11-.2-.6,0-1.07,1.15-.5,0-1.8-.24Z" style="fill: #6d9f41; stroke-width: 0px;"/>
          <path d="M16.15,45.14c-.25.26-.59.93-.96,1.32.49-.2.5,0,.6,0,.7.02,1.55.1,2.04-.48v-.12c-.78-.46-.83-1.62-1.68-.72Z" style="fill: #95b33d; stroke-width: 0px;"/>
        </g>
        <g>
          <path d="M7.62,26.41c.77,1.05,1.19,2.8-.54,1.08-.48.13.13,2.84-1.5-.12-3.37-2.8-3.35.02-1.68,2.58-1.05-.77-1.7-.4-1.8-.42-.44,1.43.4,2.84,1.68,3.54-3.21-.23-2.16,2.44.12,3.12.17,1.86-1.75.64-2.64,2.4-.06,2.68,2.89,1.74,2.88,2.04-1.73,1.25-2.02,2.86.36,3.48-.13.15-.52.16-.54.18-1.73,1.57,1.52,4.02-1.56,2.16-2.51.99,1.34,4.31-1.44,2.4-1.29-.16-1.54,1.56.9,3.48.03.02.21-.05.36.06.09.07.29,1.42,1.86.66.62-.3,1.72-2,2.4-1.44,2.22-2.5,5.39.53,7.74,1.56.56.25,4.32,1.77,4.56,1.8.92.12,3.26-.48,4.32-.72-.38-1.27-.31-2.24-.36-2.34-.1-.18-2.84.62-2.64-2.22-2.17,1.11-.83-2.4-1.74-1.32-.19,0-.26-.76-.3-.96-.55,1.16-.92,2.3-1.98,3.12-.25.05-.27-.44-.3-.48-.57-.68-2.52-3.23-2.4-3.84-1.47-.28-2.83.45-3.72,1.56.14.45.39,2.85-.36,2.28l-1.56-.06c1.63-3.46-.75-3.02-.9-6.06,6.22,3.15,6.42-1.26,7.08-1.2.16.02,1.69,2.27,2.22,2.4.85-.89.9.26,1.68.72,1.57.93,2.21-.26,2.34-.24.21.03.39,2.13,1.62,2.52.03-.02.41.06.48-.18.06-.21-1.19-3.55,1.98-1.02.74-.64,2.01-2.15,1.5-3.12.02-.64-1.82-.28-1.92-.54-.08-1.94.67-2.45.72-2.58.19-.55.49-.98.6-1.56.39-2.09-.58-1.67-1.8-.6-.31.27-1.74,2.41-2.7,2.52-.53.06-3.86-2.28-4.56-2.4-1.85-.33-3.86,1.3-4.08,1.32-.69.06-.83-1.34-1.56-1.32-1.79,5.4-2.27-.06-2.82-.54-.14-.12-2.77-.61-3.36-1.56-.02-.03.43-.33-.24-.6-.23-2.75,4.69-4.07,6.54-3.06.69.38,1.23,1.82,2.46,1.92.72.06.09-.8,1.56,1.08,1.59.55,2.21-1.26,2.34-1.32.14-.06.2.14.3.12.18-.04.42.04.6,0,1.11-.21.55-.54.84-1.14.4-.82.79-1.64,1.2-2.46-.09,0-1.11-.51-1.32-.6-.16-.07.06.42-.54,0-1.4-.99-.81-2.1-.9-2.46-.21-.85-1.48-.02-1.26-2.58-1.46.39-7.54.37-7.92.48-.08.03-.13.46-.3.48Z" style="fill: #6d9f41; stroke-width: 0px;"/>
          <path d="M6,46.94c-1.19,2.14-2.78.96-.12,2.04.56-.55.59-1.44.12-2.04Z" style="fill: #95b33d; stroke-width: 0px;"/>
          <path d="M9.31,50.07c.75.57.5-1.84.36-2.28-.01.02-.29-.02-.36.18-.09.28.07,1.53,0,2.1Z" style="fill: #95b33d; stroke-width: 0px;"/>
        </g>
        <path d="M39.92,19.21c-.85,1.3-5.06,5.28-6.6,6.36.04,2.54.22,5.08.12,7.62.06.38,1-.41,1.08-.54.21-.34.26-.75.24-1.14l.24.18c0-.05.42-.34.24-1.02-.12-.47-.84-.57-.84-.72,0-.06.46-.24.84-.78,1.07-1.55,2.49-4.37,3.48-5.58,1.21-1.47,3.18-2.67,3.72-3.36.29-.37.88-1.77,1.02-1.86.21-.13,3-.2,3.24-.12.5.17.3,1.52,1.14.96,0-.04,0-.08,0-.12.09-.87-.23-1.99-.66-2.04-.18-.02-2.59,1.6-2.46-.84l-.6-.48c-.05.74-2.23,3.4-2.16-.48-.75,1.04-1.46,3.07-2.04,3.96Z" style="fill: #6d9f41; stroke-width: 0px;"/>
        <path d="M40.16,41.18c-.23.22-.65.5-.84.72.81.9-.39,1.51-.48,1.86-.14.54.14,1.26.12,1.32-.02.07-.84.64-.96,1.2-.15.72.2,1.66.12,2.1.43.31,1.58,1.29,1.56,1.68.22-.18.38-.05.6,0,.47.11.79.22,1.32.12.61-.11,1.98-1.21,2.16-.42-.36,3.63-.64-.09-1.92,1.26.69.31.4,1.59,1.92,1.32.1-.02,1.66-.9,1.74-.96.67-.52,1.37-1.52,1.86-2.22-.09-.13-1.66-.03-2.4-1.74-1.57,1.27-.87.48-2.64-2.22,2.04-.99-.71-3.03-.84-4.02h-1.32Z" style="fill: #2b431e; stroke-width: 0px;"/>
        <path d="M37.88,12.73c-1.2.62-2.22,1.53-3.48,2.04-.16.18-1.06,1.07-1.08,1.14-.14.46-.02,8.4,0,9.67,1.54-1.08,5.76-5.06,6.6-6.36-.41-.17-2.22-1.14-2.46-1.08-.16.04-1.79,2.26-2.16,2.52-.12.03-1.91-1.48-1.44-1.92,2.99-.55,5.09-3.15,5.22-6.18-.3-.68-.36-.26-1.2.18Z" style="fill: #6d9f41; stroke-width: 0px;"/>
        <path d="M29.96,27.49c-2.49,1.69-4.66,3.4-7.8,3.36.03.03-.01.31.48.72.02.02.1-.02.12,0,.36.29.82.75,1.2.96,1.37-.46,3.9-2.53,4.14-2.52.28.01,4.11,2.53,4.74,2.82.06.6,0,.92-.36,1.38h.12c.04-.25.34-.23.36-.3.15-.59,0-10.44,0-12.19-2.55,3.98-.78,3.91-.96,4.5-.04.11-1.36.8-2.04,1.26Z" style="fill: #6d9f41; stroke-width: 0px;"/>
        <path d="M37.4,32.78c.14,1.07.71,1.71.72,1.8,0,.04,0,.08,0,.12,1.36-.15,1.24.6.36,2.64.42.54.42,2.21.6,3.24.05-.05.32-.08,1.08-.84-.94-3.06,1.06-.48,2.04-3.36.13-.38.38-.2,0-1.56-.74-2.65-2-1.59-2.16-1.56-.99.16-1.57-.15-2.4-.72-.07.01-.21.19-.24.24Z" style="fill: #2b431e; stroke-width: 0px;"/>
        <path d="M31.4,67.59c.41.54.96,1.08,1.44,1.56.34.34.64.76.96,1.08.04.04.36-.01.84.72,0-.03.27-.3.24-.54-.22-1.82-.86-4.27-2.16-5.64-.95-1.01-.49.36-.96,2.88l-.36-.06Z" style="fill: #47241b; stroke-width: 0px;"/>
        <path d="M36.56,36.62c-.37.55-.53,2.2-1.44.24-.24.27-.53.84-.84.84,0,.18-.5,1.71-.18,3.6.66-1.45,3.68-5.5,3.9-6.36l-.6-.3c.08,1.45-.78,1.89-.84,1.98Z" style="fill: #f0eade; stroke-width: 0px;"/>
        <path d="M25.63,37.58c.3.77.46,1.53.54,1.56.17.05,1.59-.42,3.06,1.2-.39-.89,0-.88-.96-1.56-.3-.21-1.94-.7-2.88-1.8.07.22.16.39.24.6Z" style="fill: #f0eade; stroke-width: 0px;"/>
        <path d="M40.16,39.74c.85-.86,1.72-1.75,2.4-2.76-.02-.04.11-.39-.36-.6-.98,2.89-2.98.3-2.04,3.36Z" style="fill: #f0eade; stroke-width: 0px;"/>
        <path d="M30.92,39.38c1.14.52.86,1.62.96-.96l-1.5-.96c.19.67.68,1.15.54,1.92Z" style="fill: #f0eade; stroke-width: 0px;"/>
        <path d="M34.52,32.66c.33.58,0,1.13-.12,1.68,1.64-.51.68-1.82.6-2.64l-.24-.18c.02.39-.03.8-.24,1.14Z" style="fill: #fafae6; stroke-width: 0px;"/>
        <path d="M40.16,41.18h1.32c-.2-1.59,1.34-.75,1.2-1.92-.17.17-1.43.9-2.52,1.92Z" style="fill: #fafae6; stroke-width: 0px;"/>
        <path d="M21.55,28.69c.27,1.03.18.94-.48,1.56.31.05.86.4,1.08.6,3.15.04,5.31-1.67,7.8-3.36-.55-.4-2.33-3.64-2.82-3.6l-5.58,4.8Z" style="fill: #6d9f41; stroke-width: 0px;"/>
        <path d="M18.55,27.97c1.12.46,1.44.56,2.52-.12-.16-.27-3-3.51-3.18-3.36-.3.24.52,2.56.66,3.48Z" style="fill: #6d9f41; stroke-width: 0px;"/>
        <g>
          <path d="M23.47,6.6c0,1.6,2.12,3.12-.54,1.08-.48-.15-.8.29-.9.72-.2.91.28,2.48,1.08,3.06-1.03-.1-1.39-.3-1.5.9-.65-.38-.91-1.04-1.38-1.56-.23,1.7-.98.7-1.5,1.08-.23.17-.17,1.27-.54.96-.24-.21-.33-1.16-1.98-.36-1.42,3.36,1.58,4.51-1.8,2.52-.52,1.23-.63,1.05-1.62,2.04-.01.01.28.04-.06.36-.85.78-2.06,1.31-2.94,2.22-.48.5-.22,1.58-1.56.66-.56,1.27.84,1.94-1.56,1.86v3.54c.84.23.71.39.96.72.17-.02.22-.45.3-.48.38-.11,6.47-.09,7.92-.48-.22,2.56,1.06,1.73,1.26,2.58.09.36-.5,1.48.9,2.46.6.42.38-.07.54,0,.34-1.14.16-1.51,0-2.52-.14-.92-.96-3.24-.66-3.48.18-.15,3.02,3.09,3.18,3.36.09.15.47.79.48.84l5.58-4.8c.49-.04,2.27,3.2,2.82,3.6.68-.46,2.01-1.15,2.04-1.26.18-.59-1.59-.52.96-4.5,0-2.76.2-5.52.12-8.28-.08-2.87-.49-5.72-.6-8.58l.78,4.98c1.15-1.76,1.61-3.84,2.22-5.82.83-.75-.57,3.6-.72,3.96-.9,2.1-2.04,1.9-1.32,5.1.13-.19.41-.99.72-.42-.97.87-.88,1.28-.84,2.52.03.06.96-.37,1.08-.42,1.26-1.34,1.96-1.41,3.36-2.28,1-.62,3.33-2.46,2.76-1.62-3.42,2.01.79,1.65,2.22.78,1.71-1.04.78-1.32.9-1.86.03-.12.58-.51.72-.66.27-.99.79-1.82.6-2.88-.77-1.94-1.26-.22-1.62-.12-.32.09-1.12-.09-1.44,0-1.56.42-.73,1.22-2.64-.12-.96.11-.17,2.85-1.32,2.88-.29-.15,1.58-3.47-.24-3.6-2.33,1.87.45-.37-1.44-2.4h-.48c-1.9,2.38.28-.95-2.52-2.88-.48.35-1.62,2.93-1.74,3.06-.27.28-1.27-.38-.66,1.86-1.09-1.51-2.35-1.6-2.46.54-.02.44.6.06-.66,1.98-1.05-.73-4.27-3.94-4.26-.84Z" style="fill: #95b33d; stroke-width: 0px;"/>
          <path d="M33.08,13.45c.13-.15.28-.25.36-.36-.72-3.21.42-3,1.32-5.1.15-.36,1.55-4.72.72-3.96-.61,1.98-1.07,4.06-2.22,5.82l-.78-4.98c.12,2.87.52,5.71.6,8.58Z" style="fill: #6d9f41; stroke-width: 0px;"/>
          <path d="M26.05,13.09c-2.95,4.26-1.94,8.17-.6,3.36,1.95,2.71,1.78-1.62.6-3.36Z" style="fill: #95b33d; stroke-width: 0px;"/>
          <path d="M34.4,14.77c1.26-.51,2.28-1.42,3.48-2.04l-.12-.24c-1.4.87-2.1.94-3.36,2.28Z" style="fill: #361815; stroke-width: 0px;"/>
        </g>
        <g>
          <path d="M61.89,47.54c-.76,1.34-.78.49-.84.36-.69.61-1.17,1.06-1.32-.12-.2.48-1.18,1.85-1.62,2.16-.37.26-1.01.48-1.5.48-.38,0-1.17-.21-1.56-.36-.41.38-2.11,1.08-3.06,2.28-.83-.87-1.81-1.92-3.06-1.68-2.61.49-2.61,5.45-5.16,1.68-1.52.27-1.23-1.01-1.92-1.32-.09-.04-.15-.11-.24-.12-.93-.13-1.12.76-1.8,1.08,0,.03-.34.21-.36.42-.07.59.31.81.24,1.08-.03.1-.65.6-1.32,1.62-.04.06.08.12-.72,1.2.24.77-.28,1.98-.24,2.58,0,.07.44,1.32.48,1.38.06.1,1.09.86,1.44,1.68.3.71.06,2.08,1.62,3,1.25.06,1.57-.67,1.74-1.8-1.65-1.4,2.72.86,4.56-.96.05-.33-.11-.71.12-.72-.3-.24-.57-.63-.18-.96,2.65,1.06,2.52.39,3.9.12.68-.13-.06.69,1.26,1.56,1.4.17,1-1.33,1.32-1.44.05-.02.48.27.96.12.32-.1.56-.59.6-.6.17-.03,1.92,2.41,1.92-.72,1.4.8,1.44-.37,2.46-1.26-.19-3.48-1.45-1.8,1.74-1.14,1.15-.55.4-1.51.48-1.56,1.66.63,4.15-.97,1.74-2.1,2.47.3,5.74-5.69,1.08-3.06-.79.45-.63.49-.12-.12,1.69-2.02.66-3.88-.78-2.16.11-1.31-1.13-1.07-1.86-.6Z" style="fill: #2b431e; stroke-width: 0px;"/>
          <path d="M64.65,50.43l-.12-.12c-.51.61-.67.57.12.12Z" style="fill: #7c9d69; stroke-width: 0px;"/>
          <path d="M63.27,49.35c-.5-.02-1.14.35-1.2.36-.99.1-.86-.89-2.22,1.86,1.53-.02,3.61-.29,3.42-2.22Z" style="fill: #2b431e; stroke-width: 0px;"/>
        </g>
        <path d="M56.37,49.71c.08.24.31.43.24.72.49,0,1.13-.22,1.5-.48.44-.31,1.42-1.68,1.62-2.16.05-.11.1-.35.12-.48-.76-.39-.56,1.49-3.48,2.4Z" style="fill: #2b431e; stroke-width: 0px;"/>
        <path d="M41.6,50.19v.72c.09.01.15.08.24.12,1.28-1.35,1.56,2.37,1.92-1.26-.18-.79-1.55.31-2.16.42Z" style="fill: #f0eade; stroke-width: 0px;"/>
        <path d="M40.28,50.07c.11.88-.27,1.35-.48,1.92.69-.32.87-1.21,1.8-1.08v-.72c-.53.1-.85,0-1.32-.12Z" style="fill: #2b431e; stroke-width: 0px;"/>
        <path d="M59.85,47.3c-.02.13-.07.37-.12.48.15,1.18.63.73,1.32.12-.37-.73-.03-1.33-1.2-.6Z" style="fill: #386631; stroke-width: 0px;"/>
        <path d="M47.85,19.09s0,.08,0,.12c-.12.61-1.47,1.82-2.1,2.28-1.01.74-3.85,1.9-4.38,2.7-.55,3.09-3.13,4.8-4.92,7.14.21.31.9.99,1.2,1.2.83.57,1.41.88,2.4.72-.48-2.55,1.08-.71,1.56-1.5.21-.35.13-5.47.96-8.04,1.3,2.08.7.84,1.98.42,1.17-.39,7.27-1.02,6.06-4.8-.01,0-.08-.23-.18-.24-.7-.1-1.8.07-2.58,0Z" style="fill: #4f823c; stroke-width: 0px;"/>
        <path d="M44.72,16.21c-.13,2.44,2.28.82,2.46.84.43.05.75,1.17.66,2.04.78.07,1.88-.1,2.58,0,.1.01.17.24.18.24.41.09.77.17,1.2.12-.05-.45.13-.63-.18-1.08-.35-.51-3.79-1.69-4.2-2.04-.78-.65-.98-2.73-1.74-1.98-.1.64-.93,1.33-.96,1.86Z" style="fill: #386631; stroke-width: 0px;"/>
        <path d="M47.73,30.26c.05.11-.01,1.17.72,2.28.23.35.6.55.84.84-.11-.44.82-.1,1.2-.42.48-.41-.19-1.34.72-1.98-.84-.47-1.5-.96-1.8-1.92-.49.48-1.13.79-1.68,1.2Z" style="fill: #325528; stroke-width: 0px;"/>
        <g>
          <path d="M51.69,36.98c-.03.26-.12.28-.24.48.92.98,1.34,2.27,2.94,2.04.59-.08,2.86-1.74,2.7-2.52-2.97,1.4-3.08.31-3.36.24-.37-.1-.83-.32-1.2-.36-.28-.03-.59-.04-.84.12Z" style="fill: #325528; stroke-width: 0px;"/>
          <path d="M54.09,36.98s-.06.29-.36.24c.28.07.39,1.16,3.36-.24.02,0,.16-.3.3-.36.09-.04.79.63,1.02-1.02.49-3.41-2.1-.11-4.32,1.38Z" style="fill: #386631; stroke-width: 0px;"/>
        </g>
        <g>
          <path d="M49.05,43.34c-.14.25-3.86,3.9-4.08,4.08.74,1.71,2.31,1.61,2.4,1.74-.49.7-1.19,1.71-1.86,2.22-.08.06-1.64.94-1.74.96,2.56,3.77,2.56-1.19,5.16-1.68,1.92-2.52-.36-3.08-.36-3.3,0-.5,5.31-3.8.48-4.02Z" style="fill: #386631; stroke-width: 0px;"/>
          <g>
            <path d="M43.64,34.58l-1.44.24c.38,1.36.13,1.18,0,1.56.47.21.34.56.36.6.62,1.1,1.26,1.15.12,2.28.14,1.18-1.4.33-1.2,1.92.13.99,2.88,3.03.84,4.02,1.78,2.7,1.07,3.49,2.64,2.22.22-.18,3.94-3.83,4.08-4.08.59-1.09.29-3.06.48-3.78.12-.45.62-.52.72-.66.82-1.18,1.15-1.36,1.2-1.44.12-.2.21-.22.24-.48.01-.11-.4-1.92-.48-1.98-.11-.09-1.02-.07-1.26-.42-.1-.14-.1-.81-.18-.9-.05-.06-.39-.19-.48-.3-.24-.29-.61-.49-.84-.84-.59,1.82-1.67-1.59-1.56-2.4l-.84-.72c-.21,2.38-.58,4.76-.12,7.14-.14.21-2.02-1.03-2.28-1.98Z" style="fill: #4f823c; stroke-width: 0px;"/>
            <path d="M43.64,34.58c.27.95,2.14,2.19,2.28,1.98-.46-2.38-.09-4.76.12-7.14.02-.25.24-.52.06-.6-1.59,1-2.96,3.99-2.46,5.76Z" style="fill: #6d9f41; stroke-width: 0px;"/>
            <path d="M46.89,30.14c-.11.81.97,4.22,1.56,2.4-.73-1.11-.67-2.17-.72-2.28,0-.02-.2.07-.36-.18-.03-.05-.3-1.29-.48.06Z" style="fill: #5b903f; stroke-width: 0px;"/>
          </g>
        </g>
        <g>
          <path d="M50.61,19.33c1.2,3.78-4.89,4.42-6.06,4.8-1.28.42-.68,1.66-1.98-.42-.83,2.58-.75,7.7-.96,8.04-.48.79-2.04-1.05-1.56,1.5.16-.03,1.42-1.09,2.16,1.56l1.44-.24c-.5-1.77.87-4.76,2.46-5.76.18.08-.04.35-.06.6l.84.72c.18-1.35.45-.11.48-.06.16.25.35.16.36.18.55-.41,1.19-.72,1.68-1.2.3-.3.89-1.77,1.2-1.26-.53,1.36.08,2.43,1.44,2.88-.28.46-.76.25-.84.3-.91.64-.24,1.57-.72,1.98-.38.32-1.31-.02-1.2.42.09.11.43.24.48.3.08.09.08.76.18.9.24.35,1.15.33,1.26.42.08.06.49,1.87.48,1.98.25-.16.56-.15.84-.12.64-2,.96-1.62,1.56.12,2.22-1.5,4.81-4.79,4.32-1.38-.24,1.65-.93.98-1.02,1.02-.14.06-.28.35-.3.36.16.78-2.11,2.44-2.7,2.52-1.6.23-2.02-1.06-2.94-2.04-.05.08-.38.26-1.2,1.44.49,1.7,1.02,3.9,2.94,4.56,2.3.8,4.49-2.39,7.08-3.84.45-.25,3.06-1.34,3.42-1.32.91-.63,2.02-1.61,1.56-2.82-1-1.23-3.16.67-3.36.36-.46-.7,2.42-.43,2.04-2.88-.51-1.2-3.22-.51-1.26-1.14,1.81-1.66.9-2.49.9-2.64-.56-.24-.58-.01-.96.12-.81.29-1.6.99-2.46.84-.26-.04-2.27-1.96-2.34-2.1-.22-.43.14-1.24-.24-1.14-1.61.46.91-.55,1.08-2.34.14-1.48-.62-1.05-.96-1.38-1.3,1.95-3.35.56-1.8,1.98-.21,1.13-1.03-.27-1.14-.3-.49-.12-1.84,1.08-2.04-.36-.43-.24-2.89,2.33-3.3,2.82-.3.36-.08,1.36-1.74,1.86-.7-.29.64-3.47.54-4.02l4.32-3.06c-1.1-1.39-.64-1.92-.72-2.64-.43.05-.79-.03-1.2-.12Z" style="fill: #325528; stroke-width: 0px;"/>
          <path d="M49.41,29.06c.3.96.96,1.45,1.8,1.92.08-.05.56.16.84-.3-1.36-.45-1.97-1.53-1.44-2.88-.31-.51-.9.96-1.2,1.26Z" style="fill: #4f823c; stroke-width: 0px;"/>
          <path d="M52.53,36.86c.37.04.84.26,1.2.36.3.05.34-.23.36-.24-.6-1.74-.92-2.12-1.56-.12Z" style="fill: #4f823c; stroke-width: 0px;"/>
          <path d="M60.03,33.02c-2.36,1.5-1.3,1.27.66.78l-.66-.78Z" style="fill: #325528; stroke-width: 0px;"/>
        </g>
        <g>
          <path d="M63.69,38.3c-.36-.02-2.97,1.07-3.42,1.32-2.59,1.45-4.78,4.64-7.08,3.84-1.93-.67-2.45-2.86-2.94-4.56-.1.14-.6.21-.72.66-.19.72.11,2.7-.48,3.78,4.83.22-.48,3.52-.48,4.02,0,.22,2.28.78.36,3.3,1.26-.24,2.24.81,3.06,1.68.96-1.2,2.65-1.9,3.06-2.28,1.28-1.19.66-2.33,1.32-.36,2.92-.91,2.72-2.79,3.48-2.4,1.18-.73.83-.13,1.2.6.06.13.08.98.84-.36,1.16-2.05.42-3.14.48-3.3.08-.22,3.37-.61.36-3.36,3.91.29,2.85-2.47.96-2.58Z" style="fill: #2b431e; stroke-width: 0px;"/>
          <path d="M55.05,50.07c.39.15,1.18.36,1.56.36.07-.29-.16-.48-.24-.72-.66-1.97-.04-.83-1.32.36Z" style="fill: #4f823c; stroke-width: 0px;"/>
          <path d="M61.23,43.7c-.4-.01.34.67-.42,1.62.26.79,2.9-.94.42-1.62Z" style="fill: #386631; stroke-width: 0px;"/>
        </g>
        <path d="M41.96,15.25c-.07,3.88,2.11,1.22,2.16.48.03-.47-.27-.93-.48-1.32-.12-.23-.97-1.2-1.26-1.68-.06.71-.41,2.08-.42,2.52Z" style="fill: #95b33d; stroke-width: 0px;"/>
        <path d="M32.24,73.96l.3-.12c1.35,1.42.56,2.82.66,4.62.09,1.51.74,6.35.72,6.72-.01.21-.15.33-.36.3.43.47.81.54.72.96.19.03.91.13.96.12-.2-5.47-1.13-10.9-1.44-16.33-.32-.32-.62-.74-.96-1.08-.2,1.6-.44,3.2-.6,4.8Z" style="fill: #754134; stroke-width: 0px;"/>
        <path d="M32.24,73.96c-.35,3.51-.46,7.09-1.68,10.45,2.36,1.74,1.48-.95,1.86-.96.32,1.36.7,1.56,1.14,2.04.21.03.35-.09.36-.3.02-.37-.63-5.21-.72-6.72-.1-1.81.69-3.2-.66-4.62l-.3.12Z" style="fill: #754134; stroke-width: 0px;"/>
        <path d="M30.56,84.4c-4.02,3.66.47.92,1.62,1.08.12.02.65.76,2.1.96.09-.42-.29-.49-.72-.96-.44-.49-.82-.68-1.14-2.04-.38,0,.5,2.7-1.86.96Z" style="fill: #47241b; stroke-width: 0px;"/>
        <g>
          <path d="M27.56,74.8c.29,1.36-.73.41-1.32.12-.28,0-.57,0-.84,0-.46,0-1.72.04-1.92,0-.74.5-.12.46-.84,1.08-.39.34-1.02.52-1.44.9,1.07,1.3,7.46,1.27,8.1,1.02.44-.17,1.13-2.6,1.26-3.12-1.02-.24-1.99-.05-3,0Z" style="fill: #361815; stroke-width: 0px;"/>
          <path d="M33.8,70.24c.31,5.43,1.24,10.86,1.44,16.33.45-.1.79-1.57,1.14-1.8.3-.2,1.71-.29,2.22-.36.06-.5-2.15-3.21-1.62-3.6.35-.26,2.49,2.96,2.58,3.36.7-.06,2.9.05,3.84.06-.44,1.45-3.68,1.96-3,2.94,1.14-.42,3.33-1.31,3.72-2.58.31-1,.19-5.13-.24-6.12-1.19-2.73-5.13-2.56-7.56-2.46.22.69,1.52,3.06,2.04,3.48.41.33,1.65.65,2.16,1.26-.06.21-2.35.22-2.46.18-.21-.07-.16-.35-.18-.36-2.09-1.83-2.88-7-3.24-9.6-.48-.73-.8-.68-.84-.72Z" style="fill: #47241b; stroke-width: 0px;"/>
          <path d="M37.88,80.56s-.03.29.18.36c.12.04,2.4.03,2.46-.18-.51-.61-1.75-.93-2.16-1.26l-.48,1.08Z" style="fill: #251411; stroke-width: 0px;"/>
          <path d="M26.23,74.92c.59.29,1.61,1.24,1.32-.12-.43.02-.91.11-1.32.12Z" style="fill: #255029; stroke-width: 0px;"/>
          <g>
            <path d="M22.87,70c-1.67-.89-1.03-.22-1.2,0-.21,1.84,1.52,1.68.84,2.28.23-.02.28-.12.6,0-.06-.4.12-.71.42-.96,1.34.11.97.79,1.02.84.15.15.28.17.36.24.13-.98,1.61-.55,1.44-2.34-1.47.12-2.14,2.32-1.2-1.02-.51.05-.84-.32-1.2-.6.46.94-.32,1.48-.36,2.46-.13.51-.71-.81-.72-.9Z" style="fill: #2b431e; stroke-width: 0px;"/>
            <path d="M22.87,70c0,.09.59,1.41.72.9.04-.98.82-1.52.36-2.46-.62-1.27-1.11,1.24-1.08,1.56Z" style="fill: #4f823c; stroke-width: 0px;"/>
            <path d="M23.11,72.28c-.32-.12-.37-.02-.6,0-.52.04-.55-.46-.66.84-.5-.01-1-.2-1.32-.6-.12,1.16,1.25,1.41,2.1,1.8-.27-1.47,1.5-.12,2.52.12.82-.99,2.04-.52,2.04-1.38-.85-.49-.42-.93-1.26-.78-.61.11-.24.82-1.02.12-.08-.07-.21-.09-.36-.24-.86-.59-1.23,1.66-1.44.12Z" style="fill: #303919; stroke-width: 0px;"/>
            <path d="M22.63,74.32c.36.17.08.46.84.6.2.04,1.46,0,1.92,0,.88-.69.3-.35-.24-.48-1.02-.24-2.79-1.59-2.52-.12Z" style="fill: #3d3816; stroke-width: 0px;"/>
            <path d="M23.11,72.28c.21,1.54.58-.71,1.44-.12-.05-.05.32-.73-1.02-.84-.3.25-.48.56-.42.96Z" style="fill: #6d9f41; stroke-width: 0px;"/>
          </g>
          <path d="M38.6,84.4c.29-.04.91-.24.96-.24-.09-.4-2.23-3.62-2.58-3.36-.53.39,1.68,3.1,1.62,3.6Z" style="fill: #361815; stroke-width: 0px;"/>
          <g>
            <path d="M30.56,74.8c-.13.52-.82,2.96-1.26,3.12-.64.24-7.03.27-8.1-1.02.42-.38,1.05-.56,1.44-.9-4.41,1.64-3.75,6.18-.42,8.76,4.28,3.33,11.35,4.17,16.51,3-.96-2.13.98-1.54.36-.24.16-.04.37-.01,1.32-.36-.68-.98,2.56-1.49,3-2.94-.94,0-3.14-.12-3.84-.06-.05,0-.67.2-.96.24-.51.07-1.92.16-2.22.36-.35.23-.69,1.7-1.14,1.8-.05.01-.77-.09-.96-.12-1.45-.2-1.98-.94-2.1-.96-1.15-.16-5.64,2.58-1.62-1.08,1.22-3.36,1.33-6.94,1.68-10.45.16-1.6.4-3.21.6-4.8-.48-.48-1.03-1.02-1.44-1.56-.14-.19-.23-.23-.24-.24-.35,2.28.12,5.14-.36,7.38-.02.1-.24.05-.24.06Z" style="fill: #754134; stroke-width: 0px;"/>
            <path d="M38.72,87.77c.26-.06.34-.23.36-.24.62-1.3-1.32-1.89-.36.24Z" style="fill: #361815; stroke-width: 0px;"/>
            <path d="M25.39,83.92c1.34,1.14,2.73-1.05,3.96-1.56.09-.18.65-.99.3-.96-.34.45-3.3,2.52-3.3,1.74,1.25-1.84-.69-.31-.96.78Z" style="fill: #754134; stroke-width: 0px;"/>
            <path d="M25.39,83.92c-.38,1.52,2.02,2.17,3.96-1.56-1.23.51-2.62,2.7-3.96,1.56Z" style="fill: #592b1b; stroke-width: 0px;"/>
            <path d="M27.86,80.08c-1.86-.22-2.97.37-.48.72l.48-.72Z" style="fill: #47241b; stroke-width: 0px;"/>
          </g>
        </g>
        <g>
          <path d="M17.83,34.7c-.14,2.88.56,2.99-.96,3-.56,0-.88.11-1.32-.24-2.45,2.19-2.24-.8-2.52-2.64-1.23-.1-1.77-1.55-2.46-1.92-1.85-1.01-6.77.31-6.54,3.06.67.27.22.57.24.6.59.95,3.22,1.44,3.36,1.56.55.48,1.03,5.94,2.82.54.73-.01.87,1.38,1.56,1.32.22-.02,2.23-1.65,4.08-1.32.7.13,4.03,2.46,4.56,2.4.96-.11,2.39-2.25,2.7-2.52.64-2.31.36-4.8-.6-6.96-.02-.02-.1.02-.12,0-.78,2.54-2.3,1.94-2.64-.48-.03,0-.08,0-.12,0-.41.82-.8,1.64-1.2,2.46-.29.6.27.93-.84,1.14Z" style="fill: #95b33d; stroke-width: 0px;"/>
          <path d="M13.03,34.82c.28,1.84.07,4.83,2.52,2.64-.07-.06-.79-1.35-.96-1.56-1.47-1.88-.84-1.02-1.56-1.08Z" style="fill: #95b33d; stroke-width: 0px;"/>
          <g>
            <path d="M17.23,34.7l-.36,3c1.52-.02.82-.13.96-3-.18.04-.42-.04-.6,0Z" style="fill: #95b33d; stroke-width: 0px;"/>
            <path d="M21.07,30.26s-1.01.82-1.08.84c.34,2.42,1.86,3.02,2.64.48-.49-.41-.45-.69-.48-.72-.22-.2-.77-.55-1.08-.6Z" style="fill: #95b33d; stroke-width: 0px;"/>
          </g>
        </g>
        <g>
          <path d="M23.59,55.35c.05.2.07.52.12.72.47,1.94,2.17,8.23-1.8,5.88.23,3.01,2.62,1.14,2.82,1.2.07.02.41,1.02.66,1.26.54.54,1.41.46,1.74,1.26.38.13,1.44-1.78,1.62-2.16.16-.33.81-1.85.84-2.04.03-.18-.05-1.99-.12-2.22-.33-1.06-1.64-1.45-1.68-1.56-.02-.05.34-.54,0-1.08-.15-.24-3.2-1.16-3.36-1.74-.22.21-.52.45-.84.48Z" style="fill: #2b431e; stroke-width: 0px;"/>
          <g>
            <path d="M25.15,39.14c-.11.58-.41,1.01-.6,1.56,2.44-1.01,3.46,2.18,1.2,3.12.5.97-.76,2.49-1.5,3.12-3.18-2.53-1.92.81-1.98,1.02-.07.24-.45.16-.48.18-.83.6-2.25,1.52-1.68,1.56-.19,2.84,2.55,2.04,2.64,2.22.05.1-.02,1.07.36,2.34.09.29.4.79.48,1.08.32-.03.62-.27.84-.48.2-.19.07-.55.3-.6.04,0,.3.34.72.36,1.62.09.98-.71,1.02-.78.17-.31.29-.03.36-.06.76-.32,1.71-.38,1.92-.48,1.94-.97.53-2.66.48-2.82-.03-.11.26-.56-.12-1.2-.1-.17-1.36-1.4-2.1-1.62-.03,0-.45.25-.48.24-.08-.02-.23-.88-1.5-.54.53-.51,1.01-1.61,1.08-1.68.36-.36.39-.01.48-.06.43-.22.82-.47,1.32-.48-.03-.15.16-.76.18-1.2,1.55,1.75,1.12.71,2.1-.84-.31-.93-.57-1.86-.96-2.76-1.47-1.62-2.9-1.15-3.06-1.2-.08-.03-.24-.79-.54-1.56-.28.37,0,1.52-.48,1.56Z" style="fill: #2b431e; stroke-width: 0px;"/>
            <path d="M24.73,49.11c-2.64-.48-.95,3.5.18.3l-.18-.3Z" style="fill: #2b431e; stroke-width: 0px;"/>
          </g>
        </g>
        <path d="M23.95,32.54c.45.25,1.26.31,1.2.6.43-.12,1.02-.06,1.5-.12.08-.01.01.26.18.24,1.09-.15,1.99-.74,2.1-.72.17.03.35.53.42.6.37.36.69.74,1.08,1.08.31.27.63.53.9.84.34-.38,1.05-.73,1.14-.84.37-.46.42-.78.36-1.38-.63-.29-4.47-2.81-4.74-2.82-.24-.01-2.77,2.06-4.14,2.52Z" style="fill: #6d9f41; stroke-width: 0px;"/>
        <path d="M25.15,33.14s-.36.42-.6.3c.6.1.16.18.36.66,1.66-1.42,1.64.26.6,1.8.24-.18.69-.45.72-.48.31-.33.69-1,.72-1.44,0-.04-.19-.24-.12-.72-.17.02-.1-.25-.18-.24-.48.06-1.07,0-1.5.12Z" style="fill: #fafae6; stroke-width: 0px;"/>
        <path d="M24.91,34.1c.08.18.45.64.48.78.12.63-.12,1.08-.12,1.14.28.04.23-.11.24-.12,1.04-1.54,1.06-3.23-.6-1.8Z" style="fill: #6d9f41; stroke-width: 0px;"/>
        <path d="M35.24,29.18c.58-.04.46,1.04,1.2,2.16,1.79-2.34,4.38-4.05,4.92-7.14.53-.8,3.37-1.96,4.38-2.7.63-.46,1.98-1.67,2.1-2.28-.84.56-.64-.79-1.14-.96-.24-.08-3.03-.01-3.24.12-.14.09-.73,1.49-1.02,1.86-.55.69-2.51,1.89-3.72,3.36-.99,1.21-2.41,4.03-3.48,5.58Z" style="fill: #4f823c; stroke-width: 0px;"/>
        <path d="M26.95,33.98c-.03.44-.41,1.11-.72,1.44.84-.06.58,1.75,2.16,1.26.03-.04-.2-.34-.12-1.02-.27-.09-.03-.77-.12-.96-.03-.06-.94-.74-1.2-.72Z" style="fill: #6d9f41; stroke-width: 0px;"/>
        <g>
          <path d="M26.83,33.26c-.07.48.12.68.12.72.26-.02,1.17.66,1.2.72l.36-.18c-.04.37-.2.78-.24,1.14-.08.68.15.98.12,1.02-1.58.49-1.32-1.32-2.16-1.26-.03.03-.48.3-.72.48-.01,0,.04.16-.24.12.01.31-.24.37-.24.42,0,.07.31.4.36.54.94,1.1,2.58,1.59,2.88,1.8.02-.19.23-.22.24-.24.04-.08-.11-.45.3-.48l.06.48c.75.36,1.4.55,2.04.84.14-.77-.35-1.25-.54-1.92l1.5.96c.02-.62-.02-1.24,0-1.86.11-.22,2.15,1.38.72-2.34h-.12c-.09.11-.8.46-1.14.84-.27-.31-.59-.57-.9-.84-1.33,2.47-2.08.46-1.08-1.08-.07-.07-.25-.58-.42-.6-.11-.02-1.01.57-2.1.72Z" style="fill: #2b431e; stroke-width: 0px;"/>
          <path d="M28.52,38.54c.13.01.31-.02.36,0l-.06-.48c-.41.03-.26.4-.3.48Z" style="fill: #e6efc3; stroke-width: 0px;"/>
          <path d="M30.44,34.22c-.39-.34-.71-.72-1.08-1.08-1,1.54-.25,3.56,1.08,1.08Z" style="fill: #325528; stroke-width: 0px;"/>
          <path d="M28.16,34.7c.09.19-.15.87.12.96.04-.36.2-.77.24-1.14l-.36.18Z" style="fill: #e6efc3; stroke-width: 0px;"/>
          <path d="M29.3,36.14l-.06.42c1.06.86.87.46.06-.42Z" style="fill: #d0d7a2; stroke-width: 0px;"/>
        </g>
        <path d="M38.12,34.58c-.01-.1-.59-.74-.72-1.8-.37.56,0,1.71.72,1.8Z" style="fill: #cde192; stroke-width: 0px;"/>
        <g>
          <path d="M35.24,29.18c-.38.54-.84.72-.84.78,0,.15.72.25.84.72.18.68-.25.97-.24,1.02.08.82,1.04,2.13-.6,2.64,0,.04-.36.73-.36.78,0,.43.33.11.24,2.58.31,0,.6-.57.84-.84.07-.08.72-1.62,1.44-.24.06-.09.92-.53.84-1.98l.6.3c.03-.12.12-.14.12-.24,0-.04,0-.08,0-.12-.72-.09-1.09-1.24-.72-1.8.03-.05.17-.23.24-.24-.3-.21-.99-.89-1.2-1.2-.74-1.12-.62-2.2-1.2-2.16Z" style="fill: #2b431e; stroke-width: 0px;"/>
          <path d="M35.12,36.86c.91,1.96,1.08.31,1.44-.24-.72-1.38-1.37.16-1.44.24Z" style="fill: #325528; stroke-width: 0px;"/>
        </g>
      </g>
    </g>
  </g>
</svg>