<?xml version="1.0" encoding="UTF-8"?>
<svg id="uuid-0b9ce3e6-f72b-4313-9ae5-50c25dd127fe" data-name="Layer 2" xmlns="http://www.w3.org/2000/svg" xmlns:xlink="http://www.w3.org/1999/xlink" viewBox="0 0 48.96 82.14">
  <defs>
    <linearGradient id="uuid-bc010ecd-3fe9-4400-8f05-80a22ee9aacb" x1="42.35" y1="38.87" x2="25.06" y2="43.73" gradientUnits="userSpaceOnUse">
      <stop offset="0" stop-color="#0c6d48"/>
      <stop offset="1" stop-color="#0b4d36"/>
    </linearGradient>
  </defs>
  <g id="uuid-e6d529cd-3c44-4af2-81d4-cb9f3717cbc9" data-name="Trees">
    <g>
      <g>
        <path d="M25.12,62.09l.05,3.9,4.16-3.18c.05.04.15-.11.15-.1.77.56.63.69.67.72-.27.29-.53.66-.82.92-.54.5-4.23,3.67-4.31,3.95-.06.22.27,3.89.31,4.57.1,1.6.21,3.23.41,4.82.07.57.08.92.21,1.54-.05,2.06.83,1.78-1.13,2.57-.19.07-.66.3-.72.31-.46.08-.36.02-.51,0v-15.96c-.74-.12-.85-.16-1.23.36-.36-1.34-.28-2.81-.31-4.21.27,0,.55.01.82,0,.6-.03,1.06-.12,1.64-.21.19-.03.43.03.62,0Z" style="fill: #441921; stroke-width: 0px;"/>
        <path d="M23.58,82.1c-.21-.02-1.9-.57-1.95-.67-.17-.36.27-6.92.31-7.95.06-1.55.06-3.08.1-4.62,0-.12.46-1.49.21-2.26.12.01.09-.09.1-.1.38-.52.49-.48,1.23-.36v15.96Z" style="fill: #733e49; stroke-width: 0px;"/>
        <path d="M19.88,63.52c.29.74,2.23,2.7,2.36,3.08.26.76-.2,2.14-.21,2.26l-3.69-4.41c.48-.33.93-.82,1.54-.92Z" style="fill: #441921; stroke-width: 0px;"/>
      </g>
      <path d="M22.04,62.29c.03,1.4-.05,2.87.31,4.21,0,.01.02.11-.1.1-.13-.37-2.07-2.34-2.36-3.08,1.27-.21,1.55,1.24,1.44-1.28.11-.26.6.05.72.05Z" style="fill: #feffff; stroke-width: 0px;"/>
      <g>
        <path d="M22.35,23.19c1.14.4,2.64.23,3.8-.1-.15.65.12,2.83.72,2.67-.76.49.69,1.74.26,2.05-2.13.81-4,.45-4.21.51-.07.02-1.17,1.14-.72,1.13,3.96,1.2,6.78-1.4,7.29-1.44.25-.02,2.33.87,2.92.82-.11.65-.18,1.3-.21,1.95-.03.59.09,1.25-.1,1.33-1.75-.32-1.89.41-2,.41-.13,0-1.76-1.45-2.16-1.54-.28.16,1.01,2.85,1.18,3.18-.39.52-1.41.96-1.85,1.33l.31-.56c-1.66.47-3.61.38-3.23,1.18-.15.09-2.54-.78-3.08-.92-.78-.56,1.63-.96-1.85-1.03v.92c-1.66-.57-.95-1.22-1.13-1.33-.14-.09-.56.14-3.23-.41-.1-.02-.21.01-.31,0l.05-.21c-2.15.31-1.67-.71-1.69-.82-.18-.81.01-.63,0-.67-.07-.19-1.58-.82-1.74-.36-.49-.74-.79-.77-.82-.82-.26-.47-1.68-4.46-1.54-4.67l.26-.05c.44.67,3.6,1.9,3.75,2.05.05.05.37,1.26.56,1.33.28.11,5.76-.04,6.05-.1.08-.02,0-.22.15-.21.75.61.74,2.33.82,1.44.19.06.24-.18.31-.36.41-1.13.96-5.98.62-7.03-.04-.11-.14-.16-.1-.31.04.02.13-.16.36,0,.44.3-.09.39.56.62Z" style="fill: #6e9d40; stroke-width: 0px;"/>
        <path d="M41.84,37.56c-1.8,1.93-6.82,3.76-9.13,5.39.44-.03,2.1.17,2.21.15.61-.11,1.47-1.81,1.85-.31,3.39-.89,2.65.51,4.77-2.26.92.35.26.83-.1,1.59.1.36,3.36.01,3.28.41-.58.68-4.08,2.63-4.26,2.82-.14.15.03.19.05.31-.41-.07-.62.04-.77,0-.52-.13-1.93-1.31-2.36-1.33-.21-.01-3.41.8-4.1.82-.21.2.94,1.07,1.18,1.33.33.36,1.99,2.32,2.21,2.36.15.03,2.21-.39,3.03-.51,1.36-.2,2.26-.15,2.36-.21l.15.82c-1.73.6-3.51.93-5.28,1.33-1.56-2.06-4.85-3.02-3.28-3.13-.63-.82-.86-1.59-1.03-1.9-.26-.5-.43-1.07-.77-1.54-.66.69-3.32,1.77-3.44,2.67l-.05-.21c-.67.49-1.19,1.13-1.74,1.74-.47-2.05-1.5-3.94-1.85-1.13-.69-.87-1.4.02-.15-1.69-.98-.46-1.01-.95-1.08-.97-.63-.18-2.2,2.7-1.33-.31h-3.18c.19-2.41-.13-.59-3.18-2.36-.44-.84,1.04-.19,1.49-.62-.05.8,2-.05,2.1,0,.14.07-.89.85,2.05,1.74.36.11,1.76.16,1.85.21.14.07.24,1.33.62.21,1.41.07,2.53-.6,2.67-.62,1.54-.15,1.28,1.43,2.87-1.54,3.16,1.61,1.91.56,2.1-.05l.21.05c1.15.52,2.57-.29,3.59-.82.22-.11,2.19-.67,1.03-1.33-.03-.26.06-.18.21-.21.51-.1,1.57-1.72,1.85-2.26.1-.19.31-.24.31-.26.03-.36-1.93-2.51-2.36-2.92-.34-.4,1.95-1.27,2.31-1.64.26-.27.44-1.03.77-1.44.42.34,1.01-.24,1.23-.72.59.08-1.11,1.34-1.23,1.59-.01.02.26.18.21.31-.71,1.61-1.28,2.52,1.59.97-.49,2.08,2.75-.13,3.03-1.49.86.69-.54,2.81-.62,3.39-.06.42.26.41.21.82-.02.17-1.94,2.59-2.05,2.72Z" style="fill: url(#uuid-bc010ecd-3fe9-4400-8f05-80a22ee9aacb); stroke-width: 0px;"/>
        <path d="M10.03,30.48c-.07.38.84,1.01,1.54,1.64.07.06.1.1.1.1,1.48,1.31,3.06,2.9,3.08,1.13.1.01.21-.02.31,0,.89,1.91,8.25,4.33,8.88,3.9.15-1.13.28-.09.51,0,.96.37,4.02-.48,5.08-.92,1.01,1.67,1.71,4.07,1.85,4.26.01.02.39.25.41.26l-.21-.05c-.19.62,1.06,1.66-2.1.05-1.59,2.97-1.33,1.39-2.87,1.54-.14.01-1.26.69-2.67.62-.37,1.12-.47-.13-.62-.21-.08-.04-1.48-.1-1.85-.21-2.94-.89-1.91-1.68-2.05-1.74-.11-.05-2.16.8-2.1,0,.47-.18-.8-.13-1.49-.1-.06,0-.2.31-.41.31-.08,0,.05-.22-.26-.21-.01,0-.07-.2-.15-.21-.15-.01-1.46.53-1.54.51-.39-.08-.18-1.34-.31-1.44-.12-.08-.1.56-2.72-.51.28-1.13,2.07-.33,0-2.26.94-.78,1.8-1.58,2.87-2.21-.72-.57-1.52-1.08-2.21-1.69-.72-.64-1.34-1.57-1.69-1.54-.26-.9-1.57-1.51.62-1.03Z" style="fill: #6e9d40; stroke-width: 0px;"/>
        <path d="M31.17,51c.14.14.7,1.03.87,1.03.12,0,.66-.9,1.9-1.23.83.52,5.09,5.82,5.49,5.85.13,0,.1-.22.87-.62.44.37.99,1.7,1.08,1.74.22.1,1.69-.37,2.57-.21-.44,1.01-.95,1.01-.05,1.44-.13.63-1.15.17-1.03.77.98,1.1,1.64.56,1.95,1.28-.19.13-.57.12-.92.62-1.16,1.6,1.17,1.83.31.21.34.2.29.2.31.21l.31.87c-1.25.46-2.3-.2-2.92-1.28.86,3.14-.48,1.57-.67,1.9l.51,1.13c-1.85.8-3.76.69-4.67-1.28l-.26.05c.09,2.39-1.81,1.55-2.26.26.26-.02,2.69,3.38,1.85-2,1.99.1,3.76-1.22,5.13-2.57.02-.29-1.02-.71-1.23-.87-.88-.69-6.37-5.02-6.82-5.13-.8-.19-4.62.13-5.49.82-.98-1.02-.81,1.01-.97,1.13-.66-.51-2.1-1.77-2.72-2.05-.88-.4-1.93-.44-3.18-.82-1.05-.32-2.68-.88-2.05-1.13.12-.73,1.44.07,3.13-.62-.44,2.27.83,1.06.92,1.13.17.13-.25.55.62.72.15-1.87,1.27,1.46,1.13-2.16,1.45,1.6,2.72.69,3.08.72.82.08,2.65.94,3.23.1Z" style="fill: #074f36; stroke-width: 0px;"/>
        <path d="M43.08,49.16c.69.51,2.12.86,1.59,1.23l-5.59,1.33c-2.96-1.86,1.78,2.52,3.18,3.39-.68.26-1.31.59-1.95.92-.77.4-.74.62-.87.62-.4-.03-4.66-5.33-5.49-5.85.44-.12,1.78-.24,2.98-.51,1.78-.41,3.56-.73,5.28-1.33l-.15-.82c.73-.38.27-.7-.31-.82l.62-1.39c-.1-.15-1.55-.2-1.85-.26-.02-.12-.19-.16-.05-.31.17-.19,3.68-2.14,4.26-2.82.08-.4-3.19-.05-3.28-.41.37-.77,1.02-1.24.1-1.59.62-.81,2.02-2.44,1.23-3.28,1.29-.34.11.41.87,1.64,1.11-.03,1.86-.78,2.26-1.74,1.72,2.89-1.89,4.39.31,4.72.06,1.02-2.49,3.22-2.51,3.44-.01.1,1.11,1.38,1.23,1.64-1.8.18-1.86-.45-2.67,1.44.18.36.52.55.82.77Z" style="fill: #0c6942; stroke-width: 0px;"/>
        <path d="M16.6,19.91c1.35.81,2.01,1.97,3.69,2.77-.23,1.88-.27,3.75-.1,5.64-.6-1.63-2.16-3.54-3.34-4.82l2.51,4.77-4.82-1.95c.62,1.45,4.3,1.75,5.23,2.51-.15-.02-.07.19-.15.21-.3.07-5.77.22-6.05.1-.19-.08-.51-1.28-.56-1.33,1.91-1.3.75-1.25-1.03-3.03.3-.33,1.34-.61,1.39-.67.21-.25-1.32-2.28-1.59-3.23-.88-3.07.63.15,2.21.36,1.06.14,3.08-.83,2.62-1.33Z" style="fill: #6e9d40; stroke-width: 0px;"/>
        <path d="M47.49,50.08c1.39.15-1.1,1.56-1.49,1.64-.83.18-2.93,0-3.85-.26-.27.42,3.07,1.8,3.54,1.9.5.1,2.37-.22.72.51-1.05.46-1.16.07-2.51,1.69l.26.36c1.03-.13,3.01,0,3.13-.31.84-.16,1.32-.73,1.59-1.54.48,2.34-1.28,3.24-1.28,3.44,0,.14,1.19.57-.82,2.16,2.38,1.49-1.38,1.5-.1,2.26,0,.12-1.29.5-2.16.15-.02,0,.03,0-.31-.21-.16-.09-.07-.25-.31-.21.36-.49.73-.49.92-.62.99-.65,1.4-.44,2.16-1.9,0-.16-2.25.24-3.08-.15-.89-.42-.39-.43.05-1.44-.88-.16-2.35.31-2.57.21-.09-.04-.64-1.38-1.08-1.74.64-.33,1.27-.66,1.95-.92,3.93,2.44-2.07-2.69-3.18-3.39l5.59-1.33c.53-.37-.9-.72-1.59-1.23,2.02.56,2.29.91,2.92-.92l.82.92c2.64-2.95,2.03-1.53.67.92Z" style="fill: #0c6942; stroke-width: 0px;"/>
        <path d="M33.94,15.29c.29,2.56-.67,2.26-.77,2.36-1.29,1.21-8.72,6.72-8.67,4.31.76-.25,2.2-1.23,2.26-1.39.08-.21-.09-.59-.1-.87,1.72-.69,3.74-2.26,2.77-4.31.64-.61,1.79-1.72,1.28-2.57-1.06,1.67-2.84,2.71-4.67,3.28.24-.48-.71-1.91-.21-2.26,1.97-.6,2.35-1.63,2.05-3.59,1.03-1.27,1.11-2.68.77-2.67-.86,1.33-2.51,3.43-4.05,3.69-.02-.19-.23-1.31-.21-1.39.04-.15,1.64-.8,2.05-2.21,1.17.71,2.48-1.69,2.77-1.39.62,2.3-1.84,4.02-.67,5.8,1.18.43,2.17-.84,2.77-1.74.5,0-.21,4.17-1.28,4.57-.34,3.75,2.34,1.83,3.9.36Z" style="fill: #0c6942; stroke-width: 0px;"/>
        <path d="M14.44,59.21c-2.01,2.87-.16,1.13.72,1.59.18.09,2.05,3.06,1.08,3.54-1.11.22-1.99-.46-3.03-.62-.02,0,.06-.32-.26-.21-.05.02-.41.39-.87.72-.59-.69.17-1.61,0-2.51-.3-.49-3.04,2.32-2.46,3.23-.37.09-.75.4-.82.26l.46-2.21c-2.81,2.19-2.84,1.99-2.41,0,.41.21.51-.12.87-.21.86-.21,1.9-.12,2.51-.87-2-.44-1.89-.53-1.54-1.69.75-.73,2.69-1.52,2.67-2.36.4,0,.88.08,1.23-.1.86.99.49.92,1.85,1.44Z" style="fill: #5b8e3e; stroke-width: 0px;"/>
        <path d="M36.71,23.71c-.37,2.79-3.18,3.98-5.7,4.31-1.13-.22,1.67-2.18,1.13-2.46-.49.33-3.84,1.7-4.05,1.59-.08-.04-.81-1.31-1.03-1.49.8-.36,3.31-.93,4.52-1.69.06-.16-1.22-1.55-1.44-2.92,2.73-.84,1.94.13,2.41.41.52.31.43-.1.46-.1.78-.13.71-.17,1.33-.41.09,2.39-2.4,2.9-2.51,3.08-.12.19.56,1.76.82,1.44.67-.98,1.93-1.51,1.9-2.67.81-.37,1.62-1.76,2.21-2.46.32,1.96-2.5,4.81-.05,3.39Z" style="fill: #0c6942; stroke-width: 0px;"/>
        <path d="M40.71,29.25c-.22.48-.81,1.06-1.23.72.03-.12.22-.22-.15-.31-.5.69-5.51,3.5-5.85,3.49-.96-.63-.12-.8-1.39-1.03.19-.08.08-.74.1-1.33.92-.26,5.13-1.74,5.34-2.51.1-.39-.18-.33-.21-.46,2.56.55,3.41-2.39,3.64-2.36.89,2.36-2.13,4.41-.26,3.8Z" style="fill: #0c6942; stroke-width: 0px;"/>
        <path d="M15.47,59.32c1.84.68,3.07,2.52,4.41,3.85-.96.49-1.75,1.3-2.16,1.59-.58.42-1.13.76-1.74,1.13-2.55-1.66-3.5,2.15-2.77-2.16,1.04.16,1.92.84,3.03.62.97-.48-.9-3.45-1.08-3.54-.88-.46-2.73,1.28-.72-1.59.23-.38.71-.02,1.03.1Z" style="fill: #276533; stroke-width: 0px;"/>
        <path d="M42.77,37.25c.79.84-.61,2.48-1.23,3.28-2.13,2.77-1.38,1.36-4.77,2.26-.38-1.5-1.24.2-1.85.31-.11.02-1.77-.18-2.21-.15,2.31-1.63,7.34-3.45,9.13-5.39.33-.05.61-.23.92-.31Z" style="fill: #1e7b49; stroke-width: 0px;"/>
        <path d="M36.2,26.58c-.34.54-3.46,2.23-3.8,2.26-.6.05-2.67-.84-2.92-.82-.5.04-3.33,2.63-7.29,1.44-.45,0,.65-1.11.72-1.13.2-.07,2.07.3,4.21-.51.43-.31-1.01-1.56-.26-2.05.06-.04.14-.07.21-.1.22.18.95,1.45,1.03,1.49.21.11,3.56-1.26,4.05-1.59.54.28-2.26,2.24-1.13,2.46,2.52-.33,5.33-1.52,5.7-4.31.42-.24.43-.52.46-.51-.19,1.91-2.68,4.31-.97,3.39Z" style="fill: #074f36; stroke-width: 0px;"/>
        <path d="M33.02,21.35s.06.41-.46.1c-.47-.28.32-1.25-2.41-.41-1.36.42-2.58,1.64-4,2.05-1.16.33-2.66.5-3.8.1-.38-.23.93-.45,1.44-1.03.22-.15.51-.14.72-.21-.04,2.41,7.38-3.1,8.67-4.31.1-.1,1.06.2.77-2.36.3-.28.56-.88.31,1.08-.24,1.91-1.84,2.28.1,2.36-1.32.89-2.72,2.23-1.33,2.62Z" style="fill: #074f36; stroke-width: 0px;"/>
        <path d="M37.33,27.81c.03.13.31.07.21.46-.2.77-4.42,2.25-5.34,2.51.03-.65.1-1.3.21-1.95.33-.03,3.45-1.72,3.8-2.26,3.13-2.01.9-.1.92.97,0,.24.17.08.21.26Z" style="fill: #1e7b49; stroke-width: 0px;"/>
        <path d="M25.12,4.72c-.22.89-1.51,3.58-.21,2.57-.82.7-.82,1.4-1.64-.41-.12-.26-.36-.74-.21-1.03.54.24.38-.12.31-.41.07,0,.15-.01.21,0,.06.33.27.57.46.82.11-.2-.33-.78-.46-.82-.12-.71.19-1.57.1-2.31-.11-.84-1.4-2.56.15-.97l.05-.31c.64,1.34,1.75.46,1.54-.51.1-.08.61-1.16.21,1.59-.08.57-.37,1.22-.51,1.8Z" style="fill: #074f36; stroke-width: 0px;"/>
        <path d="M47.28,55.62c-.12.32-2.1.17-3.13.31l-.26-.36c1.35-1.62,1.47-1.23,2.51-1.69,1.66-.73-.22-.41-.72-.51-.47-.1-3.81-1.48-3.54-1.9.92.25,3.02.44,3.85.26.39-.08,2.88-1.49,1.49-1.64,2.19-.38-.98,1.82-1.64,2.31,1.27,1.04,2.32-.18,2.05.51-.77.93-1.58,1.31-2.77,1.54.65.81.99,1.4,2.16,1.18Z" style="fill: #074f36; stroke-width: 0px;"/>
        <path d="M33.53,62.8c.46-.07.84-.23.87-.21.11.09-.01.65.15,1.13-.37.03-.75,2.43-4.41-.31-.04-.03.1-.15-.67-.72,0,0-.1.14-.15.1-.03-.02-.27-.42-.51-.51.02,0,.17-.12.31-.21,1.97.82,2.3,1.04,4.41.72Z" style="fill: #074f36; stroke-width: 0px;"/>
        <path d="M23.06,5.85c-.15.28.09.77.21,1.03-.19.24.4,1.15.82,1.49-.52.92-1.65-.26-2.26-.36-1.25-3.72-1.72-4.96,1.23-2.16Z" style="fill: #86af41; stroke-width: 0px;"/>
        <path d="M23.88.51c-.06.45.28.89,0,1.33l-.05.31c-1.56-1.58-.26.13-.15.97.09.74-.23,1.6-.1,2.31-.05-.01-.14,0-.21,0-.08-.37-.57-.9-.72-1.39-.72-2.37.24-4.87,1.23-3.54Z" style="fill: #86af41; stroke-width: 0px;"/>
        <path d="M12.08,64.24c-.15.1-1.01.92-1.08.92-.49.03.35-.64-1.39-.21-.57-.91,2.17-3.72,2.46-3.23.17.9-.59,1.83,0,2.51Z" style="fill: #3c5f2d; stroke-width: 0px;"/>
        <path d="M34.56,22.78c.03,1.16-1.23,1.69-1.9,2.67-.26.32-.94-1.25-.82-1.44.12-.18,2.61-.69,2.51-3.08.17-.07.27-.33.51-.15-.52,1.7-1.23,2.42-.31,2Z" style="fill: #074f36; stroke-width: 0px;"/>
        <path d="M26.04,6.36c-.43.24-.76.61-1.13.92-1.31,1.01-.02-1.67.21-2.57,3.09-1.98.78-.45.92,1.64Z" style="fill: #0c6942; stroke-width: 0px;"/>
        <path d="M25.42,1.33c.21.97-.9,1.86-1.54.51.28-.45-.06-.89,0-1.33,0-.08.17-.5.26-.51.86.95.24,2.16,1.28,1.33Z" style="fill: #0c6942; stroke-width: 0px;"/>
        <path d="M10.54,30.48c.03.05.33.08.82.82.23.35.5.57.21.82-.7-.63-1.61-1.26-1.54-1.64.12.03.41.26.51,0Z" style="fill: #3e803d; stroke-width: 0px;"/>
        <path d="M17.42,59.21c.53.86.73,1.07,1.44.92.17-.04.82-.41.87-.41.11,0,1.03.47,2.21.31.36.74.62,1.5.92,2.26-.27.01-.55,0-.82,0-.12,0-.61-.32-.72-.05.12,2.52-.16,1.08-1.44,1.28-.61.1-1.06.59-1.54.92-.19.13-.37.3-.62.31.41-.29,1.19-1.1,2.16-1.59-1.35-1.33-2.57-3.16-4.41-3.85.81.21.94-.13,1.95-.1Z" style="fill: #074f36; stroke-width: 0px;"/>
        <path d="M19.06,51.11c-.63.25,1,.81,2.05,1.13-.32.83-2.23,2.59-2.26,3.34,0,.07.2.14.21.15.04,1.58.36,3.76-.21,4.41-.71.15-.9-.06-1.44-.92.15,0,.38.24.51.05.12-.17.46-3.56.62-4.1l-2.46-.97c.28-.29,1.43-2.35,1.74-2.87.02-.04.32-.31.51-.72,1.13-.13.23.49.72.51Z" style="fill: #6e9d40; stroke-width: 0px;"/>
        <path d="M18.34,50.59c-.19.41-.49.68-.51.72.1-.47-.25-.22-1.03-.31-1.94-.21-2.7-1.34-4.26-.82l-.15-.21c2.05-3.12,1.66-1.24,3.03-.41.77.46,2.19.74,3.08.62.17.11-.08.25-.15.41Z" style="fill: #074f36; stroke-width: 0px;"/>
        <g>
          <path d="M32.61,45.26c.16.31.4,1.08,1.03,1.9-1.56.11,1.72,1.07,3.28,3.13-1.2.27-2.54.39-2.98.51-1.24.33-1.78,1.23-1.9,1.23-.17,0-.73-.89-.87-1.03-.16-.15-.33-.02-.72-.46-.2-.23-1.68-2.44-1.74-2.62.91-1.11,2.42-2.76,3.9-2.67Z" style="fill: #348b4e; stroke-width: 0px;"/>
          <path d="M32.61,45.26c-1.48-.09-2.99,1.56-3.9,2.67-.09-.23-.33-1.38-.31-1.54.12-.9,2.78-1.98,3.44-2.67.34.47.51,1.04.77,1.54Z" style="fill: #1e7b49; stroke-width: 0px;"/>
        </g>
        <path d="M10.44,39.2c2.62,1.08,2.6.43,2.72.51.13.1-.08,1.36.31,1.44.08.02,1.39-.53,1.54-.51.08,0,.14.21.15.21.7,1.15-1.07.23-2.92,1.64.7-1.91-.9-2.05-2.31-3.28.17-.13.34-.07.51,0Z" style="fill: #0c6942; stroke-width: 0px;"/>
        <path d="M10.44,39.2c-.17-.07-.34-.13-.51,0-1.75-1.53-.86-1.11.51-2.26,2.07,1.93.28,1.13,0,2.26Z" style="fill: #c6a48a; stroke-width: 0px;"/>
        <g>
          <path d="M9.42,31.5c.36-.03.97.9,1.69,1.54.69.61,1.48,1.13,2.21,1.69-1.07.63-1.94,1.42-2.87,2.21-1.37,1.14-2.26.73-.51,2.26,1.41,1.23,3,1.37,2.31,3.28,1.86-1.41,3.63-.5,2.92-1.64.3-.02.18.2.26.21.21,0,.35-.31.41-.31.69-.03,1.96-.07,1.49.1-.45.43-1.93-.22-1.49.62,3.05,1.77,3.37-.05,3.18,2.36h3.18c-.87,3,.7.13,1.33.31.07.02.09.51,1.08.97-1.24,1.71-.53.83.15,1.69.34-2.81,1.37-.92,1.85,1.13.55-.62,1.07-1.25,1.74-1.74l.05.21c-.02.16.22,1.31.31,1.54.07.17,1.54,2.38,1.74,2.62.39.44.55.31.72.46-.58.84-2.41-.03-3.23-.1-.36-.03-1.63.88-3.08-.72.14,3.62-.98.29-1.13,2.16-.87-.16-.45-.59-.62-.72-.09-.07-1.36,1.14-.92-1.13-1.69.69-3.01-.12-3.13.62-.49-.03.41-.65-.72-.51.07-.16.32-.3.15-.41-.89.13-2.31-.15-3.08-.62-1.37-.82-.98-2.71-3.03.41.03-.84.83-.88.21-1.13,1.28-.42-1.48-.69-2.16-.77l.21.46c-.61-.16-.5-.29-.82-.51-.06-.04.17-.15.05-.21-.06-.03-.77-.04-1.33-.31l-.26.82c.16-.27-.72-2.13-.82-2.21-.03-.02-.4.12-.77-.15-.37-.26-.37-.69-1.18-1.33,2.25-1.26,1.02-.78,0-2.1-.45-.58-.18-.59-.21-.62-1.21-1.71-1.93-2.43-2.16-4.82.26-.45,1.15,2.39,3.23,2.51.4-2.33,1.4-2.26,1.39-2.51-.03-.38-2.17-1.33-2.77-6.98,1.66,1,2.02,3.75,4.36,2.1.3-.23.13-.46.05-.72Z" style="fill: #6e9d40; stroke-width: 0px;"/>
          <path d="M8.03,42.69c.94.27,1.94.49,2.87,0,.28.12-1.73,1.44-1.95,1.64l-.92-1.64Z" style="fill: #074f36; stroke-width: 0px;"/>
          <path d="M12.6,48.85c-.3-.12-1.55-.2-1.95-.31l-.21-.46c.68.08,3.44.35,2.16.77Z" style="fill: #276533; stroke-width: 0px;"/>
          <path d="M9.83,48.03c-.16.13-1.33.4-1.54.31l.26-.82c.56.27,1.27.28,1.33.31.12.06-.11.17-.05.21Z" style="fill: #0c6942; stroke-width: 0px;"/>
        </g>
        <path d="M17.83,51.31c-.31.52-1.46,2.59-1.74,2.87-.53.54-3.53,1.9-4.46,2.46l-.26-.15c1.53-2.34,3.09-3.98,5.44-5.49.78.08,1.12-.16,1.03.31Z" style="fill: #0c6942; stroke-width: 0px;"/>
        <path d="M11.37,57.88c.02.85-1.91,1.63-2.67,2.36.13-.44.91-2.25,1.03-2.31.39-.2,0,.6.72-.15,0,.24.39.11.92.1Z" style="fill: #6e9d40; stroke-width: 0px;"/>
        <path d="M12.6,57.78c-.35.18-.83.1-1.23.1-.53,0-.92.14-.92-.1.47-.5.25-.68,1.18-1.03.33-.06.6.6.97,1.03Z" style="fill: #0c6942; stroke-width: 0px;"/>
        <g>
          <path d="M5.52,44.64c.81.64.81,1.07,1.18,1.33.37.27.74.13.77.15.1.07.98,1.94.82,2.21.21.09,1.37-.18,1.54-.31.32.22.21.35.82.51.4.11,1.65.19,1.95.31.63.25-.18.29-.21,1.13l.15.21c1.56-.52,2.31.61,4.26.82-2.35,1.51-3.91,3.15-5.44,5.49l.26.15c.94-.56,3.93-1.92,4.46-2.46l2.46.97c-.16.54-.49,3.94-.62,4.1-.13.19-.37-.05-.51-.05-1.01-.03-1.14.32-1.95.1-.32-.12-.8-.48-1.03-.1-1.35-.52-.98-.45-1.85-1.44-.37-.43-.65-1.09-.97-1.03-.93.35-.71.53-1.18,1.03-.72.75-.33-.04-.72.15-.11.06-.89,1.87-1.03,2.31-.35,1.17-.46,1.25,1.54,1.69-.62.75-1.66.66-2.51.87-.36.09-.47.42-.87.21.37-1.73-.23.69-2.98.26,1.59-1.03-1.55-1.18-2-3.03,1.38.06-.87-2.05-.87-2.21,0-.22.41-.44.41-.51,0-.2-1.63-1.46-1.39-3.64,1.86,1.58,2.22,2.2,3.95.15l-2.46-1.54c1.77-1.13.66-.8-.21-2.98-1.24-3.15,1.02.43,2.1.26.18-.03,2.27-1.92,2.21-2.1-1.34-.71-4.27-.29-1.23-1.54.15-.37-3.12-4.84,1.13-1.49Z" style="fill: #6e9d40; stroke-width: 0px;"/>
          <path d="M7.72,58.6c.2.11-1,2.63-2.82,2.31.51-1.15,1.8-1.67,2.82-2.31Z" style="fill: #5b8e3e; stroke-width: 0px;"/>
          <path d="M4.75,54.29l1.74.92c.07,1.21-1.74-.3-1.74-.92Z" style="fill: #276533; stroke-width: 0px;"/>
          <path d="M8.95,56.03c.17.08-.1.48-.15.56-.76,1.19-1.38.76.15-.56Z" style="fill: #5b8e3e; stroke-width: 0px;"/>
        </g>
        <path d="M39.48,29.97c-.33.41-.51,1.17-.77,1.44-.36.37-2.65,1.24-2.31,1.64-.42-.35-2.76,1.04-3.85,1.54-.08.17.93.97,1.08,1.13.95.99,1.94,1.88,2.98,2.77-.14.03-.24-.06-.21.21-.33-.19-2.1-.55-2.16-.1-1.49-2.02-1.71-3.7-1.9-3.8-.16-.08-1.9,1.15-2.82,1.54-1.06.45-4.12,1.29-5.08.92-.23-.09-.37-1.13-.51,0-.63.43-7.99-1.99-8.88-3.9,2.67.55,3.09.32,3.23.41.18.11-.53.76,1.13,1.33v-.92c3.47.07,1.06.47,1.85,1.03.53.15,2.93,1.02,3.08.92-.38-.8,1.58-.71,3.23-1.18l-.31.56c-1.01.86.88.05,2.1-.62.38-.29-.09-.39-.26-.72-.17-.34-1.46-3.02-1.18-3.18.39.09,2.02,1.54,2.16,1.54.11,0,.25-.73,2-.41,1.26.23.43.4,1.39,1.03.34,0,5.35-2.8,5.85-3.49.38.09.18.18.15.31Z" style="fill: #074f36; stroke-width: 0px;"/>
        <path d="M30.14,21.04c.21,1.38,1.49,2.77,1.44,2.92-1.21.76-3.71,1.33-4.52,1.69-.07.03-.15.06-.21.1-.6.16-.87-2.02-.72-2.67,1.43-.41,2.65-1.64,4-2.05Z" style="fill: #5b8e3e; stroke-width: 0px;"/>
        <path d="M21.52,22.88c.34,1.05-.2,5.9-.62,7.03-.07.18-.11.42-.31.36.05-.67-.18-1.32-.41-1.95-.17-1.89-.13-3.76.1-5.64.32.15,1.27.68,1.23.21Z" style="fill: #6e9d40; stroke-width: 0px;"/>
        <path d="M20.19,28.32c.23.63.46,1.28.41,1.95-.08.9-.08-.83-.82-1.44-.94-.76-4.61-1.07-5.23-2.51l4.82,1.95-2.51-4.77c1.18,1.28,2.74,3.2,3.34,4.82Z" style="fill: #074f36; stroke-width: 0px;"/>
        <path d="M23.78,22.17c-.51.58-1.82.8-1.44,1.03-.66-.23-.13-.31-.56-.62-.22-.16-.32.02-.36,0-.29-.14-.53-.24-.82-.41l-.15-2.57c1.01.99,2.24,1.74,3.59,2.16.09.03-.12.25-.26.41Z" style="fill: #6e9d40; stroke-width: 0px;"/>
        <path d="M13.11,32.33c.02.11-.45,1.13,1.69.82l-.05.21c-.02,1.77-1.59.18-3.08-1.13.41-.08.92.3.97.31.31.02.19-.45.46-.21Z" style="fill: #0c6942; stroke-width: 0px;"/>
        <path d="M13.11,32.33c-.27-.25-.15.23-.46.21-.05,0-.57-.39-.97-.31,0,0-.04-.04-.1-.1.29-.25.03-.47-.21-.82.16-.46,1.68.17,1.74.36.01.04-.18-.15,0,.67Z" style="fill: #86af41; stroke-width: 0px;"/>
        <path d="M27.27,35.51c.44-.38,1.45-.81,1.85-1.33.16.33.64.43.26.72-1.23.67-3.11,1.48-2.1.62Z" style="fill: #1e7b49; stroke-width: 0px;"/>
        <path d="M34.25,38.59c.37.5.8.91,1.13,1.44-1.02.54-2.44,1.34-3.59.82-.02,0-.4-.24-.41-.26-.14-.19-.84-2.59-1.85-4.26.92-.39,2.66-1.62,2.82-1.54.19.09.41,1.78,1.9,3.8Z" style="fill: #5b8e3e; stroke-width: 0px;"/>
        <g>
          <path d="M36.4,33.04c.43.41,2.39,2.56,2.36,2.92,0,.02-.21.06-.31.26l-4.82-.51c-.15-.16-1.15-.96-1.08-1.13,1.09-.5,3.43-1.89,3.85-1.54Z" style="fill: #1e7b49; stroke-width: 0px;"/>
          <path d="M38.46,36.23c-.27.53-1.34,2.16-1.85,2.26-1.03-.89-2.03-1.78-2.98-2.77l4.82.51Z" style="fill: #0c6942; stroke-width: 0px;"/>
        </g>
        <g>
          <path d="M40.51,45.67c.3.05,1.74.11,1.85.26l-.62,1.39c-.57-.12-2.93-.21-4.41-.41-.96-.13-1.89-.45-2.87-.41-.24-.26-1.4-1.14-1.18-1.33.69-.02,3.9-.83,4.1-.82.43.02,1.84,1.2,2.36,1.33.15.04.36-.07.77,0Z" style="fill: #1e7b49; stroke-width: 0px;"/>
          <path d="M37.33,46.9c.1.85,1.99.86,2.36,1.44-.82.12-2.88.54-3.03.51-.22-.04-1.88-2-2.21-2.36.98-.04,1.92.28,2.87.41Z" style="fill: #0c6942; stroke-width: 0px;"/>
          <path d="M41.74,47.31c.58.12,1.04.44.31.82-.11.05-1,0-2.36.21-.37-.58-2.26-.58-2.36-1.44,1.48.2,3.84.29,4.41.41Z" style="fill: #074f36; stroke-width: 0px;"/>
        </g>
        <path d="M36.4,38.69c1.16.67-.81,1.22-1.03,1.33-.33-.52-.76-.94-1.13-1.44.05-.44,1.83-.09,2.16.1Z" style="fill: #0c6942; stroke-width: 0px;"/>
        <path d="M29.43,15.39c-.72.69-2.26,1.7-3.18,2.05-.69.26-2.45.69-2.62.62-.09-.04-.36-1.11-.67-1.28.02-.16,1.21-.08,3.08-.67,1.83-.57,3.61-1.61,4.67-3.28.5.84-.64,1.96-1.28,2.57Z" style="fill: #074f36; stroke-width: 0px;"/>
        <path d="M26.66,19.7c-.04-.75-.31-1.51-.41-2.26.92-.35,2.46-1.36,3.18-2.05.97,2.05-1.05,3.62-2.77,4.31Z" style="fill: #348b4e; stroke-width: 0px;"/>
        <path d="M27.89,10.26c-.73.9-2.04,1.73-3.08,2.26-.17-.48-.16-.75-.21-1.23,1.55-.26,3.2-2.37,4.05-3.69.34-.01.27,1.4-.77,2.67Z" style="fill: #074f36; stroke-width: 0px;"/>
        <path d="M25.83,13.85l-.31-.15c.09-1.4-.33-.11-.72-1.18,1.04-.53,2.34-1.36,3.08-2.26.3,1.97-.08,2.99-2.05,3.59Z" style="fill: #5b8e3e; stroke-width: 0px;"/>
        <g>
          <path d="M26.45,7.7c-.41,1.41-2.01,2.05-2.05,2.21-.02.08.19,1.19.21,1.39.05.49.03.75.21,1.23.39,1.07.81-.22.72,1.18l.31.15c-.51.35.45,1.78.21,2.26-1.87.58-3.06.51-3.08.67.3.18.58,1.25.67,1.28.17.07,1.93-.35,2.62-.62.1.74.37,1.51.41,2.26.02.28.18.66.1.87-.06.16-1.5,1.13-2.26,1.39-.2.07-.5.05-.72.21.14-.16.34-.38.26-.41-1.35-.42-2.58-1.16-3.59-2.16l.15,2.57c-2.18-1.3-3.49-2.34-5.03-4.41-1.17-3.55.14-1.4,1.69-.31.66-1.6,1.12-1.19,1.18-1.28.09-.13-.93-2.2-1.13-2.98-.95-3.66.38.19,2.31-.67.89-.39.21-1.86-.15-2.87,1.31,1.75,2.78,2.71,4.87,3.28-.45-1.94-1.27-.92-2.77-1.74-.4-.22-2.24-2.13-2.51-2.57-.17-.27-1.03-1.95-.56-2.05.53.39,1.73,1.27,2.26,1.44.95.3,1.02-.01,1.08,0,.61.1,1.74,1.28,2.26.36-.42-.34-1.01-1.25-.82-1.49.82,1.81.82,1.11,1.64.41.37-.32.7-.68,1.13-.92.02.31.17,1.12.41,1.33Z" style="fill: #6e9d40; stroke-width: 0px;"/>
          <path d="M20.6,22.17c.29.17.53.27.82.41-.04.14.07.2.1.31.04.47-.91-.05-1.23-.21-1.68-.8-2.35-1.96-3.69-2.77-.52-.76-.74-1.29-1.03-2.16,1.54,2.08,2.85,3.11,5.03,4.41Z" style="fill: #276533; stroke-width: 0px;"/>
          <path d="M19.47,9.65c-.12-.34-.42-.63-.41-1.03.28.44,2.11,2.34,2.51,2.57,1.5.83,2.32-.19,2.77,1.74-2.1-.58-3.56-1.54-4.87-3.28Z" style="fill: #0c6942; stroke-width: 0px;"/>
          <path d="M18.81,14.26c.51.17,3.02,3,2.57,3.28-1.38-.59-1.95-2.04-2.57-3.28Z" style="fill: #276533; stroke-width: 0px;"/>
        </g>
        <path d="M40.3,58.29c-.07.64-.73-.26-1.9-.82-1.22-.59-2.58-.94-3.8-1.54-.33.18.8,1.56.77,2,0,.13-.57,2.44-.62,2.57-.16.46-1,1.7-1.23,2.31-2.11.32-2.44.1-4.41-.72,1.01-.6,1.89-1.35,2.77-2.1.03-.17-1.38-1.41-1.44-1.64-.06-.24.3.05.1-.56-.22-.67-.63-1.06-.97-1.64l-.36.51c-.19-.41-1.13-2.56-1.23-2.67.87-.69,4.69-1.01,5.49-.82.46.11,5.95,4.44,6.82,5.13Z" style="fill: #0c6942; stroke-width: 0px;"/>
        <path d="M27.99,53.98c.1.11,1.04,2.26,1.23,2.67.16.34.31,1.1.36,1.13.04.02.78-.28.97,0,.2.61-.16.33-.1.56.06.23,1.47,1.48,1.44,1.64-.88.76-1.76,1.51-2.77,2.1-.14.08-.29.2-.31.21-2.64,1.44-2.45,1.16-2.87-.41-.42-1.56-.56-5.73-1.74-8.41,0-.02.15.05.1-.41.62.28,2.06,1.54,2.72,2.05.17-.11,0-2.15.97-1.13Z" style="fill: #3e803d; stroke-width: 0px;"/>
        <path d="M24.3,53.06c.05.46-.1.39-.1.41-.07.19-.25,3.95-.21,4.16.05.22,1.03.77.51,4.46-.58.08-1.04.18-1.64.21-.3-.76-.57-1.52-.92-2.26-.04-.09-.03-.53-.1-.67-.52-.95-1.87-.43-.21-3.49l-2.57-.15s-.21-.08-.21-.15c.03-.75,1.94-2.51,2.26-3.34,1.25.39,2.3.42,3.18.82Z" style="fill: #5b8e3e; stroke-width: 0px;"/>
        <path d="M40.3,58.29c.21.16,1.25.59,1.23.87-1.37,1.34-3.14,2.67-5.13,2.57.84,5.38-1.59,1.98-1.85,2-.17-.48-.05-1.04-.15-1.13-.04-.03-.41.14-.87.21.23-.61,1.07-1.85,1.23-2.31.04-.12.61-2.43.62-2.57.03-.44-1.1-1.82-.77-2,1.22.6,2.58.95,3.8,1.54,1.16.56,1.83,1.46,1.9.82Z" style="fill: #074f36; stroke-width: 0px;"/>
        <path d="M44.82,61.06c-.31-.72-.97-.18-1.95-1.28-.12-.6.9-.14,1.03-.77.83.39,3.07,0,3.08.15-.75,1.45-1.17,1.25-2.16,1.9Z" style="fill: #074f36; stroke-width: 0px;"/>
        <path d="M44.2,61.88c.86,1.62-1.46,1.39-.31-.21.24-.05.15.11.31.21Z" style="fill: #074f36; stroke-width: 0px;"/>
        <path d="M39.07,51.72c1.11.7,7.11,5.83,3.18,3.39-1.4-.87-6.14-5.25-3.18-3.39Z" style="fill: #074f36; stroke-width: 0px;"/>
        <path d="M24.19,53.47c1.19,2.69,1.32,6.85,1.74,8.41-.25.03-.59.17-.82.21-.19.03-.42-.03-.62,0,.52-3.7-.46-4.24-.51-4.46-.05-.2.13-3.96.21-4.16Z" style="fill: #074f36; stroke-width: 0px;"/>
        <path d="M23.58,5.44c.13.04.57.62.46.82-.19-.25-.41-.49-.46-.82Z" style="fill: #86af41; stroke-width: 0px;"/>
        <path d="M21.94,60.03c-1.18.16-2.09-.31-2.21-.31-.05,0-.7.38-.87.41.56-.65.25-2.83.21-4.41l2.57.15c-1.66,3.06-.31,2.54.21,3.49.08.14.06.58.1.67Z" style="fill: #6e9d40; stroke-width: 0px;"/>
        <path d="M30.56,57.78c-.19-.28-.93.02-.97,0-.05-.03-.2-.79-.36-1.13l.36-.51c.35.58.76.97.97,1.64Z" style="fill: #074f36; stroke-width: 0px;"/>
      </g>
    </g>
  </g>
</svg>