<?xml version="1.0" encoding="UTF-8"?>
<svg id="uuid-dae593fc-afb4-424b-9fc1-e9dda7204797" data-name="Layer 2" xmlns="http://www.w3.org/2000/svg" viewBox="0 0 77.02 74.7">
  <g id="uuid-8561c3a0-e2f4-4f9d-a020-c461fb763a26" data-name="Trees">
    <g>
      <path d="M19.49,47.26c-.07-.78,1.98-1.38,2.51-2.03,1.75-.1-.87,1.13-2.51,2.03Z" style="fill: #e77265; stroke-width: 0px;"/>
      <g>
        <path d="M70.57,19.57c-.14,1.69-.83,1.39-1.19.6-.2-.44.2-1.21.12-1.67,1.03.01-.06.82,1.07,1.07Z" style="fill: #eb8090; stroke-width: 0px;"/>
        <path d="M70.57,19.57c-1.14-.26-.04-1.06-1.07-1.07-.2,0-.59.24-.84.36.18-1.81,2.07-1.2,1.91.72Z" style="fill: #fbdbd7; stroke-width: 0px;"/>
        <path d="M69.49,18.5c.08.46-.32,1.23-.12,1.67-.85.1-.79-.22-.84-.24v-.95c.15.01.11-.12.12-.12.25-.11.63-.36.84-.36Z" style="fill: #db5a7a; stroke-width: 0px;"/>
      </g>
      <path d="M65.67,46.42c-.57-.21-.72-.33-1.31,0,.2-.6.98-.46,1.31,0Z" style="fill: #785d55; stroke-width: 0px;"/>
      <g>
        <path d="M23.79,50.36c-.46.61-.82,2.03-2.09,1.55-1.94-1.62.15-2.12.3-2.33,0,0-.17-.14-.12-.18,1.1-.39,1.95-.32,1.91.95Z" style="fill: #ed7078; stroke-width: 0px;"/>
        <path d="M22.89,49.64l.06.54c-1.29,1.61-2.4.24-.06-.54Z" style="fill: #f9b6b6; stroke-width: 0px;"/>
      </g>
      <g>
        <path d="M50.76,9.43c-1.02.87.12,1.55,1.07,1.55.65.41-.45.41-.95,1.13-.73,1.04-.7,2.39.48,3.04.16.09.11.12.12.12-.88,1.41,1.99,2.67,2.98,2.74,1.42.11,2.63-.4,3.94-.84.25.39.28.18.36.24.2.17,1.26.32.36.78.18.4.62-.07.66-.06.45.13.06,1.54.66,1.67-.25.74-.75.87-.12.95-2.71,2.18-.12,1.92-.72,3.28-.11.24-1.91,1.35-2.39,1.73-.72.56-1.05,1.28-1.43,1.43-1.28.51-.82-.68-.95-1.01-.05-.12-.35-.04-.36-.06-.43-1.6,1.15-.82.36-4.71-.8-1.15-1.23.17-1.43.42l-.24-.12c.43-2.01-.06-3.6-2.39-2.63-.08-.27-.8-1.3-1.07-1.67-.18-.25-.14-.48-.48-.72-.34-.24-1.67-.02-2.27.12.84-1.87-.58-2.83-2.03-3.94,1.53-3.03,4.45-2.51,4.71-2.63.1-.04.62-.64,1.01-.95.15-.01.11.12.12.12Z" style="fill: #db5a7a; stroke-width: 0px;"/>
        <path d="M70.45,30.31c.09.11.61.58.6.66-.06.35-2.55.96,0,.95-.15.71.21.79-.36,1.49-.64.09-1.18-.23-1.79-.06.32.03,2.18.81,2.27.89.99,1.01-.02,1.84-1.19,1.79-.17-.94-.23.14-.36.36-.79-.4-1.02-.78-1.91-.72-.32.02-.43.11-.6.12-.33.02-.29.33-1.07,0-.13-.05-.45-.44-1.25-.84-.36-.18-2.19-.17-1.85-1.37,1.38-1.5,3.33.37,3.52.42.71.17,1.06-.55,1.79.48.51,0-.46-.84-.54-.95-2.49-3.85,1.55-3.45,1.43-4.36-.05-.41-2.44.52-2.63,1.25-.08-.04-.34-.22-.36-.24-1.37-1.76-2.78-.71-3.82-.72-.07,0-1.16-.19-1.43-.24-.66-.12-.73-.27-1.43-.36-.08,0,.17-.49-1.43.24-.43-.36-.86-.73-1.31-1.07.1-.38-.09-.49.72-1.43.04-.04.87-.21.48-.84.26,0,.31-.22,1.07,0,1.42.42,2.84,1.67.3,1.79-.05.73,2.35-.28,4.3,0,.27-.19-.46-1.83-.42-2.09.08-.52,1.22-.14-.6-1.73.1,0,.12-.09.24-.12.41-.11,2.16-1.83,2.98-2.15,1.42,1.74-1.03,3.86-.95,5.67.15.37,2.04-.45,3.88.54,1.78.95,1.31,2.42,1.37,2.57.05.12.33.03.36.06Z" style="fill: #eb8090; stroke-width: 0px;"/>
        <path d="M19.02,35.32c.07.7.2,1.38.12,2.09.76.87,2.48,3.85,2.74,4.18,1.69,2.05.36-.53,1.85-1.97.48-.02.26.71.18,1.91-.02.26-.95.89.84,2.63,1.14,1.11,2.24,1.69,3.82,1.43,0,.39-.36.24-.12.72.2.39,1.32,1.01,1.79,1.19.28.11,4.7,1.32,4.95,1.31.02,0,.19-.17.18-.24.11.14.26.33.36.48.48.68.85,1.45,1.31,2.15l-1.07.48c-1.66-2.04-4.61-2.26-7.1-3.1-.48-.16-2.14-1.08-2.27-1.07-.68.03-2.38,2.31-2.8,2.86.04-1.27-.81-1.35-1.91-.95.89-.72,1.08-.28,1.85-.6.16-.07,2.05-1.63,1.91-1.79-2.44-1.34-3.28-.91-6.15.72,0-.16.01-.32,0-.48,1.63-.9,4.26-2.12,2.51-2.03l-5.13-.84s.25-.63.54-.72c.74-.22,3.19.3,4.12.48.59.11,1.75.72,1.67.06l-2.51-1.37c.86-1.08-.24-2.39-.84-3.22-.56-.78-.99-1.41-1.91-1.79.36-.79.38-1.13.36-1.91,0-.41-.11-.64-.12-1.31l.84.72Z" style="fill: #2e1312; stroke-width: 0px;"/>
        <path d="M45.51,6.21c.43.12,1.12.82,1.37.95.18.1.37-.17.48-.12.55.28.46,1.63,2.33.12.2-.17.39-.39.6-.6,1.15-.49.59,1.12.72,2.27-.28.12-.29.42-.36.48-.39.31-.91.91-1.01.95-.27.12-3.19-.4-4.71,2.63-.21-.03-.23.09-.36.12-1.37.29-.58.69-.48.95-.56-.04-.45-.79-.72-.24-.13-.21-.78-.46-.84-.54-.05-.06-.05-.89-.72-1.37.79-.5.48-1.96,1.19-2.39.36-.22,1.47.03,2.03-.78.8-1.16-.31-2.39.48-2.45Z" style="fill: #eb8090; stroke-width: 0px;"/>
        <path d="M63.88,21c-.02.32-.97,1.98-1.07,2.63-.11.03-.14.12-.24.12-2.26-1.97-.57-.21-1.55.89-.67.75-1.72.12-2.03,1.13-.76-.22-.81,0-1.07,0-.14,0-.34,0-.48,0-.01,0,.05-.21-.24,0,.48-.38,2.28-1.49,2.39-1.73.6-1.36-1.99-1.1.72-3.28.69.19,1.38.68,1.73,1.31.49-.8.1-.94.06-1.31.45.35.83-.57.95-.95l.12,1.73.72-.54Z" style="fill: #eb8090; stroke-width: 0px;"/>
        <path d="M19.85,39.62c.6.83,1.7,2.14.84,3.22-.09.11-.67.23-.84.54.94.53,1.85.22,1.67.78-.92-.17-3.38-.7-4.12-.48-.29.09-.5.69-.54.72-.5.47-1.48,1.59-2.03,1.67-.12-.46.93-.88,1.55-1.67,1.07-1.35.76-1.87.95-2.21.3-.53.62-.09.78-.18.82-.47.56-1.45.18-2.15-.26-.48-1.24-1.44-1.85-.95-.26-.87,2.12.04,3.4.72Z" style="fill: #db5a7a; stroke-width: 0px;"/>
        <path d="M17.35,37.59c.18.05.42.16.6.24.92.38,1.35,1.01,1.91,1.79-1.28-.68-3.66-1.59-3.4-.72.61-.48,1.59.47,1.85.95-.7-.27-.73.24-.78.24-.21,0-1.5-1.36-4-.84-2.01.42-2,2.26-2.63,1.79-.06-.54.04-.78.36-1.19.1-.13,1.05-.29.84-1.43,1.38-.48,1.93.73,2.09.6.04-.74.24-2.64,1.31-2.39,1.26,1.67,1.13.74,1.85.95Z" style="fill: #f9b6b6; stroke-width: 0px;"/>
        <path d="M26.89,16.23l.48.54c-2.39.32.69,2.35,1.55,1.79.14,1.05-.66.35-1.07.95-.02.44,1.78.15.24,1.37-.05.04-.96.54-1.07.6-.05.02-.18-.02-.24,0-.32-.64-1.49-1.16-2.15-1.19.04-.27-.1-.23-.12-.24-.02-1.26.73-.13.95-.66.28-1.64-1.06-1.33-.6-2.09.02,0,.34-.11.36-.12.45-.22.32-.48.54-.6.81-.42,1.08-.33,1.13-.36Z" style="fill: #d32455; stroke-width: 0px;"/>
        <path d="M49.09,4.77c.03.06.61.41.72,1.19.06.4,0,.81-.12,1.19-1.87,1.51-1.78.17-2.33-.12-.1-.05-.3.22-.48.12-.25-.14-.94-.83-1.37-.95-.99-.29-1.76,1.52-2.63,1.79.01-.11-.13-.13-.12-.24.33-.12.38-.51.6-.72.59-.57,1.26-.61,1.43-1.55.54-.17,2.3-.69,2.68-.72.9-.06,1.65.57,1.61,0Z" style="fill: #f9b6b6; stroke-width: 0px;"/>
        <path d="M72.36,41.29c-.27.06-2.39,1.68-5.01,2.21,1.42.47,4.29.82,3.52,1.61-1.17-.04-3.84-1.03-4.42-1.07-1.37-.09-2.73.77-4.12.6,1.91-.54,3.11-.21,2.51-1.55.64-.08,1.27-.11,1.91-.24.97-.19,2.17-.31,2.86-1.07.06.01,1.19.01,1.25,0,.49-.11,1.04-.79,1.49-.95.03-.01.08.01.12,0l-.12.48Z" style="fill: #541317; stroke-width: 0px;"/>
        <path d="M9.11,44.03c.1.28-.31.2.48.95-.69-.48-1.03,1.46-.54,1.67.76-.2.61-.36.66-.36.23,0,.27.15.48.12,2.54,2.02-2.03,3.96-2.03.84,0-.05.31-.45.36-1.01,0-.07-.23-.58-.12-1.31.01-.08.23.03.48-1.37-.09.64.23.45.24.48Z" style="fill: #f9b6b6; stroke-width: 0px;"/>
        <path d="M6.61,40.21c-1.15.85-.66.86-1.31,1.91-1.87-.26-2.05-1.28-2.98-.24-.07-.29-.8.3-1.31.12l.24-2.03c.73.2,1.14,1.28,1.25,1.31.42.11,1.6-.24,2.09.18-.99-1.51,1.09-2.56,2.03-1.25Z" style="fill: #fbcbc6; stroke-width: 0px;"/>
        <path d="M17.11,32.94c.18.25.97,1.37.95.72,0,.91.12.9.12.95.01.67.11.9.12,1.31-1.78.43-1.69-.96-1.19.6-1.29-1.1-2.43-1.22-1.43-2.27.11-.12.36-.08.72-.48.38-.42.2-.95.72-.84Z" style="fill: #f9b6b6; stroke-width: 0px;"/>
        <path d="M65.79,48.69c-.73-1.11-.03-1.45,0-1.67,1.26-.5,2.9-.64,2.74,1.13-1.12,1.32-2.13.64-2.74.54Z" style="fill: #f9b6b6; stroke-width: 0px;"/>
        <path d="M24.86,17.3c-.47.75.88.45.6,2.09-.23.52-.97-.6-.95.66-1.06-.77-2.04-2.28-1.01-3.46.4-.12,1.29.71,1.37.72Z" style="fill: #f9b6b6; stroke-width: 0px;"/>
        <path d="M10.31,36.4l-.36.12c-.3-.37-1.33-.58-1.55-.84-.18-.21-.18-.73-.36-1.07,2.85-3.26,2.2,1.54,2.27,1.79Z" style="fill: #fbcbc6; stroke-width: 0px;"/>
        <path d="M15.32,29.71c.5.82-1.04.27-.12,1.43-.1.21-.35.71-.36.84-3.12.41-2.21-3.1-.42-2.51.11.03.39.46.48.48.2.04.26-.23.42-.24Z" style="fill: #fbcbc6; stroke-width: 0px;"/>
        <path d="M62.1,20.76c.04.38.43.52-.06,1.31-.35-.63-1.04-1.12-1.73-1.31-.63-.08-.13-.21.12-.95.32-.95.46-1.98.84-2.15.57.95.72,2.01.84,3.1Z" style="fill: #d32455; stroke-width: 0px;"/>
        <path d="M58.28,16.47c.04.09.09.67.12.72-1.3.43-2.52.94-3.94.84.36-.41,1.23-.7,1.43-1.19.94.03.99-.04,1.19-.84.1-.38-.3-.84.66-.84.14.47.34.87.54,1.31Z" style="fill: #721016; stroke-width: 0px;"/>
        <path d="M73.31,34.61c-.95.75-.83-1.04-1.67-.72.53-.58.27-.62.36-1.07.03-.13.12-.57.12-.6,1.65-.48,2.19,1.21,1.19,2.39Z" style="fill: #f9b6b6; stroke-width: 0px;"/>
        <path d="M27.37,15.63c-.18.64-.24.49-.48.6-.05.02-.33-.07-1.13.36-.22.11-.09.38-.54.6-.53-.87-.53-1.92.3-2.63.85-.26,1.3.83,1.85,1.07Z" style="fill: #fbcbc6; stroke-width: 0px;"/>
        <path d="M61.26,17.66c-.38.17-.52,1.2-.84,2.15-.6-.13-.2-1.54-.66-1.67-.04-.01-.47.46-.66.06.9-.45-.16-.6-.36-.78,1.06-1.21,1.75-1.01,2.51.24Z" style="fill: #f9b6b6; stroke-width: 0px;"/>
        <path d="M72.12,32.22s-.09.46-.12.6c-.47.07-.83.53-1.31.6.57-.71.21-.78.36-1.49-2.55,0-.06-.61,0-.95.01-.07-.51-.55-.6-.66,1.59-.01,1.7.5,1.67,1.91Z" style="fill: #f6a0a7; stroke-width: 0px;"/>
        <path d="M27.25,6.44c.03.12.02.65,0,.84-.08.68-.44.92-.48,1.07-1.37-.08-1.16-1.1-1.19-1.19.17-.51.55-.49.6-1.07.6-.45.9-.33,1.07.36Z" style="fill: #d32455; stroke-width: 0px;"/>
        <path d="M65.79,46.78c0,.08.01.16,0,.24-.03.22-.73.56,0,1.67-.81-.13-.55-.65-2.15-.12-.23-.17-.67-.3-.95-.48-.35-.22-.72-.48-.95-.84.07-.01-.02-.52,1.19.12.06.03.47.82,1.13.72.46-.07.82-1.29,1.73-1.31Z" style="fill: #541317; stroke-width: 0px;"/>
        <path d="M1,42c.51.18,1.24-.41,1.31-.12l-.24.18c.79.63.05.66.72.78v.48c-.33-.2-.89.34-1.13.24-.3-.13-.6-1.15-1.01-.84-.17-.33-.37-.51-.48-.84.6-1.19.34-.06.84.12Z" style="fill: #f9b6b6; stroke-width: 0px;"/>
        <path d="M17.35,28.52c-.89.19-.92.8-.72,1.55-.33-.24-.48-.48-.95-.48-.52-.38-.15-1.43.3-1.91.85-.41,1.31.77,1.37.84Z" style="fill: #fbdbd7; stroke-width: 0px;"/>
        <path d="M17.7,21.12c.15.14.34.34.36.36.36,2.01-.21,1.58-.24,1.67-.72-.83-.97,0-1.31-.78l.6-1.07.6-.18Z" style="fill: #d32455; stroke-width: 0px;"/>
        <path d="M65.67,46.42c.17,0,.12.17.12.36-.91.02-1.27,1.24-1.73,1.31-.66.1-1.07-.68-1.13-.72v-.12c.87-.49,1.23.12,1.37-.12.14-.23,0-.51.06-.72.59-.33.75-.21,1.31,0Z" style="fill: #fbb57d; stroke-width: 0px;"/>
        <path d="M5.29,42.12c.28.74-1.26-.79-1.91.72-.62-.24-.57,0-.6,0-.67-.12.07-.15-.72-.78l.24-.18c.94-1.04,1.12-.03,2.98.24Z" style="fill: #d32455; stroke-width: 0px;"/>
        <path d="M62.93,47.26v.12c-1.21-.64-1.13-.13-1.19-.12-.04,0-.08,0-.12,0,0-.6-.74-.2-.6-.72.16-.13.8-.67.84-.72,1.12,0,1.23.42,1.07,1.43Z" style="fill: #721016; stroke-width: 0px;"/>
        <path d="M18.3,35.92c.02.78,0,1.12-.36,1.91-.18-.08-.42-.18-.6-.24-.14-.44-.21-.98-.24-1.07-.5-1.55-.58-.17,1.19-.6Z" style="fill: #d03e7f; stroke-width: 0px;"/>
        <path d="M15.56,31.38c-.19.72.24,1.95.84,2.39-.36.4-.6.36-.72.48-.28-.75-.87-1.42-.84-2.27,0-.13.26-.62.36-.84.01.02.19.09.36.24Z" style="fill: #e67093; stroke-width: 0px;"/>
        <path d="M1.24,39.98l-.24,2.03c-.49-.17-.23-1.31-.84-.12-.33-.98-.25-2.27,1.07-1.91Z" style="fill: #fbdbd7; stroke-width: 0px;"/>
        <path d="M2.79,43.32v.89c-1.34.69-1.72-.68-2.15-1.49.41-.31.71.71,1.01.84.25.1.81-.44,1.13-.24Z" style="fill: #fbcbc6; stroke-width: 0px;"/>
        <path d="M44.67,5.13c0,.46.12.34.12.36-.17.94-.84.98-1.43,1.55.06-.3-.12-.39-.12-.48,0-.07.34-.96.36-1.43.28.21.8.27,1.07,0Z" style="fill: #fbcbc6; stroke-width: 0px;"/>
        <path d="M12.33,45.47c-.68.47-1.35.76-2.15.95-.21.03-.24-.13-.48-.12l.24-.95c1.06.41,2.1-.13,2.21-.12.09,0,.16.24.18.24Z" style="fill: #a41e22; stroke-width: 0px;"/>
        <g>
          <path d="M37.04,2.03c-.9-.65-1.16.53-1.49.6-.15.03-.44-.26-.54-.24.11-.37-.33-1.67.89-2.39,1.2.18,1.21,1.09,1.13,2.03Z" style="fill: #fbdbd7; stroke-width: 0px;"/>
          <g>
            <path d="M33.34,3.7c0,.2.02.4,0,.6,0,.1-.43-.09-.24,1.79-.7-.5-1.44-.71-2.27-.72l-.12-1.31c.33.51.97.87,1.55.66.11-.15-1.07-1.12-.84-2.57.05-.27.4-.65.54-.95,1.21-.26,1.39,1.51,1.37,2.51Z" style="fill: #cc1f3f; stroke-width: 0px;"/>
            <path d="M37.04,2.03c0,.06.22.31.12.54-.21.46-1.15.23-1.49.54-.15.13-.27.84-.42,1.01-.46.54-.8.61-.84.66l-.95-.48c.77-.16,1.35-1.22,1.55-1.91.09-.02.39.27.54.24.33-.07.59-1.24,1.49-.6Z" style="fill: #cc1f3f; stroke-width: 0px;"/>
            <path d="M31.43,2.15c-.24,1.45.95,2.42.84,2.57-.58.22-1.22-.15-1.55-.66-.75-1.16-.31-2.67.72-1.91Z" style="fill: #f8eae4; stroke-width: 0px;"/>
            <path d="M33.34,4.3h.12l.95.48c-.17.22-.33,1.75-.24,2.15l-.12.12c-.04-.06-.9-.92-.95-.95-.19-1.88.23-1.69.24-1.79Z" style="fill: #a41e22; stroke-width: 0px;"/>
            <path d="M35.01,2.39c-.2.69-.78,1.75-1.55,1.91h-.12c.02-.19,0-.4,0-.6.54-.79.72-1.14,1.67-1.31Z" style="fill: #d32455; stroke-width: 0px;"/>
          </g>
        </g>
        <path d="M26.18,6.09c-.05.58-.43.57-.6,1.07-1.06-2.87.7-2.32.6-1.07Z" style="fill: #fff; stroke-width: 0px;"/>
        <g>
          <path d="M66.39,16.83c-.37.28-.34.66-.72.95-.88-.48-1.44-2.18.06-1.91.88.16.63.9.66.95Z" style="fill: #fbcbc6; stroke-width: 0px;"/>
          <g>
            <path d="M66.63,17.54c-.04,1.23-.56,2.25-1.55,3.04,1.71.27,1.74-2.37,2.39-1.73.04.14-.09.38.24.48-1.02,1.17-3.03,2.65-3.46,2.09.47-.89.22-.89.12-1.37-.22-1.32.12-1.58.12-1.67.36-.35.8-.29,1.19-.6.38-.3.35-.67.72-.95.06.16.27-.37.24.72Z" style="fill: #d32455; stroke-width: 0px;"/>
            <path d="M64.36,20.05c.1.49.35.48-.12,1.37.43.56,2.44-.92,3.46-2.09.04-.05.31-1,.84-.36v.95c-.2-.08-.26-.31-.54-.24-.14.03-.64,1.03-2.21,1.79-.82.32-2.57,2.03-2.98,2.15.1-.64,1.06-2.31,1.07-2.63.02-.5-.49-1.11-.6-1.67-.03-.17,0-.5,0-.72.61.03.96.91,1.07,1.43Z" style="fill: #721016; stroke-width: 0px;"/>
            <path d="M67.46,18.85c-.65-.64-.68,2-2.39,1.73.99-.79,1.51-1.81,1.55-3.04.61.38.66.66.84,1.31Z" style="fill: #eb8090; stroke-width: 0px;"/>
            <path d="M64.48,18.38c0,.09-.34.35-.12,1.67-.11-.52-.47-1.41-1.07-1.43.04-1.6,1.11-1.81,1.19-.24Z" style="fill: #ed7078; stroke-width: 0px;"/>
            <path d="M63.29,19.33c.1.56.62,1.17.6,1.67l-.72.54-.12-1.73c.07-.21-.15-.54.24-.48Z" style="fill: #db5a7a; stroke-width: 0px;"/>
          </g>
        </g>
        <path d="M28.2,6.68c-.04.06.04.35,0,.42-.11.19-.37.3-.48.54l-.48-.36c.02-.18.03-.71,0-.84.46-.19.57-.03.95.24Z" style="fill: #f8eae4; stroke-width: 0px;"/>
        <g>
          <path d="M51.95,2.27c-.18-.14-1.42.82-1.55.95-2.3-2.56,1.01-2.04,1.55-.95Z" style="fill: #fbcbc6; stroke-width: 0px;"/>
          <g>
            <path d="M54.34,4.53c-.65.8-1.71.57-2.39-.12.03-.09.24-.68.24-.72.72.01,1.94-.03,2.15.84Z" style="fill: #fbdbd7; stroke-width: 0px;"/>
            <path d="M54.34,4.53l.12.42c-.99,1.52-1.86.67-2.86-.06.12-.2.35-.45.36-.48.68.69,1.73.92,2.39.12Z" style="fill: #eb8090; stroke-width: 0px;"/>
          </g>
          <g>
            <path d="M51.95,2.27c.31.63-.17.39-.12.66.02.09.4-.12.36.78,0,.04-.2.63-.24.72-.01.03-.24.28-.36.48-.36.6-.68.75-1.07,1.19l-.72-.12c-.11-.78-.69-1.13-.72-1.19-.14-.32-.93-1.81-.18-1.79,1.65,1.8,1.04.71,1.49.24.13-.13,1.37-1.1,1.55-.95Z" style="fill: #d32455; stroke-width: 0px;"/>
            <path d="M50.52,6.09c-.27.31-.22.46-.24.48-.21.2-.39.43-.6.6.11-.38.17-.8.12-1.19l.72.12Z" style="fill: #721016; stroke-width: 0px;"/>
          </g>
        </g>
        <path d="M37.04,51.19c.58.87,3.2,4.79,3.34,5.37-1.95-1.2-1.59-.78-1.55.12-.31-.68-.59-1.37-.95-2.03-.27-.48-1.67-2.69-1.91-2.98l1.07-.48Z" style="fill: #541317; stroke-width: 0px;"/>
        <path d="M61.62,47.26s.08,0,.12,0c.23.35.61.61.95.84-.23.71.18.7.12.95l-2.63-.78c.38-.55.82-.85,1.43-1.01Z" style="fill: #f8eae4; stroke-width: 0px;"/>
        <path d="M28.8,36.75c.57.37,1.42.75,2.15,1.19.02.11-.03.27,0,.36-1.36-.23-1.38.35-1.07,1.43-.12-.02-.4-.08-.48-.12-.03-.02.05-.54-.48-.06.16,1.32-.06-.02-2.27.54-1.02.26-1.87.89-2.74,1.43.08-1.2.3-1.92-.18-1.91-1.49,1.44-.16,4.02-1.85,1.97-.27-.33-1.99-3.31-2.74-4.18.08-.71-.05-1.39-.12-2.09-.1-1.06-.6-2.77.42-3.34,1.41,1.92.28-.41,2.33-.95,1.19-.32,2.12.06,1.49.36-1.5-.11-2.47,1.35-1.43,2.15.67.51,1.3-.2,1.37.18.08.42-.55,4.37,1.73,1.49.57,1.27,2.65,2.22,3.88,1.55Z" style="fill: #db5a7a; stroke-width: 0px;"/>
        <path d="M46.7,41.17c.57,1.81-.14,3.19,1.31,1.67,0,.03.44.07.48.3.04.29-.73.68-.36.78-1.66,2.02-2.25,4.91-3.22,7.28-.8.53.71-2.18.72-2.33,0-.19-.47-2.6-1.31-1.01.85-1.99,1.67-2.62,1.31-5.19-.17-1.2-.85-1.74-1.43-2.68-.35-.58-.61-.13-.36-1.07.01-.04-.01-.09,0-.12.21,0,.7-.45.84-.6.72.95,1.67,1.86,2.03,2.98Z" style="fill: #1d151a; stroke-width: 0px;"/>
        <path d="M35.72,30.07c.28,1.19,1.77,2,1.79,3.46,0,.1-.4,1.65-.48,1.97-.03.14-.47.73-.48.78-.04-.18-.48-.17-.6-.24-.83-.48-1.3-1.24-1.79-2.03-.32-1.42.23-4.4,1.55-5.13.05.36-.06.92,0,1.19Z" style="fill: #db5a7a; stroke-width: 0px;"/>
        <path d="M30.95,31.03c1.3,2.45,2.11,1,2.45,1.19.09.05.31,1.04.78,1.79.49.78.96,1.55,1.79,2.03-.7.7-.37.66-.36.84-.41.06-.34-.11-.36-.12-.86-.75-2.31-2.69-1.31-.48.07.16.15.33.24.48l-.36.24c-.34-.46-1.6-3.06-2.15-1.49-.39,1.13.66,2.16-.95,1.37-1.48-.72-1.19-1.21-.48-2.27,1.16-.88,2.33.72,2.63.36.42-1.15.01-1.13,0-1.19-.22-1.42-.25-1.68-.6,0-.23.02-.35.17-.6.12-.02-.02-.31.02-.48-.3-.02-.03.18-.37,0-.72-.23-.45-.65-.96-.72-1.13-.11-.3.03-.41,0-.72.02,0,.45,0,.48,0Z" style="fill: #541317; stroke-width: 0px;"/>
        <path d="M40.38,56.56c.24,1-.06,1.36,0,2.21,0,.07.24.28.24.3.11,1.95-.04,4,0,5.97,0,.21,0,.4,0,.6l-1.31.78v-3.16c.24-2.18-.38-4.41-.48-6.56-.04-.9-.4-1.32,1.55-.12Z" style="fill: #7e3435; stroke-width: 0px;"/>
        <path d="M38.71,51.19c.27-2.18-.06-4.64.95-6.68,0-.02.23.06.36-.18.1-.18,1.53-2.95,1.91-2.27-1.77,3.75-2.04,7.48-1.91,11.58-.59-.72-.84-1.66-1.31-2.45Z" style="fill: #541317; stroke-width: 0px;"/>
        <path d="M37.63,42.12c-.31-.02-.43.81-.48,1.13-.35,2.24.02,4.74.84,6.86-.75-.94-.63-1.05-2.21-1.31l-.06.24c-.1-.14-.25-.33-.36-.48-.26-.35-1.01-1.43-1.43-1.67.57-.55.5-1.85,1.55-1.19.49.66.35.65.48-1.91,1.61,1.16.58-1.36,1.49-1.91l.18.24Z" style="fill: #1d151a; stroke-width: 0px;"/>
        <path d="M33.81,36.99c.88,1.2,2.18,2.66,1.73,3.58-1.72-1.27-2.92-2.75-4.95-3.58l.12-.12c1.61.79.56-.24.95-1.37.55-1.56,1.81,1.03,2.15,1.49Z" style="fill: #f9b6b6; stroke-width: 0px;"/>
        <path d="M38.94,33.89c-.12.38-.78.64-.84,1.37-.03.38.33,1.34.36,1.61-.9.65-1.14,1.38-1.49,2.39-.32-1.09-.69-1.83-.42-2.98.01-.04.45-.64.48-.78.07-.32.48-1.87.48-1.97l1.43.36Z" style="fill: #f9b6b6; stroke-width: 0px;"/>
        <path d="M66.75,42.84c-.64.13-1.27.15-1.91.24-.24.03-2.84.44-2.86.3,1.67-.41,2.54-1.54,2.68-1.61.08-.04.33.04.42,0,.43-.2,1.29-.3,1.37-.36.1-.07.19-1.49,1.61-.18.15,1.47-1.47.98-1.31,1.61Z" style="fill: #f6a0a7; stroke-width: 0px;"/>
        <path d="M41.69,64.68l-1.07.36c-.04-1.97.11-4.02,0-5.97l.95.06c-.05,1.85.09,3.7.12,5.55Z" style="fill: #541317; stroke-width: 0px;"/>
        <path d="M40.62,70.29c-.1-1.52.03-3.12,0-4.65,0-.2,0-.39,0-.6l1.07-.36c.04,2.47.7,3.42-1.07,5.61Z" style="fill: #541317; stroke-width: 0px;"/>
        <path d="M68.9,41.17c.26.26.27.49.72.6-.69.76-1.89.88-2.86,1.07-.16-.63,1.46-.14,1.31-1.61-1.42-1.31-1.51.11-1.61.18-.08.06-.95.16-1.37.36-.04-.2.03-.32.12-.48.21-.38.59-.57.84-.95,1.95-.56,1.75-.28,2.86.84Z" style="fill: #eb8090; stroke-width: 0px;"/>
        <path d="M40.97,39.86c-.53.85.13,2.13-.78,2.86l-1.25-2.15c.3-.35.74-.39-.95-1.31.08-.39.28-.73.36-1.07.52,1.25,1.16,2.14,2.63,1.67Z" style="fill: #eb8090; stroke-width: 0px;"/>
        <path d="M58.99,38.31c-.15,1.2-.4,2.39-.6,3.58-.09-.05-1.42-1.29-1.55-1.43-.03-.03-.05-.52-.6-.6-.08-.18-.32-.08-.24-.42,1.44-.77,1.37.39,1.97.3,1.08-.78-.15-2.37,1.01-1.43Z" style="fill: #9b2431; stroke-width: 0px;"/>
        <g>
          <path d="M34.77,40.93c-.2.29.43.93.48,1.25.14.94-.41,1.85-.12,2.8-1.33-2.54-1.19-4.72-3.94-6.32-.1-.19-.14-.01-.24-.36-.03-.09.02-.24,0-.36,1.44.87,2.54,1.92,3.82,2.98Z" style="fill: #f6a0a7; stroke-width: 0px;"/>
          <path d="M35.96,43.79c-.13,2.55.02,2.57-.48,1.91-.37-.5-.34-.68-.36-.72-.29-.95.26-1.87.12-2.8-.05-.32-.68-.96-.48-1.25.32.27,1.25.6,1.31.78.09.24-.09,1.54-.12,2.09Z" style="fill: #fbcbc6; stroke-width: 0px;"/>
        </g>
        <path d="M66.75,37.59c.13.21.29.74.24.95-.02.1-.84,1.61-.95,1.79-.25.39-.63.58-.84.95l-.36-.6c.43-.47.79-1.35,1.07-1.91.4-.77.43-1.32.48-1.37.22-.21.34.17.36.18Z" style="fill: #541317; stroke-width: 0px;"/>
        <path d="M59.95,42.24c-2.58,2.59-3.04,3.01-1.55-.36.23.13,1.24.34,1.55.36Z" style="fill: #e2e4dc; stroke-width: 0px;"/>
        <path d="M54.82,41.29s.08,0,.12,0c.33.06,1.46.84,2.33.84.24.23-.27.76-.3.84-1.08-.16-1.67-1.03-2.63-1.43v-.12s-.1-.15.48-.12Z" style="fill: #d0cecb; stroke-width: 0px;"/>
        <path d="M38.94,40.57c-.17.2-.46.34-.6.6l-.6-.6c0-.57.14-.81.24-1.31,1.7.92,1.25.96.95,1.31Z" style="fill: #ef9ab1; stroke-width: 0px;"/>
        <g>
          <path d="M36.56,36.28c-.27,1.16.1,1.89.42,2.98.36-1.01.6-1.74,1.49-2.39,0,.01.1-.08.12.24.02.4-.16.7-.24,1.07-.08.35-.28.68-.36,1.07-.1.5-.24.74-.24,1.31,0,.59-.1,1.03.42,1.43.4-.04.16-.79.18-.84.13-.26.43-.4.6-.6l1.25,2.15c.9-.74.25-2.02.78-2.86.18-.28.85-.39,1.43-1.55.06-.02.2.02.24,0,.38.59.04.93.84.72.12-.03.22-.01.36-.12-.25.95,0,.5.36,1.07l-1.01-.48c-.63,4.42-2.36,9.09-1.25,13.66.71-1.81,1.63-3.53,2.39-5.31.84-1.58,1.32.83,1.31,1.01,0,.14-1.52,2.86-.72,2.33,2.24-2.04,10.56-5.79,11.04-6.21.42-.36.81-1.48,1.01-2.03.03-.07.54-.61.3-.84-.87,0-2-.78-2.33-.84.54-.53,1.73.1,1.91-.84.13.14,1.46,1.38,1.55,1.43-1.49,3.37-1.03,2.94,1.55.36.77.05,2.45-.2,3.22-.48.63-.22,1.22-.58,1.67-1.07l.36.6c-.09.16-.16.28-.12.48-.09.04-.33-.04-.42,0-.14.07-1.01,1.2-2.68,1.61.03.15,2.62-.27,2.86-.3.6,1.34-.59,1.01-2.51,1.55-.19.05-.05.19-.24.24-3.69.99-6.43.96-9.9,3.76,3.06,1.08,6.44-.05,8.83-2.09-.14.52.59.12.6.72-.61.17-1.05.46-1.43,1.01l2.63.78c-1.35.98-2.76-.29-3.16-.24-.09.01-1.06.82-1.43.95-4.19,1.58-7,0-8.23.24-.33.06-5,3.9-5.19,4.18-.52.75-1.33,5.63-1.43,6.8-.06.72.01,1.63,0,2.39-.03,1.98-.61,2.65.48,2.98-.71-.07-.75.99-.6,1.49.08.27,2.87,1.74,3.04,1.73.23,0,2.62-2.01,2.8-2.51.33.07.47-.18,1.31.48,1.14.89.54,1.59-.24,2.51-.25.29-1.94,1.66-2.33,1.91-3.12,1.99-4.29,1.39-5.43,1.67-.53.13-1.76,1.06-1.97,1.07-.39.03-7.46-1.24-7.7-1.61-.08-.12.16-.22.12-.3,1.03-1.03,1.67-1.51,2.98-2.15.46-.23,2.81-1.18,3.16-1.07.69.48,1.54,4.58,2.15,4.53,1.04-.67-.32-.68-.54-3.82,1.77-2.18,1.11-3.14,1.07-5.61-.03-1.85-.17-3.7-.12-5.55l-.95-.06s-.23-.23-.24-.3c-.06-.85.24-1.21,0-2.21-.14-.58-2.76-4.5-3.34-5.37-.46-.69-.83-1.46-1.31-2.15l.06-.24c1.57.26,1.45.37,2.21,1.31.3.38.47.67.72,1.07.47.78.73,1.72,1.31,2.45-.13-4.1.14-7.83,1.91-11.58-.38-.68-1.81,2.09-1.91,2.27-.13.24-.35.16-.36.18l-2.03-2.39-.18-.24c-.91.55.12,3.07-1.49,1.91.03-.54.21-1.85.12-2.09-.06-.17-.99-.51-1.31-.78-1.27-1.06-2.38-2.12-3.82-2.98-.73-.44-1.57-.82-2.15-1.19.25-.13-.74-.8,1.79.24,2.03.83,3.23,2.31,4.95,3.58.45-.92-.85-2.38-1.73-3.58l.36-.24c.45.76,1.25,1.29,1.73,2.03.03-1.61-.29-1.81-.3-1.91-.01-.17-.34-.13.36-.84.12.07.56.06.6.24Z" style="fill: #2e1312; stroke-width: 0px;"/>
          <path d="M35.25,36.75s-.05.17.36.12c0,.1.33.3.3,1.91-.48-.74-1.28-1.27-1.73-2.03-.09-.15-.17-.32-.24-.48.45.13.87.32,1.31.48Z" style="fill: #ef9ab1; stroke-width: 0px;"/>
          <path d="M60.84,42.48c1.47-.27,1.34,1.22-1.49,1.37.34-.27,1.18-1.32,1.49-1.37Z" style="fill: #e2e4dc; stroke-width: 0px;"/>
          <path d="M38.35,41.17s.22.8-.18.84c-.52-.41-.41-.85-.42-1.43l.6.6Z" style="fill: #d03e7f; stroke-width: 0px;"/>
        </g>
        <path d="M41.69,24.7c-1.19-.91-2.26.05-2.03.54,1.78.36.77.33.6.89-.26-.53-1.02-.44-1.49-.72-.85.12-.42.65-.42.72-.03.81.25,1.85.48,2.63l-.48.24c-.67-1.23-.9-.07-1.13,0-.74.22-.47-.68-1.49-.12-1.32.73-1.88,3.72-1.55,5.13-.47-.75-.69-1.74-.78-1.79-.34-.19-1.14,1.26-2.45-1.19.81-.22,1.71-1.05.95-1.85,1.09-.35,1.08-.97,1.31-1.13.19-.13.81-.19,1.07-.24.18.12.09.28.3.24.99-1.28-.02-2.66-.18-3.22-.43-1.52,1.03-2.47,1.19-2.21-1.35,2.67,3.66,1.43,3.1-1.67-.12-.69-1.23-1.08-.3-1.97.37-.09,1.11,1.09,2.21-.24,1.02,1.85.91,3.94,1.07,5.97Z" style="fill: #db5a7a; stroke-width: 0px;"/>
        <path d="M44.55,13.01c.74,1.43,1.5,2.48,1.55,4.18-.01,0,.02.01-.24.12-1.29.51-1.6-.36-1.85,2.51.2-.64.81-1.05,1.13-1.43.26.12.5-.02.72-.12-.76,1.69-2.3,3.44-2.39,3.64-.21.49-.11,1.19-.12,1.25-.23,1.28-.88,5.21-.12,4.89,1-.19,1.49-.55,1.07.24-.14.27-.66.68-.84,1.01-.98,1.88-.27,2.83-1.79,1.25.36-1.54.31-3.1.24-4.65-.02-.42-.21-.82-.24-1.19-.17-2.02-.05-4.11-1.07-5.97.02-.02-.04-.44.18-.48.08-.02.63.85,1.43.6.36-.11.47-.87.84-1.19.05-.04.44.19,1.01-.6.82-1.12.43-2.01,0-3.1-.11-.27-.9-.66.48-.95Z" style="fill: #541317; stroke-width: 0px;"/>
        <path d="M27.01,21.48l2.03,2.39c-.45.37-1.4,2.16-1.55,2.74-.12-.15-.52-.2-.72-.24-.21-.04-.32-.12-.48-.12.39-1.3.59-1.29.6-1.37.04-.36-.48-.79-.48-.84.01-.19,2.12-.96-1.91-1.91,1.97-.1,2.06-.57,2.27-.66.05-.02.19.02.24,0Z" style="fill: #eb8090; stroke-width: 0px;"/>
        <g>
          <path d="M27.73,7.64c-.05.11-.7,2.21-.72,2.33-.04.27.43,1.39-.12,1.37-.09-.26-.45-.78-.48-1.13-.05-.64.22-1.24.36-1.85.04-.15.4-.4.48-1.07l.48.36Z" style="fill: #f9b6b6; stroke-width: 0px;"/>
          <path d="M35.01,8.23c1.49,1.63.58,2.9,1.55,2.39-.01.06-.01.21,0,.24-.85-.06-.35.89-.36.95-.12.79-.51,1.51-.24,1.55-.27.33-.85.41-.95.89-.14.63.31,1.14.24,1.67-.01.09-.49.47-.6,1.61-.28.04-.23-.11-.24-.12.36-1.23.41-2.17-.48-3.16-1-1.12-1.9-.85-3.1-1.01-2.14-.29-.51-.78,1.01,0,2.05-2.42,3.77-3.23.78-4.12.63-.67,1.64-.27,1.73-.3.16-.06-.05-.25.66-.6Z" style="fill: #eb8090; stroke-width: 0px;"/>
          <path d="M34.41,17.42c-.78-.62-.84-.36-1.31-.24-.1.03-.24-.02-.36,0,.17-1.15-1.06-3.12-1.91-3.94,1.2.16,2.1-.11,3.1,1.01.89.99.83,1.94.48,3.16Z" style="fill: #eb8090; stroke-width: 0px;"/>
        </g>
        <path d="M32.38,20.64c.19.17.51.68.72.95-.79-.06-1.22.83-1.19,1.55-.12,0-1.47.1-1.55.12-.71-1.5.2-2.49.12-3.34.85.18.94-.15,1.91.72Z" style="fill: #f9b6b6; stroke-width: 0px;"/>
        <path d="M29.28,22.55c.22.27.59.46.72.84-.08.02-.91.44-.95.48l-2.03-2.39c.12-.06,1.03-.56,1.07-.6.38.56.75,1.15,1.19,1.67Z" style="fill: #541317; stroke-width: 0px;"/>
        <path d="M36.56,10.62c-.97.52-.06-.76-1.55-2.39.7-.34,1.38-.33,1.79.42.63,1.14-.22,1.87-.24,1.97Z" style="fill: #d32455; stroke-width: 0px;"/>
        <path d="M27.49,26.61c-.69,2.73.59,3.39-1.55,2.63.08-.39.3-.39.36-.6.49-1.66-.25-1.08-.24-1.37,0-.21.6.05.72-.89.2.04.59.09.72.24Z" style="fill: #721016; stroke-width: 0px;"/>
        <path d="M33.1,21.6c.21.29.4.64.72.84-.04.05-.19.97-.54,1.07-.39.12-1.07-.36-1.37-.36-.03-.72.4-1.61,1.19-1.55Z" style="fill: #eb8090; stroke-width: 0px;"/>
        <path d="M43,9.43c-.71.43-.4,1.88-1.19,2.39-.98-.71-1.65-.19-1.73-.24-.14-.09-.01-.45-.06-.6l.36-.36c1.74,1.04,1.67-.46,2.03-1.67,0-.02.23-.22.24-.24,0,.35-.08.73.36.72Z" style="fill: #db5a7a; stroke-width: 0px;"/>
        <path d="M30.47,19.93c.08.85-.83,1.84-.12,3.34-.06.01-.2.07-.36.12-.13-.37-.49-.57-.72-.84.29-1.12.02-2.27,1.13-2.98.11.03.04.35.06.36Z" style="fill: #d32455; stroke-width: 0px;"/>
        <path d="M44.08,13.96c.43,1.1.82,1.99,0,3.1-.68-1,.25-1.76-.72-3.34.26-.55.15.2.72.24Z" style="fill: #db5a7a; stroke-width: 0px;"/>
        <g>
          <path d="M42.29,8.59s-.02.18.12.36c-.36,1.21-.29,2.71-2.03,1.67-.9-.54-.09-1.4-.54-1.43-1.35.71-.94,1.44-1.85,2.03,0-.09-.25-.74-.24-.78.02-.11,1.01-1.69,1.25-1.85,1.13-.75,2.13-.14,3.28,0Z" style="fill: #f9b6b6; stroke-width: 0px;"/>
          <path d="M40.38,10.62l-.36.36c-1.05-3.06-.99.9-1.85.95-.57.09-.15-.48-.18-.72.91-.59.49-1.32,1.85-2.03.44.03-.36.89.54,1.43Z" style="fill: #db5a7a; stroke-width: 0px;"/>
        </g>
        <g>
          <g>
            <path d="M33.1,17.18c-.72.93.26,2.6,1.31,2.86-.09.56-.13,1.94.12,1.79-.16.21-.54.39-.72.6-.32-.2-.5-.55-.72-.84-.21-.28-.53-.79-.72-.95-.7-2.25.3-3.05.36-3.46.11-.02.26.03.36,0Z" style="fill: #d32455; stroke-width: 0px;"/>
            <path d="M34.41,17.42s-.04.16.24.12c0,.08.31-.05.12,1.43,0,.06-.2.05-.36,1.07-1.05-.26-2.03-1.94-1.31-2.86.47-.12.53-.38,1.31.24Z" style="fill: #d32455; stroke-width: 0px;"/>
          </g>
          <path d="M35.6,20.17c-.11-.27-.83-.03-1.19-.12.16-1.02.35-1.02.36-1.07.51.14,1.14-.92,1.85-1.31,1.6,1.59-.28,1.78-1.01,2.51Z" style="fill: #db5a7a; stroke-width: 0px;"/>
          <path d="M35.6,20.17c-.5.5-.66,1.12-1.07,1.67-.25.15-.21-1.23-.12-1.79.36.09,1.09-.15,1.19.12Z" style="fill: #5c1c12; stroke-width: 0px;"/>
        </g>
        <path d="M36.56,10.86s.28.06.48.36c.25.99.06.74-.84.6,0-.06-.49-1.01.36-.95Z" style="fill: #db5a7a; stroke-width: 0px;"/>
        <path d="M49.21,16.71c.34.24.29.47.48.72-1.88-.13-1.78,1.76-2.21,1.91-.86.3-3.06-.64-1.37,2.68-1.33-.67-1.88.26-2.74,1.13.01-.06-.09-.76.12-1.25.08-.2,1.63-1.95,2.39-3.64,1.1-.51,2.14-1.22,3.34-1.55Z" style="fill: #db5a7a; stroke-width: 0px;"/>
        <path d="M57.44,25.78v.84c-.81.94-.61,1.05-.72,1.43-.04.17-.06,1.19-.12,1.25-.08.09-.77.07-1.19.3-.73.39-1.48.94-1.67,1.79-.2-.2-.54-.54-.84-.48.28-.89.33-2.38-.36-3.1-.07-.4.3-.17.48-.24.25,2.45,2.41,1.31,2.74-.36.38-.15.72-.87,1.43-1.43.29-.21.23,0,.24,0Z" style="fill: #541317; stroke-width: 0px;"/>
        <path d="M44.91,12.89c1.45,1.1,2.87,2.06,2.03,3.94-.15.03-.51.25-.84.36-.05-1.69-.81-2.75-1.55-4.18.13-.03.14-.15.36-.12Z" style="fill: #d32455; stroke-width: 0px;"/>
        <path d="M55.77,27.21c-.34,1.67-2.49,2.81-2.74.36.45-.18,1.41-.9,1.43-1.43,0,.02.31-.06.36.06.14.33-.32,1.52.95,1.01Z" style="fill: #bb1e53; stroke-width: 0px;"/>
        <path d="M49.21,16.71c-1.2.33-2.24,1.04-3.34,1.55-.21.1-.46.24-.72.12.24-.29.53-.73.72-1.07.26-.1.23-.12.24-.12.32-.11.69-.32.84-.36.59-.14,1.92-.36,2.27-.12Z" style="fill: #541317; stroke-width: 0px;"/>
        <path d="M51.83,10.98c-.96,0-2.09-.68-1.07-1.55.56.3,1.55,1.03,1.07,1.55Z" style="fill: #eb8090; stroke-width: 0px;"/>
        <path d="M66.51,30.43c-.2.79.32,3.49,1.19,3.1.07.12,1.05.95.54.95-.73-1.03-1.08-.31-1.79-.48-.19-.05-2.14-1.92-3.52-.42-.34,1.21,1.49,1.19,1.85,1.37.8.39,1.13.78,1.25.84.17.36-.11,1.21-.36,1.49-.27.3-.26.01-.36.06-.3-.96-1.55-.02-1.67.24-.06-.39-.73.06-1.31-.18.98-.37.88.1,1.19-.66.28-2.41-2.26.48-2.51.6-.46.23-.45.12-.72-.24-1.19-1.58.2-4.04,1.07-5.49.03.02.61-.09.72,0,.83,1.4,1.39.41,1.19-.84.94-.46,1.86-.44,2.86-.6.01.02.28.2.36.24Z" style="fill: #eb8090; stroke-width: 0px;"/>
        <path d="M62.57,23.75c1.82,1.59.68,1.21.6,1.73-.04.26.68,1.9.42,2.09-1.94-.28-4.35.73-4.3,0,2.54-.12,1.12-1.37-.3-1.79.31-1.01,1.36-.39,2.03-1.13.99-1.1-.71-2.87,1.55-.89Z" style="fill: #db5a7a; stroke-width: 0px;"/>
        <path d="M69.97,36.04c.16.29,0,.79-.12,1.07,0,0-.03-.04-.12.12-.03.06,0,.38-.36.6-.96.56-1.71-.04-2.63-.24-.02,0-.14-.39-.36-.18-.05.05-.08.6-.48,1.37l-.72-1.31c.16-.08.11-.12.12-.12.1-.05.09.24.36-.06.25-.28.53-1.13.36-1.49.78.33.74.02,1.07,0,.58.82.78,2.02,1.91,1.31.37-.24.4-.37.6-.72.12-.22.19-1.3.36-.36Z" style="fill: #d32455; stroke-width: 0px;"/>
        <path d="M62.33,29.47c.29.48.86.69.95,1.31.2,1.25-.36,2.23-1.19.84-.07-.12-.16-1.01-1.19-2.39.27.05,1.36.24,1.43.24Z" style="fill: #541317; stroke-width: 0px;"/>
        <path d="M66.15,30.19c-1.01.16-1.93.13-2.86.6-.1-.62-.66-.83-.95-1.31,1.04,0,2.45-1.05,3.82.72Z" style="fill: #db5a7a; stroke-width: 0px;"/>
        <path d="M67.7,33.53c-.88.39-1.39-2.31-1.19-3.1.18-.73,2.57-1.66,2.63-1.25.12.91-3.93.51-1.43,4.36Z" style="fill: #db5a7a; stroke-width: 0px;"/>
        <path d="M60.9,29.24c1.03,1.38,1.12,2.27,1.19,2.39-.1-.09-.69.02-.72,0-.05-.03-.6-.7-.72-.84-.06-.07-.74-1.12-1.07-1.55-.01-.01.02-.18-.12-.36.71.09.77.24,1.43.36Z" style="fill: #d03e7f; stroke-width: 0px;"/>
        <path d="M72,32.82c-.09.45.17.49-.36,1.07-.11.12-.4.21-.48.36-.09-.09-1.95-.86-2.27-.89.61-.17,1.15.15,1.79.06.48-.07.84-.52,1.31-.6Z" style="fill: #a41e22; stroke-width: 0px;"/>
        <path d="M69.61,36.4c-.19.34-.22.48-.6.72-.41-.49-1.27-.8-1.31-1.43.89-.07,1.12.31,1.91.72Z" style="fill: #db5a7a; stroke-width: 0px;"/>
        <path d="M67.7,35.68c.04.63.9.94,1.31,1.43-1.13.71-1.33-.5-1.91-1.31.17,0,.28-.1.6-.12Z" style="fill: #db5a7a; stroke-width: 0px;"/>
        <path d="M59.47,28.88c.14.18.11.34.12.36-.14.21-.32.4-.48.6,0,.01-.23.11-.24.12-.13-.43-.53-.58-.84-.84,1.6-.73,1.35-.25,1.43-.24Z" style="fill: #351a10; stroke-width: 0px;"/>
        <path d="M57.92,25.78c.4.63-.44.79-.48.84v-.84c.14,0,.34,0,.48,0Z" style="fill: #db5a7a; stroke-width: 0px;"/>
        <path d="M35.13,44.99s-.01.22.36.72c-1.06-.65-.99.65-1.55,1.19-.78-.45-1.59-.1-2.39.12,0-.39.07-.7-.12-1.07,2.34.25,2.3.13.54-1.31l-1.01.95c-.84-.31-1.23-.08-1.91.24-.21.1-.63.07-.6.48-.24-.47.12-.32.12-.72.87-.14,2.4-.77,2.98-1.49.07-.33-3.38-4.43-2.15-4.47.08.04.35.09.48.12.45,1.59,2.7,4.71,3.16,4.42-.13-2.11-.89-3.67-1.85-5.49,2.75,1.6,2.61,3.79,3.94,6.32Z" style="fill: #2e1312; stroke-width: 0px;"/>
        <path d="M21.64,30.67l.12.36c-2.04.55-.92,2.87-2.33.95-1.02.57-.52,2.28-.42,3.34l-.84-.72c0-.06-.11-.05-.12-.95,0-.67.07-1.26.12-1.91.03-.38.11-.42.12-.48.19-.31,1.01-1.35,1.19-1.43,1.58-.7,1.01,1.11,2.15.84Z" style="fill: #fbcbc6; stroke-width: 0px;"/>
        <g>
          <path d="M29.4,39.62c-1.23.05,2.21,4.15,2.15,4.47-.58.72-2.12,1.35-2.98,1.49-1.57.26-2.68-.33-3.82-1.43.28-1.5,1.52-2.84,1.91-4.06,2.21-.56,2.43.79,2.27-.54.53-.48.45.04.48.06Z" style="fill: #eb8090; stroke-width: 0px;"/>
          <path d="M26.65,40.1c-.39,1.22-1.63,2.56-1.91,4.06-1.78-1.73-.85-2.37-.84-2.63.87-.54,1.73-1.18,2.74-1.43Z" style="fill: #f9b6b6; stroke-width: 0px;"/>
        </g>
        <path d="M33.93,46.9c.43.24,1.17,1.33,1.43,1.67.01.07-.16.24-.18.24-.26,0-4.67-1.2-4.95-1.31.13-.14.41-.17.6-.24.24-.08.47-.17.72-.24.8-.22,1.61-.56,2.39-.12Z" style="fill: #fff; stroke-width: 0px;"/>
        <path d="M21.52,44.15c.18-.55-.73-.25-1.67-.78.16-.3.75-.42.84-.54l2.51,1.37c.08.66-1.08.05-1.67-.06Z" style="fill: #f6a0a7; stroke-width: 0px;"/>
        <path d="M26.3,26.25c.15,0,.27.08.48.12-.12.94-.71.69-.72.89,0,.29.73-.28.24,1.37-1.14-1.9-1.72-.74-2.63-.95.51-.66,1.77-1.41,2.63-1.43Z" style="fill: #db5a7a; stroke-width: 0px;"/>
        <path d="M19.49,28.4v1.43c-.18.08-1,1.13-1.19,1.43,0-.02-.04,0,0-.48.06-.65.24-1.2-.18-.48-.26-.5.18-.82.42-1.19.14-.22.9-1.37.95-.72Z" style="fill: #f6a0a7; stroke-width: 0px;"/>
        <g>
          <path d="M17.7,21.12l-.6.18-.6,1.07c.34.78.59-.05,1.31.78-.41,1.14-.46,1.02-.48,1.07-.26-.56-1.24-.02-2.09-.48-.83-.77,1.13-2.14,1.67-3.22,1.11.02.73.55.78.6Z" style="fill: #fbcbc6; stroke-width: 0px;"/>
          <g>
            <path d="M24.63,20.29c.65.04,1.83.56,2.15,1.19-.21.09-.29.56-2.27.66,4.03.95,1.92,1.72,1.91,1.91,0,.05.52.48.48.84,0,.08-.21.07-.6,1.37-.85.03-2.11.78-2.63,1.43-.32.41-.27.97-.54,1.07-.5.19-1.73-.46-1.25.6-1.23-.28-1.23-.28-2.39-.95-.06-.66-.82.5-.95.72l-.24-.48c.77-.94-2.02-1.15-.95-4.42.02-.06.07.06.48-1.07.03-.09.6.34.24-1.67.73.65.34,0,.89-.24,1.97-.88,1.91,1.4,2.92.66-.21-4.46,1.87-1.31,2.09-1.25.4.11.61-.36.66-.36Z" style="fill: #f9b6b6; stroke-width: 0px;"/>
            <path d="M20.93,23.39c-.44,1.14.92,2.03,1.43,2.86.17.28.85,1.44.54,1.67-1.02-.24-1.69-.09-2.57-.6.66-2.04-.1-1.06-.48-1.61-.24-.35.09-.87-.36-1.13.15-.35.6-.88.89-1.07.51-.33.47-.09.54-.12Z" style="fill: #f6a0a7; stroke-width: 0px;"/>
            <path d="M22.36,26.25c-.51-.83-1.87-1.73-1.43-2.86.66-.31,1.08-.34,1.61-.72.2,2.84,3.41,2.27,2.63,2.74-3.45.19-2.51-2.42-3.58-2.03l-.3.42c1.13.23.62,1.38,2.15,2.27l-1.07.18Z" style="fill: #eb8090; stroke-width: 0px;"/>
            <path d="M20.33,27.33c-1.05-.6-1.31-1.62-.84-2.74.45.26.12.78.36,1.13.38.55,1.14-.43.48,1.61Z" style="fill: #f9b6b6; stroke-width: 0px;"/>
          </g>
        </g>
        <g>
          <path d="M16.75,40.21c-.52-.05.15,1.1-.24,2.21-.1.3-.65.69-.84.89-1.3-.42-2.35-1.33-3.46-.12-.01-.02-.29.03-.36-.18-.41-1.18.77-1.71.84-1.79.09-.12.18-.74.3-.78.53-.15,1.74.29,1.01-.48.17-.36,2.56.06,2.74.24Z" style="fill: #eb8090; stroke-width: 0px;"/>
          <path d="M18.3,39.86c.38.69.64,1.68-.18,2.15-.16.09-.48-.35-.78.18-.19.34.11.86-.95,2.21l-.24-.24c.87-1.08,1.27-3.26.6-3.94-.18-.18-2.58-.6-2.74-.24-.16-.17-.72-.13-.48-.72,2.49-.53,3.79.84,4,.84.05,0,.08-.51.78-.24Z" style="fill: #f9b6b6; stroke-width: 0px;"/>
          <path d="M15.68,43.32s-.08.4-.36.6c-1.17.83-1.82.17-2.86.48.38-1.24-.12-1-.24-1.19,1.11-1.21,2.16-.3,3.46.12Z" style="fill: #f9b6b6; stroke-width: 0px;"/>
          <path d="M15.68,44.51c-1.24,1-2.61,1.32-3.7.06-.04-.31.29-.12.48-.18,1.04-.3,1.69.36,2.86-.48l.36.6Z" style="fill: #eb8090; stroke-width: 0px;"/>
          <path d="M16.75,40.21c.68.68.28,2.86-.6,3.94-.05.06-.36.27-.48.36l-.36-.6c.28-.2.33-.57.36-.6.18-.2.73-.6.84-.89.39-1.11-.28-2.26.24-2.21Z" style="fill: #ed7078; stroke-width: 0px;"/>
        </g>
        <g>
          <path d="M12.1,38.42c.22,1.15-.74,1.3-.84,1.43-.68-.26-.39-.42-.48-.72,1.32.71.08-1.59-.36-2.63.28.29,1.5,1,1.67,1.91Z" style="fill: #f6a0a7; stroke-width: 0px;"/>
          <path d="M8.04,34.61c.18.34.18.87.36,1.07l-.36.24c-.18-.37-.37-.43-.48-.6-.02-.04-.46-.33-.48-.36-.6-1.09.21-1.81.95-.36Z" style="fill: #d32455; stroke-width: 0px;"/>
          <path d="M10.42,36.52c.44,1.03,1.68,3.33.36,2.63-.14-.48-.63-2.37-.84-2.63l.36-.12c.04.16.11.11.12.12Z" style="fill: #eb8090; stroke-width: 0px;"/>
          <path d="M9.95,36.52c.2.25.69,2.14.84,2.63.09.29-.2.46.48.72-.31.41-.42.65-.36,1.19-2.04-.2-.72-.95-1.43-2.21-.19-.34-1.07-.73-1.43-1.13.66.11.27-1.23,0-1.79l.36-.24c.22.26,1.26.47,1.55.84Z" style="fill: #d32455; stroke-width: 0px;"/>
          <path d="M8.04,35.92c.27.56.66,1.9,0,1.79-.72-.8-.91-1.36-.48-2.39.11.17.29.22.48.6Z" style="fill: #db5a7a; stroke-width: 0px;"/>
        </g>
        <g>
          <path d="M7.56,35.32c-.43,1.03-.24,1.58.48,2.39.36.4,1.24.79,1.43,1.13.71,1.26-.61,2.01,1.43,2.21.63.47.62-1.37,2.63-1.79-.25.58.31.54.48.72.73.76-.48.33-1.01.48-.12.03-.21.66-.3.78-.07.08-1.25.61-.84,1.79.07.21.35.16.36.18.12.19.62-.05.24,1.19-.19.06-.51-.13-.48.18,1.09,1.26,2.46.94,3.7-.06.11-.09.43-.3.48-.36l.24.24c-.62.79-1.67,1.21-1.55,1.67-1.07.16-2.07-.5-2.51-.6-.01,0-.09-.23-.18-.24-.11-.01-1.14.53-2.21.12-.5-.19-.29-.3-.36-.36-.78-.76-.38-.67-.48-.95.47-1.26.98-1.11-.12-1.49,3.62-.36-.08-2.49-.72-.12,1.26,1.12.61,1.06.6,1.13-.25,1.4-.47,1.3-.48,1.37-.11.73.13,1.25.12,1.31-.05.56-.36.96-.36,1.01-2.93.18-.32-1.8-.36-1.97-.02-.07-.75-.25-1.07-.95-.31-.69-.14-1.11-.24-1.61.49-.14.93.23,1.43-.42.24-1.27-1.68-1.35-1.79-1.07.59.81.03.6,0,.84-.03.25.25.1.36.66-.49.14-1.95,2.92-3.1.12.65-1.51,2.19.02,1.91-.72.65-1.05.16-1.06,1.31-1.91.49-.36.44.47.84-1.73-1.09-.02-1.99-1.38-1.31-2.27.32-.42.44.39.95-1.25.01.03.45.32.48.36Z" style="fill: #f9b6b6; stroke-width: 0px;"/>
          <path d="M9.11,44.03s-.33.16-.24-.48c.01-.08.66-.01-.6-1.13.63-2.37,4.34-.24.72.12,1.1.39.59.23.12,1.49Z" style="fill: #eb8090; stroke-width: 0px;"/>
          <path d="M6.49,42.72c-.11-.56-.39-.4-.36-.66.03-.23.59-.02,0-.84.11-.28,2.03-.19,1.79,1.07-.51.65-.94.27-1.43.42Z" style="fill: #db5a7a; stroke-width: 0px;"/>
          <path d="M10.96,42.72c.77.91-.41,1.01.06,1.61-.56.38-1.69.15-1.13-.3,1.42-.28-.77-.92,1.07-1.31Z" style="fill: #eb8090; stroke-width: 0px;"/>
        </g>
        <path d="M9.59,44.99c.06.06-.15.16.36.36l-.24.95s.1.15-.66.36c-.49-.21-.16-2.15.54-1.67Z" style="fill: #d32455; stroke-width: 0px;"/>
        <path d="M45.51,6.21c-.79.05.32,1.29-.48,2.45-.56.8-1.67.56-2.03.78-.44.01-.37-.37-.36-.72.07-.24.2-.46.24-.72.87-.27,1.63-2.08,2.63-1.79Z" style="fill: #f9b6b6; stroke-width: 0px;"/>
        <g>
          <path d="M43.12,2.86c.06.35-.12.6.24.95-.52.55-.43.72-.48,1.07-.07.48.05,1.15,0,1.67-.03.34-.24.51-.24.54-.06.61.12.62.12.66-.01.11.13.13.12.24-.03.26-.17.48-.24.72,0,.02-.23.22-.24.24-.14-.18-.11-.33-.12-.36-.62-1.23-1.63-.34-1.79-2.03-.18-1.88.75,1.48.84-1.25l-.95-.78c.08-.1.52-1.63,1.67-1.31.02,0,.07.51.3.36.05-.04.13-1.08.78-.72Z" style="fill: #d32455; stroke-width: 0px;"/>
          <path d="M40.38,4.53l.95.78c-.08,2.73-1.01-.62-.84,1.25-.06.02-.24.22-.24.24-1.03-2.82-.22-1.85.12-2.27Z" style="fill: #fdd7c4; stroke-width: 0px;"/>
          <path d="M44.43,4.18c.49.27.24.77.24.95-.28.27-.8.21-1.07,0-.02-.02.06-.38-.36-.36.38-.2.71-.92,1.19-.6Z" style="fill: #db5a7a; stroke-width: 0px;"/>
          <path d="M44.43,4.18c-.48-.33-.81.39-1.19.6-.02.01-.18-.02-.36.12.05-.35-.04-.52.48-1.07.6-.26,1.36-.2,1.07.36Z" style="fill: #fff; stroke-width: 0px;"/>
          <path d="M43.12,2.86c-.65-.36-.72.68-.78.72-.22.15-.28-.35-.3-.36.15-1.03.84-1.8,1.07-.36Z" style="fill: #fff; stroke-width: 0px;"/>
          <path d="M43.24,6.56c0,.09.18.18.12.48-.22.21-.26.6-.6.72,0-.03-.18-.05-.12-.66,0-.03.21-.19.24-.54h.36Z" style="fill: #f8eae4; stroke-width: 0px;"/>
          <path d="M43.24,4.77c.42-.02.34.34.36.36-.02.47-.36,1.36-.36,1.43h-.36c.05-.52-.07-1.19,0-1.67.18-.14.34-.11.36-.12Z" style="fill: #721016; stroke-width: 0px;"/>
        </g>
        <g>
          <path d="M74.51,37.35c.5-.38,1.63-.26,1.31.48l-.6.95c-.07-.04-.16.13-.18.12-.19-.07-.16-.62-.72-.48-.2.05-.16.35-.18.36-1.01.62-.97.32-1.01.36-.24.19.07.51.06.54-.12.22-.66.7-.72.78-.18-.14-.34-.11-.36-.12-.09-.07-1.19-1.77-1.07-1.91,1.68.94,1.71-.34,1.91-1.19.08-.33.23-.9.24-.95.87.22.81,2.98,1.31,1.07Z" style="fill: #d32455; stroke-width: 0px;"/>
          <path d="M76.41,40.33c-1.67-.53-2.38-.13-.48-1.25-.27-.06-.47-.17-.72-.3l.6-.95c.97.1,1.25,1.73,1.19,1.97-.04.15-.52.39-.6.54Z" style="fill: #f9b6b6; stroke-width: 0px;"/>
          <path d="M75.22,38.78c.24.13.45.23.72.3-1.9,1.12-1.19.73.48,1.25-.09.16.13.29.12.3-.74,1.07-.96.52-1.19.66-.15-.43-.13-.45-.48-.72-.13-.1-.29-.26-.48-.24.36-.47.06-1-.24-1.55.02-.01-.02-.31.18-.36.55-.14.53.4.72.48.02,0,.11-.16.18-.12Z" style="fill: #d32455; stroke-width: 0px;"/>
          <path d="M74.51,37.35c-.5,1.91-.44-.85-1.31-1.07,0-.05-.15-.05,0-.72.83-1.51,1.61.67,1.31,1.79Z" style="fill: #fbdbd7; stroke-width: 0px;"/>
          <path d="M72.12,40.33s.18-.02.36.12c-.01.02.02.18-.12.36-.45.17-1.01.84-1.49.95-.06.01-1.19.01-1.25,0-.44-.11-.46-.34-.72-.6.47,0-.18-1.18,1.43-1.79.16.27-.05.57.72.78-1.8,1.72.42,1.68,1.07.18Z" style="fill: #eb8090; stroke-width: 0px;"/>
          <path d="M74.15,38.78c.3.56.6,1.09.24,1.55-.47.62-.93.18-1.91.48-.04.01-.09-.01-.12,0,.14-.18.11-.34.12-.36.06-.08.59-.55.72-.78.01-.02-.3-.35-.06-.54.05-.04,0,.26,1.01-.36Z" style="fill: #d32455; stroke-width: 0px;"/>
          <g>
            <path d="M75.34,41.29c-.37.22-2.45,2.08-2.98,0,.6-.14,2.82.34,2.51-.72.34.27.33.29.48.72Z" style="fill: #f9b6b6; stroke-width: 0px;"/>
            <path d="M74.86,40.57c.32,1.05-1.9.57-2.51.72l.12-.48c.98-.3,1.44.14,1.91-.48.19-.02.34.13.48.24Z" style="fill: #f9b6b6; stroke-width: 0px;"/>
          </g>
          <path d="M72.95,37.23c-.2.85-.23,2.14-1.91,1.19-.38-.21-.88-.89-1.31-1.19.09-.16.12-.11.12-.12,1.12.52,1.96.35,3.1.12Z" style="fill: #fbcbc6; stroke-width: 0px;"/>
          <path d="M71.04,38.42c-.12.14.99,1.84,1.07,1.91-.65,1.5-2.88,1.54-1.07-.18-.77-.2-.55-.51-.72-.78-.03-.05-.29-.91-.48-1.01-.15-.09-.15.12-.36.18l-.12-.72c.37-.21.33-.54.36-.6.43.3.93.98,1.31,1.19Z" style="fill: #f6a0a7; stroke-width: 0px;"/>
        </g>
        <path d="M16.87,32.46c.26.29.22.46.24.48-.51-.12-.34.41-.72.84-.6-.44-1.02-1.67-.84-2.39.07.06.22-.14,1.31,1.07Z" style="fill: #ef9ab1; stroke-width: 0px;"/>
        <g>
          <path d="M15.68,29.59c.48,0,.62.24.95.48.21.15.9.98,1.37,1.31.18-.13-.13-.68.3-.6-.04.48,0,.45,0,.48,0,.06-.09.1-.12.48l-1.31.72c-1.09-1.21-1.25-1.02-1.31-1.07-.17-.15-.34-.22-.36-.24-.92-1.16.62-.61.12-1.43.1,0,.11-.12.36-.12Z" style="fill: #d32455; stroke-width: 0px;"/>
          <path d="M17.35,28.52c.46.47.6.71.95.12l.24.48c-.23.37-.68.69-.42,1.19.42-.72.24-.18.18.48-.42-.09-.12.46-.3.6-.47-.33-1.16-1.16-1.37-1.31-.21-.75-.18-1.36.72-1.55Z" style="fill: #d32455; stroke-width: 0px;"/>
          <path d="M18.18,31.74c-.05.65-.12,1.24-.12,1.91.02.65-.77-.47-.95-.72-.02-.02.03-.18-.24-.48l1.31-.72Z" style="fill: #721016; stroke-width: 0px;"/>
        </g>
        <g>
          <path d="M40.62,65.63c.03,1.54-.1,3.13,0,4.65.22,3.14,1.57,3.15.54,3.82-.61.05-1.46-4.05-2.15-4.53-.35-.1-2.7.85-3.16,1.07.43-3.41-1.37-1.88-5.25-1.43.27-.69.35-1.52,1.07-1.91,1.69-.56,3.38-1.25,5.07-1.79.21-.07.82.07.95,0,.2-.1-.19-.35,0-.48,1.1-.71,1.39.26,1.61-1.79v3.16l1.31-.78Z" style="fill: #712e3a; stroke-width: 0px;"/>
          <path d="M35.84,70.64c-1.31.63-1.96,1.12-2.98,2.15-.11-.24-.14-.55-.24-.72l.89-.84-3.4-1.07c.05-.21.36-.65.48-.95,3.88-.45,5.68-1.97,5.25,1.43Z" style="fill: #7e3435; stroke-width: 0px;"/>
          <path d="M49.09,67.06c-.18.5-2.58,2.5-2.8,2.51-.17,0-2.96-1.46-3.04-1.73-.16-.5-.11-1.56.6-1.49.99.3,3.68.37,5.25.72Z" style="fill: #541317; stroke-width: 0px;"/>
          <path d="M32.62,72.08c-.7-1.22-2.8-.65-2.51-1.91l3.4,1.07-.89.84Z" style="fill: #541317; stroke-width: 0px;"/>
        </g>
        <path d="M30.95,38.31c.1.35.14.17.24.36.96,1.82,1.72,3.38,1.85,5.49-.47.3-2.71-2.83-3.16-4.42-.31-1.08-.29-1.67,1.07-1.43Z" style="fill: #d03e7f; stroke-width: 0px;"/>
        <path d="M52.91,31.03s-.01-.08,0-.12c.29-.06.64.28.84.48.03.03-.06.3.48.6-.05.57-.34,1.04-.72,1.43-.22.23-.46.04-1.55,1.55-.04.06-.45.39-.72.95-.46.96-.35,1.22-.48,1.67-.02.06.02.17,0,.24-.02.07-.01.25-.12.6-.39,1.26-.79,2.44-1.31,3.64.08.14,1.71-.69,1.91-.78.18-.02.1.23.12.24-.38.91-1.71.55-3.22,2.39-.37-.1.4-.49.36-.78-.03-.23-.47-.27-.48-.3-.05-.14-.07-.55-.12-.72.92-1.53,1.93-2.92,2.03-4.77.11-2.17-.92-5.17-2.09-4.89-1.4,1.38-1.01.81-1.13.6-.19-.33-.31-.79-.72-.95-.01-.15.1-.11.12-.12,1.19.63,1.95-.32,2.27-1.43.21.33.77.65,1.07,1.43.11.28.3,2.04.78,2.74.39-.65.06-1.48.18-2.15.09-.51.36-.98.48-1.79.01-.08.23-.45.24-1.19,0-.29.04-.77,0-.95h.12c.35,1.52.18,3.05.12,4.59.4-.51,1.37-1.7,1.55-2.21Z" style="fill: #2e1312; stroke-width: 0px;"/>
        <g>
          <path d="M25.58,30.79c-.23.09.19.25-.24.24-1.19-.74-.05.29.54,1.43.66-1.82,1.02.42,2.09.42-.11,2.43-3.42,2.63-1.67,0-.71-.74-.23.02-.48.6-.07.15-1.46,1.7.89,1.97,2.74.31,2.11-2.02,2.86-2.03.58.07.32.35.42.72.05.18.3.24.24.48-.72,1.05-1,1.55.48,2.27l-.12.12c-2.53-1.04-1.54-.37-1.79-.24-1.22.67-3.31-.28-3.88-1.55-2.28,2.88-1.65-1.08-1.73-1.49-.07-.37-.71.33-1.37-.18-1.04-.8-.07-2.26,1.43-2.15.63-.3-.31-.68-1.49-.36l-.12-.36c.72-.17.81-.54.6-1.19.02,0,.06-.16.42-.12.08,0,.25.39.48.36.09-.01.16-.44.84-.36.05,0,.09.32.24.36.1.02.99-.49,1.37,1.07Z" style="fill: #f9b6b6; stroke-width: 0px;"/>
          <path d="M26.3,28.64c-.06.2-.28.2-.36.6-.17.83,1.89.72,2.51,1.79.73,1.26-.66,2.15.24,1.73-.22,1.36,2.65-.97,1.31,1.37-.1-.36.16-.65-.42-.72-.75,0-.12,2.34-2.86,2.03-2.35-.26-.96-1.82-.89-1.97.25-.57-.23-1.33.48-.6-1.75,2.63,1.57,2.43,1.67,0-1.07,0-1.43-2.23-2.09-.42-.59-1.15-1.73-2.17-.54-1.43.05.03.44.5.66.6.19.09.4-.2.6-.12.52.22.67.88,1.31.72.26-.16-.84-2.04-2.33-1.43-.38-1.56-1.27-1.05-1.37-1.07-.15-.04-.19-.35-.24-.36-.68-.08-.74.35-.84.36-.22.03-.39-.35-.48-.36-.36-.04-.4.12-.42.12-.24-.03-.26-.1-.36-.12-.48-1.05.75-.4,1.25-.6.27-.1.22-.66.54-1.07.91.21,1.48-.95,2.63.95Z" style="fill: #eb8090; stroke-width: 0px;"/>
          <path d="M30.47,31.74c.07.18.49.69.72,1.13.18.35-.02.68,0,.72.17.32.46.28.48.3.31.36.83.74,1.19,1.07-.29.36-1.46-1.24-2.63-.36.06-.24-.19-.29-.24-.48,1.34-2.34-1.53-.01-1.31-1.37-.9.42.49-.47-.24-1.73l2.03.72Z" style="fill: #f6a0a7; stroke-width: 0px;"/>
          <path d="M25.34,31.03c.43.01.01-.15.24-.24,1.48-.6,2.58,1.27,2.33,1.43-.64.16-.79-.5-1.31-.72-.2-.08-.41.21-.6.12-.21-.1-.61-.57-.66-.6Z" style="fill: #f9b6b6; stroke-width: 0px;"/>
        </g>
        <path d="M37.87,31.5c1.3.07,1.32-1.48,1.79-.42-.58,1.07-.54,2.11-.72,2.68-.01.04.01.08,0,.12l-1.43-.36c-.02-1.46-1.51-2.27-1.79-3.46.71.18,1.31,1.39,2.15,1.43Z" style="fill: #2e1312; stroke-width: 0px;"/>
        <g>
          <path d="M42.41,38.31c-.58,1.16-1.25,1.27-1.43,1.55-1.46.47-2.1-.42-2.63-1.67.08-.37.26-.67.24-1.07l1.49,1.19c1.35-1.61,2.45-1.63,1.25-.42-.19.76.57.6,1.07.42Z" style="fill: #f6a0a7; stroke-width: 0px;"/>
          <path d="M43.48,39.02c-.79.21-.46-.13-.84-.72.11-.06,1.27-2.34,1.67-.78l-.84,1.49Z" style="fill: #f9b6b6; stroke-width: 0px;"/>
          <path d="M39.78,28.4c.08.12,1.71,1.94,1.91,2.15,1.52,1.57.81.63,1.79-1.25.17-.33.69-.74.84-1.01.48.73-1.17,1.59-.84,3.16.26,1.21,1.64.77,1.91.78.14,0,.22-.28.6-.12.41.17.52.62.72.95-.23.13-.22.38-.24.6-.03.51.01.89-.12,1.43-.26,1.05-.95,2.29-1.67,3.1-.13.15-.63.59-.84.6.12-.33.69-.75.72-1.25.03-.56-.38-.67-.36-.72.05-.1,1.35.37.72-1.67-.6-1.94-4.95-3.47-4.42-.48.23,1.26,1.71.9-.3,2.57-1.6.43-.78-2.93-1.25-3.46.18-.58.14-1.61.72-2.68-.47-1.06-.49.49-1.79.42.63-.33.6-.77.95-1.31.03-.05.67.18.48-.78-.04-.21-.42-.48-.48-.66-.23-.78-.51-1.82-.48-2.63.84.54,1.09,1.79,1.43,2.27Z" style="fill: #f9b6b6; stroke-width: 0px;"/>
          <g>
            <path d="M43.84,38.78s.01.08,0,.12c-.14.11-.23.09-.36.12l.84-1.49c-.41-1.56-1.56.71-1.67.78-.04.02-.18-.02-.24,0-.51.18-1.27.34-1.07-.42,1.2-1.21.09-1.19-1.25.42l-1.49-1.19c-.02-.32-.12-.23-.12-.24-.03-.27-.39-1.23-.36-1.61.06-.73.72-.99.84-1.37.01-.04-.01-.08,0-.12.47.53-.35,3.89,1.25,3.46,2.01-1.66.52-1.31.3-2.57-.54-2.99,3.82-1.46,4.42.48.63,2.04-.67,1.57-.72,1.67-.02.04.39.15.36.72-.03.5-.6.93-.72,1.25Z" style="fill: #eb8090; stroke-width: 0px;"/>
            <path d="M41.99,34.25c.73-.2,3.37,1.87,1.67,2.39-.79-.38-1.85-.29-1.97-1.01-.01-.07.3.16-.12-1.07l.42-.3Z" style="fill: #f6a0a7; stroke-width: 0px;"/>
          </g>
        </g>
        <path d="M61.38,31.62c-.88,1.45-2.27,3.91-1.07,5.49l-1.19.12c-.09-1.37-1.13-5.5-1.07-5.97.04-.33.11-.23.12-.24l1.25,3.58c.04-.78.39-1.44.66-2.15.21-.55.44-1.1.6-1.67.11.13.67.81.72.84Z" style="fill: #2e1312; stroke-width: 0px;"/>
        <path d="M63.53,36.75c-1.64-.24-1.53,1.04-2.27,1.31-.1-.2-.25-.48-.24-.72.24-.12,2.78-3.01,2.51-.6Z" style="fill: #541317; stroke-width: 0px;"/>
        <g>
          <path d="M60.31,37.11c.27.36.26.46.72.24-.01.23.13.52.24.72.51.97.68.45.48,2.03-.01.08-.32.22-.24.84.15,1.17,1.72.16,1.67.84-.77.28-2.45.52-3.22.48-.31-.02-1.32-.23-1.55-.36.19-1.19.45-2.38.6-3.58,0-.05.14.25.12-.95,0-.04,0-.08,0-.12l1.19-.12Z" style="fill: #db5a7a; stroke-width: 0px;"/>
          <path d="M63.53,36.75c-.32.76-.21.29-1.19.66.58.23,1.25-.21,1.31.18-.07.16-.13.76.18.72.62-1.08,1.27-.78,1.37-.84l.72,1.31c-.29.56-.65,1.44-1.07,1.91-.45.49-1.04.85-1.67,1.07.05-.67-1.52.34-1.67-.84,1.33-.39,2.69-1.2.24-.84.2-1.58.03-1.06-.48-2.03.73-.28.63-1.56,2.27-1.31Z" style="fill: #db5a7a; stroke-width: 0px;"/>
          <path d="M61.5,40.93c-.08-.61.23-.75.24-.84,2.45-.37,1.09.45-.24.84Z" style="fill: #bb1e53; stroke-width: 0px;"/>
        </g>
        <path d="M65.32,37.35s.05.04-.12.12c-.1.05-.75-.25-1.37.84-.31.04-.25-.56-.18-.72.12-.26,1.37-1.2,1.67-.24Z" style="fill: #721016; stroke-width: 0px;"/>
        <path d="M32.26,33.77c.08,0,.11.2.6,0,.01.06.42.04,0,1.19-.36-.34-.88-.72-1.19-1.07.24.05.36-.1.6-.12Z" style="fill: #a81e57; stroke-width: 0px;"/>
        <path d="M35.25,36.75c-.44-.16-.86-.35-1.31-.48-1-2.21.46-.27,1.31.48Z" style="fill: #bb1e53; stroke-width: 0px;"/>
        <path d="M32.86,33.77c-.48.2-.51,0-.6,0,.35-1.68.38-1.42.6,0Z" style="fill: #fbd3dc; stroke-width: 0px;"/>
        <g>
          <path d="M51.95,40.93c.83.17-.52.23.95,1.07-.37.11-.55-.02-.6.06-.06,1.01,1.6.68,2.15.18-.13,1.41-1.46,1.61-2.03.78-.26-.39-.06-.9-.89-1.61,0,0-.11.16-.18.12-.02,0,.06-.25-.12-.24.14-.06.25-.19.72-.36Z" style="fill: #721016; stroke-width: 0px;"/>
          <path d="M54.34,41.41v.12c.15.22.14.47.12.72-.55.5-2.21.83-2.15-.18.04-.08.23.05.6-.06.17-.05.53.05.66,0,.12-.05.26-.38.78-.6Z" style="fill: #cc1f3f; stroke-width: 0px;"/>
          <path d="M53.62,40.57c.17.43.68.4,1.07.48,0,.01.16-.04.12.24-.57-.03-.45.11-.48.12-.52.21-.66.55-.78.6-.13.05-.49-.05-.66,0-1.48-.84-.13-.9-.95-1.07.28-.1,1.33-.31,1.67-.36Z" style="fill: #d78c89; stroke-width: 0px;"/>
        </g>
        <path d="M69.37,37.83l.12.72c-.3.09-.82.79-2.51,0,.05-.21-.11-.75-.24-.95.92.2,1.66.8,2.63.24Z" style="fill: #9b2431; stroke-width: 0px;"/>
        <path d="M41.69,24.7c.03.37.22.77.24,1.19-1.9.4-.72.85-.95,1.37-.05.12-.34.03-.36.06-.35-.57-.56-.53-.36-1.19.18-.57,1.18-.53-.6-.89-.23-.49.84-1.45,2.03-.54Z" style="fill: #f9b6b6; stroke-width: 0px;"/>
        <path d="M40.26,26.13c-.21.67,0,.62.36,1.19-.14.25-.16.66-.84,1.07-.34-.47-.59-1.73-1.43-2.27,0-.06-.43-.6.42-.72.47.28,1.23.18,1.49.72Z" style="fill: #541317; stroke-width: 0px;"/>
        <g>
          <path d="M34.05,25.18c-.06.32.3.53-.06.72-.07.04-1.29.04-1.37.6l.6,1.55c-.23.16-.22.78-1.31,1.13.75.79-.14,1.63-.95,1.85-.02,0-.45,0-.48,0-.09-.02-.6-.39-.95-.6-.88-1.07,2.94-2.25.06-1.43-.39-.09.27-1.37.95-.72.7-.04-.42-1.33-.89-.95.82-.77,1.38.06,1.55-.54.03-.1-.63-.74,1.01-1.49.32-.14,1.14-.07,1.13-.48.28.1.49.15.72.36Z" style="fill: #eb8090; stroke-width: 0px;"/>
          <path d="M33.34,24.82c0,.4-.82.33-1.13.48-1.65.75-.99,1.39-1.01,1.49-.17.6-.73-.24-1.55.54-.67.64-.8,1.43-1.07,2.27-1.25-2.56.73-3.66.72-3.88,0-.08-.92-.45.3-1.13,1.61-.9,2.26.22,2.39.24.08,0,0-.49,1.37,0Z" style="fill: #eb8090; stroke-width: 0px;"/>
          <path d="M34.29,27.8c-.11-.07-.95-.94-1.67-1.31.08-.56,1.3-.56,1.37-.6.36-.19,0-.39.06-.72,0-.02.26-.36.36-.36.16.57,1.16,1.94.18,3.22-.21.04-.12-.12-.3-.24Z" style="fill: #f6a0a7; stroke-width: 0px;"/>
          <path d="M29.52,30.43c-.67-.38-.48.14-.95-.84.27-.84.4-1.63,1.07-2.27.48-.38,1.6.92.89.95-.69-.65-1.34.63-.95.72,2.88-.82-.94.36-.06,1.43Z" style="fill: #f6a0a7; stroke-width: 0px;"/>
          <path d="M34.29,27.8c-.26.05-.88.11-1.07.24l-.6-1.55c.72.38,1.56,1.24,1.67,1.31Z" style="fill: #d32455; stroke-width: 0px;"/>
        </g>
        <g>
          <path d="M38.35,29c.03.06-.05.79.48,1.19-.35.55-.32.99-.95,1.31-.84-.04-1.44-1.25-2.15-1.43-.06-.28.05-.83,0-1.19,1.02-.56.75.34,1.49.12.23-.07.46-1.23,1.13,0Z" style="fill: #d32455; stroke-width: 0px;"/>
          <path d="M38.83,28.76c.05.18.44.45.48.66.19.95-.45.73-.48.78-.53-.41-.44-1.13-.48-1.19l.48-.24Z" style="fill: #a41e22; stroke-width: 0px;"/>
        </g>
        <path d="M41.93,25.89c.07,1.55.12,3.12-.24,4.65-.2-.21-1.82-2.03-1.91-2.15.68-.42.69-.83.84-1.07.02-.03.3.06.36-.06.23-.52-.95-.97.95-1.37Z" style="fill: #d32455; stroke-width: 0px;"/>
        <path d="M45.15,18.38c-.32.38-.93.79-1.13,1.43.25-2.87.56-1.99,1.85-2.51-.19.34-.47.78-.72,1.07Z" style="fill: #eb8090; stroke-width: 0px;"/>
        <g>
          <path d="M30.23,5.37c.83,1.52,1.16.58,1.25.6.12.02,0,.32.12.36,1.48.52,3.33,2.11,2.45.72l.12-.12c.32,1.39.27-1.01,1.61-1.31,2.71-.61,2.99,2.17,4.53,1.55.19-.15-.07-.24-.06-.36,0-.02.18-.22.24-.24.16,1.69,1.17.8,1.79,2.03-1.15-.14-2.15-.75-3.28,0-.24.16-1.23,1.74-1.25,1.85,0,.04.23.69.24.78.02.23-.39.8.18.72.86-.06.8-4.01,1.85-.95.05.14-.08.5.06.6.08.05.75-.47,1.73.24.66.48.67,1.31.72,1.37.06.08.7.32.84.54.97,1.59.04,2.34.72,3.34-.58.78-.97.56-1.01.6-.36.32-.48,1.08-.84,1.19-.81.25-1.35-.61-1.43-.6-.22.04-.16.46-.18.48-1.09,1.33-1.84.15-2.21.24-.93.89.18,1.28.3,1.97.56,3.1-4.45,4.34-3.1,1.67-.17-.26-1.62.69-1.19,2.21-.1,0-.35.33-.36.36-.22-.21-.44-.26-.72-.36-1.38-.49-1.29,0-1.37,0-.13-.02-.78-1.14-2.39-.24-1.22.68-.3,1.06-.3,1.13.01.22-1.97,1.32-.72,3.88.48.98.29.45.95.84.35.2.86.57.95.6.03.31-.11.41,0,.72l-2.03-.72c-.62-1.07-2.68-.96-2.51-1.79,2.14.76.86.1,1.55-2.63.15-.59,1.1-2.38,1.55-2.74.04-.03.87-.45.95-.48.16-.05.3-.11.36-.12.08-.01,1.43-.12,1.55-.12.3,0,.99.48,1.37.36.35-.11.5-1.03.54-1.07.18-.2.55-.38.72-.6.42-.55.58-1.18,1.07-1.67.73-.73,2.61-.91,1.01-2.51-.71.39-1.34,1.45-1.85,1.31.19-1.48-.13-1.36-.12-1.43.11-1.14.58-1.53.6-1.61.08-.53-.38-1.04-.24-1.67.11-.48.68-.57.95-.89.15-.18-.02-.25.66-.95.55-.58,1.19-.01.42-1.19-.19-.3-.47-.33-.48-.36-.01-.03-.01-.18,0-.24.02-.1.87-.83.24-1.97-.41-.75-1.09-.76-1.79-.42-.71.35-.49.54-.66.6-.09.03-1.1-.37-1.73.3,3,.89,1.28,1.7-.78,4.12-1.52-.78-3.15-.29-1.01,0,.85.82,2.08,2.79,1.91,3.94-.06.41-1.05,1.21-.36,3.46-.97-.87-1.06-.54-1.91-.72-.02,0,.05-.33-.06-.36-1.11.71-.84,1.86-1.13,2.98-.44-.52-.81-1.11-1.19-1.67,1.54-1.23-.25-.93-.24-1.37.42-.61,1.22.1,1.07-.95-.86.56-3.94-1.47-1.55-1.79l-.48-.54c.24-.11.29.05.48-.6.06.02,1.17.23,1.19.18-.53-.9-.1-2.16-.24-2.51-.06-.16-.7.11-1.43-1.97.55.02.08-1.1.12-1.37.02-.12.67-2.22.72-2.33.11-.24.36-.34.48-.54.04-.07-.04-.36,0-.42.29-.42,1.47-1.22,2.03-1.31Z" style="fill: #f9b6b6; stroke-width: 0px;"/>
          <g>
            <path d="M35.96,13.37c-.27-.04.12-.76.24-1.55.89.14,1.09.4.84-.6.77,1.18.13.62-.42,1.19-.67.7-.51.78-.66.95Z" style="fill: #a41e22; stroke-width: 0px;"/>
            <g>
              <path d="M30.83,5.37c.83,0,1.56.22,2.27.72.06.04.92.9.95.95.88,1.4-.97-.19-2.45-.72-.12-.04,0-.34-.12-.36-.09-.01-.43.92-1.25-.6.16-.03.41,0,.6,0Z" style="fill: #f9b6b6; stroke-width: 0px;"/>
              <path d="M31.07,11.34c-.63-.41-.45-.42-1.19-.72-.96-.38-1.99-.22.36-.54.09-.12-1.24-.64-.78-1.25,1.2.36.56-.06.95-.12.23-.03.84.82,1.31.6.71.62-.23.05-.89.78l2.03.95c-.98.59-.35.54-.66,1.13-.25.06-.31-.3-1.13-.84Z" style="fill: #f6a0a7; stroke-width: 0px;"/>
              <path d="M31.07,11.34c-.43.25-1.03-.25-1.19-.72.75.29.56.31,1.19.72Z" style="fill: #f6a0a7; stroke-width: 0px;"/>
            </g>
            <g>
              <path d="M37.39,15.51c.77.58,1.23.88.12,1.43-.82-1.26-.15-1.35-.12-1.43Z" style="fill: #f9b6b6; stroke-width: 0px;"/>
              <g>
                <path d="M37.51,17.06v-.12c1.11-.55.65-.85-.12-1.43.21-.59.92-2.25,1.67-1.49-1.41.53-1.34,1.61-.78,1.37.46-1.4.78-.79,1.19-1.07.22-.15.59-.67.72-.72.27-.11,2.08.24.72-.36-1.69-.73-3.19.53-4.12,1.67.16-.47.21-.49.48-.89-2.03,1.07-.36-1.59.18-1.61.18,0,.56.47.6.48.5.09.72-.28.84-.24.11.04-.11.85.89-.18.06-.07-.15-.95,1.37-.54,1.06.29,1.73,3.32,1.49,4.24-.12.46-1.97,1.65-2.45,1.73-1.97.34-2.41-.64-2.68-.84Z" style="fill: #eb8090; stroke-width: 0px;"/>
                <path d="M37.39,15.51c-.03.08-.71.17.12,1.43v.12c-.06-.04-.17.13-.18.12-.85-.74-.89-1.25-.54-2.27.92-1.14,2.43-2.4,4.12-1.67,1.37.59-.45.25-.72.36-.13.05-.5.56-.72.72-.41.29-.73-.32-1.19,1.07-.56.23-.63-.84.78-1.37-.75-.76-1.46.9-1.67,1.49Z" style="fill: #f9b6b6; stroke-width: 0px;"/>
                <path d="M41.93,14.32c-1.73,1.4.1,1.17-1.31,2.27-.92.71-1.44.19-1.43-.89,1.25-.73.45-.79.78-.89.38-.12.33.34,1.91-.95.63.35.09.29.06.48Z" style="fill: #f9b6b6; stroke-width: 0px;"/>
                <path d="M40.62,16.59c1.41-1.1-.41-.86,1.31-2.27-.15.85-.49,2.4-1.31,2.27Z" style="fill: #d32455; stroke-width: 0px;"/>
              </g>
            </g>
          </g>
        </g>
        <path d="M51.59,27.45c.28,1.22.07,2.98,1.31,3.58-.19.51-1.15,1.7-1.55,2.21.06-1.54.23-3.07-.12-4.59-.11-.47-.29-.77-.48-1.19.26.04.62-.05.84,0Z" style="fill: #d03e7f; stroke-width: 0px;"/>
        <path d="M52.55,27.8c.69.72.64,2.21.36,3.1-.01.04.01.08,0,.12-1.25-.6-1.03-2.36-1.31-3.58.41.09.61,0,.95.36Z" style="fill: #eb8090; stroke-width: 0px;"/>
        <g>
          <path d="M54.46,10.62c.07.03,1.02.63,1.19.95.59,1.07-.3.13-2.45.48.22-2.14-.68.95-.78,1.13-.02.03-.48.23-.6.48-.18.4.01,1.01-.48,1.49-1.18-.65-1.21-2-.48-3.04.5-.72,1.6-.72.95-1.13.48-.52-.52-1.25-1.07-1.55,0,0,.03-.13-.12-.12.07-.06.08-.36.36-.48,2.05-.84,2.17,1.6,2.33,1.67.13.07.63-.12,1.13.12Z" style="fill: #f9b6b6; stroke-width: 0px;"/>
          <path d="M58.28,16.47c-.2-.44-.4-.85-.54-1.31-.95,0-.56.46-.66.84-.31-.03-.9.27-1.07.24-.02,0-.05-.29-.36-.24-.84-.97,1.3-.22,1.91-1.79.44.52.41.19.48.24.19.13.37.09.54.6,1-1.59,1.65-1.77.66-1.67.13-.2.1-.8.12-.84.05-.15.47-.79.48-.84,1.38.73.8,2.6,0,3.52-.78.9-1.74.78-1.55,1.25Z" style="fill: #f9b6b6; stroke-width: 0px;"/>
          <path d="M58.04,10.86s-.18.06,0,.72c-.66.8-1.29-.87-1.91-.48-.25.16-.16.55-.48.48-.18-.33-1.12-.92-1.19-.95,1.27-1.77,2.83-2.15,3.58.24Z" style="fill: #f9b6b6; stroke-width: 0px;"/>
          <path d="M59.83,11.69s-.42.69-.48.84c-1,.86-1.02.09-1.31-.95-.18-.66.01-.67,0-.72.75-.28,1.88-.09,1.79.84Z" style="fill: #d32455; stroke-width: 0px;"/>
          <path d="M55.65,15.99c.31-.05.34.23.36.24-.2.25-.08.51-.12.6-.2.49-1.07.79-1.43,1.19-.99-.08-3.87-1.33-2.98-2.74.05.03,1.02.18,1.13.24.16.08,1.57,2.07,3.04.48Z" style="fill: #f9b6b6; stroke-width: 0px;"/>
          <path d="M58.04,11.58c.29,1.05.31,1.82,1.31.95-.01.04.01.64-.12.84-.78.07-.91.4-1.19,1.07-.07-.05-.03.29-.48-.24.35-.89-.34-1.43-.42-1.43-.4,0-.29,1.28-1.01-1.67.62-.39,1.25,1.27,1.91.48Z" style="fill: #f9b6b6; stroke-width: 0px;"/>
          <path d="M58.04,14.44c.28-.68.41-1,1.19-1.07,1-.09.34.08-.66,1.67-.17-.51-.34-.46-.54-.6Z" style="fill: #db5a7a; stroke-width: 0px;"/>
          <path d="M57.08,15.99c-.2.8-.25.86-1.19.84.04-.09-.08-.34.12-.6.17.03.76-.27,1.07-.24Z" style="fill: #eb8090; stroke-width: 0px;"/>
          <g>
            <path d="M57.56,14.2c-.61,1.57-2.75.82-1.91,1.79-1.47,1.6-2.88-.39-3.04-.48-.11-.06-1.08-.21-1.13-.24,0,0,.04-.03-.12-.12.49-.49.3-1.1.48-1.49.11-.24.58-.44.6-.48.09-.18.99-3.28.78-1.13,2.15-.35,3.03.6,2.45-.48.31.07.23-.32.48-.48.72,2.95.61,1.66,1.01,1.67.08,0,.77.54.42,1.43Z" style="fill: #eb8090; stroke-width: 0px;"/>
            <path d="M55.17,13.37c.08.06-.14.2,1.31,1.25l-.18.18c-3.05-.62-2.88.84-4.24.42.13-1.44,1.54-1.04,1.67-1.19.08-.1-1.63-.85,1.43-.66Z" style="fill: #f6a0a7; stroke-width: 0px;"/>
            <path d="M55.17,13.37c-1.05-.78-1.27-.05-2.27-.54,1.25-.87,2.05-.82,3.22.12.1,1.15-.32.46-.95.42Z" style="fill: #f6a0a7; stroke-width: 0px;"/>
          </g>
        </g>
        <g>
          <path d="M58.04,29.12c.31.26.71.41.84.84-.04.05-.69,1.01-.72,1.07,0,.01-.08-.09-.12.24-2.7,1.19-2.25-1.54-3.7.72l1.07-2.39c.42-.22,1.12-.21,1.19-.3.05-.06.07-1.09.12-1.25.45.34.88.71,1.31,1.07Z" style="fill: #d03e7f; stroke-width: 0px;"/>
          <path d="M54.34,31.98h-.12c-.54-.3-.45-.57-.48-.6.19-.85.94-1.4,1.67-1.79l-1.07,2.39Z" style="fill: #ef9ab1; stroke-width: 0px;"/>
        </g>
        <g>
          <path d="M29.04,45.82c.44,1.36,1.49.8,1.79,1.43-.19.06-.46.1-.6.24-.47-.18-1.59-.8-1.79-1.19-.03-.41.38-.38.6-.48Z" style="fill: #f9b6b6; stroke-width: 0px;"/>
          <path d="M30.95,45.58c.1.04.44.27.48.36.18.38.11.68.12,1.07-.24.07-.48.16-.72.24-.3-.63-1.35-.07-1.79-1.43.68-.32,1.07-.55,1.91-.24Z" style="fill: #e67093; stroke-width: 0px;"/>
        </g>
        <path d="M31.43,45.94c-.04-.08-.38-.32-.48-.36l1.01-.95c1.76,1.44,1.8,1.56-.54,1.31Z" style="fill: #fbcbc6; stroke-width: 0px;"/>
        <path d="M49.92,37.35c-.68-.12-1.07-.27-1.67-.6.38-.67-.48-.95-1.07-1.97-.3-.52-.24-1.28-.72-1.13.01-.22.01-.47.24-.6.13.21-.27.79,1.13-.6,1.17-.28,2.2,2.72,2.09,4.89Z" style="fill: #eb8090; stroke-width: 0px;"/>
        <path d="M48.13,29.83s.09.2.12.24c-.69-.51,0,.44-2.15,1.91-.01.01-.13-.03-.12.12-.38-.16-.46.12-.6.12-.91-.77.36-1.28.36-1.37,0-.09-1.16-.18.84-1.07-1.74-.36-.7-2.7,1.55.06Z" style="fill: #db5a7a; stroke-width: 0px;"/>
        <path d="M50.88,30.79c-.12.81-.39,1.28-.48,1.79l-.95-.6c-.3-.78-.86-1.11-1.07-1.43-.19-.29-.1-.46-.12-.48-.03-.04-.09-.2-.12-.24.94.25,1.72,1.06,2.74.95Z" style="fill: #d32455; stroke-width: 0px;"/>
        <path d="M48.25,30.07s-.07.19.12.48c-.32,1.11-1.07,2.06-2.27,1.43,2.14-1.47,1.45-2.42,2.15-1.91Z" style="fill: #db5a7a; stroke-width: 0px;"/>
        <g>
          <path d="M51.24,39.38c.99.32,2.16-.81,2.33-.84,1.36-.23,1.05,1.78,2.86,1.79.21-.11-.1-.3-.18-.48.55.07.57.57.6.6-.18.93-1.37.3-1.91.84-.04,0-.08,0-.12,0,.04-.28-.11-.23-.12-.24-.74-1-1-.49-1.07-.48-.34.04-1.39.26-1.67.36-.47.16-.58.3-.72.36-.2.08-1.83.92-1.91.78.53-1.2.92-2.38,1.31-3.64.35.24.1.79.6.95Z" style="fill: #db5a7a; stroke-width: 0px;"/>
          <path d="M59.11,37.35c.02,1.21-.11.9-.12.95-1.16-.94.07.65-1.01,1.43-.6.1-.53-1.07-1.97-.3-.09.34.16.23.24.42.07.18.38.37.18.48-1.81,0-1.51-2.02-2.86-1.79-.17.03-1.33,1.16-2.33.84.7-.29.92-.73,1.73-.95.36-1.52-1.3-.68-2.21-.6.02-.06-.02-.17,0-.24,1.56-.55,2.71-1.56.48-1.67.27-.57.67-.89.72-.95,2.33.43,1.84,2.76,2.33,2.74.49-1.02.65-1.98,1.61-2.86,1.87-.59.97.02,1.37.24.01,0,.22-.25.24-.24.85.61,1.18,1.61,1.61,2.51Z" style="fill: #eb8090; stroke-width: 0px;"/>
          <path d="M51.24,39.38c-.5-.16-.24-.72-.6-.95.11-.35.1-.53.12-.6.91-.08,2.57-.93,2.21.6-.81.22-1.03.67-1.73.95Z" style="fill: #eb8090; stroke-width: 0px;"/>
          <path d="M54.7,41.05c-.4-.07-.9-.05-1.07-.48.07,0,.33-.52,1.07.48Z" style="fill: #541317; stroke-width: 0px;"/>
          <path d="M53.5,33.41c1.28-.04,1.51,1.6,1.61,1.67.17.12.48-.15.78-.24-.96.88-1.12,1.84-1.61,2.86-.49.01,0-2.31-2.33-2.74,1.09-1.51,1.33-1.32,1.55-1.55Z" style="fill: #eb8090; stroke-width: 0px;"/>
          <path d="M50.76,37.59c.13-.46.02-.71.48-1.67,2.23.11,1.08,1.13-.48,1.67Z" style="fill: #eb8090; stroke-width: 0px;"/>
        </g>
        <path d="M50.4,32.58c-.11.67.21,1.5-.18,2.15-.48-.71-.67-2.47-.78-2.74l.95.6Z" style="fill: #f9b6b6; stroke-width: 0px;"/>
        <path d="M48.25,36.75c-.77-.43-1.27-1.1-1.91-1.67.13-.54.08-.92.12-1.43.48-.14.41.62.72,1.13.6,1.02,1.45,1.3,1.07,1.97Z" style="fill: #eb8090; stroke-width: 0px;"/>
        <g>
          <path d="M47.3,25.42c.73.71-.01,1.29.72,2.33.4.58,1.29.75,1.85,1.13.43.3.37,1.11,1.25.72-.01.74-.23,1.12-.24,1.19-1.03.11-1.8-.7-2.74-.95-2.25-2.76-3.3-.42-1.55-.06-1.99.89-.83.98-.84,1.07,0,.09-1.26.6-.36,1.37-.27,0-1.65.43-1.91-.78-.33-1.57,1.32-2.43.84-3.16.41-.79-.07-.43-1.07-.24.03-1.44.42-3.63,2.33-3.46.1,0,1.66.77,1.73.84Z" style="fill: #eb8090; stroke-width: 0px;"/>
          <g>
            <path d="M49.68,17.42c.28.38.99,1.4,1.07,1.67.05.18-.04.58,0,.84-1.13.13-.26.87-.36,1.55-.3-.15-.62-.08-.89-.24-.05-.03-.09-.35-.48-.72-.05-.05-.61.44-.72-.95-1.1.39-1.51.91-.66,1.79.2.21.45.08.3.24-1.46.27-.67,1.35-1.55.72-1.48,1.67,1.54.91.89,3.1-.07-.07-1.63-.83-1.73-.84-1.9-.17-2.3,2.02-2.33,3.46-.76.32-.11-3.61.12-4.89.86-.88,1.42-1.81,2.74-1.13-1.69-3.32.52-2.38,1.37-2.68.43-.15.33-2.03,2.21-1.91Z" style="fill: #f6a0a7; stroke-width: 0px;"/>
            <path d="M54.46,26.13c-.03.53-.98,1.25-1.43,1.43-.18.07-.55-.16-.48.24-.34-.36-.54-.27-.95-.36-.22-.05-.57.04-.84,0-.4-.05-.79-.3-1.19-.36-1.88-1.67-2.27-1.98.84-1.67.22.02,2.73,1.53,2.03-2.27.33-.42.62-.91.95-1.31.2-.25.64-1.57,1.43-.42.79,3.89-.79,3.11-.36,4.71Z" style="fill: #eb8090; stroke-width: 0px;"/>
            <path d="M53.15,21.72c-1.01.89-.02-1.12-2.39-1.79-.04-.26.05-.66,0-.84,2.33-.97,2.82.62,2.39,2.63Z" style="fill: #eb8090; stroke-width: 0px;"/>
            <path d="M50.4,21.48s.19-.02.24,0c-.54.27.35.28.12.66-.08.13-.09-.18-.48.06-.97.6-.39.68-.48,1.85.93.03.67.28.72.3-.14.05-.26.18-.66.12-.18-.07-.65-1.13-.66-1.19-.05-.33.17-.59.12-1.07-.11-1.12-.66-1.08-1.67-.84-.86-.88-.45-1.4.66-1.79.11,1.39.66.9.72.95.38.37.43.69.48.72.27.16.59.09.89.24Z" style="fill: #db5a7a; stroke-width: 0px;"/>
            <path d="M50.4,25.42c1.26-.8,1.32-1.37,2.03-2.27.7,3.8-1.81,2.29-2.03,2.27Z" style="fill: #db5a7a; stroke-width: 0px;"/>
            <path d="M50.52,24.34c1.18-.4.26-.67.24-.78-.03-.19.27-.32.36-.54.38-.94.04-.34-.6-.72-.01,0,.04-.16-.24-.12.38-.24.4.07.48-.06.23-.37-.66-.39-.12-.66,2.49,1.2,1.61,1.01.3,3.1-.56.09-.4-.23-.42-.24Z" style="fill: #d32455; stroke-width: 0px;"/>
            <g>
              <path d="M50.76,19.93c2.36.67,1.38,2.68,2.39,1.79l.24.12c-.33.4-.62.9-.95,1.31-.71.9-.77,1.47-2.03,2.27-3.11-.31-2.72,0-.84,1.67.65.58,1.33.5,1.55,1.55.04.19,0,.67,0,.95-.89.39-.82-.42-1.25-.72-.56-.38-1.44-.56-1.85-1.13-.73-1.03.01-1.61-.72-2.33.65-2.19-2.37-1.44-.89-3.1.88.64.09-.45,1.55-.72.15-.16-.1-.03-.3-.24,1.01-.24,1.56-.28,1.67.84-.71-.07-1.27-.35-1.79.3-.15,1.18.7.05,1.67.78.01.07.48,1.13.66,1.19.39.06.52-.07.66-.12.02,0-.14.33.42.24,1.32-2.09,2.19-1.9-.3-3.1-.05-.02-.19.02-.24,0,.1-.68-.77-1.42.36-1.55Z" style="fill: #eb8090; stroke-width: 0px;"/>
              <path d="M49.33,22.2c.05.48-.17.75-.12,1.07-.97-.72-1.82.4-1.67-.78.52-.65,1.08-.36,1.79-.3Z" style="fill: #db5a7a; stroke-width: 0px;"/>
              <path d="M47.83,23.51l.66.42c-.38,2.9-1.58-.17-.66-.42Z" style="fill: #eb8090; stroke-width: 0px;"/>
              <path d="M50.76,27.45c.18.42.37.73.48,1.19h-.12c-.22-1.05-.9-.97-1.55-1.55.4.06.79.3,1.19.36Z" style="fill: #bb1e53; stroke-width: 0px;"/>
            </g>
            <g>
              <path d="M50.28,22.2c.28-.04.23.11.24.12-1.48.63.41.02.6.72-.09.22-.39.34-.36.54.02.1.94.38-.24.78-.04-.02.22-.27-.72-.3.09-1.17-.49-1.25.48-1.85Z" style="fill: #dfcf36; stroke-width: 0px;"/>
              <path d="M50.52,22.31c.64.38.98-.22.6.72-.18-.7-2.08-.08-.6-.72Z" style="fill: #fdd7c4; stroke-width: 0px;"/>
              <path d="M50.34,23.27c.09,0,.09.36,0,.36s-.09-.36,0-.36Z" style="fill: #743918; stroke-width: 0px;"/>
            </g>
          </g>
        </g>
      </g>
    </g>
  </g>
</svg>