<?xml version="1.0" encoding="UTF-8" standalone="no"?>
<!-- Created with Inkscape (http://www.inkscape.org/) -->

<svg
   width="150"
   height="100"
   viewBox="0 0 150 100"
   version="1.1"
   id="svg1"
   sodipodi:docname="default.svg"
   inkscape:version="1.3.2 (091e20e, 2023-11-25)"
   xmlns:inkscape="http://www.inkscape.org/namespaces/inkscape"
   xmlns:sodipodi="http://sodipodi.sourceforge.net/DTD/sodipodi-0.dtd"
   xmlns="http://www.w3.org/2000/svg"
   xmlns:svg="http://www.w3.org/2000/svg"
   xmlns:rdf="http://www.w3.org/1999/02/22-rdf-syntax-ns#"
   xmlns:cc="http://creativecommons.org/ns#"
   xmlns:dc="http://purl.org/dc/elements/1.1/">
  <title
     id="title1">isometric floor tile</title>
  <sodipodi:namedview
     id="namedview1"
     pagecolor="#ffffff"
     bordercolor="#000000"
     borderopacity="0.25"
     inkscape:showpageshadow="2"
     inkscape:pageopacity="0.0"
     inkscape:pagecheckerboard="0"
     inkscape:deskcolor="#d1d1d1"
     inkscape:document-units="px"
     inkscape:zoom="3.5612168"
     inkscape:cx="72.025944"
     inkscape:cy="50.123318"
     inkscape:window-width="1312"
     inkscape:window-height="828"
     inkscape:window-x="0"
     inkscape:window-y="25"
     inkscape:window-maximized="0"
     inkscape:current-layer="layer5" />
  <defs
     id="defs1" />
  <g
     inkscape:label="Layer 1"
     inkscape:groupmode="layer"
     id="layer1"
     style="display:none">
    <path
       id="path375"
       d="M 150.16337,43.55285 75.763093,87.165544 0.89340996,43.562134 75.293686,0.44285368 150.16337,44.050243"
       style="display:inline;fill:#dbb100;fill-opacity:1;fill-rule:nonzero;stroke:none;stroke-width:0.132061"
       inkscape:export-filename="path375.svg"
       inkscape:export-xdpi="95.133247"
       inkscape:export-ydpi="95.133247"
       sodipodi:nodetypes="ccccc" />
    <path
       id="path376"
       d="M 75.761778,87.165544 V 100.42934 L 0.89340996,56.827259 V 43.562134 L 75.761778,87.165544"
       style="display:inline;fill:#f2d800;fill-opacity:1;fill-rule:nonzero;stroke:none;stroke-width:0.132061"
       sodipodi:nodetypes="ccccc" />
    <path
       id="path377"
       d="M 75.760464,87.165544 V 100.42934 L 150.16337,56.816648 V 43.55285 L 75.760464,87.165544"
       style="display:inline;fill:#c49e00;fill-opacity:1;fill-rule:nonzero;stroke:none;stroke-width:0.132061"
       sodipodi:nodetypes="ccccc" />
    <path
       id="path378"
       d="m 75.761778,93.797443 v 6.631897 L 0.89340996,56.827259 V 50.19536 L 75.761778,93.797443"
       style="display:inline;fill:#9e7363;fill-opacity:1;fill-rule:nonzero;stroke:none;stroke-width:0.132061"
       sodipodi:nodetypes="ccccc" />
    <path
       id="path379"
       d="m 75.760464,93.797443 v 6.631897 L 150.16337,56.816648 V 50.18475 L 75.760464,93.797443"
       style="display:inline;fill:#75554a;fill-opacity:1;fill-rule:nonzero;stroke:none;stroke-width:0.132061"
       sodipodi:nodetypes="ccccc" />
    <path
       id="path380"
       d="m 48.562497,36.084005 c 2.28129,0.874085 4.394276,3.004251 6.008929,5.871884 0.134116,-1.721641 -0.02761,-6.078799 -0.48913,-7.502004 1.454241,1.111506 2.361497,5.56151 2.611321,7.618725 1.717213,-3.062611 3.980094,-5.325414 6.396815,-6.2247 -2.348348,2.620926 -4.232548,6.288366 -5.444853,10.465137 l -4.011651,-0.4324 c -1.120264,-3.906189 -2.913739,-7.300395 -5.071431,-9.796642"
       style="display:inline;fill:#f2d800;fill-opacity:1;fill-rule:nonzero;stroke:none;stroke-width:0.132061"
       sodipodi:nodetypes="cccccccc" />
    <path
       id="path381"
       d="m 54.571426,44.47601 c 0.134116,-0.725529 0.406293,-2.280046 1.888145,-3.900882 -0.632449,2.013444 -0.01578,3.083833 0.234046,3.948632 1.717213,-1.287915 3.980094,-2.242908 6.396815,-2.622253 -2.348348,1.103548 -4.232548,2.651433 -5.444853,4.41154 l -4.011651,-0.181714 c -1.120264,-1.646038 -2.913739,-3.077201 -5.071431,-4.130347 2.28129,0.367407 4.394276,1.265366 6.008929,2.475024"
       style="display:inline;fill:#dbb100;fill-opacity:1;fill-rule:nonzero;stroke:none;stroke-width:0.132061"
       sodipodi:nodetypes="cccccccc" />
    <path
       id="path382"
       d="m 106.90828,51.834765 c -2.32599,1.665934 -4.52708,4.14759 -6.43495,7.147861 -2.160316,0.358123 -4.474477,0.285172 -6.530925,-0.258644 -1.086078,-5.851987 -2.858514,-11.01691 -5.126655,-14.716184 2.386479,1.302506 4.582302,4.50306 6.207473,8.809815 0.310309,-2.867633 1.245177,-5.267054 2.732289,-6.79637 -0.506223,1.982938 -0.690304,4.266964 -0.608782,6.671691 1.700118,-3.97914 3.88017,-6.915745 6.18381,-8.098875 -2.23133,3.45124 -4.123422,8.158562 -5.36465,13.600697 2.64025,-3.709884 5.92478,-6.072166 8.94239,-6.359991"
       style="display:inline;fill:#f2d800;fill-opacity:1;fill-rule:nonzero;stroke:none;stroke-width:0.132061"
       sodipodi:nodetypes="cccccccccc" />
    <path
       id="path383"
       d="m 106.90828,51.834765 c -2.32599,1.665934 -4.52708,4.14759 -6.43495,7.147861 -2.160316,0.358123 -4.474477,0.285172 -6.530925,-0.258644 -1.086078,-5.851987 -2.858514,-11.01691 -5.126655,-14.716184 2.386479,1.302506 4.582302,4.50306 6.207473,8.809815 0.310309,-2.867633 1.245177,-5.267054 2.732289,-6.79637 -0.506223,1.982938 -0.690304,4.266964 -0.608782,6.671691 1.700118,-3.97914 3.88017,-6.915745 6.18381,-8.098875 -2.23133,3.45124 -4.123422,8.158562 -5.36465,13.600697 2.64025,-3.709884 5.92478,-6.072166 8.94239,-6.359991"
       style="display:inline;fill:#f2d800;fill-opacity:1;fill-rule:nonzero;stroke:none;stroke-width:0.132061"
       sodipodi:nodetypes="cccccccccc" />
    <path
       id="path384"
       d="m 106.90828,54.283262 c -2.32599,1.111507 -4.52708,2.769481 -6.43495,4.769662 -2.160316,0.242728 -4.474477,0.193652 -6.530925,-0.168449 -1.086078,-3.908842 -2.858514,-7.354777 -5.126655,-9.825822 2.386479,0.867453 4.582302,4.647634 6.207473,7.523226 0.310309,-1.915292 0.290586,-4.266964 -0.01315,-6.577518 1.629117,1.60094 2.055133,4.88771 2.136655,6.496609 1.700115,-2.658065 2.930832,-3.943327 5.644712,-8.446387 0.12097,3.042716 -2.41409,7.218159 -4.524448,9.427907 2.172148,-0.725529 5.623678,-3.006902 8.641288,-3.199228"
       style="display:inline;fill:#dbb100;fill-opacity:1;fill-rule:nonzero;stroke:none;stroke-width:0.132061"
       sodipodi:nodetypes="cccccccccc" />
    <path
       id="path385"
       d="m 64.874702,7.1026071 c -2.277344,0.8767367 -4.392961,3.0069029 -6.006299,5.8718829 -0.134116,-1.718988 0.0263,-6.0761461 0.490444,-7.499351 -1.455555,1.1128321 -2.360181,5.56151 -2.61132,7.617399 -1.717213,-3.061284 -3.981409,-5.3227625 -6.39813,-6.2233741 2.347033,2.6195999 4.232548,6.2883671 5.443538,10.4624841 l 4.015596,-0.428421 C 60.92485,12.994386 62.71964,9.6015067 64.874702,7.1026071"
       style="display:inline;fill:#f2d800;fill-opacity:1;fill-rule:nonzero;stroke:none;stroke-width:0.132061"
       sodipodi:nodetypes="cccccccc" />
    <path
       id="path386"
       d="m 58.868403,15.497265 c -0.134116,-0.726857 -0.406293,-2.281373 -1.88946,-3.90221 0.632449,2.014771 0.01972,3.082507 -0.231416,3.947306 -1.717213,-1.287914 -3.981409,-2.240255 -6.39813,-2.6196 2.347033,1.103548 4.232548,2.651433 5.443538,4.408887 l 4.015596,-0.180387 c 1.116319,-1.647364 2.911109,-3.077202 5.066171,-4.129021 -2.277344,0.368734 -4.392961,1.26404 -6.006299,2.475025"
       style="display:inline;fill:#dbb100;fill-opacity:1;fill-rule:nonzero;stroke:none;stroke-width:0.132061"
       sodipodi:nodetypes="cccccccc" />
    <path
       id="path387"
       d="m 93.621578,27.636292 c -2.327309,1.302506 -4.528392,3.241673 -6.436259,5.585386 -2.156378,0.279866 -4.473169,0.222832 -6.530931,-0.20161 -1.086078,-4.573357 -2.8572,-8.606879 -5.127971,-11.499713 2.387794,1.017333 4.583617,3.518886 6.210104,6.883911 0.310308,-2.242908 1.245176,-4.115756 2.732288,-5.310824 -0.506223,1.550537 -0.691619,3.334519 -0.611412,5.213999 1.702749,-3.109034 3.880165,-5.404998 6.183807,-6.328158 -2.228695,2.695203 -4.12473,6.375907 -5.362017,10.628281 2.640248,-2.899466 5.924778,-4.747113 8.942391,-4.971272"
       style="display:inline;fill:#f2d800;fill-opacity:1;fill-rule:nonzero;stroke:none;stroke-width:0.132061"
       sodipodi:nodetypes="cccccccccc" />
    <path
       id="path388"
       d="m 93.621578,27.636292 c -2.327309,1.302506 -4.528392,3.241673 -6.436259,5.585386 -2.156378,0.279866 -4.473169,0.222832 -6.530931,-0.20161 -1.086078,-4.573357 -2.8572,-8.606879 -5.127971,-11.499713 2.387794,1.017333 4.583617,3.518886 6.210104,6.883911 0.310308,-2.242908 1.245176,-4.115756 2.732288,-5.310824 -0.506223,1.550537 -0.691619,3.334519 -0.611412,5.213999 1.702749,-3.109034 3.880165,-5.404998 6.183807,-6.328158 -2.228695,2.695203 -4.12473,6.375907 -5.362017,10.628281 2.640248,-2.899466 5.924778,-4.747113 8.942391,-4.971272"
       style="display:inline;fill:#f2d800;fill-opacity:1;fill-rule:nonzero;stroke:none;stroke-width:0.132061"
       sodipodi:nodetypes="cccccccccc" />
    <path
       id="path389"
       d="m 93.621578,29.550258 c -2.327309,0.870106 -4.528392,2.164652 -6.436259,3.728454 -2.156378,0.187019 -4.473169,0.148555 -6.530931,-0.135291 -1.086078,-3.053326 -2.8572,-5.745877 -5.127971,-7.677086 2.387794,0.679107 4.583617,3.632954 6.210104,5.879842 0.310308,-1.496156 0.28927,-3.334519 -0.01315,-5.141048 1.627802,1.250776 2.053818,3.8213 2.134025,5.076055 1.702749,-2.074458 2.932147,-3.078527 5.647342,-6.596086 0.120967,2.375546 -2.414091,5.637113 -4.523133,7.365387 2.17084,-0.567691 5.622359,-2.350346 8.639972,-2.500227"
       style="display:inline;fill:#dbb100;fill-opacity:1;fill-rule:nonzero;stroke:none;stroke-width:0.132061"
       sodipodi:nodetypes="cccccccccc" />
    <path
       id="path390"
       d="m 55.827122,66.296284 c 2.325994,1.665934 4.528392,4.144938 6.437575,7.143882 2.157692,0.360775 4.469224,0.285172 6.5283,-0.258644 1.087393,-5.851987 2.85983,-11.015584 5.129286,-14.71751 -2.390423,1.306484 -4.584932,4.505712 -6.210104,8.813794 -0.311623,-2.870287 -1.245176,-5.269707 -2.733602,-6.797696 0.506222,1.984263 0.692933,4.266963 0.611412,6.673015 -1.70012,-3.979138 -3.87885,-6.919722 -6.185121,-8.100201 2.230009,3.449914 4.126044,8.159889 5.364646,13.600699 -2.640248,-3.707232 -5.924779,-6.072167 -8.942392,-6.357339"
       style="display:inline;fill:#f2d800;fill-opacity:1;fill-rule:nonzero;stroke:none;stroke-width:0.132061"
       sodipodi:nodetypes="cccccccccc" />
    <path
       id="path391"
       d="m 55.827122,66.296284 c 2.325994,1.665934 4.528392,4.144938 6.437575,7.143882 2.157692,0.360775 4.469224,0.285172 6.5283,-0.258644 1.087393,-5.851987 2.85983,-11.015584 5.129286,-14.71751 -2.390423,1.306484 -4.584932,4.505712 -6.210104,8.813794 -0.311623,-2.870287 -1.245176,-5.269707 -2.733602,-6.797696 0.506222,1.984263 0.692933,4.266963 0.611412,6.673015 -1.70012,-3.979138 -3.87885,-6.919722 -6.185121,-8.100201 2.230009,3.449914 4.126044,8.159889 5.364646,13.600699 -2.640248,-3.707232 -5.924779,-6.072167 -8.942392,-6.357339"
       style="display:inline;fill:#f2d800;fill-opacity:1;fill-rule:nonzero;stroke:none;stroke-width:0.132061"
       sodipodi:nodetypes="cccccccccc" />
    <path
       id="path392"
       d="m 55.827122,68.740802 c 2.325994,1.114159 4.528392,2.766829 6.437575,4.772315 2.157692,0.241401 4.469224,0.192325 6.5283,-0.171103 1.087393,-3.908842 2.85983,-7.354776 5.129286,-9.825821 -2.390423,0.867451 -4.584932,4.650287 -6.210104,7.523226 -0.311623,-1.911313 -0.28927,-4.266964 0.01447,-6.580171 -1.629117,1.606246 -2.055133,4.893016 -2.136654,6.496609 -1.70012,-2.65276 -2.930833,-3.939348 -5.644712,-8.442407 -0.120971,3.044041 2.412772,7.218158 4.5205,9.427907 -2.170842,-0.72553 -5.621045,-3.005577 -8.638658,-3.200555"
       style="display:inline;fill:#dbb100;fill-opacity:1;fill-rule:nonzero;stroke:none;stroke-width:0.132061"
       sodipodi:nodetypes="cccccccccc" />
    <path
       id="path393"
       d="m 111.49058,36.83739 c 2.27997,0.874083 4.39296,3.006902 6.00894,5.873209 0.13279,-1.720315 -0.0289,-6.077472 -0.49046,-7.500677 1.45294,1.112832 2.35756,5.56151 2.6087,7.616072 1.71852,-3.059959 3.9801,-5.322762 6.39944,-6.224701 -2.34966,2.622253 -4.23123,6.289694 -5.44353,10.466463 l -4.01429,-0.429747 c -1.11763,-3.908841 -2.91505,-7.304373 -5.0688,-9.800619"
       style="display:inline;fill:#f2d800;fill-opacity:1;fill-rule:nonzero;stroke:none;stroke-width:0.132061"
       sodipodi:nodetypes="cccccccc" />
    <path
       id="path394"
       d="m 117.49952,45.230721 c 0.13279,-0.725531 0.40234,-2.280047 1.88682,-3.90221 -0.63113,2.016098 -0.0197,3.083833 0.23142,3.948633 1.71852,-1.287915 3.9801,-2.242908 6.39944,-2.622253 -2.34966,1.107527 -4.23123,2.651434 -5.44353,4.412865 l -4.01429,-0.181713 c -1.11763,-1.647364 -2.91505,-3.077202 -5.0688,-4.131674 2.27997,0.37006 4.39296,1.266694 6.00894,2.476352"
       style="display:inline;fill:#dbb100;fill-opacity:1;fill-rule:nonzero;stroke:none;stroke-width:0.132061"
       sodipodi:nodetypes="cccccccc" />
    <path
       id="path395"
       d="m 8.803633,41.559301 c 2.32468,1.66726 4.528392,4.148917 6.43626,7.149188 2.157692,0.355469 4.471853,0.282519 6.532245,-0.261297 1.083449,-5.853315 2.855885,-11.014258 5.126656,-14.716184 -2.387793,1.303831 -4.586246,4.503059 -6.208789,8.809815 -0.311622,-2.86896 -1.247805,-5.268381 -2.732288,-6.793718 0.503593,1.981611 0.688989,4.264311 0.610098,6.670364 -1.70275,-3.979139 -3.88148,-6.91707 -6.185122,-8.097549 2.230011,3.448587 4.12473,8.157236 5.364646,13.599372 -2.640247,-3.708558 -5.926093,-6.073493 -8.943706,-6.359991"
       style="display:inline;fill:#f2d800;fill-opacity:1;fill-rule:nonzero;stroke:none;stroke-width:0.132061"
       sodipodi:nodetypes="cccccccccc" />
    <path
       id="path396"
       d="m 8.803633,41.559301 c 2.32468,1.66726 4.528392,4.148917 6.43626,7.149188 2.157692,0.355469 4.471853,0.282519 6.532245,-0.261297 1.083449,-5.853315 2.855885,-11.014258 5.126656,-14.716184 -2.387793,1.303831 -4.586246,4.503059 -6.208789,8.809815 -0.311622,-2.86896 -1.247805,-5.268381 -2.732288,-6.793718 0.503593,1.981611 0.688989,4.264311 0.610098,6.670364 -1.70275,-3.979139 -3.88148,-6.91707 -6.185122,-8.097549 2.230011,3.448587 4.12473,8.157236 5.364646,13.599372 -2.640247,-3.708558 -5.926093,-6.073493 -8.943706,-6.359991"
       style="display:inline;fill:#f2d800;fill-opacity:1;fill-rule:nonzero;stroke:none;stroke-width:0.132061"
       sodipodi:nodetypes="cccccccccc" />
    <path
       id="path397"
       d="m 8.803633,44.007798 c 2.32468,1.112833 4.528392,2.768155 6.43626,4.770988 2.157692,0.240076 4.471853,0.188347 6.532245,-0.172429 1.083449,-3.907515 2.855885,-7.354776 5.126656,-9.824495 -2.387793,0.868778 -4.586246,4.648961 -6.208789,7.523227 -0.311622,-1.913967 -0.290585,-4.266965 0.01183,-6.578845 -1.629117,1.603593 -2.055133,4.890362 -2.134024,6.495283 -1.70275,-2.654086 -2.932147,-3.938022 -5.646027,-8.441082 -0.120968,3.040062 2.412775,7.216833 4.523132,9.426581 -2.17084,-0.724203 -5.623674,-3.008229 -8.641287,-3.199228"
       style="display:inline;fill:#dbb100;fill-opacity:1;fill-rule:nonzero;stroke:none;stroke-width:0.132061"
       sodipodi:nodetypes="cccccccccc" />
  </g>
  <g
     inkscape:groupmode="layer"
     id="layer3"
     inkscape:label="Layer 2"
     transform="matrix(1.0012367,0,0,1,-2.69946e-4,0)"
     style="display:none">
    <path
       id="path571"
       d="M 149.91482,43.46397 75.303909,86.742728 0.21828414,43.474367 74.833149,0.18995152 149.91482,43.46397"
       style="fill:#a39b99;fill-opacity:1;fill-rule:nonzero;stroke:none;stroke-width:0.131744" />
    <path
       id="path572"
       d="M 75.30259,86.742728 V 99.905001 L 0.21828414,56.636646 V 43.474367 L 75.30259,86.742728"
       style="fill:#cec9c8;fill-opacity:1;fill-rule:nonzero;stroke:none;stroke-width:0.131744" />
    <path
       id="path573"
       d="M 75.301272,86.742728 V 99.905001 L 149.91482,56.626248 V 43.46397 L 75.301272,86.742728"
       style="fill:#5b5b5b;fill-opacity:1;fill-rule:nonzero;stroke:none;stroke-width:0.131744" />
    <path
       id="path574"
       d="m 75.30259,93.323861 v 6.58114 L 0.21828414,56.636646 V 50.055507 L 75.30259,93.323861"
       style="fill:#9e7363;fill-opacity:1;fill-rule:nonzero;stroke:none;stroke-width:0.131744" />
    <path
       id="path575"
       d="m 75.301272,93.323861 v 6.58114 L 149.91482,56.626248 V 50.045109 L 75.301272,93.323861"
       style="fill:#75554a;fill-opacity:1;fill-rule:nonzero;stroke:none;stroke-width:0.131744" />
    <path
       id="path576"
       d="m 0.21828414,43.415137 5.52253386,-6.39555 15.663003,-5.906046 3.135766,-4.282874 15.841022,-0.788683 4.548046,8.027936 9.594545,6.87729 3.262357,8.598653 L 33.626449,55.962474 24.216516,47.978236 10.229525,49.16442 0.21828414,43.415137"
       style="fill:#727272;fill-opacity:1;fill-rule:nonzero;stroke:none;stroke-width:0.131744" />
    <path
       id="path577"
       d="M 5.740818,37.019587 0.21828414,43.415137 10.229525,49.16442 16.057988,40.343062 5.740818,37.019587"
       style="fill:#a39b99;fill-opacity:1;fill-rule:nonzero;stroke:none;stroke-width:0.131744" />
    <path
       id="path578"
       d="m 23.981795,48.003507 6.817455,-6.486633 2.41446,2.199548 -1.103716,5.329802 2.451383,-4.102946 2.030731,1.8493 -0.667241,3.243317 4.710242,1.746635 1.669419,-2.916893 3.694876,1.429424 -0.220216,2.440154 -12.152739,3.227259 -9.644654,-7.958967"
       style="fill:#a39b99;fill-opacity:1;fill-rule:nonzero;stroke:none;stroke-width:0.131744" />
    <path
       id="path579"
       d="M 57.789513,49.486765 36.350794,54.032884 V 52.044195 L 34.991258,54.032884 24.46838,47.258523 27.513157,46.547891 23.22093,45.997708 10.937644,47.646679 c 0,0 -6.1528519,-2.437655 -10.67980016,-4.410417 l -0.0395597,0.178875 10.01124086,5.749283 13.342168,-1.186184 10.054756,7.984238 24.159108,-6.416611 0.004,-0.0591"
       style="fill:#5b5b5b;fill-opacity:1;fill-rule:nonzero;stroke:none;stroke-width:0.131744" />
    <path
       id="path580"
       d="m 5.740818,37.019587 15.663003,-4.770274 7.944906,4.134272 -13.290739,3.959477 -5.229793,-2.246801 -5.087377,-1.076674"
       style="fill:#cec9c8;fill-opacity:1;fill-rule:nonzero;stroke:none;stroke-width:0.131744" />
    <path
       id="path581"
       d="m 24.539587,26.830667 15.841022,-0.788683 0.643503,4.343551 -11.060891,1.263842 -5.423634,-4.81871"
       style="fill:#cec9c8;fill-opacity:1;fill-rule:nonzero;stroke:none;stroke-width:0.131744" />
    <path
       id="path582"
       d="m 44.928655,34.06992 -4.712879,6.273142 -9.416526,1.173812 5.792858,5.275704 8.194132,-1.711096 0.796468,-2.852397 6.532625,-0.684439 -7.186678,-7.474726"
       style="fill:#cec9c8;fill-opacity:1;fill-rule:nonzero;stroke:none;stroke-width:0.131744" />
    <path
       id="path583"
       d="m 31.87791,36.381084 -1.914689,-4.731707 -5.423634,-4.81871 -3.135766,4.282874 0.272962,1.135772 7.671944,4.134272 0.861083,-1.962496 1.6681,1.959995"
       style="fill:#a39b99;fill-opacity:1;fill-rule:nonzero;stroke:none;stroke-width:0.131744" />
    <path
       id="path584"
       d="m 41.024112,30.385535 1.041739,2.593364 -2.360395,2.261279 v 2.856083 l 2.529183,-0.43962 2.694016,-3.586721 -4.548046,-8.027936 0.643503,4.343551"
       style="fill:#5b5b5b;fill-opacity:1;fill-rule:nonzero;stroke:none;stroke-width:0.131744" />
    <path
       id="path585"
       d="m 53.592229,50.659524 v -1.554202 l -1.868537,-1.903397 0.237359,-3.261744 1.172285,-1.023763 1.389864,-1.969208 3.262357,8.598653 -4.193328,1.113661"
       style="fill:#5b5b5b;fill-opacity:1;fill-rule:nonzero;stroke:none;stroke-width:0.131744" />
    <path
       id="path586"
       d="m 5.740818,37.019587 10.31717,2.412514 9.024885,-1.77546 -8.463138,3.290569 -3.677733,4.771327 2.38545,-5.287551 -9.586634,-3.411399"
       style="fill:#efefef;fill-opacity:1;fill-rule:nonzero;stroke:none;stroke-width:0.131744" />
    <path
       id="path587"
       d="m 24.890349,26.830667 4.848701,5.765209 1.466345,1.197505 -0.538012,-1.541435 6.117249,-1.381513 -6.821411,0.778944 -5.072872,-4.81871"
       style="fill:#efefef;fill-opacity:1;fill-rule:nonzero;stroke:none;stroke-width:0.131744" />
    <path
       id="path588"
       d="m 34.561377,44.943278 1.455797,2.091486 0.129228,4.560598 1.164374,-3.818114 7.475464,-2.695766 -8.194132,1.711096 -2.030731,-1.8493"
       style="fill:#efefef;fill-opacity:1;fill-rule:nonzero;stroke:none;stroke-width:0.131744" />
    <path
       id="path589"
       d="M 47.320698,68.186545 58.611035,55.962474 83.43079,56.285476 92.786658,74.450342 75.412039,84.32718 47.320698,68.186545"
       style="fill:#727272;fill-opacity:1;fill-rule:nonzero;stroke:none;stroke-width:0.131744" />
    <path
       id="path590"
       d="m 60.374079,56.925032 -5.513303,5.735858 11.27847,5.415092 13.062612,-2.547163 2.724344,-8.603787 H 60.374079"
       style="fill:#cec9c8;fill-opacity:1;fill-rule:nonzero;stroke:none;stroke-width:0.131744" />
    <path
       id="path591"
       d="m 47.320698,68.186545 7.540078,-5.525655 11.27847,5.415092 1.50195,6.37436 6.689545,-7.973444 1.081298,17.850282 -28.091341,-16.140635"
       style="fill:#a39b99;fill-opacity:1;fill-rule:nonzero;stroke:none;stroke-width:0.131744" />
    <path
       id="path592"
       d="m 80.693259,60.817117 4.991114,17.670359 7.102285,-4.037134 -9.355868,-18.164866 -1.504588,0.639556 -1.232943,3.892085"
       style="fill:#5b5b5b;fill-opacity:1;fill-rule:nonzero;stroke:none;stroke-width:0.131744" />
    <path
       id="path593"
       d="M 92.786658,74.450342 78.50297,81.088079 v -2.600603 l -3.152908,4.81871 -12.523282,-8.767393 2.849617,-1.220538 H 60.292322 L 47.320698,68.186545 75.412039,84.32718 92.786658,74.450342"
       style="fill:#5b5b5b;fill-opacity:1;fill-rule:nonzero;stroke:none;stroke-width:0.131744" />
    <path
       id="path594"
       d="m 54.860776,62.66089 10.285521,6.462941 2.494899,5.326511 V 69.30942 l 6.689545,-2.832522 0.425925,7.014045 0.655373,-5.442733 3.6118,-0.658114 1.66942,3.477737 -0.92306,-4.958494 2.156003,-8.984307 -3.545867,8.762129 -2.968296,0.579008 v -1.123926 l -9.272793,2.933739 -11.27847,-5.415092"
       style="fill:#efefef;fill-opacity:1;fill-rule:nonzero;stroke:none;stroke-width:0.131744" />
    <path
       id="path595"
       d="m 112.28168,44.772037 9.09609,-8.041889 19.06118,-1.250417 6.40999,8.342121 -13.81688,3.732822 -20.75038,-2.782637"
       style="fill:#727272;fill-opacity:1;fill-rule:nonzero;stroke:none;stroke-width:0.131744" />
    <path
       id="path596"
       d="m 122.69379,36.853611 -4.42673,3.463258 8.4038,0.53939 10.10882,-1.788754 2.4672,-3.406266 -16.55309,1.192372"
       style="fill:#cec9c8;fill-opacity:1;fill-rule:nonzero;stroke:none;stroke-width:0.131744" />
    <path
       id="path597"
       d="m 112.28168,44.772037 5.98538,-4.455168 8.4038,0.53939 0.8835,2.681287 5.44605,-4.002648 0.0317,8.019776 -20.75038,-2.782637"
       style="fill:#a39b99;fill-opacity:1;fill-rule:nonzero;stroke:none;stroke-width:0.131744" />
    <path
       id="path598"
       d="m 138.12867,37.168188 3.04213,7.735472 5.67814,-1.081808 -6.40999,-8.342121 -1.19207,0.181508 -1.11821,1.506949"
       style="fill:#5b5b5b;fill-opacity:1;fill-rule:nonzero;stroke:none;stroke-width:0.131744" />
    <path
       id="path599"
       d="m 146.84894,43.821852 -11.30616,2.090038 0.12132,-1.203164 -2.63204,2.35131 -9.15148,-2.821203 2.22326,-0.978879 -4.10234,0.843702 -9.71982,0.668381 20.75038,2.782637 13.81688,-3.732822"
       style="fill:#5b5b5b;fill-opacity:1;fill-rule:nonzero;stroke:none;stroke-width:0.131744" />
    <path
       id="path600"
       d="m 118.26706,40.316869 7.60733,1.121426 1.67997,2.099251 0.21363,-2.306031 5.23242,-1.696617 0.0237,3.019558 0.73977,-2.390269 2.79687,-0.321292 1.12482,1.497736 -0.48658,-2.10965 2.04786,-3.569742 -3.10675,3.466945 -2.30237,0.280225 0.0462,-0.469893 -7.21305,1.917743 -8.4038,-0.53939"
       style="fill:#efefef;fill-opacity:1;fill-rule:nonzero;stroke:none;stroke-width:0.131744" />
    <path
       id="path601"
       d="m 62.495797,19.420304 -3.36653,-5.053131 3.713337,-6.9996993 15.127629,-4.347632 12.156694,5.4926189 2.659731,9.6110954 -13.868312,4.576919 -16.422549,-3.280171"
       style="fill:#727272;fill-opacity:1;fill-rule:nonzero;stroke:none;stroke-width:0.131744" />
    <path
       id="path602"
       d="m 70.761137,14.692677 -8.212593,-6.7698871 -2.620171,4.9374341 8.009521,3.434039 9.651247,0.455415 4.942324,-3.889454 -11.770328,1.832453"
       style="fill:#a39b99;fill-opacity:1;fill-rule:nonzero;stroke:none;stroke-width:0.131744" />
    <path
       id="path603"
       d="M 66.80253,8.9695859 72.462204,12.860224 81.578077,8.9695859 87.463241,10.914577 90.126927,8.5124606 78.462092,3.2439947 66.80253,6.2291995 v 2.7403864"
       style="fill:#cec9c8;fill-opacity:1;fill-rule:nonzero;stroke:none;stroke-width:0.131744" />
    <path
       id="path604"
       d="M 92.786658,18.123556 91.462727,13.332751 80.628644,18.809442 H 65.74233 l -6.613063,-4.442269 3.36653,5.053131 16.422549,3.280171 13.868312,-4.576919"
       style="fill:#5b5b5b;fill-opacity:1;fill-rule:nonzero;stroke:none;stroke-width:0.131744" />
    <path
       id="path605"
       d="m 69.624455,13.081219 -5.169133,-4.8263448 6.32955,4.0829398 1.123496,0.52241 9.806849,-3.3286081 4.569145,2.4350211 3.481254,-2.1547969 -3.810917,4.1882379 -4.736616,-2.870562 -9.73696,3.110116 -1.856668,-1.158413"
       style="fill:#a39b99;fill-opacity:1;fill-rule:nonzero;stroke:none;stroke-width:0.131744" />
    <path
       id="path606"
       d="m 70.28642,12.860224 -5.831098,-4.6053498 6.32955,4.0829398 0.861084,1.222644 9.407296,-3.510643 4.672,2.810409 4.040364,-3.0483839 -3.810917,4.1882379 -4.736616,-2.870562 -9.73696,3.110116 -1.194703,-1.379408"
       style="fill:#5b5b5b;fill-opacity:1;fill-rule:nonzero;stroke:none;stroke-width:0.131744" />
    <path
       id="path607"
       d="m 67.937894,16.294263 0.251862,-1.579473 2.806102,-0.35275 0.708119,-1.595399 -4.901447,-3.7970551 5.485611,3.3682281 9.289936,-3.3682281 -9.08027,3.8248281 -1.033826,1.739789 3.522131,-0.49964 -3.755533,0.800003 -2.872034,0.181508 -0.420651,1.278189"
       style="fill:#efefef;fill-opacity:1;fill-rule:nonzero;stroke:none;stroke-width:0.131744" />
    <path
       id="path608"
       d="M 83.844847,12.720836 85.96261,14.239632 89.765616,9.8118401 85.96261,13.905441 83.844847,12.720836"
       style="fill:#efefef;fill-opacity:1;fill-rule:nonzero;stroke:none;stroke-width:0.131744" />
    <path
       id="path609"
       d="M 59.129267,14.367173 63.003481,8.05336 66.80253,6.2291995 62.842604,7.3674737 59.129267,14.367173"
       style="fill:#efefef;fill-opacity:1;fill-rule:nonzero;stroke:none;stroke-width:0.131744" />
    <path
       id="path610"
       d="m 72.037597,8.2548742 4.095747,-2.4735867 4.97661,0.7794701 -4.847382,-0.4513345 -4.224975,2.1454511"
       style="fill:#efefef;fill-opacity:1;fill-rule:nonzero;stroke:none;stroke-width:0.131744" />
    <path
       id="path611"
       d="m 61.621528,48.969619 -1.640408,-5.371394 2.500173,-8.740017 9.867507,-5.067477 6.643392,5.247932 1.136681,11.219264 -9.172574,4.909661 -9.334771,-2.197969"
       style="fill:#727272;fill-opacity:1;fill-rule:nonzero;stroke:none;stroke-width:0.131744" />
    <path
       id="path612"
       d="m 62.266351,35.537382 -1.785461,6.146652 9.791026,2.532686 3.303235,-4.566126 -11.3088,-4.113212"
       style="fill:#a39b99;fill-opacity:1;fill-rule:nonzero;stroke:none;stroke-width:0.131744" />
    <path
       id="path613"
       d="m 64.534441,36.142979 2.920824,3.883925 5.873296,-4.795018 3.618394,2.350783 2.045237,-2.544006 -6.90053,-6.192983 -7.281622,4.17797 -0.275599,3.119329"
       style="fill:#cec9c8;fill-opacity:1;fill-rule:nonzero;stroke:none;stroke-width:0.131744" />
    <path
       id="path614"
       d="m 80.128873,46.257927 -0.669877,-5.648987 -7.398982,5.93079 -4.344974,0.331559 -4.329149,0.862261 -3.404771,-4.135325 1.640408,5.371394 9.334771,2.197969 9.172574,-4.909661"
       style="fill:#5b5b5b;fill-opacity:1;fill-rule:nonzero;stroke:none;stroke-width:0.131744" />
    <path
       id="path615"
       d="m 65.804307,40.545761 -2.517316,-4.913347 3.234665,3.937891 0.611856,0.500298 6.222741,-4.205217 2.716433,2.858716 2.533139,-2.249434 -2.907638,4.559413 -2.807419,-3.357828 -6.09615,4.027788 -0.990311,-1.15828"
       style="fill:#a39b99;fill-opacity:1;fill-rule:nonzero;stroke:none;stroke-width:0.131744" />
    <path
       id="path616"
       d="m 74.424365,39.511206 1.263273,1.8006 2.918187,-4.837138 -2.89577,4.451483 -1.28569,-1.414945"
       style="fill:#efefef;fill-opacity:1;fill-rule:nonzero;stroke:none;stroke-width:0.131744" />
    <path
       id="path617"
       d="m 59.98112,43.598225 2.523909,-7.985818 2.305011,-2.588757 -2.328747,1.834558 -2.500173,8.740017"
       style="fill:#efefef;fill-opacity:1;fill-rule:nonzero;stroke:none;stroke-width:0.131744" />
    <path
       id="path618"
       d="m 118.6587,52.190165 1.38459,-3.327029 -1.75645,-4.930721 -12.06571,-2.415541 -15.215977,6.192984 -0.688339,1.121426 11.896926,7.80273 16.44496,-4.443849"
       style="fill:#727272;fill-opacity:1;fill-rule:nonzero;stroke:none;stroke-width:0.131744" />
    <path
       id="path619"
       d="m 106.41365,49.940732 12.16989,-5.453 0.66196,2.868455 -6.05263,2.871483 -9.64993,0.454493 -4.942325,-3.889585 7.813035,3.148154"
       style="fill:#a39b99;fill-opacity:1;fill-rule:nonzero;stroke:none;stroke-width:0.131744" />
    <path
       id="path620"
       d="m 114.32823,45.534001 -9.61432,2.574805 -6.601198,-2.390269 -5.585829,1.074041 4.704966,-3.699785 8.075451,-1.966575 9.02093,1.667923 v 2.73986"
       style="fill:#cec9c8;fill-opacity:1;fill-rule:nonzero;stroke:none;stroke-width:0.131744" />
    <path
       id="path621"
       d="m 92.172164,52.732583 -1.85535,-3.901299 10.186626,3.912092 h 7.21964 l 7.69041,-1.163413 4.6298,-2.716827 -1.38459,3.327029 -16.44496,4.443849 -10.041576,-3.901431"
       style="fill:#5b5b5b;fill-opacity:1;fill-rule:nonzero;stroke:none;stroke-width:0.131744" />
    <path
       id="path622"
       d="m 105.47213,48.015354 8.8561,-2.481353 -9.44158,2.052525 -6.773938,-1.867989 6.565588,2.324457 0.79383,-0.02764"
       style="fill:#efefef;fill-opacity:1;fill-rule:nonzero;stroke:none;stroke-width:0.131744" />
    <path
       id="path623"
       d="m 93.604225,59.217638 -0.712075,-2.710114 1.363492,-3.98001 7.693048,-1.665422 9.22005,6.016608 0.37844,0.963611 -7.80908,5.404169 -10.133875,-4.028842"
       style="fill:#727272;fill-opacity:1;fill-rule:nonzero;stroke:none;stroke-width:0.131744" />
    <path
       id="path624"
       d="m 101.38166,57.5251 -7.342278,-4.554411 -0.56966,2.302345 3.647404,2.316824 6.031534,0.66996 3.29137,-2.805276 -5.05837,2.070558"
       style="fill:#a39b99;fill-opacity:1;fill-rule:nonzero;stroke:none;stroke-width:0.131744" />
    <path
       id="path625"
       d="m 96.64241,53.797411 5.89307,2.326038 4.2619,-1.479704 3.4562,1.350713 -2.75995,-3.334268 -4.94759,-2.057132 -5.749347,1.02929 -0.154283,2.165063"
       style="fill:#cec9c8;fill-opacity:1;fill-rule:nonzero;stroke:none;stroke-width:0.131744" />
    <path
       id="path626"
       d="m 110.21271,60.796058 1.33447,-2.953747 -6.58009,2.277074 -4.53354,-0.347484 -4.769583,-1.083387 -2.771817,-2.18099 0.712075,2.710114 10.133875,4.028842 6.47461,-2.450422"
       style="fill:#5b5b5b;fill-opacity:1;fill-rule:nonzero;stroke:none;stroke-width:0.131744" />
    <path
       id="path627"
       d="m 102.06736,56.013938 -5.42495,-2.216527 5.81,1.899317 4.34497,-1.052983 -4.2342,1.429292 -0.49582,-0.0591"
       style="fill:#efefef;fill-opacity:1;fill-rule:nonzero;stroke:none;stroke-width:0.131744" />
    <path
       id="path628"
       d="m 48.808143,25.565904 -0.279556,-0.868974 0.536694,-1.27661 3.034229,-0.531624 3.636854,1.928142 0.150327,0.306944 -3.080382,1.73321 -3.998166,-1.291088"
       style="fill:#727272;fill-opacity:1;fill-rule:nonzero;stroke:none;stroke-width:0.131744" />
    <path
       id="path629"
       d="m 51.875338,25.021906 -2.894452,-1.458116 -0.22549,0.73735 1.438654,0.743406 2.378857,0.214414 1.298876,-0.898721 -1.996445,0.661667"
       style="fill:#a39b99;fill-opacity:1;fill-rule:nonzero;stroke:none;stroke-width:0.131744" />
    <path
       id="path630"
       d="m 50.00812,23.828614 2.323472,0.744459 1.681288,-0.473579 1.363491,0.432908 -1.089211,-1.067329 -1.951612,-0.659694 -2.268089,0.330636 -0.05934,0.692599"
       style="fill:#cec9c8;fill-opacity:1;fill-rule:nonzero;stroke:none;stroke-width:0.131744" />
    <path
       id="path631"
       d="m 55.359228,26.071335 0.527463,-0.947553 -2.596435,0.729981 -1.788098,-0.110432 -1.880405,-0.347616 -1.093166,-0.698785 0.279556,0.868974 3.998166,1.291088 2.552919,-0.785657"
       style="fill:#5b5b5b;fill-opacity:1;fill-rule:nonzero;stroke:none;stroke-width:0.131744" />
    <path
       id="path632"
       d="m 52.146981,24.539115 -2.138861,-0.710501 2.290506,0.609282 1.714254,-0.338402 -1.66942,0.459232 -0.196479,-0.01962"
       style="fill:#efefef;fill-opacity:1;fill-rule:nonzero;stroke:none;stroke-width:0.131744" />
    <path
       id="path633"
       d="m 111.90982,34.749093 -0.5301,-0.744985 0.12659,-1.377827 2.73226,-1.420605 4.04827,0.7413 0.23736,0.247319 -2.41314,2.579544 -4.20124,-0.02475"
       style="fill:#727272;fill-opacity:1;fill-rule:nonzero;stroke:none;stroke-width:0.131744" />
    <path
       id="path634"
       d="m 114.67108,33.306508 -3.20433,-0.517277 0.0106,0.770124 1.59689,0.275092 2.33139,-0.512013 0.96526,-1.247915 -1.69976,1.231989"
       style="fill:#a39b99;fill-opacity:1;fill-rule:nonzero;stroke:none;stroke-width:0.131744" />
    <path
       id="path635"
       d="m 112.52563,32.731053 2.44479,0.0094 1.45712,-0.957951 1.43206,0.0027 -1.36217,-0.689967 -2.06106,-0.04067 -2.05975,0.997437 0.14901,0.679174"
       style="fill:#cec9c8;fill-opacity:1;fill-rule:nonzero;stroke:none;stroke-width:0.131744" />
    <path
       id="path636"
       d="m 118.30794,33.256622 0.21626,-1.062327 -2.25359,1.479308 -1.73798,0.433435 -1.89887,0.235472 -1.25404,-0.338402 0.5301,0.744985 4.20124,0.02475 2.19688,-1.517217"
       style="fill:#5b5b5b;fill-opacity:1;fill-rule:nonzero;stroke:none;stroke-width:0.131744" />
    <path
       id="path637"
       d="m 114.78185,32.763959 -2.25622,-0.0329 2.36963,-0.108984 1.53228,-0.839622 -1.45185,0.940972 -0.19384,0.04054"
       style="fill:#efefef;fill-opacity:1;fill-rule:nonzero;stroke:none;stroke-width:0.131744" />
    <path
       id="path638"
       d="m 43.017921,60.077266 -0.263732,-0.747618 0.135823,-1.380986 1.603486,-1.409285 2.207431,0.771309 0.117361,0.24982 -1.447885,2.568224 -2.352484,-0.05146"
       style="fill:#727272;fill-opacity:1;fill-rule:nonzero;stroke:none;stroke-width:0.131744" />
    <path
       id="path639"
       d="m 44.645143,58.646394 -1.784142,-0.535705 -0.03033,0.771178 0.894049,0.284305 1.329206,-0.498718 0.590758,-1.245283 -0.999542,1.224223"
       style="fill:#a39b99;fill-opacity:1;fill-rule:nonzero;stroke:none;stroke-width:0.131744" />
    <path
       id="path640"
       d="m 43.466264,58.058172 1.371403,0.02527 0.850534,-0.95071 0.7846,0.01185 -0.718667,-0.701286 -1.141957,-0.05304 -1.202615,0.98625 0.0567,0.681674"
       style="fill:#cec9c8;fill-opacity:1;fill-rule:nonzero;stroke:none;stroke-width:0.131744" />
    <path
       id="path641"
       d="m 46.65082,58.621781 0.16747,-1.061275 -1.304152,1.462198 -0.985036,0.425273 -1.07998,0.225206 -0.694933,-0.343535 0.263732,0.747618 2.352484,0.05146 1.280415,-1.506949"
       style="fill:#5b5b5b;fill-opacity:1;fill-rule:nonzero;stroke:none;stroke-width:0.131744" />
    <path
       id="path642"
       d="m 44.733494,58.105556 -1.26723,-0.04738 1.3358,-0.09608 0.886137,-0.829354 -0.846578,0.932152 -0.108129,0.04067"
       style="fill:#efefef;fill-opacity:1;fill-rule:nonzero;stroke:none;stroke-width:0.131744" />
    <path
       id="path643"
       d="m 77.781665,32.11519 2.202157,-8.38016 7.973916,-10.178653 1.50195,-4.7594798 9.125103,-3.6341049 2.915549,7.2855847 5.77704,6.376992 1.87776,9.05012 -13.545238,9.417741 -7.793261,0.106878 -4.512442,-2.345518 -5.522534,-2.9394"
       style="fill:#727272;fill-opacity:1;fill-rule:nonzero;stroke:none;stroke-width:0.131744" />
    <path
       id="path644"
       d="m 79.983822,23.73503 -2.202157,8.38016 5.522534,2.9394 2.305011,-11.018275 -5.625388,-0.301285"
       style="display:inline;fill:#a39b99;fill-opacity:1;fill-rule:nonzero;stroke:none;stroke-width:0.131744" />
    <path
       id="path645"
       d="m 87.695325,37.478818 5.874614,-15.502268 1.383272,1.896817 -0.448343,5.914732 1.215801,-4.826344 1.156461,1.683324 -0.288786,3.62884 2.617534,1.307014 0.880862,-3.401133 2.10326,1.196451 -0.0976,2.715247 -6.482522,5.201732 -7.914576,0.185588"
       style="fill:#a39b99;fill-opacity:1;fill-rule:nonzero;stroke:none;stroke-width:0.131744" />
    <path
       id="path646"
       d="m 109.15646,27.812705 -12.201529,6.857284 -0.07516,-2.232455 -0.648779,2.441735 -8.319405,1.68227 1.573158,-1.393885 -2.286551,0.307997 -3.68037,-2.291552 c 0,0 -3.278181,-0.714712 -5.736156,-1.270029 v 0.20112 l 5.522534,2.9394 4.177504,2.484907 8.128199,-0.246267 13.545235,-9.417741 9.9e-4,-0.06278"
       style="fill:#5b5b5b;fill-opacity:1;fill-rule:nonzero;stroke:none;stroke-width:0.131744" />
    <path
       id="path647"
       d="m 79.983822,23.73503 8.041167,-9.090264 4.584969,2.354863 -7.000748,7.036686 -2.891814,-0.806716 -2.733574,0.505431"
       style="fill:#cec9c8;fill-opacity:1;fill-rule:nonzero;stroke:none;stroke-width:0.131744" />
    <path
       id="path648"
       d="m 89.459688,8.7968972 9.125103,-3.6341049 0.5301,4.0870189 -6.3401,2.9749388 -3.315103,-3.4278528"
       style="fill:#cec9c8;fill-opacity:1;fill-rule:nonzero;stroke:none;stroke-width:0.131744" />
    <path
       id="path649"
       d="m 101.50034,12.448377 -2.678191,6.906116 -5.25221,2.622057 3.307191,4.668529 4.59684,-2.798564 0.45889,-3.087475 3.8729,-1.191187 -4.30542,-7.119476"
       style="fill:#cec9c8;fill-opacity:1;fill-rule:nonzero;stroke:none;stroke-width:0.131744" />
    <path
       id="path650"
       d="m 94.023558,16.538949 -1.248767,-4.314199 -3.315103,-3.4278528 -1.50195,4.7594798 0.21626,1.024158 4.43596,2.419094 0.411421,-2.111097 1.002179,1.650417"
       style="fill:#a39b99;fill-opacity:1;fill-rule:nonzero;stroke:none;stroke-width:0.131744" />
    <path
       id="path651"
       d="m 99.114891,9.2498112 0.675152,2.4215968 -1.334481,2.54203 0.04616,2.893069 1.458434,-0.750644 1.540194,-3.907486 -2.915553,-7.2855847 0.5301,4.0870189"
       style="fill:#5b5b5b;fill-opacity:1;fill-rule:nonzero;stroke:none;stroke-width:0.131744" />
    <path
       id="path652"
       d="m 106.61013,29.252395 0.0106,-1.693591 -1.09712,-1.961574 0.1701,-3.494717 0.71471,-1.147487 0.869,-2.129657 1.87777,9.05012 -2.54502,1.376906"
       style="fill:#5b5b5b;fill-opacity:1;fill-rule:nonzero;stroke:none;stroke-width:0.131744" />
    <path
       id="path653"
       d="m 79.983822,23.73503 5.571324,-0.62784 4.752438,-3.969743 -4.366073,5.372842 -1.57052,6.015161 0.862402,-6.200749 -5.249571,-0.589671"
       style="fill:#efefef;fill-opacity:1;fill-rule:nonzero;stroke:none;stroke-width:0.131744" />
    <path
       id="path654"
       d="m 89.654849,8.7192394 3.031591,4.4658306 0.872951,0.903459 -0.359993,-1.412445 3.453561,-2.36921 -3.878168,1.917876 -3.119942,-3.5055106"
       style="fill:#efefef;fill-opacity:1;fill-rule:nonzero;stroke:none;stroke-width:0.131744" />
    <path
       id="path655"
       d="m 95.720669,24.961755 0.845259,2.024227 0.187249,4.982185 0.538012,-4.356978 4.182781,-3.764674 -4.59684,2.798564 -1.156461,-1.683324"
       style="display:inline;fill:#efefef;fill-opacity:1;fill-rule:nonzero;stroke:none;stroke-width:0.131744" />
  </g>
  <g
     inkscape:groupmode="layer"
     id="layer5"
     inkscape:label="grass">
    <path
       id="path46"
       d="M 0.30077418,43.62256 75.124961,86.854383 149.79507,43.632947 75.284301,0.3954717 0.30077418,43.62256"
       style="display:inline;fill:#8fc457;fill-opacity:1;fill-rule:nonzero;stroke:none;stroke-width:0.131583"
       transform="matrix(1.0012367,0,0,1,-2.69946e-4,0)" />
    <path
       id="path47"
       d="m 68.825085,44.304678 c -1.373488,0 -2.873396,-0.270717 -4.170507,-0.728267 -0.614974,0.05391 -1.241802,0.08165 -1.868629,0.08165 -2.182043,0 -4.365402,-0.330278 -6.035186,-0.996881 -3.351417,-1.331763 -3.369853,-3.497107 -0.04082,-4.830315 1.663198,-0.668181 3.850509,-1.875168 6.039136,-1.875168 1.972661,0 3.945323,0.976897 5.540045,1.65941 0.542548,-0.424681 1.04954,-0.825827 1.51176,-1.194102 -0.580738,-0.352367 -1.085096,-0.743651 -1.430115,-1.163335 -1.197029,-1.450356 -0.221233,-2.620266 2.18336,-2.620266 0.0027,0 0.0052,0 0.0079,0 0.01712,9.2e-4 0.03423,9.2e-4 0.05005,9.2e-4 0.248887,0 0.520161,-0.0076 0.80197,-0.01433 0.281808,-0.0078 0.57547,-0.01433 0.871764,-0.01433 0.842792,0 1.711922,0.0564 2.394058,0.332776 1.18386,0.475563 1.815954,1.606555 2.412493,2.329695 1.197029,1.447727 0.22255,2.620266 -2.176775,2.620266 -0.004,0 -0.0079,0 -0.01185,0 -1.139088,-9.2e-4 -2.391425,-0.273216 -3.526562,-0.706179 -0.442465,0.445849 -0.93629,0.863955 -1.409043,1.229601 1.182543,0.737472 1.592088,1.614707 1.219415,2.44829 0.121152,0.104789 0.239669,0.204977 0.351603,0.298328 1.694803,1.358057 1.011351,2.73347 -1.530196,3.068744 -0.37794,0.04983 -0.774315,0.07349 -1.18386,0.07349"
       style="display:inline;fill:#75a754;fill-opacity:1;fill-rule:nonzero;stroke:none;stroke-width:0.131583"
       transform="matrix(1.0012367,0,0,1,-2.69946e-4,0)" />
    <path
       id="path48"
       d="m 57.463187,33.476114 c -0.846744,-0.539331 -3.597671,-0.107945 -4.19026,0.732344 -1.056125,1.298892 2.417762,8.885158 2.508625,8.819418 l 0.0066,-0.0027 c 0.177776,0.3642 0.476704,0.686721 0.857279,0.902479 l 0.210697,0.106236 0.213333,0.08428 c 0.882297,0.281498 1.697436,-0.09611 2.139902,-0.921939 0.237036,-0.443219 0.321315,-0.933113 0.234402,-1.367129 -0.18041,0.0067 -0.858595,-7.544719 -1.980562,-8.353059"
       style="display:inline;fill:#ffffff;fill-opacity:1;fill-rule:nonzero;stroke:none;stroke-width:0.131583"
       transform="matrix(1.0012367,0,0,1,-2.69946e-4,0)" />
    <path
       id="path49"
       d="m 59.206714,40.475849 c -0.426664,-2.203343 -0.836208,-6.410705 -1.743527,-6.999735 -0.846744,-0.539331 -3.597671,-0.107945 -4.19026,0.732344 -0.707156,0.915233 0.808554,5.287996 1.864679,7.469118 1.502541,0.02774 2.832573,-0.399568 4.069108,-1.201727"
       style="display:inline;fill:#ddcebe;fill-opacity:1;fill-rule:nonzero;stroke:none;stroke-width:0.131583"
       transform="matrix(1.0012367,0,0,1,-2.69946e-4,0)" />
    <path
       id="path50"
       d="m 61.660031,30.522941 c 3.50154,1.326502 2.18731,4.230896 -0.418763,6.812243 -2.664014,2.55308 -5.828438,3.678944 -9.582816,2.39136 -3.688534,-1.258395 -6.355183,-4.68871 -3.429112,-7.316733 1.368221,-1.314801 3.588453,-3.468312 6.352549,-3.728643 2.757512,-0.261908 5.39124,1.183321 7.078142,1.841773"
       style="display:inline;fill:#9e7363;fill-opacity:1;fill-rule:nonzero;stroke:none;stroke-width:0.131583"
       transform="matrix(1.0012367,0,0,1,-2.69946e-4,0)" />
    <path
       id="path51"
       d="m 67.234314,27.517307 c -0.256788,-1.068802 -1.370855,-1.062096 -1.72114,-0.07758 0.0856,1.576841 -2.602123,12.328885 -3.14467,12.190699 l 0.0027,0.0016 c -0.223867,0.503306 -0.406911,1.028175 -0.509627,1.496112 l -0.04609,0.243369 -0.03423,0.223517 c -0.08954,0.857118 0.326582,1.042505 1.08773,0.343031 0.399008,-0.375902 0.811187,-0.942449 1.124601,-1.561851 0.534646,0.214181 4.266638,-11.128602 3.240801,-12.85888"
       style="display:inline;fill:#e8dcd1;fill-opacity:1;fill-rule:nonzero;stroke:none;stroke-width:0.131583"
       transform="matrix(1.0012367,0,0,1,-2.69946e-4,0)" />
    <path
       id="path52"
       d="m 66.992012,31.490502 c 0.323947,-1.878718 0.363454,-3.466734 0.242302,-3.973195 -0.256788,-1.068802 -1.370855,-1.062096 -1.72114,-0.07758 -0.172509,0.472014 -0.318681,1.956292 -0.632095,3.71589 0.60444,0.641491 1.31423,0.789931 2.110933,0.334879"
       style="display:inline;fill:#d3beae;fill-opacity:1;fill-rule:nonzero;stroke:none;stroke-width:0.131583"
       transform="matrix(1.0012367,0,0,1,-2.69946e-4,0)" />
    <path
       id="path53"
       d="m 69.929934,25.663832 c 1.889699,1.185819 1.484106,3.310537 -0.514893,4.284804 -2.005584,0.989781 -4.701204,0.503437 -6.435513,-0.666604 -1.727724,-1.185818 -1.938423,-2.591603 -0.08428,-3.594664 0.928389,-0.486872 2.164924,-1.479151 3.481787,-1.550544 1.322131,-0.06929 2.633727,0.921937 3.552898,1.527008"
       style="display:inline;fill:#e54600;fill-opacity:1;fill-rule:nonzero;stroke:none;stroke-width:0.131583"
       transform="matrix(1.0012367,0,0,1,-2.69946e-4,0)" />
    <path
       id="path54"
       d="m 63.950057,38.748596 c 0.375306,-0.396939 1.51966,-0.460181 1.933156,-0.06469 0.690035,0.570623 0.833574,5.234483 0.733492,5.233037 l -0.0052,-0.0016 c -0.0052,0.227461 -0.133003,0.44585 -0.410861,0.602442 l -0.15934,0.07758 -0.180411,0.06417 c -0.769048,0.229039 -1.891016,0.0447 -2.50204,-0.382607 -0.337118,-0.231142 -0.463537,-0.49305 -0.414812,-0.734973 0.05926,0.0067 0.547815,-4.191452 1.006083,-4.793368"
       style="display:inline;fill:#e6d9ce;fill-opacity:1;fill-rule:nonzero;stroke:none;stroke-width:0.131583"
       transform="matrix(1.0012367,0,0,1,-2.69946e-4,0)" />
    <path
       id="path55"
       d="m 63.070392,42.785953 c 0.231767,-1.226446 0.508309,-3.603868 0.879665,-4.037357 0.375306,-0.396939 1.51966,-0.460181 1.933156,-0.06469 0.455634,0.419553 0.769048,3.014838 0.746661,4.38762 -1.144355,0.16698 -2.45595,0.03799 -3.559482,-0.285574"
       style="display:inline;fill:#a49387;fill-opacity:1;fill-rule:nonzero;stroke:none;stroke-width:0.131583"
       transform="matrix(1.0012367,0,0,1,-2.69946e-4,0)" />
    <path
       id="path56"
       d="m 62.296076,37.54266 c -1.513076,1.168989 -2.268956,2.658395 -0.687402,3.751257 1.553899,1.08997 4.95404,1.444834 6.618555,0.281499 1.697437,-1.157155 0.871764,-3.325525 -0.841475,-4.406159 -0.874398,-0.55616 -1.91867,-1.501239 -2.708789,-1.392242 -0.7809,0.109392 -1.58682,1.1966 -2.380889,1.765645"
       style="display:inline;fill:#f98f07;fill-opacity:1;fill-rule:nonzero;stroke:none;stroke-width:0.131583"
       transform="matrix(1.0012367,0,0,1,-2.69946e-4,0)" />
    <path
       id="path57"
       d="m 113.23631,51.580785 c -0.46091,0 -2.90105,-0.03957 -1.36032,-0.894196 1.23785,-0.687246 2.35324,-1.423666 3.30269,-2.070811 -0.43983,-0.274794 -0.82303,-0.576803 -1.1167,-0.906949 -1.30632,-1.472577 -0.41085,-2.686137 2.01743,-2.766341 0.79408,-0.02616 1.82123,-0.181179 2.78517,-0.181179 0.507,0 0.99819,0.04312 1.42749,0.170398 1.25233,0.343689 1.98582,1.422746 2.66138,2.05648 1.35636,1.267598 0.43193,2.580822 -2.04641,2.882305 -0.30156,0.03537 -0.61103,0.05391 -0.92576,0.05391 -0.97842,0 -2.00163,-0.170003 -2.94055,-0.46018 -1.54073,1.275225 -3.73199,2.116566 -3.73199,2.116566 0,0 -0.0263,0 -0.0725,0"
       style="display:inline;fill:#75a754;fill-opacity:1;fill-rule:nonzero;stroke:none;stroke-width:0.131583"
       transform="matrix(1.0012367,0,0,1,-2.69946e-4,0)" />
    <path
       id="path58"
       d="m 113.96717,42.641588 c -0.33712,-1.042506 -1.56312,-1.049211 -1.90023,-0.09598 0.17514,1.50124 -0.85728,6.883243 -1.25234,8.544625 h 0.003 c 0,0 0.0513,0.602443 1.84097,0.648198 1.85151,0.04878 2.53891,-7.479507 1.30897,-9.096842"
       style="display:inline;fill:#e8dcd1;fill-opacity:1;fill-rule:nonzero;stroke:none;stroke-width:0.131583"
       transform="matrix(1.0012367,0,0,1,-2.69946e-4,0)" />
    <path
       id="path59"
       d="m 112.861,44.285089 c -0.66896,1.229075 -1.42221,0.571675 -1.62764,1.946035 0.70189,0.59784 3.11175,0.574174 3.96903,0.156198 0.1725,-1.197782 -1.36428,-1.714368 -2.34139,-2.102233"
       style="display:inline;fill:#d3beae;fill-opacity:1;fill-rule:nonzero;stroke:none;stroke-width:0.131583"
       transform="matrix(1.0012367,0,0,1,-2.69946e-4,0)" />
    <path
       id="path60"
       d="m 116.90246,41.109582 c 2.18599,0.977423 1.83571,3.051784 -0.34239,4.069702 -2.18336,1.0216 -5.18317,0.533678 -7.13477,-0.663053 -1.92656,-1.311646 -2.22023,-2.702968 -0.25942,-3.480015 0.97976,-0.389312 2.28608,-1.321505 3.732,-1.378041 1.4525,-0.05496 2.94977,0.906029 4.00458,1.451407"
       style="display:inline;fill:#e54600;fill-opacity:1;fill-rule:nonzero;stroke:none;stroke-width:0.131583"
       transform="matrix(1.0012367,0,0,1,-2.69946e-4,0)" />
    <path
       id="path61"
       d="m 64.989062,72.502021 c -2.072744,0 -4.220547,-0.78888 -5.41626,-2.140626 -1.648713,-1.814031 -0.892833,-4.078511 1.684268,-5.03424 1.099581,-0.407851 2.569202,-1.150451 3.83339,-1.150451 0.214649,0 0.42403,0.02103 0.624194,0.06982 1.380073,0.329752 2.345333,1.923422 3.160472,2.897689 1.640812,1.949586 0.8902,4.190401 -1.684269,5.027534 -0.690035,0.223911 -1.440648,0.330278 -2.201795,0.330278"
       style="display:inline;fill:#75a754;fill-opacity:1;fill-rule:nonzero;stroke:none;stroke-width:0.131583"
       transform="matrix(1.0012367,0,0,1,-2.69946e-4,0)" />
    <path
       id="path62"
       d="m 60.029754,66.7641 c 0.429297,-0.537753 1.700071,-0.800713 2.150438,-0.398515 0.747978,0.571149 0.730859,6.138934 0.622876,6.150767 l -0.01053,0.0016 c -0.01317,0.277292 -0.169876,0.557213 -0.483289,0.789933 l -0.183045,0.118594 -0.202796,0.10479 c -0.874398,0.398516 -2.117517,0.367224 -2.78385,-0.03905 -0.362137,-0.222333 -0.488556,-0.515664 -0.42403,-0.813993 0.06716,-0.0027 0.790118,-5.11694 1.31423,-5.914104"
       style="display:inline;fill:#e6d9ce;fill-opacity:1;fill-rule:nonzero;stroke:none;stroke-width:0.131583"
       transform="matrix(1.0012367,0,0,1,-2.69946e-4,0)" />
    <path
       id="path63"
       d="m 58.895935,71.744433 c 0.316046,-1.51557 0.709789,-4.397877 1.133819,-4.980333 0.429297,-0.537753 1.700071,-0.800713 2.150438,-0.398515 0.491191,0.428887 0.753246,3.476463 0.671601,5.130745 -1.281309,0.376033 -2.736443,0.442825 -3.955858,0.248103"
       style="display:inline;fill:#a49387;fill-opacity:1;fill-rule:nonzero;stroke:none;stroke-width:0.131583"
       transform="matrix(1.0012367,0,0,1,-2.69946e-4,0)" />
    <path
       id="path64"
       d="m 58.2217,66.953695 c -1.725091,1.67992 -2.62846,2.291565 -0.892833,3.277666 1.690852,1.012396 5.463667,0.875657 7.355999,-0.761139 1.913403,-1.602872 1.057442,-2.767785 -0.809871,-3.807793 -0.954726,-0.532494 -2.096447,-1.483226 -2.970844,-1.220267 -0.86913,0.261909 -1.78435,1.688204 -2.682451,2.511533"
       style="display:inline;fill:#f98f07;fill-opacity:1;fill-rule:nonzero;stroke:none;stroke-width:0.131583"
       transform="matrix(1.0012367,0,0,1,-2.69946e-4,0)" />
    <path
       id="path65"
       d="M 75.124961,86.854383 75.281668,100.00239 0.30077418,56.780951 V 43.632947 L 75.124961,86.854383"
       style="display:inline;fill:#c5ed8c;fill-opacity:1;fill-rule:nonzero;stroke:none;stroke-width:0.131583"
       transform="matrix(1.0012367,0,0,1,-2.69946e-4,0)" />
    <path
       id="path66"
       d="M 75.124961,86.854383 75.281668,100.00239 149.79507,56.770565 V 43.62256 L 75.124961,86.854383"
       style="display:inline;fill:#7eaf46;fill-opacity:1;fill-rule:nonzero;stroke:none;stroke-width:0.131583"
       transform="matrix(1.0012367,0,0,1,-2.69946e-4,0)" />
    <path
       id="path67"
       d="m 75.281668,93.428385 v 6.574005 L 0.30077418,56.780951 V 50.20695 L 75.281668,93.428385"
       style="display:inline;fill:#9e7363;fill-opacity:1;fill-rule:nonzero;stroke:none;stroke-width:0.131583"
       transform="matrix(1.0012367,0,0,1,-2.69946e-4,0)" />
    <path
       id="path68"
       d="m 75.281668,93.428385 v 6.574005 L 149.79507,56.770565 V 50.196563 L 75.281668,93.428385"
       style="display:inline;fill:#75554a;fill-opacity:1;fill-rule:nonzero;stroke:none;stroke-width:0.131583"
       transform="matrix(1.0012367,0,0,1,-2.69946e-4,0)" />
    <path
       id="path69"
       d="m 101.1633,44.007797 c -2.27817,0.404696 -4.397004,1.339519 -6.023331,2.578192 -0.127735,-0.733922 0.04609,-2.603305 0.514894,-3.216002 -1.456451,0.487791 -2.379573,2.398459 -2.63636,3.280296 -1.710607,-1.302967 -3.966394,-2.266584 -6.384155,-2.653268 2.344017,1.124287 4.217914,2.688636 5.414942,4.466246 l 4.013801,-0.211682 c 1.135136,-1.674793 2.93792,-3.146187 5.100209,-4.243782"
       style="display:inline;fill:#c5ed8c;fill-opacity:1;fill-rule:nonzero;stroke:none;stroke-width:0.131583"
       transform="matrix(1.0012367,0,0,1,-2.69946e-4,0)" />
    <path
       id="path70"
       d="m 95.129435,47.661496 c -0.127737,-0.307663 -0.39506,-0.970191 -1.871263,-1.654282 0.624193,0.857775 0.004,1.317956 -0.250205,1.689782 -1.713239,-0.542882 -3.972977,-0.945605 -6.393372,-1.108377 2.347968,0.470435 4.228449,1.127836 5.434695,1.874642 l 4.013801,-0.104789 c 1.124601,-0.710256 2.922118,-1.338468 5.083089,-1.816135 -2.28212,0.184467 -4.395686,0.589163 -6.016745,1.119159"
       style="display:inline;fill:#8fc457;fill-opacity:1;fill-rule:nonzero;stroke:none;stroke-width:0.131583"
       transform="matrix(1.0012367,0,0,1,-2.69946e-4,0)" />
    <path
       id="path71"
       d="m 37.367849,58.812187 c 2.3427,0.811495 4.552397,1.965495 6.465801,3.326577 2.174141,0.222332 4.503672,0.258753 6.57905,0.08165 1.119333,-2.487866 2.924753,-4.659916 5.221363,-6.191396 -2.407226,0.494103 -4.628775,1.808903 -6.282755,3.616753 -0.304196,-1.246562 -1.237853,-2.310236 -2.728542,-3.021542 0.500408,0.875657 0.678185,1.86741 0.588638,2.903342 -1.700071,-1.77498 -3.888698,-3.125149 -6.209011,-3.726145 2.239984,1.582889 4.133634,3.686569 5.359634,6.075825 -2.646895,-1.687152 -5.948272,-2.826821 -8.994178,-3.065063"
       style="display:inline;fill:#c5ed8c;fill-opacity:1;fill-rule:nonzero;stroke:none;stroke-width:0.131583"
       transform="matrix(1.0012367,0,0,1,-2.69946e-4,0)" />
    <path
       id="path72"
       d="m 37.367849,58.812187 c 2.3427,0.811495 4.552397,1.965495 6.465801,3.326577 2.174141,0.222332 4.503672,0.258753 6.57905,0.08165 1.119333,-2.487866 2.924753,-4.659916 5.221363,-6.191396 -2.407226,0.494103 -4.628775,1.808903 -6.282755,3.616753 -0.304196,-1.246562 -1.237853,-2.310236 -2.728542,-3.021542 0.500408,0.875657 0.678185,1.86741 0.588638,2.903342 -1.700071,-1.77498 -3.888698,-3.125149 -6.209011,-3.726145 2.239984,1.582889 4.133634,3.686569 5.359634,6.075825 -2.646895,-1.687152 -5.948272,-2.826821 -8.994178,-3.065063"
       style="display:inline;fill:#c5ed8c;fill-opacity:1;fill-rule:nonzero;stroke:none;stroke-width:0.131583"
       transform="matrix(1.0012367,0,0,1,-2.69946e-4,0)" />
    <path
       id="path73"
       d="m 37.357315,59.875861 c 2.34665,0.569572 4.557665,1.365025 6.4737,2.293143 2.176776,0.172108 4.508941,0.219309 6.581685,0.120699 1.111432,-1.652178 2.911584,-3.085706 5.204244,-4.087715 -2.408543,0.309241 -4.632726,1.875169 -6.284073,3.066115 -0.302878,-0.833452 -0.27259,-1.846769 0.04082,-2.83287 -1.64608,0.639915 -2.091179,2.043989 -2.178092,2.735837 -1.702705,-1.201727 -2.939239,-1.796017 -5.661197,-3.844739 -0.130369,1.316378 2.407227,3.211006 4.527377,4.234052 -2.185993,-0.382607 -5.658562,-1.488354 -8.704467,-1.684522"
       style="display:inline;fill:#8fc457;fill-opacity:1;fill-rule:nonzero;stroke:none;stroke-width:0.131583"
       transform="matrix(1.0012367,0,0,1,-2.69946e-4,0)" />
    <path
       id="path74"
       d="m 84.89082,31.451453 c 2.280808,0.40062 4.398325,1.347671 6.012799,2.611062 0.13432,-0.758508 -0.02502,-2.690081 -0.488556,-3.324999 1.456451,0.491604 2.361136,2.463804 2.611341,3.369702 1.71719,-1.362002 3.983511,-2.386626 6.398634,-2.817486 -2.345329,1.190946 -4.233711,2.830372 -5.447859,4.674116 L 89.958111,35.791347 C 88.846678,34.072902 87.04916,32.571663 84.89082,31.451453"
       style="display:inline;fill:#c5ed8c;fill-opacity:1;fill-rule:nonzero;stroke:none;stroke-width:0.131583"
       transform="matrix(1.0012367,0,0,1,-2.69946e-4,0)" />
    <path
       id="path75"
       d="m 90.902303,35.171943 c 0.133003,-0.319496 0.408227,-1.004112 1.892332,-1.724623 -0.634728,0.89104 -0.02107,1.357926 0.229134,1.738034 1.719825,-0.57838 3.983513,-1.017523 6.398639,-1.213692 -2.345333,0.514088 -4.231081,1.212641 -5.445229,1.992186 l -4.019068,-0.06311 c -1.114066,-0.72314 -2.908951,-1.353324 -5.069924,-1.826389 2.282124,0.172107 4.400958,0.569045 6.014116,1.097594"
       style="display:inline;fill:#8fc457;fill-opacity:1;fill-rule:nonzero;stroke:none;stroke-width:0.131583"
       transform="matrix(1.0012367,0,0,1,-2.69946e-4,0)" />
    <path
       id="path76"
       d="m 59.759797,10.941618 c 2.340067,0.652272 4.555031,1.568557 6.471067,2.641434 2.171508,0.180259 4.50104,0.211551 6.571149,0.07652 1.103532,-1.959447 2.891832,-3.6778909 5.177908,-4.8976313 -2.401959,0.3995679 -4.61429,1.4436513 -6.255102,2.8715233 -0.308146,-0.983601 -1.244436,-1.8253369 -2.739076,-2.3878085 0.506992,0.6929004 0.691353,1.4766535 0.607074,2.2927485 -1.707972,-1.402628 -3.899233,-2.4714299 -6.216913,-2.9526469 2.239985,1.2557663 4.14417,2.9187259 5.380704,4.7990219 -2.652163,-1.332288 -5.956173,-2.239236 -8.996811,-2.443162"
       style="display:inline;fill:#c5ed8c;fill-opacity:1;fill-rule:nonzero;stroke:none;stroke-width:0.131583"
       transform="matrix(1.0012367,0,0,1,-2.69946e-4,0)" />
    <path
       id="path77"
       d="m 59.759797,10.941618 c 2.340067,0.652272 4.555031,1.568557 6.471067,2.641434 2.171508,0.180259 4.50104,0.211551 6.571149,0.07652 1.103532,-1.959447 2.891832,-3.6778909 5.177908,-4.8976313 -2.401959,0.3995679 -4.61429,1.4436513 -6.255102,2.8715233 -0.308146,-0.983601 -1.244436,-1.8253369 -2.739076,-2.3878085 0.506992,0.6929004 0.691353,1.4766535 0.607074,2.2927485 -1.707972,-1.402628 -3.899233,-2.4714299 -6.216913,-2.9526469 2.239985,1.2557663 4.14417,2.9187259 5.380704,4.7990219 -2.652163,-1.332288 -5.956173,-2.239236 -8.996811,-2.443162"
       style="display:inline;fill:#c5ed8c;fill-opacity:1;fill-rule:nonzero;stroke:none;stroke-width:0.131583"
       transform="matrix(1.0012367,0,0,1,-2.69946e-4,0)" />
    <path
       id="path78"
       d="m 59.754529,11.780328 c 2.345335,0.460706 4.557665,1.093915 6.476335,1.828888 2.171508,0.138185 4.50104,0.179207 6.571149,0.102686 1.098264,-1.29784 2.886565,-2.430802 5.170007,-3.228887 -2.399326,0.24955 -4.61429,1.489406 -6.252468,2.427253 -0.31078,-0.654902 -0.28576,-1.454563 0.0237,-2.234239 -1.640812,0.504883 -2.07406,1.612207 -2.15834,2.155088 -1.707971,-0.946525 -2.944507,-1.418537 -5.674365,-3.0399498 -0.122467,1.0375098 2.423029,2.5361178 4.54318,3.3449838 -2.184677,-0.306612 -5.655929,-1.187397 -8.699201,-1.355823"
       style="display:inline;fill:#8fc457;fill-opacity:1;fill-rule:nonzero;stroke:none;stroke-width:0.131583"
       transform="matrix(1.0012367,0,0,1,-2.69946e-4,0)" />
    <path
       id="path79"
       d="m 83.872885,73.922137 c -2.338749,0.718933 -4.557665,1.781555 -6.48687,3.060461 -2.163606,0.152517 -4.47997,0.116097 -6.540861,-0.123328 -1.057441,-2.498121 -2.806236,-4.708564 -5.064657,-6.305783 2.392741,0.578249 4.578735,1.95524 6.183991,3.79596 0.329216,-1.221318 1.277357,-2.236738 2.777265,-2.880859 -0.517527,0.840289 -0.71769,1.811532 -0.65053,2.834578 1.725091,-1.688204 3.924252,-2.937264 6.239299,-3.443068 -2.25052,1.469815 -4.174458,3.47081 -5.449181,5.786043 2.666649,-1.576183 5.969342,-2.588974 8.991544,-2.724004"
       style="display:inline;fill:#c5ed8c;fill-opacity:1;fill-rule:nonzero;stroke:none;stroke-width:0.131583"
       transform="matrix(1.0012367,0,0,1,-2.69946e-4,0)" />
    <path
       id="path80"
       d="m 83.872885,73.922137 c -2.338749,0.718933 -4.557665,1.781555 -6.48687,3.060461 -2.163606,0.152517 -4.47997,0.116097 -6.540861,-0.123328 -1.057441,-2.498121 -2.806236,-4.708564 -5.064657,-6.305783 2.392741,0.578249 4.578735,1.95524 6.183991,3.79596 0.329216,-1.221318 1.277357,-2.236738 2.777265,-2.880859 -0.517527,0.840289 -0.71769,1.811532 -0.65053,2.834578 1.725091,-1.688204 3.924252,-2.937264 6.239299,-3.443068 -2.25052,1.469815 -4.174458,3.47081 -5.449181,5.786043 2.666649,-1.576183 5.969342,-2.588974 8.991544,-2.724004"
       style="display:inline;fill:#c5ed8c;fill-opacity:1;fill-rule:nonzero;stroke:none;stroke-width:0.131583"
       transform="matrix(1.0012367,0,0,1,-2.69946e-4,0)" />
    <path
       id="path81"
       d="m 83.859717,74.962145 c -2.336117,0.484766 -4.552398,1.196073 -6.473702,2.050694 -2.163606,0.102817 -4.47997,0.07758 -6.543494,-0.0852 -1.06666,-1.672295 -2.823356,-3.151446 -5.087045,-4.221693 2.394058,0.389312 4.574785,2.012696 6.185308,3.244796 0.323949,-0.812416 0.316048,-1.815477 0.02633,-2.800525 1.622375,0.689218 2.029287,2.089218 2.103031,2.771862 1.718507,-1.126916 2.957676,-1.673872 5.702019,-3.589537 0.102716,1.292186 -2.458584,3.071242 -4.582686,4.011193 2.178093,-0.310292 5.645395,-1.285611 8.670231,-1.381591"
       style="display:inline;fill:#8fc457;fill-opacity:1;fill-rule:nonzero;stroke:none;stroke-width:0.131583"
       transform="matrix(1.0012367,0,0,1,-2.69946e-4,0)" />
    <path
       id="path82"
       d="m 32.771996,34.414882 c -2.307146,0.274793 -4.447048,1.109954 -6.085227,2.294195 -0.13432,-0.767712 0.03819,-2.686006 0.509627,-3.293576 -1.472254,0.417976 -2.395375,2.341924 -2.654797,3.235593 -1.731676,-1.443257 -4.017751,-2.574116 -6.463167,-3.113447 2.372988,1.302047 4.271906,3.032323 5.486054,4.941283 l 4.061207,0.0067 c 1.139087,-1.667167 2.962943,-3.07545 5.146303,-4.070753"
       style="display:inline;fill:#c5ed8c;fill-opacity:1;fill-rule:nonzero;stroke:none;stroke-width:0.131583"
       transform="matrix(1.0012367,0,0,1,-2.69946e-4,0)" />
    <path
       id="path83"
       d="m 26.678868,37.820083 c -0.13432,-0.326202 -0.404277,-1.024098 -1.900234,-1.818238 0.634728,0.924043 0.01449,1.363711 -0.242303,1.732907 -1.735627,-0.656348 -4.023018,-1.197651 -6.468434,-1.496111 2.374305,0.616379 4.277173,1.400131 5.496589,2.240289 l 4.061207,0.115571 c 1.133819,-0.671732 2.952408,-1.214613 5.133134,-1.578813 -2.307145,0.05653 -4.444415,0.349868 -6.079959,0.804395"
       style="display:inline;fill:#8fc457;fill-opacity:1;fill-rule:nonzero;stroke:none;stroke-width:0.131583"
       transform="matrix(1.0012367,0,0,1,-2.69946e-4,0)" />
    <path
       id="path84"
       d="m 140.70872,45.059637 c -2.30978,0.838712 -4.50367,2.020454 -6.40655,3.405202 -2.14517,0.243369 -4.44441,0.303456 -6.4895,0.148309 -1.05744,-2.486287 -2.8036,-4.650055 -5.05149,-6.170227 2.37168,0.474511 4.54713,1.776427 6.14712,3.575074 0.31868,-1.253136 1.25497,-2.332719 2.73381,-3.062039 -0.50436,0.884993 -0.69662,1.883847 -0.62551,2.923854 1.70007,-1.801146 3.87158,-3.180634 6.16293,-3.808714 -2.22419,1.61418 -4.11784,3.747181 -5.36491,6.156947 2.63373,-1.719495 5.89955,-2.899266 8.8941,-3.168406"
       style="display:inline;fill:#c5ed8c;fill-opacity:1;fill-rule:nonzero;stroke:none;stroke-width:0.131583"
       transform="matrix(1.0012367,0,0,1,-2.69946e-4,0)" />
    <path
       id="path85"
       d="m 140.70872,45.059637 c -2.30978,0.838712 -4.50367,2.020454 -6.40655,3.405202 -2.14517,0.243369 -4.44441,0.303456 -6.4895,0.148309 -1.05744,-2.486287 -2.8036,-4.650055 -5.05149,-6.170227 2.37168,0.474511 4.54713,1.776427 6.14712,3.575074 0.31868,-1.253136 1.25497,-2.332719 2.73381,-3.062039 -0.50436,0.884993 -0.69662,1.883847 -0.62551,2.923854 1.70007,-1.801146 3.87158,-3.180634 6.16293,-3.808714 -2.22419,1.61418 -4.11784,3.747181 -5.36491,6.156947 2.63373,-1.719495 5.89955,-2.899266 8.8941,-3.168406"
       style="display:inline;fill:#c5ed8c;fill-opacity:1;fill-rule:nonzero;stroke:none;stroke-width:0.131583"
       transform="matrix(1.0012367,0,0,1,-2.69946e-4,0)" />
    <path
       id="path86"
       d="m 140.70345,46.128439 c -2.30978,0.59429 -4.50104,1.414988 -6.40128,2.36664 -2.14517,0.193145 -4.44441,0.262961 -6.4895,0.185387 -1.06534,-1.643501 -2.81413,-3.066114 -5.06466,-4.050637 2.37167,0.287547 4.5445,1.837565 6.14713,3.017335 0.31604,-0.839236 0.30419,-1.85663 0.008,-2.846937 1.61579,0.628738 2.02665,2.034391 2.10171,2.727291 1.70007,-1.220398 2.92343,-1.833095 5.62959,-3.918238 0.11062,1.321507 -2.41512,3.251503 -4.51947,4.298215 2.16097,-0.406274 5.5914,-1.553042 8.58858,-1.779056"
       style="display:inline;fill:#8fc457;fill-opacity:1;fill-rule:nonzero;stroke:none;stroke-width:0.131583"
       transform="matrix(1.0012367,0,0,1,-2.69946e-4,0)" />
  </g>
  <metadata
     id="metadata1">
    <rdf:RDF>
      <cc:Work
         rdf:about="">
        <dc:title>isometric floor tile</dc:title>
      </cc:Work>
    </rdf:RDF>
  </metadata>
</svg>
